# FamiTracker text export 0.4.2

# INFO block
TITLE           "rondo of blood lmao"
AUTHOR          ""
COPYRIGHT       ""

# COMMENTS block
COMMENT ""

# PARAMS block
MACHINE         1
FRAMERATE       60
EXPANSION       0
VIBRATO         1
SPLIT           32
PLAYBACKRATE    0 19997

# SEQUENCES block
MACRO       0   0  -1   0   0 : 15 12 9 7
MACRO       0   1  -1  -1   0 : 8 4 2 0
MACRO       0   2  -1  -1   0 : 13 9 5 2 1 0
MACRO       0   3  -1  -1   0 : 12 10 8 7 6 5 5 4 3 3 2 2 2 1
MACRO       0   4  -1  -1   0 : 13 11 8 6 5 4 3 2 1 1 0
MACRO       0   5  -1  -1   0 : 9 8 7 6 6 5 5 4
MACRO       0   6  -1   3   0 : 1 2 4 8 4 2 1 0
MACRO       1   0   0  -1   3 : -128 -128 64 64 0 0
MACRO       1   1   0  -1   3 : 64 64 0 0
MACRO       1   2  -1  -1   0 : 12 0
MACRO       1   3  -1  -1   0 : -3 0
MACRO       1   4  -1  -1   0 : 9 15
MACRO       1   5  -1  -1   0 : -3 0
MACRO       1   6  -1  -1   0 : 6 12
MACRO       2   0   1  -1   0 : -1 49
MACRO       4   0  -1  -1   0 : 2 0
MACRO       4   1  -1  -1   0 : 1 0 0 0
MACRO       4   2  -1  -1   0 : 1 0

# DPCM SAMPLES block
DPCMDEF   0  3393 "A#"
DPCM : DC 01 18 60 00 C0 1F 61 CC 9F FD 39 E4 FE F3 7B FE C7 1F 02 18 00 E1 30 80 FF FF E0 FF FF FF 0F
DPCM : FC 3F E1 03 00 04 60 80 01 00 3E 00 00 7F F0 C7 18 FB 9F EF F9 3F 7E 18 70 00 DC E7 00 FE FF 83
DPCM : 3F FF FF 3F F0 FF 07 0F 00 10 80 01 06 00 F8 00 00 FC C1 1F 60 EC 7F 9C E7 FF 70 F0 FF 01 F0 FF
DPCM : 03 F8 FF 0F FC E0 FF FF C1 FF 0F 00 00 C0 01 0F 1C 00 C0 01 00 F0 0F FF 00 81 FF 01 CE FF 87 C2
DPCM : FF 0F E0 FF 1F E0 FF 7F F8 C7 FF FF 07 FF 0B 00 00 00 1F 7E 78 00 00 00 00 C0 3F FC 03 04 FE 0F
DPCM : 00 FF 1F 00 FF 3F 80 FF 7F C0 FF FF F1 BF FF FF 1F FC 0B 00 00 00 FC FF E1 01 00 00 00 00 7E E0
DPCM : 0F 00 F8 3F 00 FC 7F 00 FC FF 00 FE FF 03 FF FF CF FF FE FF 77 E0 47 00 00 00 F0 FF 8F 07 00 00
DPCM : 00 00 F0 80 3F 00 E0 FF 00 F0 FF 01 F0 FF 07 F8 FF 0F FC FF 7F FF F3 FF 57 81 4F 00 00 00 C0 FF
DPCM : FF 1F 00 00 00 00 00 03 7E 00 82 FF 03 C0 FF 07 E0 FF 1F E0 FF 3F F0 FF FF FF A7 FF 5D 05 5E 00
DPCM : 00 00 00 FF FF 7F 00 00 00 00 00 04 F8 03 04 FE 0F 00 FF 3F 00 FF 7F 80 FF FF E1 FF FF FF 1F FE
DPCM : 75 15 B8 00 00 00 00 FC FF FF 01 00 00 00 00 30 E0 0F 10 F8 3F 00 FC FF 00 FE FF 01 FE FF 87 FF
DPCM : FF FF 3F FC D5 55 C0 09 00 00 00 F0 FF FF 07 00 00 00 00 80 C0 3F 40 E0 FF 00 F0 FF 03 F8 FF 07
DPCM : F8 FF 3F FE FF 7F FF F0 57 55 01 2B 00 00 00 C0 FF FF 1F 00 00 00 00 00 05 FF 80 C2 FF 03 C0 FF
DPCM : 0F E0 FF 3F E0 FF FF F8 FF FF FA 87 5F 55 05 34 00 00 00 00 FF FF FF 00 00 00 00 00 88 FC 01 0B
DPCM : FF 0F 00 FF 3F 80 FF FF 80 FF FF F3 FF FF F3 0F 7D 55 15 50 02 00 00 00 FC FF FF 03 00 00 00 00
DPCM : A0 E8 07 AA FC 3F 00 FE FF 00 FE FF 03 FE FF CF FF FF 8F 3F EA 55 29 40 09 00 00 00 F0 FF FF 0F
DPCM : 00 00 00 00 40 A5 1F A8 EA FF 00 F8 FF 03 F8 FF 0F F8 FF 7F FE FF 3F FD 68 AB AA 00 0A 00 00 00
DPCM : C0 FF FF 7F 00 00 00 00 00 95 BE A0 AA FF 03 E0 FF 0F E0 FF 3F F0 FF FF F9 FF 7F F4 A3 AE 2A 02
DPCM : 28 00 00 00 00 FF FF FF 01 00 00 00 00 56 FA 82 96 FE 0F 80 FF 7F 80 FF FF C0 FF FF F3 FF FF B0
DPCM : 8F BA 2A 0A 80 00 00 00 00 FC FF FF 0F 00 00 00 00 58 E9 0B 55 FD 3F 00 FE FF 01 FC FF 07 FE FF
DPCM : 9F FF FF C3 9E EA 8A 8A 00 00 00 00 00 F0 FF FF 3F 00 00 00 00 68 55 57 54 F5 FF 00 F8 FF 07 F0
DPCM : FF 1F F8 FF 7F FF FF 0B BB AA AA A2 00 10 00 00 00 C0 FF FF FF 00 00 00 00 50 55 5D 51 D5 FF 03
DPCM : E0 FF 1F E0 FF 7F E0 FF FF F9 FF 4F EC AA AA A2 04 00 00 00 00 80 FF FF FF 07 00 00 00 00 55 75
DPCM : 15 55 FF 0F 40 FF 7F 80 FF FF 81 FF FF E7 FF 3F AA AB AA 28 05 00 00 00 00 00 FE FF FF 1F 00 00
DPCM : 00 00 55 D5 55 5A F5 3F 00 FF FF 01 FC FF 07 FF FF 9F FF AF AA BA AA 28 45 00 00 00 00 00 F8 FF
DPCM : FF FF 00 00 00 00 94 C5 55 55 D5 FF 00 FC FF 07 F0 FF 1F FC FF 7F FE BF AA AA AA AA 44 00 00 00
DPCM : 00 00 F0 FF FF FF 03 00 00 00 50 55 55 55 55 FF 03 F0 FF 1F E0 FF FF E0 FF FF F4 FF AA AC AA 2A
DPCM : 45 02 00 00 00 00 C0 FF FF FF 0F 00 00 00 20 55 55 53 55 FB 0F A0 FF 7F 80 FF FF 83 FF FF E7 FF
DPCM : AA B2 AA 2A 45 02 00 00 00 00 80 FF FF FF 7F 00 00 00 00 52 55 2D 55 ED 3F 80 FF FF 01 FC FF 0F
DPCM : FF FF 8F FF 55 55 AD 4A 45 22 00 00 00 00 00 FE FF FF FF 01 00 00 00 28 55 AD D2 6A FF 80 FA FF
DPCM : 07 F8 FF 3F FC FF 1F FD 57 55 55 55 45 22 02 00 00 00 00 F8 FF FF FF 0F 00 00 00 80 AA AA AA AA
DPCM : FF 02 EA FF 1F E0 FF FF F0 FF 7F F4 5F 55 55 55 45 22 02 00 00 00 00 F8 FF FF FF 1F 00 00 00 80
DPCM : A8 AA AA AA FE 0B A8 FF 7F 80 FF FF E3 FF FF D0 7F 55 55 55 45 8A 10 00 00 00 00 E0 FF FF FF 7F
DPCM : 00 00 00 80 28 AA AA AA FA 4F 88 FB FF 01 FE FF 4F FF FF 23 FF 55 55 55 45 89 04 00 00 00 00 A0
DPCM : FF FF FF FF 03 00 00 00 88 2A AA AA BA 5F A1 EA FF 07 FC FF 3F FC FF 8F FA 55 55 4D 55 89 04 01
DPCM : 00 00 00 80 FB FF FF FF 0F 00 00 00 20 AA A2 AA AE 7E 45 EA FF 0F E8 FF FF E8 FF 3F EA 57 55 55
DPCM : 55 89 42 00 00 00 00 A0 FA FF FF FF 3F 00 00 00 00 8A AA AA AA FA 15 A9 FF 3F A0 FF FF A3 FF FF
DPCM : A8 5F 55 55 55 2A 42 08 00 00 00 80 EA FF FF FF FF 00 00 00 00 A4 A8 AA AA EA 5D A4 FD FF 80 FF
DPCM : FF 27 FF FF A2 BE 55 55 95 2A 22 21 00 00 00 00 6A FF FF FF FF 03 00 00 00 44 AA A8 AA AA 77 51
DPCM : F5 FF 03 FD FF 9F FA FF 8B FA 56 55 95 2A 0A 11 00 00 00 00 5A FD FF FF FF 0F 40 00 00 00 A5 8A
DPCM : AA AA DB 15 D5 FF 0F F4 FF 7F EA FF 2F EA AB AA AA 2A 4A 04 02 00 00 00 58 FD FF FF FF 3F 00 00
DPCM : 00 00 51 AA E8 AA 6A 57 D4 FD 3F C4 FF FF A3 FF BF A8 BB AA AA 2A 4A 44 20 00 00 00 60 F5 FF FF
DPCM : FF FF 00 20 00 00 10 95 AA AA AA 5D 45 F7 FF 90 FD FF 8F FE FF A8 EE AA AA 8A 8A 44 08 00 00 00
DPCM : A0 75 FF FF FF FF 03 10 00 00 20 51 A9 AA AA 76 15 D7 FF 13 F5 FF 3F F6 FF AA BA AB AA 2A 4A 12
DPCM : 42 00 00 00 80 75 FD FF FF FF 0F 08 00 00 20 14 95 AA AA DA 55 D5 FF 4B F4 FF 7F D4 FF AB EA BA
DPCM : AA 2A 2A 4A 08 04 00 00 00 76 ED FF FF FF 3F 08 00 00 20 48 51 A9 AA 5A 57 55 FF AF D0 FF FF D1
DPCM : FD AF AA AE AB A8 8A 4A 08 01 00 00 00 DA F5 FF FF FF FF 00 10 00 00 88 54 54 55 55 57 55 FD BF
DPCM : A2 FE FF 47 F7 BF AA BA AA AA 2A 4A 24 10 00 00 00 D4 B5 FF FF FF FF 03 08 00 00 08 49 51 55 55
DPCM : 5D 55 F5 FF 8A FA FF 1F DD FF AA EA AA AA 2A 4A 11 42 00 00 00 50 D7 FE FF FF FF 0F 10 00 00 10
DPCM : 22 15 55 55 75 55 B5 FF 2B EA FF 7F 74 FF AD AC AE AA 2A 4A 91 10 08 00 00 40 DD EE FF FF FF 3F
DPCM : 20 10 00 00 22 4A 51 55 D5 B5 B4 FE AF A8 FF FF D1 FD 57 D5 BA AA 2A 2A 45 08 01 00 00 02 5D BB
DPCM : FF FF FF FF 20 10 00 00 84 28 15 55 55 D7 AA FA EF A2 FE FF 47 F7 5F 55 AB AB 8A 2A 45 22 10 00
DPCM : 00 08 71 EB FF FF FF FF 82 10 00 00 84 88 52 55 54 57 AB EA BF 8B EE FF 1F DD 7F 55 AD BA A4 2A
DPCM : 45 09 41 00 00 20 54 ED FE FF FF FF 0B 41 00 00 10 89 28 55 55 55 AD EA 7E 2F BA FF 7F 74 7F 57
DPCM : D5 AA AA 2A 45 89 10 04 00 80 50 B5 FB FF FF FF 2F 81 80 00 00 24 8A 52 55 55 AD AA FB BD AA FE
DPCM : FF D4 FD 5D 55 AB AA AA 14 25 44 40 00 00 42 B5 EE FF FF FF BF 90 40 00 00 42 A2 28 55 55 B5 AA
DPCM : EE F7 AA FA FF 55 F7 D7 55 B5 AA AA 14 25 12 04 01 00 88 D4 6E FF FF FF FF 12 42 00 01 40 88 A2
DPCM : 52 55 D5 AA AE F7 AE DA FF 57 DD 6F 5D D5 AA 2A 55 A4 08 21 00 00 21 51 BB FD FF FF FF 4B 08 01
DPCM : 04 00 91 28 AA 54 D5 AA BA 7E BB 6A FF 5F 75 BF 75 55 AD 2A 55 94 48 04 02 00 84 48 BB DE FF FF
DPCM : FF 4F 21 02 04 00 42 8A A2 4A 55 AB BA 7A EF AA FD 7F D5 BD 57 5D D5 52 55 94 22 41 08 00 10 A2
DPCM : EC 6E FF FF FF 3F 85 08 01 00 42 24 8A AA AA AA BA BA BD AB F6 FF 55 F7 5E 75 55 55 55 51 8A 10
DPCM : 42 00 40 88 AA BB F7 FF FF 7F 15 22 04 04 80 90 A2 A8 AA AA BA EA F6 AE DA FF 57 DD BB 55 57 55
DPCM : 55 51 8A 44 08 01 00 21 A9 6E FF FF FF 7F 55 88 08 10 00 12 29 8A AA AA DA AA 7D BB EA FE 5F 75
DPCM : EF 56 75 55 55 51 29 12 84 00 40 84 A4 BA FD FF FF FF 55 11 12 10 00 22 94 A8 A8 AA EA AA 6E EF
DPCM : AA F7 7F D5 BD 5B 55 57 55 45 25 0A 11 02 00 91 88 BA DB FF FF FF 5D 51 48 20 00 82 44 8A 8A AA
DPCM : EA AA B6 BD AB F6 FF 55 B7 AF 55 5D 55 51 A5 48 84 10 00 44 22 EA 6E FF FF FF 77 45 09 21 10 00
DPCM : 12 A5 A8 A2 AA AB BA F6 AE 76 FF 5B DD DE 56 D5 55 51 A5 28 11 42 00 10 89 A8 DB FD FF FF 5F 17
DPCM : 25 42 20 00 22 91 A2 2A AA AB EA DA BB DA FD 6F 75 BB 6B 55 55 55 95 22 12 09 01 40 24 8A 6B F7
DPCM : FF FF BF 55 95 08 81 00 82 44 29 AA A2 AB EA EA ED EA F6 BF D5 ED AE 56 55 55 95 A2 44 84 00 08
DPCM : 91 A8 AA 7B FF FF FF 56 95 22 84 10 80 48 A4 A2 AA AA 6A 6B B7 AB DD FF 5A B7 BB 5A 55 55 55 8A
DPCM : 12 21 02 20 44 A2 AA DB FD FF FF 6B 55 8A 10 42 00 22 51 8A AA AA AA AB DD AE 6E FF 6B DD AE AB
DPCM : 55 55 55 8A 22 91 08 80 10 89 AA 6E F7 FF FF BB 55 29 12 04 01 22 12 A9 A2 AA AA AB 76 EB BA FD
DPCM : B7 75 BD AE 5A 55 55 2A 8A 44 42 00 42 24 AA D6 DD FF FF EF 56 A5 48 10 02 88 48 94 8A AA AA AE
DPCM : DA AD 6B F7 DF D6 B6 BB AA 55 55 AA 48 11 21 01 08 91 A2 5A F7 FE FF BF 6B 95 22 11 48 00 22 45
DPCM : AA A8 AA AE 5A B7 AD DB BF 5B DB AE AB 5A 55 AA 28 52 88 04 20 44 8A EA DA FB FF BF BB 55 8A 48
DPCM : 08 01 22 12 A5 8A AA AE 6A DD B6 6E FF 6E 75 BB AE 6A 55 A9 A2 48 24 12 80 10 A9 E8 DA ED FF FF
DPCM : EE 5A 2A 22 21 02 88 48 51 AA A8 BA AA 75 EB BA ED BF D6 ED DA AA AA AA A2 14 91 08 20 42 A4 92
DPCM : 6D B7 FF FF BB AB AA 88 84 48 00 A2 44 A9 AA AA AA D6 AD EB B6 FF 5A B7 AB AB AA AA 8A 62 44 42
DPCM : 80 08 51 AA CA DD FE FF F7 BA AA 22 12 21 01 22 52 94 AA AA AA 56 B7 AE DB FD 6B DD BA BA AA AA
DPCM : 8A 8A 14 09 01 22 44 A9 AA 76 EF FF DF EE AA 8A 48 84 04 88 48 51 A9 AA AA 5A DD BA 6D F7 AF 75
DPCM : ED EA AA AA 8A 4A 12 89 04 88 10 A5 AA D6 BD FF 7F BB AE 8A 22 91 10 20 92 14 A5 AA AA 6A 75 EB
DPCM : B6 DD EF D6 B5 AB AE AA 2A 2A 45 24 12 20 48 94 AA 5A F7 FE FF ED BA 2A 8A 42 22 40 22 52 54 AA
DPCM : AA 6A 75 ED DA 76 BF 6B D7 BA BA AA 2A AA 48 91 48 80 20 45 A9 72 B7 FB FF BD EE AA 28 12 89 04
DPCM : 88 28 51 A5 AA 6A D5 B5 6B DB FD AE 75 EB AA AB 2A AA 28 45 22 01 22 14 A5 6A DD EE FF 77 BB AE
DPCM : A2 28 24 12 40 8A 14 55 AA AA 55 D7 AE 6D F7 BB D6 6D AB BA 2A AA 52 44 89 04 88 50 54 AA 75 BB
DPCM : FF DF ED BA A2 A2 84 48 40 28 52 51 A5 CA 55 5D BB B6 DD EF 5A B7 B6 AA 2B AA A2 11 49 04 24 48
DPCM : 51 A9 D6 ED BE FF B7 AD A6 8A 12 11 01 89 28 45 55 CA 55 75 ED DA 76 BF 6B 5D EB AA 9A AA 8A 52
DPCM : 24 12 90 88 44 55 55 B7 FB FE DF BA AA 2A 46 24 14 20 92 14 55 55 55 75 B5 6B DB FD AE 75 AD AB
DPCM : AA AA 4A 4A 91 48 40 22 12 55 55 D7 EE FB DF ED AA AA 28 91 48 80 28 4A 51 55 55 D5 B5 AE 6D F7
DPCM : EB D6 B5 BA AA AA 2A 19 51 22 01 89 48 51 55 5D 7B EF 7F B7 AB AA 52 44 22 01 89 28 15 55 55 55
DPCM : D7 BA D6 DD AF 5B D7 EA AA AA 2A 29 45 89 04 24 22 45 55 75 ED BD FF DD BA AA 4A 11 89 04 24 8A
DPCM : 54 54 55 55 57 EB 5A 77 BF AE 75 AB AE AA AA A8 14 25 12 10 8A 14 55 D5 ED 76 FF 77 EB AA 8A 4A
DPCM : 24 12 90 28 4A 45 55 55 5D AD 6B DB FD BA D6 B5 BA AA AA A8 51 24 49 40 22 52 54 D5 B5 DB FD EF
DPCM : B5 AE 2A 1A 91 48 01 A2 28 15 55 55 5D B5 AE 75 F7 ED 5A D7 AA AB AA A2 52 91 28 01 91 48 45 55
DPCM : D7 6E F7 BF DD B6 AA 68 44 A2 04 24 8A 52 51 55 75 D5 BA D6 ED B7 6B 5D AB AE AA 92 4A 51 22 05
DPCM : 24 22 15 55 5D BB DB FF 76 AB AB A2 11 29 12 90 28 4A 15 55 D5 55 EB 5A B7 DF AE 75 B5 EA AA A2
DPCM : 1A 45 89 14 A0 88 52 51 5D ED 6E FF DB B5 AE A2 52 A4 48 40 A2 A8 54 51 D5 55 AD 6B 5D 7F BB D6
DPCM : D5 AA AE 8A 2A 15 25 52 80 22 4A 15 5D AD BB FD 6F D7 AA A3 4A 51 22 01 25 8A 2A 55 55 B5 EA DA
DPCM : 5C F7 AD AE 56 75 55 55 51 95 8A 52 01 95 8A AA AA DA 5A DD B7 AE 6A 55 AA 8A 4A 05 45 55 AA AA
DPCM : AA AA CA 55 75 55 5F B5 AA AA AE 2A AA AA 2A 55 05 55 54 55 55 55 D5 55 5F D5 AA AA AA 4A 55 15
DPCM : 54 55 51 55 55 55 55 57 55 55 7D 55 55 55 55 55 55 55 55 55 05 55 55 55 55 55 55 55 7D 55 55 55
DPCM : 55 55 55 55 50 55 55 55 55 55 55 55 55 55 F5 55 55 55 55 55 55 55 55 55 15 54 55 55 55 55 55 55
DPCM : D5 57 55 55 55 55 55 55 41 55 55 55 55 55 55 55 55 55 95 5F 55 55 55 55 55 55 55 55 55 50 55 55
DPCM : 55 55 55 55 55 5F 55 55 55 55 55 55 41 55 55 55 55 55 55 55 55 55 55 F9 55 55 55 55 55 55 55 55
DPCM : 55 50 55 55 55 55 55 55 55 F5 55 55 55 55 55 55 41 55 55 55 55 55 55 55 55 55 55 55 7E 55 55 55
DPCM : 55 55 55 55 15 54 55 55 55 55 55 55 55 55 7D 55 55 55 55 55 50 55 55 55 55 55 55 55 55 55 55 55
DPCM : 55
DPCMDEF   1  3201 "B"
DPCM : DC 00 0C 18 00 F8 23 C4 FC ED CF 91 FB EF F3 FE C7 17 01 06 60 0C 06 D8 7F 07 FF FF FF 1F F8 FF
DPCM : F1 01 00 01 08 10 00 E0 03 00 F8 C1 9F 11 F7 CF F7 FC 8F 1F 03 0E C0 7D 0F F8 FF 0F 7E F4 FF 3F
DPCM : F8 FF C1 01 00 02 18 30 00 C0 03 00 F8 83 1F 20 F6 1F E7 FD 1F 0E FF 0F C0 FF 0F F0 FF 0F FC F0
DPCM : FF 7F F0 FF 01 00 00 0E 78 70 00 00 01 00 F8 87 3F 40 E0 3F C0 F9 3F 1C FE 3F 80 FF 1F E0 FF 3F
DPCM : FE FB FF FF E0 BF 00 00 00 7C F8 70 00 00 00 00 F0 07 7F 40 E0 7F 00 F8 7F 00 FE 7F 80 FF 3F E0
DPCM : FF 7F FE FF FF FF E0 2F 00 00 00 F8 FF F1 00 00 00 00 80 07 7E 00 E0 FF 00 F0 FF 00 FC 7F 80 FF
DPCM : 7F E0 FF FF FE EF FF FF C1 17 00 00 00 F8 FF E3 01 00 00 00 00 07 FC 00 C0 FF 01 F0 FF 00 FC FF
DPCM : 00 FF FF E0 FF FF FF CF FF 5F 83 0F 00 00 00 F0 FF FF 01 00 00 00 00 04 FC 00 80 FF 01 E0 FF 01
DPCM : F8 FF 01 FF FF C1 FF FF FF DF FF AE 02 2F 00 00 00 E0 FF FF 03 00 00 00 00 00 F8 01 82 FF 03 E0
DPCM : FF 03 F8 FF 03 FE FF C3 FF FF FF 8F FF AE 02 17 00 00 00 E0 FF FF 03 00 00 00 00 10 F8 03 04 FF
DPCM : 07 C0 FF 07 F0 FF 07 FC FF 87 FF FF FF 3F 7F 5D 05 1A 00 00 00 C0 FF FF 07 00 00 00 00 20 F8 03
DPCM : 04 FF 07 C0 FF 07 F0 FF 0F FC FF 8F FF FF FF 1F 7E 55 05 AC 00 00 00 C0 FF FF 0F 00 00 00 00 00
DPCM : F0 07 0C FE 0F 80 FF 0F E0 FF 0F FC FF 1F FF FF FF 1F FD AA 0A A8 00 00 00 80 FF FF 1F 00 00 00
DPCM : 00 00 E8 0F 14 FE 0F 80 FF 1F C0 FF 1F F8 FF BF FF FF 9F 3F FC AA 0A B0 00 00 00 00 FF FF 3F 00
DPCM : 00 00 00 80 D0 0F 54 FE 1F 00 FF 3F C0 FF 3F F0 FF 7F FE FF 5F 3F B5 AB 14 A0 00 00 00 00 FF FF
DPCM : 7F 00 00 00 00 00 D2 0F 54 FD 3F 00 FE 3F 80 FF 7F F0 FF FF FC FF BF 7E 74 55 15 40 01 00 00 00
DPCM : FE FF FF 00 00 00 00 00 52 1F 54 F5 3F 00 FF 7F 80 FF 7F E0 FF FF FE FF 9F 7E D4 55 45 00 01 00
DPCM : 00 00 FE FF FF 01 00 00 00 00 4A 1F B2 F4 7F 00 FE FF 00 FF FF C0 FF FF FB FF 3F BE D4 55 51 00
DPCM : 04 00 00 00 FC FF FF 03 00 00 00 00 2A 9F A8 EA FF 00 FC FF 00 FF FF C1 FF FF FB FF 1F DE D4 16
DPCM : 95 00 00 00 00 00 FC FF FF 07 00 00 00 00 AA 6E A8 EA FF 00 FC FF 01 FE FF 81 FF FF FF FF 1F 75
DPCM : 55 55 45 00 08 00 00 00 F8 FF FF 0F 00 00 00 00 AA BA A2 EA FF 01 F8 FF 03 FC FF 83 FF FF F7 FF
DPCM : 1F 79 55 55 51 00 10 00 00 00 F8 FF FF 0F 00 00 00 00 AA BA A2 EA FF 01 F8 FF 03 FC FF 07 FF FF
DPCM : EF FF 1F D5 55 15 A5 00 00 00 00 00 F0 FF FF 3F 00 00 00 00 AA BA 8A AB FE 03 F8 FF 07 F8 FF 0F
DPCM : FE FF DF FF 57 55 57 45 25 02 00 00 00 00 F0 FF FF 7F 00 00 00 00 B2 B8 AA AA FE 03 F8 FF 0F F0
DPCM : FF 0F FE FF DF FF 57 55 55 55 29 04 00 00 00 00 F0 FF FF 7F 00 00 00 00 AA AA AA AA FE 07 D0 FF
DPCM : 0F F0 FF 3F FC FF BF FF 57 65 55 55 8A 08 00 00 00 00 E0 FF FF FF 01 00 00 00 A8 AA A6 AA FE 07
DPCM : D0 FF 1F F0 FF 3F FC FF 3F FF 57 A5 55 55 22 01 00 00 00 00 E0 FF FF FF 03 00 00 00 A4 AA 96 AA
DPCM : FE 07 A8 FF 3F E0 FF 7F F8 FF 3F FF AB AA 56 A5 28 01 00 00 00 00 E0 FF FF FF 07 00 00 00 90 AA
DPCM : 56 5A F5 1F 50 FF 3F E0 FF FF F0 FF 7F FE AB AA AA AA 48 04 00 00 00 00 E0 FF FF FF 0F 00 00 00
DPCM : 40 55 55 55 F5 1F 50 FF 7F C0 FF FF F0 FF 7F FA AF AA AA AA 10 09 00 00 00 00 E0 FF FF FF 1F 00
DPCM : 00 00 00 55 55 55 F5 1F 50 FF 7F C0 FF FF F1 FF 3F FA AF AA AA 2A 12 09 00 00 00 00 E0 FF FF FF
DPCM : 1F 00 00 00 40 51 55 55 F5 1F 42 FF FF 80 FF FF E9 FF 7F F8 AF AA AA 8A 12 21 00 00 00 00 E0 FF
DPCM : FF FF 3F 00 00 00 00 55 54 55 5D BF 50 FD FF 80 FF FF E3 FF 7F F4 AB AA 8E AA 44 82 00 00 00 00
DPCM : E0 FF FF FF 7F 00 00 00 00 54 45 55 57 BF 48 FD FF 01 FF FF C7 FF 7F D4 AF AA AA AA 44 02 00 00
DPCM : 00 00 D4 FF FF FF 7F 00 00 00 00 45 55 55 55 BF 42 FD FF 01 FF FF C7 FF 7F D1 AF AA AA 4A 45 08
DPCM : 00 00 00 00 D4 FF FF FF FF 00 00 00 00 14 55 55 55 EF 22 ED FF 03 FF FF 8F FF 7F D1 BD AA AA 52
DPCM : 11 09 00 00 00 00 D4 FF FF FF FF 01 00 00 00 50 45 55 55 FB 8A EA FF 07 FA FF 9F FD FF 51 EF AA
DPCM : AA 54 11 21 00 00 00 00 AC FE FF FF FF 03 00 00 00 48 15 55 55 F7 8A EA FF 07 FA FF 5F FD FF 51
DPCM : 5F 55 55 55 14 22 00 00 00 00 AC FB FF FF FF 07 00 00 00 A0 54 D1 55 B5 2B EA FF 87 F8 FF 3F FD
DPCM : FF 51 77 55 55 15 15 22 00 00 00 00 AC FB FF FF FF 07 40 00 00 80 4A 55 55 B5 AB E8 FF 17 EA FF
DPCM : 3F FD FF 51 7D 55 55 45 25 42 00 00 00 00 AC FB FF FF FF 0F 00 00 00 20 2A 55 55 D5 AB B8 FE 1F
DPCM : EA FF 7F FC 7F 55 DD 55 55 45 51 08 01 00 00 00 EC FA FF FF FF 0F 10 00 00 80 A2 52 55 D5 AD AA
DPCM : FE 1F E9 FF 7F EA FF 55 75 57 55 51 51 02 01 00 00 00 EC FA FF FF FF 1F 00 00 00 10 8A 4A 55 D5
DPCM : AE AA FE 5F E8 FF 7F EA FF 55 75 5D 45 55 94 08 01 00 00 00 EC F6 FF FF FF 1F 20 00 00 00 A9 A8
DPCM : AA AA AE AA FE 5F E4 FF FF E8 FF 55 D5 55 55 55 94 08 02 00 00 00 EA F6 FF FF FF 3F 00 04 00 00
DPCM : A4 A2 AA AA AE AA F6 7F 51 FF FF E9 FF 55 D5 55 55 15 A5 10 02 00 00 00 EA F6 FF FF FF 3F 10 00
DPCM : 00 00 91 8A AA AA AE AA ED 7F 51 FF FF 69 FF 5B 59 57 55 15 A5 10 02 00 00 00 EA F6 FF FF FF BF
DPCM : 00 04 00 00 44 29 AA AA AE A5 F5 7F 51 FF FF A9 FF AB 5A 57 55 45 25 12 08 00 00 80 E8 F6 FF FF
DPCM : FF 7F 40 00 00 00 11 A5 A2 AA AE 56 F5 7F 49 F7 FF A7 FF AE 6A 5D 55 54 29 12 02 08 00 00 E8 F6
DPCM : FE FF FF FF 08 08 00 00 44 94 AA A8 AE 55 F5 FD 45 F7 FF A7 FB AF AA D5 45 55 29 12 02 01 00 00
DPCM : AA 76 FF FF FF FF 02 01 00 00 12 51 AA AA AA 56 75 7F 47 F7 FF A7 FB BB AA 56 55 55 8A 42 08 01
DPCM : 00 00 AA 76 FF FF FF FF 41 10 00 00 48 44 A9 AA AA 55 75 7F 57 F6 FF A7 FE BD AA 56 55 55 8A 44
DPCM : 08 02 00 00 A9 76 FF FF FF FF 21 04 10 00 20 11 A5 AA AA 56 75 EF 57 F5 FF AB DE EF AA 5A 55 55
DPCM : 8A 44 02 01 00 40 A8 76 FF FF FF FF 09 21 00 00 08 45 94 AA AA 56 75 FB 5D B5 FF AF EE B7 AB 6A
DPCM : 55 A5 A2 44 08 01 00 10 A4 76 EF FF FF FF 8B 10 80 00 20 14 51 A5 AA 56 75 FB 5D D5 FF AF EE BD
DPCM : AE 6A 55 A5 A2 44 02 01 00 10 91 76 EF FF FF FF 2B 04 01 00 10 12 45 95 AA 55 5D BD 77 D5 FF AF
DPCM : 6E DF EA AA 96 AA A2 44 02 21 00 00 91 76 F7 FF FF FF 2B 42 80 00 80 48 14 55 55 55 57 ED 77 D5
DPCM : FB BF BA DF AA AB AA AA A2 44 08 21 00 40 50 75 FB FF FF FF 2B 42 08 00 10 22 51 54 55 55 57 ED
DPCM : DB D5 FE BF BA 7D AB AE AA AA 28 45 08 21 00 40 44 75 FB FF FF FF 2B 12 02 02 00 21 45 51 55 55
DPCM : 57 DD DB D5 FE BF EA 7D AD BA AA AA 28 45 08 21 00 20 44 75 FB FF FF FF AB 08 11 20 00 84 12 15
DPCM : 55 55 57 DD DE 55 DF FF EA DE AD EA AA 2A 2A 45 82 20 00 20 11 75 7B FF FF FF AF 48 08 08 00 21
DPCM : 52 54 54 55 57 5D 6F 57 F7 FF EA F6 B5 AA AB 8A 2A 51 88 10 00 20 11 75 B7 FF FF FF AF 48 84 80
DPCM : 00 90 48 51 51 D5 55 5D 6F 57 FB 7F EB 7A D7 AA AE 8A 2A 51 88 10 00 08 51 74 B7 FF FF FF BB 48
DPCM : 24 10 00 44 22 45 15 D5 55 5D 7B 57 77 FF AB DB D7 AA AA AA 4A 91 88 10 00 84 44 71 B7 FF FF FF
DPCM : AB 2A 11 02 02 10 A2 44 55 74 55 5D BB 5D B7 FF AD DB 5D AB AA AA 4A 11 89 10 00 84 44 55 B7 FB
DPCM : FF FF AF 2A 91 40 08 00 89 54 54 55 55 5D BB 5D EB FF AD EE 75 AD AA AA 4A 91 84 90 00 20 12 55
DPCM : B7 FB FF FF B7 2A 85 20 08 40 24 52 52 55 55 5D EB 5D ED FD B7 6E 77 B5 AA AA 52 11 89 84 00 20
DPCM : 12 55 DB FB FF FF B7 AA 44 08 21 00 91 48 45 55 55 57 EB 76 DD FE B7 B6 D7 D5 AA AA 52 91 84 84
DPCM : 00 10 52 54 D7 7E FF FF DF 2A 45 82 20 00 91 28 15 55 55 57 EE 76 ED FE D7 BA DD 55 AD AA 54 11
DPCM : 89 84 00 84 48 54 DD DE FF FF 5F AB 44 24 84 00 44 A2 54 54 D5 55 ED 76 AD F7 DF BA 5D 57 B5 AA
DPCM : 54 14 85 44 00 84 48 51 ED DE FF FF 77 AD 14 09 42 00 11 89 52 49 D5 55 EE D6 75 FB 5F EB 76 5D
DPCM : B5 AA 54 11 29 44 00 41 28 45 D7 EE FF FF DD 35 15 91 10 02 10 29 52 15 D5 55 AE DB B5 FB 77 EB
DPCM : 76 5D 55 55 55 14 29 44 02 40 22 15 DB EE FD FF DF 55 15 89 10 01 44 24 4A 55 55 55 AD DB B5 DB
DPCM : 7F ED DA 75 55 55 55 14 23 42 02 10 A2 54 D5 6E FF FF 77 57 15 25 48 08 40 94 28 55 55 55 AE DB
DPCM : B5 EE 7F AD DB D5 55 55 55 14 25 12 02 10 89 54 D5 6E FF FF 7B 5B 55 44 42 04 10 91 A2 54 55 55
DPCM : AB 5B B7 ED DF B5 6B 57 57 55 15 15 23 12 02 04 89 52 D5 7A DF FF DF 5D 55 44 22 24 40 44 8A 52
DPCM : 55 55 AD 6B D7 6D FF B5 6E 57 5B 55 15 15 25 12 02 04 89 52 D5 BA F7 FF EF 76 55 94 08 11 40 44
DPCM : 8A 4A 55 55 AB 6B D7 BA 7F D7 AE 5D 75 55 15 95 22 12 09 40 24 4A D5 BA F7 FF 6F D7 55 14 89 90
DPCM : 00 11 29 2A 55 55 AB 6E DD BA 7F D7 BA 75 B5 55 45 95 22 12 09 40 24 4A D5 BA FD FE BF DD 56 14
DPCM : 85 44 80 48 A4 A8 54 55 AB AE 5D B7 FB DD BA 6D 55 57 45 15 23 12 09 10 A4 28 D5 BA BD FF BF 5D
DPCM : 57 54 22 42 02 44 94 A2 4A D5 AA AE 5D B7 FB 5D BB D6 55 5D 51 95 22 12 09 10 91 A8 D4 BA DD FF
DPCM : EF 76 35 55 24 12 01 12 91 A2 2A D5 AA AE 5D EB F6 77 EB B6 55 55 55 15 23 12 09 08 91 A2 AA BA
DPCM : DD FB FF 76 55 55 94 10 09 10 51 8A AA AA AA AE 75 DB EE 77 ED 5A 57 55 55 25 23 4A 24 40 90 A2
DPCM : AA BA F6 FE BF DB 55 55 8C 48 08 48 44 29 AA AA AA AE 75 DD FA 77 AD 5B 5D 55 55 25 25 4A 24 40
DPCM : 44 8A AA BA F6 FE DF 5B 57 55 94 48 24 80 14 A9 A8 AA AA AE 76 AD DB DF AD 6B 75 55 55 45 A3 48
DPCM : 24 40 44 8A AA EA 76 EF FF 6E 57 55 91 22 21 20 11 A5 A2 AA AA AE 76 AD BB DF B5 6E 6D 55 55 45
DPCM : A5 48 24 20 44 89 AA BA 76 FB FF 6E 5D 55 31 22 91 00 51 94 8A AA AA AE D6 75 BB 5F B7 AE D5 55
DPCM : 55 45 A3 48 24 20 11 29 AA EA 76 7B FF BB 75 55 49 22 91 80 44 94 8A AA AA AE D6 75 6B 7F D7 BA
DPCM : 56 57 55 49 A3 48 A4 00 11 A9 A8 EA D6 BB FF BB D6 55 51 8A 44 02 14 51 2A AA AA AE D6 B5 EE 7E
DPCM : D7 BA 56 5D 55 49 A5 48 91 00 91 A4 A2 EA DA BD FF ED B6 55 D1 88 44 02 12 45 A9 A8 AA AE D6 B5
DPCM : AD BF 5D EB 5A 75 55 51 A3 48 91 80 44 A4 A2 BA DA ED FD EF 5A 57 A9 88 14 09 48 44 A5 8A AA AB
DPCM : 5A B7 AD FD 5D EB 5A D5 55 54 A3 28 91 80 44 94 8A BA DA DD FB B7 5B 75 54 29 12 09 48 51 54 AA
DPCM : AA 5A 75 5D AB FB D6 D5 AA AE AA 8A 2A 15 A5 02 2A 49 55 55 6D AE FB D6 55 AD 52 15 95 2A 88 AA
DPCM : 54 55 55 55 B5 AA AE F2 AB 56 55 75 55 51 55 95 AA 82 2A AA AA AA AA AE FA AA 56 55 55 95 AA 2A
DPCM : A8 AA A8 AA AA AA EA AA AA EA AB AA AA AA AA AA AA AA AA 82 AA AA AA AA AA AA EA AB AA AA AA AA
DPCM : AA 2A A8 AA AA AA AA AA AA AA AA EA AB AA AA AA AA AA AA AA AA 82 AA AA AA AA AA AA EA AB AA AA
DPCM : AA AA AA 2A A8 AA AA AA AA AA AA AA AA AA AF AA AA AA AA AA AA AA AA 82 AA AA AA AA AA AA AA AF
DPCM : AA AA AA AA AA 2A A8 AA AA AA AA AA AA AA AA AA BE AA AA AA AA AA AA AA AA A0 AA AA AA AA AA AA
DPCM : AA FC AA AA AA AA AA 0A AA AA AA AA AA AA AA AA AA AA CA AF AA AA AA AA AA AA 2A A8 AA AA AA AA
DPCM : AA AA AA CA AF AA AA AA AA A0 AA AA AA AA AA AA AA AA AA AA AA AA AF AA AA AA AA 2A A8 AA AA AA
DPCM : 55
DPCMDEF   2  3009 "C"
DPCM : DC 00 02 04 00 7E C4 CC CF 7E 47 EC 9F FF FD C7 8F 00 03 18 C3 00 FB 77 F0 FF FF 7F F0 FF F3 03
DPCM : 80 00 06 04 00 3C 00 80 0F 7E 06 EC BF EF FD 8F 8F 81 03 B8 CF 01 FF 7F F0 E3 FF FF F0 FF C1 01
DPCM : 00 01 06 0C 00 38 00 80 1F FE 00 C8 3F CF FD 0F 87 FF 03 F0 FF 01 FF 7F F0 E3 FF FF E0 FF 00 00
DPCM : 00 03 0E 0C 00 30 00 C0 1F FC 80 C0 7F C0 FD 1F 86 FF 07 F0 FF 03 FF FF F0 FF FF FF E1 BF 00 00
DPCM : 00 0F 1F 0E 00 00 00 80 1F FC 80 C0 7F 00 FC 3F 80 FF 0F F0 FF 03 FF FF F9 FF FF FF E1 2F 00 00
DPCM : 00 7F 3F 0E 00 00 00 00 0E F8 01 C0 FF 00 F8 3F 80 FF 0F F0 FF 07 FF FF FF DF FF FF C1 47 00 00
DPCM : 00 FE 3F 1E 00 00 00 00 18 F8 01 C0 FF 00 F8 3F 80 FF 1F F0 FF 07 FF FF FF BF FF BF C1 07 00 00
DPCM : 00 FE FF 1F 00 00 00 00 00 F0 01 C0 FF 00 F8 7F 00 FF 1F F0 FF 0F FF FF FF FF FF AE 82 0B 00 00
DPCM : 00 FE FF 1F 00 00 00 00 00 F0 01 80 FF 01 F8 7F 00 FF 3F F0 FF 0F FF FF FF BF FF AE 82 05 00 00
DPCM : 00 FC FF 3F 00 00 00 00 00 F0 01 82 FF 01 F8 FF 00 FF 3F E0 FF 1F FF FF FF BF BF AE 02 13 00 00
DPCM : 00 FC FF 3F 00 00 00 00 00 F0 03 80 FF 01 F8 FF 00 FF 7F E0 FF 3F FE FF FF 3F BF AA 02 0D 00 00
DPCM : 00 FC FF 3F 00 00 00 00 00 F0 03 86 FF 01 F8 FF 00 FE 7F E0 FF 7F FF FF FF 1F BF AA 02 06 00 00
DPCM : 00 FC FF 7F 00 00 00 00 00 F0 03 85 FF 03 F0 FF 01 FE 7F E0 FF FF FE FF FF 0F BF AA 02 0A 00 00
DPCM : 00 F8 FF 7F 00 00 00 00 00 F4 03 95 FF 03 F0 FF 01 FE FF E0 FF FF FE FF DF 1F DD 2A 05 08 00 00
DPCM : 00 F8 FF FF 00 00 00 00 00 F4 03 55 FF 03 F0 FF 01 FE FF E0 FF FF FD FF BF 1F 5D 55 01 14 00 00
DPCM : 00 F8 FF FF 00 00 00 00 00 D4 07 4D FF 07 E0 FF 03 FE FF C1 FF FF FE FF AF 1F 5D 55 04 10 00 00
DPCM : 00 F8 FF FF 01 00 00 00 00 D2 07 4D FF 07 E0 FF 03 FE FF C1 FF FF FF FF 8F 1F 75 15 05 00 00 00
DPCM : 00 F8 FF FF 03 00 00 00 00 B2 87 AA FE 07 E0 FF 07 FC FF C1 FF FF FF FF 8F 37 75 45 01 00 00 00
DPCM : 00 F0 FF FF 07 00 00 00 80 AA 87 AA FE 07 E0 FF 07 FC FF 83 FF FF FF FF 8F 57 55 55 04 00 00 00
DPCM : 00 F0 FF FF 07 00 00 00 80 AA 2B AA FE 0F E0 FF 07 F8 FF C3 FF FF FF FF 27 5D 55 15 09 00 00 00
DPCM : 00 F0 FF FF 0F 00 00 00 00 AA 2B AA FE 0F E0 FF 07 F8 FF 87 FF FF FF FF 53 5D 55 51 02 00 00 00
DPCM : 00 F0 FF FF 0F 00 00 00 80 AA AB B8 FA 0F E0 FF 0F F8 FF 87 FF FF F7 FF 55 5D 55 94 08 00 00 00
DPCM : 00 F0 FF FF 1F 00 00 00 00 E3 AA AA FA 0F E0 FF 0F F8 FF 87 FF FF F7 FF 55 55 55 95 20 00 00 00
DPCM : 00 F0 FF FF 1F 00 00 00 80 AA AA AA FA 0F E0 FF 0F F8 FF 0F FF FF FF 7F 55 56 55 29 02 00 00 00
DPCM : 00 F0 FF FF 3F 00 00 00 80 AA 5A AA FA 1F C0 FF 1F F0 FF 0F FF FF FF 7F 55 56 55 89 04 00 00 00
DPCM : 00 F0 FF FF 7F 00 00 00 00 AA 5A AA F6 1F 60 FF 1F F0 FF 1F FF FF F7 BF AA 5A 95 22 11 00 00 00
DPCM : 00 F0 FF FF FF 00 00 00 00 A8 5A 69 F5 1F D0 FF 1F F0 FF 1F FF FF EB BF AA AA AA 22 01 00 00 00
DPCM : 00 F0 FF FF FF 01 00 00 00 54 55 55 F5 1F D0 FF 1F F0 FF 3F FE FF E7 BF AA AA AA 48 08 00 00 00
DPCM : 00 F0 FF FF FF 01 00 00 00 54 55 55 F5 1F D0 FF 1F F0 FF 3F FF FF E3 BF AA AA 2A 52 08 00 00 00
DPCM : 00 F0 FF FF FF 03 00 00 00 50 55 55 F5 1F C4 FF 3F E0 FF BF FE FF E3 EF AA AA 8A 12 21 00 00 00
DPCM : 00 F0 FF FF FF 03 00 00 00 54 54 55 DD 2F 54 FF 3F E0 FF 7F FE FF D3 AF AA 9A AA 44 08 00 00 00
DPCM : 00 F4 FF FF FF 07 00 00 00 50 45 55 D7 2F 52 FF 3F F0 FF 3F FD FF 53 BF AA AA AA 44 08 00 00 00
DPCM : 00 F4 FF FF FF 07 00 00 00 44 55 55 D5 AF 50 FF 3F F0 FF 3F FD FF 53 BF AA AA 4A 91 40 00 00 00
DPCM : 00 FC FF FF FF 07 00 00 00 10 55 55 D5 BD 48 FF 3F F0 FF 7F FA FF 53 BF AA AA 52 11 02 00 00 00
DPCM : 00 FD FF FF FF 07 00 00 00 50 45 55 D5 BE A8 FE 7F E0 FF 7F F6 FF 53 DF AA AA 54 44 02 00 00 00
DPCM : 80 FA FF FF FF 0F 00 00 00 40 15 55 D5 BE A8 FE 7F E0 FF 7F F5 FF 53 5F 55 55 15 85 10 00 00 00
DPCM : 80 FA FF FF FF 0F 00 00 00 20 55 5C 55 BD A2 FE 7F E0 FF FF F4 FF 53 77 55 55 45 85 40 00 00 00
DPCM : 80 FA FF FF FF 0F 40 00 00 80 52 55 55 BD 8A FB 7F A8 FF FF EC FF 53 7D 55 55 51 21 02 00 00 00
DPCM : A0 EE FF FF FF 1F 00 00 00 80 4A 55 55 BD 8A FB 7F A8 FF FF EC FF 55 DD 55 55 51 24 04 00 00 00
DPCM : A0 EB FF FF FF 1F 80 00 00 80 28 55 55 BD AA FA 7F A4 FF FF EA FF 55 DD 55 55 54 24 04 00 00 00
DPCM : A0 DB FF FF FF 1F 08 00 00 80 A2 54 55 EB AA FA 7F A1 FF FF EA FF 55 5D 5B 51 45 89 20 00 00 00
DPCM : A0 DB FF FF FF 3F 00 00 00 20 8A AA AA BA AA FA 7F 51 FF FF EA FF 55 75 55 55 45 89 40 00 00 00
DPCM : E0 FA FF FF FF 1F 20 00 00 00 29 AA AA EA AA FA 7F 51 FF FF E9 FF 55 75 55 55 51 0A 81 00 00 00
DPCM : E0 F6 FF FF FF 1F 02 00 00 00 A9 A8 AA EA AA F6 7F 51 FF FF E9 FF 56 76 55 55 31 22 04 04 00 00
DPCM : E0 F6 FF FF FF 3F 00 00 00 40 94 A2 AA BA 96 F6 7F 51 FF FF E9 FF AA D6 55 55 94 22 08 00 00 00
DPCM : E8 F6 FF FF FF 3F 40 00 00 00 91 8A AA BA 56 75 FF 51 FF FF E9 FF AA 5A 57 45 95 48 08 20 00 00
DPCM : E0 F6 FF FF FF 3F 10 00 00 40 44 AA A2 BA 56 75 FF 45 FF FF E9 BF AB 5A 5D 54 A5 48 08 00 00 00
DPCM : AA DD FF FF FF 3F 04 00 00 20 14 A9 AA AA 56 75 FF 45 FF FF E9 FB AB 6A 55 55 29 0A 21 00 00 00
DPCM : AA DD FF FF FF BF 00 01 00 00 11 A5 AA AA 56 75 FF 95 FD FF E9 FE AE 6A 55 55 29 12 21 00 00 00
DPCM : A9 DD FF FF FF BF 40 00 00 80 44 94 AA AA 56 75 7F 57 FD FF EA FE AE 6A 55 D5 88 12 82 00 00 00
DPCM : A9 DD FF FF FF BF 10 00 02 00 44 51 AA AA 56 75 7F 57 FD FF EA 7E BB AA 55 95 8A 12 02 01 00 40
DPCM : A8 DD FF FF FF BF 10 08 00 80 10 45 A5 AA 55 5D 7F 57 BD FF EB 7E EB AA 56 A5 8A 44 02 01 00 40
DPCM : A4 DD FF FF FF BF 08 01 00 80 48 44 95 AA 55 5D EF 5D DD FF EB DE AB AB 5A AA A2 44 08 01 00 40
DPCM : 64 7D FF FF FF BF 08 01 08 00 48 14 55 55 55 57 EF 5D ED FF AB F7 AD AE AA AA A2 44 08 04 00 10
DPCM : 54 77 FF FF FF BF 48 20 00 00 22 51 54 55 D5 55 EF 5D ED FF AB F7 AD BA AA AA 28 11 09 08 00 10
DPCM : 51 B7 FF FF FF BF 48 08 00 00 21 45 51 55 D5 55 EF 5D ED FF AB 7B AF EA AA AA 28 11 21 08 00 10
DPCM : 51 B7 FF FF FF BF 42 04 20 00 88 24 45 55 75 D5 ED 5D ED FF AB 7B B7 EA AA 2A 2A 11 21 08 00 10
DPCM : 51 B7 FF FF FF BF 48 04 02 00 24 12 15 55 75 D5 FA 76 ED FF AB 7B D7 AA AB 8A 4A 91 20 08 00 08
DPCM : 51 B7 FF FF FF BF 28 84 80 00 20 52 54 54 75 D5 F5 76 DD FD AF DB D7 AA AE A2 4A 11 22 08 00 08
DPCM : 45 B7 FF FF FF EF 28 21 40 00 90 48 54 51 5D D5 F5 76 DD FD AF EB DD AA AA AA 52 44 42 08 00 48
DPCM : A4 B5 EF FF FF BF 2A 11 08 00 84 48 51 15 5D D5 F9 76 DD FE AF EE 5D AB AA AA 52 44 42 08 00 48
DPCM : 54 B5 EF FF FF BF 2A 11 02 02 40 22 45 55 55 75 B5 77 DD FE B7 EE 5D AD AA AA 52 44 42 08 00 48
DPCM : 54 ED EE FF FF BF 2A 11 02 01 10 22 15 55 55 75 B5 77 B5 FF B7 6E 77 B5 AA AA 14 25 42 08 00 42
DPCM : 54 DD EE FF FF BF 2A 91 40 00 04 89 54 54 55 5D B5 D7 B5 FF B7 6E 77 B5 AA AA 14 25 42 08 00 42
DPCM : 51 DD EE FF FF DF 2A 91 20 08 40 88 52 51 55 5D B5 DB B5 F7 DF BA D7 55 AB 2A 15 91 48 08 00 22
DPCM : 51 DD EE FF FF DF 2A 05 09 04 40 24 52 51 55 57 AD DB AD F7 DF BA DD 55 AB 4A 15 91 48 08 00 22
DPCM : 45 DD EE FF FF 77 2B 45 08 21 00 A4 48 15 55 57 AD DB 75 F7 DF BA 5D 57 AD 4A 45 91 48 08 00 22
DPCM : 45 DB EE FF FF 77 4D 45 02 21 00 91 28 55 54 57 AD DB 75 FB 5F BB 5D 57 55 55 45 89 48 08 00 21
DPCM : 15 D7 EE FF FF 77 55 45 82 10 40 90 A2 54 55 55 AD DB B5 FB 5F BB 76 5D 55 55 45 91 08 09 00 89
DPCM : 54 E5 EE FF FF DD 55 45 82 90 00 44 A2 54 55 55 AD DB B5 FB 5F EB 76 5D 55 55 51 8A 08 09 00 89
DPCM : 54 D5 EE F7 FF DF 55 45 24 84 00 44 8A 52 55 55 AB DB B5 DB 7F EB 76 75 55 55 51 8C 08 09 00 89
DPCM : 54 E5 EE FD FF 5F 57 45 24 84 00 11 89 4A 55 55 AB DB B5 DB 7F EB 76 75 55 55 51 A4 08 09 40 88
DPCM : 52 D5 EE FD FF 77 57 45 24 42 00 11 29 4A 55 55 AB DB 75 BD 7F ED DA D5 55 55 54 A4 10 09 40 88
DPCM : 52 D5 EE FD FF 77 5D 45 11 12 02 48 24 2A 55 55 AB 5B 77 ED DF AD DB 55 57 15 55 A4 10 09 40 24
DPCM : 4A B5 EE FD FF DB 5D 45 89 10 02 44 A4 A8 54 D5 AA 5B 77 EE DF AD 5B 57 5D 15 15 25 12 09 40 24
DPCM : 4A B5 EE FD FF DB 75 51 89 10 01 44 94 A8 52 B5 AA 5B 77 EE DF AD DB 56 75 45 15 25 12 09 40 24
DPCM : 2A B5 EE FD FF DE D5 54 89 08 09 10 91 A2 4A B9 AA 5B D7 6E FF B5 6B 5D D5 54 95 22 12 09 40 24
DPCM : AA AA EE BD FF 6F 57 55 91 48 08 10 51 A2 AA AA AA 5B D7 6E 7F B7 6E 5D 55 55 95 22 12 09 10 A4
DPCM : A8 AA EE BD FF 6F 57 55 91 48 04 08 45 8A AA AA EA 5A D7 ED 7E B7 6E 6B 55 55 45 23 12 09 10 A4
DPCM : A8 AA 6B BF FF 7B 5D 55 51 42 24 40 44 2A AA AA EA 6A D7 ED 7E B7 AE 75 55 55 45 29 12 09 10 91
DPCM : A8 AA 6B EF FF BB 5D 55 29 22 24 80 14 A9 A8 AA EA 6A D7 ED 7E D7 AE D5 55 55 45 29 12 09 10 91
DPCM : A2 AA 6B EF FF BB 75 55 29 22 21 20 11 A5 A8 AA EA 6A D7 AD 7F DD BA B5 55 55 51 29 12 09 10 91
DPCM : A2 AA 6B EF FF BD 75 55 29 22 91 00 11 A5 A2 AA EA 6A D7 AE FD DD BA 56 57 55 49 29 12 09 10 91
DPCM : A2 AA 6B EF FD EF D6 55 31 22 91 00 52 94 8A AA BA 6A DD BA FB DD BA D6 56 55 51 29 12 09 08 51
DPCM : 8A AA 6B F7 FD EF B6 55 51 22 91 80 44 94 8A AA BA 6A DD BA FB 5D EB 56 75 55 D4 28 12 09 88 44
DPCM : 8A AA 6B F7 FE EF 56 57 54 0A 85 80 44 51 2A AA AE 6A DD BA FB 5D EB 5A 6D 15 55 2A 12 09 48 44
DPCM : 2A EA 5A F7 FE B7 5B 9B 54 8A 44 02 12 45 A5 AA 6A D5 B5 AE FB D6 D5 AA AB AA A8 4A 51 0A A2 64
DPCM : 54 55 75 AD FB D6 55 AB 54 45 A5 82 A8 4A 55 55 55 E9 AA AE F2 AB 55 55 5D 15 55 55 A9 0A AA A8
DPCM : AA AA AA BA F2 AB 55 55 55 A5 AA 82 AA 8A AA AA AA EA AA AA F2 AB AA AA AA AA AA AA AA 0A AA AA
DPCM : AA AA AA AA EA AB AA AA AA AA AA 82 AA AA AA AA AA AA AA AA EA AB AA AA AA AA AA AA AA 2A A8 AA
DPCM : AA AA AA AA EA AB AA AA AA AA AA 82 AA AA AA AA AA AA AA AA CA AF AA AA AA AA AA AA AA 0A AA AA
DPCM : AA AA AA AA CA AF AA AA AA AA AA 82 AA AA AA AA AA AA AA AA 2A BF AA AA AA AA AA AA AA 82 AA AA
DPCM : AA AA AA AA 2A BF AA AA AA AA AA A0 AA AA AA AA AA AA AA AA AA FA AA AA AA AA AA AA AA A0 AA AA
DPCM : AA AA AA AA AA FA AA AA AA AA 82 AA AA AA AA AA AA AA AA AA AA AA EA AB AA AA AA AA A0 AA AA AA
DPCM : 55
DPCMDEF   3  2817 "C#"
DPCM : 6C 00 03 03 C0 0F 80 FD ED 73 62 FF FE F3 8F 9F 00 01 8C 61 C0 FE 0F FE FF FF 83 FF CF 0F 00 01
DPCM : 04 04 00 1E 00 E0 83 CF 88 FD 7B EF 3F 3E 06 06 70 EF 81 FF 3F F8 FC FF 0F FE 1F 1E 00 04 18 10
DPCM : 00 38 00 C0 0F 3F 00 FA C7 9C FF 78 F8 1F C0 FF 03 FE FF F0 E3 FF 7F F8 3F 00 00 30 F0 60 00 00
DPCM : 00 00 3F FC 80 E0 3F 60 FF C3 F0 7F 80 FF 1F F8 FF E3 FF FF FF E1 5F 00 00 C0 E1 C3 01 00 00 00
DPCM : 7C F0 03 80 FF 00 FC 1F C0 FF 03 FE 7F F0 FF 9F FF FF FF C3 1F 01 00 00 DF 8F 03 00 00 00 C0 C1
DPCM : 07 00 FF 01 F0 7F 80 FF 07 F8 FF C1 FF FF FF FF FF 0F 1F 01 00 00 FE 3F 0E 00 00 00 00 00 1F 00
DPCM : FC 07 E0 FF 00 FE 3F F0 FF 87 FF FF FF FF FF 1B 7C 00 00 00 F8 FF 3D 00 00 00 00 00 7C 00 F0 1F
DPCM : 80 FF 03 F8 FF C0 FF 1F FE FF FF FF FF AF E0 04 00 00 E0 FF FF 00 00 00 00 00 E0 00 E0 7F 00 FE
DPCM : 0F F0 FF 01 FF 7F FC FF FF FF FF AF C0 09 00 00 80 FF FF 01 00 00 00 00 C0 03 80 FF 01 FC 3F C0
DPCM : FF 07 FE FF F1 FF FF FF FF BA 02 07 00 00 00 FE FF 07 00 00 00 00 80 0F 00 FE 07 F0 FF 00 FF 1F
DPCM : F8 FF E7 FF FF FF FB AB 0A 34 00 00 00 FC FF 1F 00 00 00 00 00 1E 20 FC 0F C0 FF 03 FE 7F E0 FF
DPCM : BF FF FF FF E7 57 15 30 01 00 00 F0 FF 7F 00 00 00 00 00 78 A0 F0 3F 80 FF 0F F8 FF C1 FF 7F FF
DPCM : FF FF 87 5F 55 40 01 00 00 C0 FF FF 01 00 00 00 00 F0 81 CA FF 00 FE 1F E0 FF 07 FF FF FF FF FF
DPCM : 9F 76 95 00 05 00 00 00 FF FF 07 00 00 00 00 E0 07 AA FF 01 F8 7F C0 FF 1F FC FF FF FF FF 3F BA
DPCM : AA 02 08 00 00 00 FE FF 1F 00 00 00 00 80 0F 9A FE 07 F0 FF 01 FF 7F F0 FF FF FF FF FD E8 AA 04
DPCM : 20 00 00 00 F8 FF 7F 00 00 00 00 80 3E 68 FA 1F C0 FF 07 FC FF E1 FF FF FF FF F3 A3 AB 28 00 00
DPCM : 00 00 E0 FF FF 03 00 00 00 00 FA 50 F5 7F 00 FF 1F F0 FF 83 FF FF FF FF CF A7 AE 28 00 00 00 00
DPCM : C0 FF FF 0F 00 00 00 00 D4 43 D5 FF 00 FE 7F C0 FF 0F FF FF FF FF AF AE AA 8A 02 00 00 00 00 FF
DPCM : FF 3F 00 00 00 00 50 17 55 FF 03 F8 FF 81 FF 3F FC FF FF FF 9F BA AA 4A 02 00 00 00 00 FC FF FF
DPCM : 00 00 00 00 50 57 54 FD 0F F0 FF 03 FE FF F0 FF FF FF BF EA AA A2 04 00 00 00 00 F8 FF FF 03 00
DPCM : 00 00 40 5D C5 F5 1F C0 FF 0F F8 FF E3 FF FF FF BF AA AB A2 44 00 00 00 00 E0 FF FF 0F 00 00 00
DPCM : 40 5C 55 D5 7F 00 FF 3F F0 FF 0F FF FF FF FF AA AA AA 12 00 00 00 00 80 FF FF 3F 00 00 00 40 55
DPCM : 55 55 FF 01 FE FF 80 FF 3F FE FF FF FF 2A AB AA 44 02 00 00 00 00 FF FF FF 00 00 00 00 54 35 55
DPCM : FB 07 F8 FF 01 FF FF F8 FF FF FF AB AC AA 14 02 00 00 00 00 FC FF FF 07 00 00 00 50 B5 54 FD 0F
DPCM : E0 FF 07 FE FF E3 FF 7F FF 57 D5 2A 45 22 00 00 00 00 F8 FF FF 1F 00 00 00 00 D5 CA EA 3F A0 FF
DPCM : 1F F8 FF C7 FF FF FD 57 55 55 15 21 00 00 00 00 E0 FF FF 7F 00 00 00 80 AA AA AA FF 80 FE 7F E0
DPCM : FF 3F FF FF F3 5F 55 55 15 22 00 00 00 00 C0 FF FF FF 01 00 00 00 AA AA AA FE 81 FA FF 81 FF FF
DPCM : FE FF C7 7F 55 55 15 09 01 00 00 00 00 FF FF FF 0F 00 00 00 A0 AA AA EE 87 F8 FF 03 FF FF F5 FF
DPCM : 9F FE 55 55 15 89 10 00 00 00 00 FE FF FF 1F 00 00 00 A0 A8 AA FA 17 AA FF 0F FC FF EF FF 9F 7E
DPCM : 55 75 54 89 10 00 00 00 00 FC FF FF 7F 00 00 00 80 8A AA AE 5F A4 FE 3F F8 FF 9F FF 7F FA 55 55
DPCM : 55 85 04 00 00 00 00 F8 FF FF FF 03 00 00 00 A8 AA AA 7E 91 FE 7F E0 FF BF FE FF E9 57 55 55 29
DPCM : 04 01 00 00 00 F0 FF FF FF 07 00 00 00 A0 AA AA FA 45 FA FF C1 FF FF FC FF A3 6F 55 55 2A 42 00
DPCM : 00 00 00 E0 FF FF FF 1F 00 00 00 A0 A8 AA BA 17 D5 FF 07 FF FF F3 FF 8F DE 55 55 2A 12 04 00 00
DPCM : 00 40 FF FF FF 7F 00 00 00 80 8A AA 6A 5F 54 FF 1F FC FF AF FF 9F FA AA AA 2A 0A 01 00 00 00 40
DPCM : FF FF FF FF 00 00 00 00 A9 E8 AA 76 51 FF 3F F0 FF BF FE 7F EA AB AA 2A 4A 20 00 00 00 00 FD FF
DPCM : FF FF 07 00 00 00 90 AA AA DA 15 F7 FF D0 FF 7F FE FF A8 AF AA 8A 4A 10 00 00 00 00 DD FF FF FF
DPCM : 1F 00 00 00 40 A9 AA 6A 57 DC FF 43 FF FF F9 FF AA BE AA 2A 8A 04 01 00 00 00 DC FF FF FF 3F 00
DPCM : 00 00 00 95 AA AA 57 55 FF 0F FD FF D7 FF AB BA AB 2A 4A 42 20 00 00 00 58 FF FF FF FF 00 00 00
DPCM : 00 51 A9 AA 5D 55 FF 8F FC FF 4F FF AF EA BA A2 8A 12 08 00 00 00 70 FB FF FF FF 03 00 00 00 14
DPCM : 55 55 75 55 FD 3F F2 FF 5F FD BF AA AB AA 8A 12 01 01 00 00 60 FD FF FF FF 07 00 00 00 48 51 55
DPCM : D5 55 ED FF A8 FF 7F FD BF AA AE AA 8A 52 20 00 00 00 C0 ED FF FF FF 1F 00 00 00 20 45 55 55 57
DPCM : B5 FF A3 FE FF F5 7F CB BA AA 2A 46 04 01 00 00 00 F7 FE FF FF 7F 00 01 00 00 52 54 55 D7 B2 FB
DPCM : 8F EE FF D7 FF 55 EB AA 2A 4A 81 00 00 00 00 B7 FF FF FF FF 00 01 00 00 48 45 55 5D AB FE 2F FA
DPCM : FF 4F FF 57 B5 AE 8A 4A 11 04 00 00 00 DC FE FF FF FF 03 02 00 00 88 54 51 5D AB FA BF E8 FF 3F
DPCM : F7 5F D5 BA A2 4A 91 40 00 00 00 D4 EE FF FF FF 0F 08 00 00 20 4A 55 55 AD EA FF A2 FF 7F DD 7F
DPCM : 55 AB AA 2A 91 10 40 00 00 50 FB FF FF FF 1F 08 00 00 80 28 55 55 AD EA FE 2B FB FF 75 FF 55 AD
DPCM : AA 2A 45 02 01 00 00 50 BD FF FF FF 7F 20 00 00 80 88 52 55 B5 AA FB AF EA FF D7 F7 5D B5 AA 2A
DPCM : 45 22 10 00 00 40 ED FD FF FF FF 81 00 00 00 A2 48 55 D5 AA DB EF EA FF 57 DF 77 55 AB 2A 45 09
DPCM : 02 04 00 00 B5 F7 FF FF FF 07 04 00 00 24 A2 52 D5 AA EE FE AA FF 5F FD 5D 57 AD 2A 15 89 10 00
DPCM : 00 20 B4 FB FF FF FF 17 08 00 00 90 88 2A 55 AB AE EF AE FE 7F DD 7B 75 D5 52 15 25 04 02 00 00
DPCM : CA BE FF FF FF 1F 21 00 00 10 A2 A8 AA AA AE 7E AF FA FF 75 BF D5 55 55 15 25 42 20 00 00 A8 6E
DPCM : FF FF FF 7F 84 00 00 40 24 A2 AA AA AE EE BD DA FF D7 BD 57 5D 55 15 A5 10 04 00 80 88 BA F7 FF
DPCM : FF FF 11 02 10 00 90 28 AA AA AE DA EF 6A FF 5F F7 5E 75 55 55 94 48 20 00 00 82 EA DE FF FF FF
DPCM : 47 08 40 00 10 8A A2 AA BA 6A BF AB F7 7F DD 7B 55 57 55 94 22 04 02 00 88 E8 F6 FF FF FF 17 22
DPCM : 00 01 40 24 8A AA BA EA F6 AE DE FF 75 EF 56 5D 55 54 22 41 10 00 20 A2 7B FF FF FF 1F 89 00 04
DPCM : 00 91 A8 A2 EA AA DB BB EE FF D5 BD 5B D5 55 54 8A 10 02 00 10 8A EE FD FF FF 7F 24 02 04 00 42
DPCM : 8A 8A EA AA 6B EF DA FF 5B F7 6E 55 55 55 89 48 20 00 40 22 EE F6 FF FF 7F 95 08 04 00 08 25 AA
DPCM : E8 AA D6 B7 6B FF 6F BD BB 56 55 55 29 12 04 01 00 A1 AA 7D FF FF FF 55 42 40 00 20 91 A2 AA AA
DPCM : AE DD AE FD BF F5 EE 5A 55 55 29 22 21 00 40 24 AA DB FF FF FF 55 09 01 01 20 44 8A AA AA BA 76
DPCM : BB F6 FF D6 BB AB 55 55 A9 48 04 02 00 A1 A8 6E FF FF FF 57 25 04 02 80 08 A5 A8 AA BA DA ED 6E
DPCM : FF 5B EF AE 56 55 A5 28 41 08 00 84 A2 DA F7 FF FF 5F 25 12 08 00 22 91 A2 AA DA 72 EF BA FD 6F
DPCM : BD BB 6A 55 A5 22 11 42 00 10 8A BA DD FF FF 7F 95 48 20 04 80 44 2A AA DA 6A BD EB EE BF DD AE
DPCM : AB 55 A5 A2 04 09 01 00 29 EA F6 FE FF FF 96 22 81 10 00 12 A5 A2 EA AA DD AE BD FF 76 BB AE 5A
DPCM : A5 8A 48 84 00 20 A4 E8 DA EF FF FF 5B 8A 04 42 00 48 94 2A EA 2A 77 BB F6 FE DB ED BA AA AA 8A
DPCM : 12 21 04 80 90 8A DB FD FF FF AE 2A 12 08 01 88 44 AA AA AA D6 ED D6 FB 6F B7 EB AA AA 2A A2 84
DPCM : 10 00 44 AA 6A F7 FF FF BB AA 48 20 04 20 12 A5 AA AA 5A B7 BB ED BF DD AE AE AA 2A 8A 44 42 00
DPCM : 10 A9 CA BD FF FF EF AA 28 44 10 80 48 94 AA AA 5A BD EE F6 DF 76 BB BA AA 2A 4A 11 21 00 42 A4
DPCM : AA F5 FE FF BF AB A2 10 42 00 22 51 A9 AA 72 DD AE DD 7F DB ED EA AA AA 28 12 09 01 08 51 AA 76
DPCM : EF FF FF BA 8A 48 08 01 88 14 A5 AA 6A 75 BB 76 FF 6D B7 AE AE AA A8 48 24 04 80 44 A9 DC BD FF
DPCM : FF EE 2A 22 21 04 88 50 54 AA AA D5 ED DA FD B7 DD BA BA AA A8 18 11 12 00 12 A5 5A F7 FB FF BB
DPCM : 2B 8A 84 10 20 22 51 A9 AA D5 B5 BB F6 DF 76 EB AA AB A8 22 91 08 20 48 94 72 B7 DF FF EF AE 28
DPCM : 12 42 80 88 14 95 AA 55 D7 EE 7A 7F DB AD AB BA A8 A2 44 42 80 20 51 6A DD FE FF B7 AB A9 44 88
DPCM : 00 22 52 54 A9 55 DD BA DB FD 6B B7 AE AA AA 8A 14 09 01 88 44 55 75 EF FF DF AE AA 12 21 02 88
DPCM : 48 51 55 55 5D BB 6E F7 AF 5D B7 AA AA 8A 12 89 04 20 12 55 D5 BB FF 7F BB AA 62 84 08 20 A2 14
DPCM : 55 55 75 ED DA DD BF 76 AD AB AA 2A 45 24 12 80 48 54 D5 ED FD FF ED AA 8A 11 22 80 88 52 54 55
DPCM : D5 B5 6B B7 FF DA B5 AE AA 2A 4A 91 08 20 22 51 55 B7 F7 FF BD AB 2A 4A 88 00 A1 48 51 55 D5 B5
DPCM : 6E DD BF 6B D7 BA AA AA 28 45 42 80 88 44 55 D7 DE FF F7 BA AA 48 24 02 84 22 15 55 55 D7 BA 75
DPCM : FF AE 5D AB AB AA A8 44 22 01 22 12 55 DD EE FD 7F EB AA 28 91 48 80 88 54 54 55 57 EB 6E FD BB
DPCM : 76 AD AE AA A8 14 89 04 08 4A 51 75 BB F7 7F B7 AB 92 44 22 01 22 4A 45 55 5D AD BB F5 EF DA B5
DPCM : BA AA 92 52 24 12 20 28 45 75 ED BE FF DD BA 4A 11 89 04 88 28 15 55 5D B5 EB D6 BF 6B D7 AA AB
DPCM : A2 52 14 12 10 A2 14 D5 B5 F7 FE 77 EB 8A 46 24 12 20 A2 54 51 5D B5 AE DB FD AE 5D AB AD A2 4A
DPCM : 91 48 80 88 54 D1 B5 DB FF DB AD 8E 4A 91 48 00 29 2A 55 55 AB 6B 5B F7 AB 6B D5 55 55 54 29 4A
DPCM : 01 A5 A2 AA EA 72 F7 AD AB 56 A9 A2 52 50 54 A9 AA AA AA 56 75 D5 57 AD AA BA 2A AA AA 54 05 15
DPCM : 55 55 55 D5 D5 57 AD AA AA 4A 55 41 55 45 55 55 55 5D 55 55 5F 55 55 55 55 55 55 55 15 54 55 55
DPCM : 55 55 55 5F 55 55 55 55 55 05 55 55 55 55 55 55 55 55 7D 55 55 55 55 55 55 55 15 54 55 55 55 55
DPCM : 55 F9 55 55 55 55 55 15 54 55 55 55 55 55 55 55 F5 55 55 55 55 55 55 55 55 50 55 55 55 55 55 D5
DPCM : 57 55 55 55 55 15 54 55 55 55 55 55 55 55 55 5F 55 55 55 55 55 55 55 50 55 55 55 55 55 55 5F 55
DPCM : 55 55 55 15 54 55 55 55 55 55 55 55 55 E5 57 55 55 55 55 55 15 54 55 55 55 55 55 55 D5 57 55 55
DPCM : 55
DPCMDEF   5  2689 "D"
DPCM : 6C 80 81 00 F0 03 B0 DF 3E 23 FB FB EF 3F 3F 01 03 8C 30 B0 BF C3 FF FF 3F F8 7F 3E 00 04 18 08
DPCM : 00 1E 00 F0 E1 23 B0 3F EF FC F3 33 38 C0 BC 03 FF 3F F8 FC FF 87 FF 87 03 80 80 81 00 C0 01 00
DPCM : 1F 3E 00 F8 67 CE 3F 1E FF 03 FC 3F E0 FF C3 CF FF 7F F8 7F 00 00 08 38 1C 00 00 00 F0 E1 07 80
DPCM : 7F C0 FE 87 F0 7F C0 FF 07 FF 7F FC FF FF 8F 7F 01 00 80 C3 C3 01 00 00 00 1E 7E 00 F8 07 E0 7F
DPCM : 00 FF 07 FC 7F F0 FF EF FF FF FF F8 07 00 00 F8 3E 1C 00 00 00 C0 C0 07 80 7F 00 FE 07 F0 7F C0
DPCM : FF 07 FF FF FF FF FF 9F 1F 00 00 80 FF C7 01 00 00 00 00 7C 00 F8 0F E0 FF 00 FF 0F FC FF F0 FF
DPCM : FF FF FF 7F F0 04 00 00 F8 FF 1E 00 00 00 00 80 03 80 FF 00 FE 0F F0 FF C0 FF 0F FF FF FF FF FF
DPCM : 07 17 00 00 80 FF FF 01 00 00 00 00 30 00 F8 0F E0 FF 00 FF 0F FC FF F9 FF FF FF FF AF 60 01 00
DPCM : 00 F8 FF 1F 00 00 00 00 00 03 80 FF 00 FE 0F F0 FF C1 FF 9F FF FF FF FF BF 02 0E 00 00 80 FF FF
DPCM : 01 00 00 00 00 70 00 F8 0F E0 FF 00 FF 1F FC FF FB FF FF FF BF AA 40 01 00 00 F8 FF 1F 00 00 00
DPCM : 00 00 07 84 FF 00 FE 1F F0 FF C1 FF BF FF FF FF F7 AB 0A 24 00 00 00 FF FF 03 00 00 00 00 70 40
DPCM : F8 0F E0 FF 01 FF 1F FC FF FF FF FF BF AF AA 80 00 00 00 F0 FF 3F 00 00 00 00 80 07 94 FF 01 FE
DPCM : 1F F0 FF C1 FF FF FF FF FF B5 2B 05 08 00 00 00 FF FF 03 00 00 00 00 78 50 FD 0F E0 FF 01 FF 1F
DPCM : FC FF FF FF FF 5F 57 55 00 00 00 00 F0 FF 7F 00 00 00 00 80 07 4D FF 01 FE 1F F0 FF C3 FF FF FF
DPCM : FF FF D4 55 01 10 00 00 00 FF FF 07 00 00 00 00 78 D0 FC 1F C0 FF 01 FF 3F FC FF FF FF FF 4F 5D
DPCM : 51 00 00 00 00 F0 FF 7F 00 00 00 00 C0 87 AA FF 01 FC 3F F0 FF C3 FF FF FF FF FB D4 45 05 00 00
DPCM : 00 00 FF FF 0F 00 00 00 00 78 A8 FA 1F C0 FF 03 FF 3F FC FF FF FF BF 57 55 45 00 00 00 00 F0 FF
DPCM : FF 00 00 00 00 A0 2B AA FF 01 FE 3F F0 FF C3 FF FF FF FF 79 55 15 05 00 00 00 00 FF FF 0F 00 00
DPCM : 00 00 BA A2 FA 1F E0 FF 03 FF 7F FC FF FF FF 57 57 15 25 00 00 00 00 F0 FF FF 01 00 00 00 A0 AB
DPCM : AC FE 01 FE 3F F0 FF C7 FF FF FF 7F D5 55 94 08 00 00 00 00 FF FF 1F 00 00 00 80 AC AA EA 1F E0
DPCM : FF 03 FF 7F FC FF FF FF 57 55 55 09 00 00 00 00 F0 FF FF 03 00 00 00 A8 AA AA FE 01 FD 7F F0 FF
DPCM : C7 FF FF FF 5F 59 55 29 04 00 00 00 00 FF FF 3F 00 00 00 80 AA A9 FA 1F E0 FF 03 FF FF F8 FF FF
DPCM : FF 95 55 95 08 01 00 00 00 F0 FF FF 07 00 00 00 A0 9A AA FF 01 FE 3F F0 FF CF FF FF FF AB 6A 95
DPCM : 22 01 00 00 00 00 FF FF FF 00 00 00 00 6A A5 F5 1F D0 FF 07 FF FF F8 FF FF BF AA AA 2A 42 00 00
DPCM : 00 00 F0 FF FF 0F 00 00 00 50 55 55 FF 01 FD 7F F0 FF CF FF FF FE AB AA AA 08 01 00 00 00 80 FF
DPCM : FF FF 00 00 00 00 55 55 F5 1F D0 FF 07 FF FF FD FF E7 BF AA AA 22 21 00 00 00 00 F8 FF FF 1F 00
DPCM : 00 00 40 55 55 FF 02 FF 7F E0 FF BF FF 7F FE AB AA 8A 42 08 00 00 00 80 FF FF FF 01 00 00 00 51
DPCM : 55 DD 2F D4 FF 07 FE FF FB FF D7 AF AA A3 4A 08 00 00 00 00 FC FF FF 3F 00 00 00 40 51 75 FD 42
DPCM : FD 7F F0 FF DF FF 3F FD AA AA 2A 11 02 00 00 00 C0 FF FF FF 03 00 00 00 54 55 D5 2F E4 FF 07 FF
DPCM : FF FD FF D3 AF AA AA 14 02 00 00 00 00 FE FF FF 7F 00 00 00 00 55 55 FD 22 FB 7F F0 FF BF FF 3F
DPCM : FD AA AA 54 84 00 00 00 00 E0 FF FF FF 07 00 00 00 44 55 D5 2F AA FF 87 FE FF F7 FF D3 B7 AA 4A
DPCM : 05 21 00 00 00 00 FE FF FF 7F 00 00 00 40 51 55 F7 A2 FA 7F E8 FF 7F FF 3F 7D 55 55 15 21 00 00
DPCM : 00 00 F8 FF FF FF 07 00 00 00 50 74 55 AF E8 FF 07 FF FF F5 FF B3 5D 55 55 14 02 00 00 00 80 FF
DPCM : FF FF 7F 00 00 00 00 55 55 F5 8A FE 7F E8 FF 5F FF 5F DD 55 55 54 08 02 00 00 00 EC FF FF FF 07
DPCM : 00 00 00 48 55 55 AF B2 FF 87 FE FF FD 7F 55 5F 55 45 91 00 00 00 00 E0 FE FF FF 7F 00 00 00 80
DPCM : 52 55 F5 AA FA 7F E8 FF BF FF 57 F5 55 15 15 21 00 00 00 00 EB FF FF FF 0F 00 00 00 A0 54 D5 AE
DPCM : AA FF 87 FE FF FB 7F 55 D7 45 15 25 04 00 00 00 B0 FD FF FF FF 00 00 00 80 A8 AA EA AA FA 7F D4
DPCM : FF BF FF 57 75 55 55 51 02 04 00 00 00 FB FF FF FF 07 00 00 00 28 AA AA AE AA FF 47 FD FF FB 7F
DPCM : 55 57 55 45 89 00 02 00 00 68 FF FF FF 7F 80 00 00 00 A2 AA EA AA F6 7F F4 FF AF FF 5B D6 55 55
DPCM : A4 10 00 00 00 C0 F6 FF FF FF 0F 00 00 00 90 A8 AA AE 59 FF 47 FF FF FA BF 6A 5D 55 51 22 08 00
DPCM : 00 00 6C FF FF FF FF 00 00 00 00 29 AA EA 5A F5 7F F4 FF AF FF AB 5A 57 51 29 02 01 00 00 C0 DE
DPCM : FF FF FF 0F 00 00 00 44 AA A8 6B 55 FF 47 FF FF F9 BF AA 75 45 95 48 40 00 00 00 DA FD FF FF FF
DPCM : 00 00 00 40 A4 AA AA 56 F5 7F F1 FF AF FF AE 5A 55 55 8A 10 80 00 00 A0 FD FF FF FF 07 02 00 00
DPCM : 10 A9 AA 6A D5 FD 57 FD FF BA FF AA 56 55 23 12 02 00 00 80 DA FF FF FF 7F 08 00 00 00 51 AA AA
DPCM : 56 DD 7F D5 FF AF FB BB 6A 55 95 22 41 00 00 00 A8 F7 FF FF FF 47 00 00 00 44 94 AA 5A D5 FD 5D
DPCM : FD FF BA BF AB 5A 55 8A 12 08 00 00 80 76 FF FF FF 7F 02 00 00 80 14 A5 AA 55 D7 DF D5 FF AF FB
DPCM : EB AA 55 A9 48 04 02 00 00 68 F7 FF FF FF 27 00 00 00 12 51 A9 5A 75 FD 5D FD FF BA BF BA 6A A9
DPCM : A2 84 80 00 00 40 F6 FD FF FF 7F 02 01 00 00 11 55 55 D5 B5 DF D5 FF AF FB AD AE AA 2A 4A 08 20
DPCM : 00 00 54 EF FF FF FF 27 04 00 00 48 44 55 55 57 FB 5D FD FF BA DF EA AA AA 28 11 02 02 00 40 DD
DPCM : FE FF FF 7F 42 00 00 80 44 51 55 75 B5 DF D5 FF AF FB AD BA AA 8A 12 81 00 00 40 D4 BD FF FF FF
DPCM : 27 04 20 00 20 51 54 D5 55 FB 5D FD FF BA F7 AA AB 2A 2A 11 08 00 00 41 DD FB FF FF 7F 12 00 02
DPCM : 00 22 15 55 5D B5 EF D5 FF AF 7B B7 EA AA A8 44 02 01 00 10 D1 BD FF FF FF 27 01 01 00 88 44 45
DPCM : D5 55 FB 5E FD FF BA 77 AB BA A2 4A 84 20 00 00 11 BD EF FF FF 7F 12 04 00 40 48 54 51 57 9D EF
DPCM : D5 FF AF DB D7 AA AA 2A 45 08 04 00 10 71 F7 FE FF FF 2B 21 80 00 80 14 55 74 D5 FA 5E F7 7F EB
DPCM : 7D AD AA AA 12 91 40 00 00 51 B5 EF FF FF BF 12 02 08 00 22 45 55 55 57 EF 75 FB BF DE 5D AB AA
DPCM : 4A 11 11 08 00 10 55 FB FF FF FF 2A 11 40 00 10 52 54 55 75 ED 76 77 FF EB DE D5 AA AA 14 09 82
DPCM : 00 00 51 B5 FF FF FF AF 12 81 00 00 89 14 55 55 D7 6E 77 F7 BF EE 5D AD AA 52 94 40 08 00 50 D4
DPCM : ED FF FF FF 2A 11 08 00 84 48 45 55 5D ED 76 B7 FF EB DE 55 AB 4A 45 24 84 00 80 44 DD FE FF FF
DPCM : AF 12 21 20 00 84 52 54 75 D5 6E 77 FB DF 6E 77 D5 AA 54 44 42 00 80 48 D4 ED FF FF 7F 4B 11 02
DPCM : 02 40 22 15 55 57 ED 76 B7 FF ED 76 57 AD 52 51 22 04 00 84 14 DD FE FF FF B7 14 21 10 00 21 4A
DPCM : 45 75 E5 6E 77 FB DF 6E D7 55 55 15 85 08 01 40 48 71 ED FF FF 7F 55 91 40 00 10 89 54 55 55 EB
DPCM : 76 B7 FF ED 76 5D 55 55 11 89 10 00 84 54 D5 FB FF FF 5D 15 09 84 00 90 28 55 55 B5 6E 77 FB DF
DPCM : BA 57 57 55 45 91 08 01 40 48 55 BD FF FF DF 55 91 20 08 40 88 4A 55 55 EB 76 B7 FF AD DB 75 55
DPCM : 55 94 88 10 00 84 52 B5 FB FB FF 5F 15 09 82 00 44 A2 54 55 B5 6E 77 FB DF BA 5D 57 55 51 8C 10
DPCM : 02 40 28 55 BB DF FF 7F 57 11 21 04 40 24 4A 55 D5 EA 76 B7 FF B5 DB D5 55 15 45 09 21 00 24 52
DPCM : B5 7B FF FF 77 15 91 10 02 10 8A 52 55 AE 6E 77 FB 77 BB 5B 75 55 54 24 12 02 40 A2 54 BB BF FF
DPCM : 7F 5D 14 09 21 00 91 A8 54 B5 EA 76 B7 7F B7 5B 57 57 51 45 22 21 00 24 4A AD F7 FD FF D7 45 91
DPCM : 10 02 10 29 2A D5 AA 6B 77 DB 7F BB 75 D5 15 15 25 12 02 40 A2 D4 7A DF FF DF 35 15 09 21 00 91
DPCM : A2 4A AD BA 76 B7 FD B7 6E 57 35 55 29 22 24 00 21 AA AA F7 FD FF 5D 55 91 10 01 44 24 AA AA AA
DPCM : 6B 77 DB 7F EB D6 55 55 15 23 42 02 10 A2 AA 6E DF FF DF 55 15 89 10 40 44 8A AA AA BA 76 B7 FB
DPCM : D7 6E 5D 55 55 94 22 24 00 A1 A8 EA F6 FD FF 6D 55 91 08 09 40 A4 A8 AA AA 6B 77 BB 7F ED AE 55
DPCM : 55 45 29 44 02 10 8A AA 6E DF FF 6F 57 15 89 84 00 11 29 AA AA AE 75 B7 FB D7 6E 75 55 55 92 48
DPCM : 24 00 91 A8 EA F6 FE FF 76 55 91 48 08 10 91 A2 AA EA 5A 77 BB DF ED 5A 57 55 D1 88 44 02 10 89
DPCM : AA 6E EF FF 6F 5D 15 89 84 00 11 A9 A8 AA AE 75 B7 FB DD BA D5 55 15 A5 48 04 10 91 A2 BA F6 FE
DPCM : BF DB 55 94 48 04 10 51 2A AA BA 5A 77 EB DF AD 5B 5D 55 52 8A 44 02 10 29 AA 6B EF FF BB 5D 45
DPCM : 29 44 80 44 A4 A2 AA AB 75 B7 FE DD BA 55 57 25 A5 48 04 10 91 A2 BA F6 FE BF 5B 57 94 42 24 40
DPCM : 44 A9 A8 AE 5A 77 EB DF B5 6B D5 15 35 8A 44 00 11 A9 E8 5A EF FF BB D5 51 29 44 02 48 51 A9 AA
DPCM : 56 D7 BA FB D6 B5 BA AA 8A 2A 45 09 22 15 55 55 EB EE DB 55 AB 54 51 2A 88 2A 55 55 55 B5 AA AB
DPCM : AF 5A 55 5D 15 55 55 AA A0 A2 AA AA AA AE FC 6A 55 55 95 AA 82 AA A2 AA AA AA AB AA F2 AB AA AA
DPCM : AA AA AA AA 0A AA AA AA AA AA CA AF AA AA AA AA 2A A8 AA AA AA AA AA AA AA BE AA AA AA AA AA AA
DPCM : AA A0 AA AA AA AA AA FA AA AA AA AA AA 82 AA AA AA AA AA AA AA EA AB AA AA AA AA AA AA 0A AA AA
DPCM : AA AA AA AA AF AA AA AA AA 0A AA AA AA AA AA AA AA AA FA AA AA AA AA AA AA 2A A8 AA AA AA AA AA
DPCM : EA AB AA AA AA 2A A8 AA AA AA AA AA AA AA AA FC AA AA AA AA AA AA A0 AA AA AA AA AA AA F2 AB AA
DPCM : AA 2A A8 AA AA AA AA AA AA AA AA AA CA AF AA AA AA 0A AA AA AA AA AA AA AA AA AA BE AA A0 AA AA
DPCM : 55
DPCMDEF   6   769 "Gimmick snare.dmc"
DPCM : 00 FD EA F0 DF FF 20 01 0F A1 0F 12 20 D1 5E D2 2E FF ED EE FD 1A AD 50 15 01 50 A0 05 2A 55 15
DPCM : D2 FA FF DD EF EF 50 E1 DA 51 10 51 25 00 1D 2A 51 EA EF 5D 20 FF FF FF 00 F0 0D 00 05 1F F5 E0
DPCM : 0F 00 F0 F0 1E FF 0F FF FF 00 0E A0 FF 5A 5A 00 0A 01 F2 11 5F FF FF 00 52 F5 50 AE FF 00 FF D0
DPCM : A0 0E 00 AF F0 0F F0 0A DF E0 2F FF AD 01 DA AD 0F F2 20 A5 A2 F0 00 50 F5 0A FF 2F E0 F5 F0 FF
DPCM : 01 5F EA 5E 01 D0 AA 00 2D D5 2E 20 20 FF FF 5E 0F F1 2F 25 52 EA DA 11 D0 0E F0 F2 05 50 1D F5
DPCM : AF 02 F5 D5 FE 2E 2F 00 FF 00 D1 1D 2A F0 5F 00 2F A0 FF 0A FF 01 FF A1 51 5F 00 DD 02 FF 52 A0
DPCM : DF 01 5A F0 0F 0D F2 A5 DF 2F 05 E0 FD 02 2D A1 0F F1 AD 2E 11 01 F2 FF 50 2F F5 EA 0D A1 E0 0F
DPCM : FA 01 D0 1D FA 0D AA 12 EF F0 2D 2F E1 DD 02 ED D2 15 D0 0F 20 FA F2 15 AD 10 2F DA FA 0A FD 15
DPCM : D5 0F E0 5D 05 52 11 EF 50 AF D1 0D F0 5F 2F D0 2F F0 0A AF 20 2A D2 DD 02 EF 22 5D ED EA 55 20
DPCM : AE 2D F1 0F 1D 50 F2 DD 00 2F D1 2E D1 D1 DF 05 D0 DF EA 0D 50 55 0F F1 01 52 EF 0D F0 2A 5F 2E
DPCM : D5 F0 1F 51 F2 D5 0A 22 A0 1A FF 5E 21 ED 2D 51 05 D1 E0 AF FE 25 EA A2 D5 1A 52 51 AE A5 2F 51
DPCM : AA 22 A2 52 DE FD 25 AF AD 5D 21 2A 55 00 FA 2E 2F F0 25 AF 1D A5 00 F5 5A AF 51 EA D0 FE 0E 50
DPCM : F0 2E 0D 1F 21 E0 FF 0A AD 25 5D AA DA FD 0F 50 25 A2 2D 00 F2 AD D2 F5 0F EA 50 FA A5 2F 20 F5
DPCM : 0A DE D5 05 D2 2D A2 0F D0 EA D5 1F 0A F0 FF 02 1D F0 AA AF 0D F0 AA 11 5D 11 DD 0D 25 FA 2E FD
DPCM : 00 FF 0A 21 F5 10 DF 25 E2 AF 01 F0 E1 2F 0A F5 2D AA 5F 10 FA 10 AF 5D 20 FF A5 12 D5 1A 22 D1
DPCM : D5 D1 0F 2E DE E1 52 DA 52 A2 AE D0 5E D5 2F A1 21 FA 0A 5F 11 E0 EF 51 21 DE AD 52 F2 AD 01 EA
DPCM : D2 AA 2F 21 EA 21 AE 1E A0 F5 D5 FE 0E 50 EA 15 DA 15 D0 5E 2D AD 0A F0 2A F5 5A 5A 2E A5 D1 D5
DPCM : 5E 25 12 EA A5 51 2F A5 55 12 FD 0E A5 5D 51 DA 12 FF 02 E2 2E 55 D5 02 EA AA AD 2E 2E A2 D0 FF
DPCM : 05 51 DE 52 DA D5 15 2D 52 E5 10 DD 15 51 FA 12 D5 DE 2E 50 EA DA 0D 5D E2 AA 52 2E E5 12 DA 12
DPCM : AD D1 1A EA AD 5A DA D5 50 AE 2F 50 D2 EA 0E A5 2A 55 52 AA DD 25 EA AA D5 AA 52 ED 2A 2D 51 E5
DPCM : 15 2D 51 2D 55 D5 25 2D A5 EE A2 AD 55 2E D1 AA 2A AA D5 15 52 AA 55 5E 22 D2 DA AD D5 1D AA AA
DPCM : 2D D1 25 AD A5 2A 25 5D 52 A2 FA 15 5A AA D2 F2 AD 1E A2 F2 AE 22 AA AA 5A 51 5D 25 A1 AF 22 DD
DPCM : 2D 5A F2 52 ED 25 2A DA AA D1 15 22 DA 2D D2 1D D2 D2 DA A5 5A D5 2A EA 5A 55 A5 2D 2A A1 2F 2A
DPCM : A5 D5 25 5D 52 DD 2A E2 5E 51 AF 22 D2 D2 5A AD 25 15 A5 A5 AA 5D 2D AA D2 AA AA AA D5 55 55 1A
DPCM : A5
DPCMDEF  10   689 "fdkick"
DPCM : D5 FF FF FF 8B 00 00 00 00 00 00 FF FF FF FF FF 3F 00 00 00 00 00 40 FF FF FF FF FF FF 23 00 00
DPCM : 00 00 00 00 BD FF FF FF FF FF FF 95 00 01 00 00 00 00 80 DA 7D FF FF FF FF FF BF 55 49 10 00 00
DPCM : 00 00 00 12 A5 B5 BD FF EF FF FF FF F7 B6 55 25 11 02 04 00 00 02 10 24 4A 55 6D 77 DF FF FD FB
DPCM : 7F 7F 77 B7 56 95 12 09 21 20 00 21 80 40 88 48 4A 55 B5 B6 BB F7 7E 7F F7 F7 FB EE ED DA 5A 55
DPCM : 29 25 12 21 84 20 90 20 08 21 24 92 A4 54 55 B5 B6 6D 7B 7B EF BD 77 EF BD BB BB 6D 5B AB 55 95
DPCM : 4A 49 89 24 22 42 84 48 44 88 10 89 24 52 92 4A 55 55 B5 D6 DA B6 DB EE F6 EE 6E BB BB BB DD 6E
DPCM : DB D6 56 AB 55 55 A9 52 4A 49 92 44 92 88 44 24 89 48 24 12 49 92 24 A5 94 2A 55 55 55 AB D6 DA
DPCM : DA DA 6E DB 76 DB DD D6 6E BB ED B6 6D DB DA 5A 6B B5 6A 55 55 A5 2A 95 52 4A 49 92 92 24 92 24
DPCM : 49 54 24 91 24 49 92 92 A4 94 54 4A A5 4A 55 55 55 D5 AA D5 5A AD AD AD 6D 6D DB B6 6D DB 56 B7
DPCM : B6 6D DB B6 B6 B5 B5 D6 5A AD 56 AB 6A 55 55 55 AA 4A 95 4A 29 A5 94 92 92 92 94 24 29 49 52 49
DPCM : 52 92 A4 24 25 25 25 95 54 4A A5 54 A9 2A 55 55 55 55 D5 AA 5A AD 56 AD B5 D6 5A 6B 6B 6D 6B 6B
DPCM : 5B DB 56 6D 6B 6B 5B 5B 5B 5B 6B AD B5 56 AB D5 6A 55 AD AA 6A 55 55 AA AA 4A 95 AA 52 2A 95 4A
DPCM : 29 95 94 52 4A 49 29 29 29 25 55 4A 4A 4A 29 29 A5 94 52 4A A5 54 2A 55 AA 54 A5 AA 4C 55 55 55
DPCM : 55 55 D3 AA 56 B5 6A D5 5A B5 56 6B B5 D6 5A 6B AD AD B5 D6 56 AD B5 D6 DA 5A 6B B5 D6 5A AD 56
DPCM : AD 55 AB 5A 55 AD AA AA AA AA AA AA AA 54 55 AA 52 A5 52 A5 52 A9 94 52 29 95 52 4A 29 95 52 95
DPCM : 54 4A A9 94 52 A9 54 4A 95 4A 95 AA 54 A5 AA 54 55 55 55 55 55 55 55 D5 AA 5A 55 AB 5A B5 6A AD
DPCM : 5A AD 56 AB B5 5A AD D6 6A 55 AD D5 6A B5 56 AB 56 AD 56 AD 5A D5 AA 6A 55 55 AB AA AA AA AA AA
DPCM : AA 52 55 55 AA 4A 55 A9 52 A5 4A 95 2A 55 4A 95 4A 95 4A 55 A9 52 A9 52 A5 4A A9 4A 55 AA 52 55
DPCM : AA 4A 55 55 A5 AA AA AA AA AA AA 5A 55 55 AB AA 55 D5 AA 5A D5 AA 56 AB 56 B5 6A D5 AA 55 55 AB
DPCM : 56 B5 AA 55 AB 66 D5 AA 5A 55 B5 AA AA 5A 55 55 55 55 55 55 55 55 55 AA AA AA 54 55 A9 AA 54 99
DPCM : 2A 55 A5 2A 55 A9 4A 55 55 A9 4A 55 A9 4A 55 A5 AA 52 95 AA AA 52 55 55 55 55 AA AA AA AA AA 55
DPCM : 55 55 55 B5 AA AA 56 55 B5 AA 55 D5 AA 6A 55 B5 55

# DETUNETABLES block

# GROOVES block

# Tracks using default groove:

# INSTRUMENTS block
INST2A03   0     0  -1  -1  -1  -1 "blank / DMC"
KEYDPCM   0   2   5     2   3   0     0  63
KEYDPCM   0   2   7     2   4   0     0  63
KEYDPCM   0   2   9     2   5   0     0  63
KEYDPCM   0   2  10     3   5   0     0  63
KEYDPCM   0   2  11     2   6   0     0  63
KEYDPCM   0   3   0     2   7   0     0  63
KEYDPCM   0   3   1     3   7   0     0  63
KEYDPCM   0   3   2     5   7   0     0  63
KEYDPCM   0   3   3     3   8   0     0  63
KEYDPCM   0   3   4     5   8   0     0  63
KEYDPCM   0   3   5     2   9   0     0  63
KEYDPCM   0   3   6     3   9   0     0  63
KEYDPCM   0   3   7     2  10   0     0  63
KEYDPCM   0   3   8     3  10   0     0  63
KEYDPCM   0   3   9     5  10   0     0  63
KEYDPCM   0   3  10     3  11   0     0  63
KEYDPCM   0   3  11     5  11   0     0  63
KEYDPCM   0   4   0     2  12   0     0  63
KEYDPCM   0   4   1     3  12   0     0  63
KEYDPCM   0   4   2     5  12   0     0  63
KEYDPCM   0   4   3     1  13   0     0  63
KEYDPCM   0   4   4     2  13   0     0  63
KEYDPCM   0   4   5     3  13   0     0  63
KEYDPCM   0   4   6     5  13   0     0  63
KEYDPCM   0   4   7     2  14   0     0  63
KEYDPCM   0   4   8     3  14   0     0  63
KEYDPCM   0   4   9     5  14   0     0  63
KEYDPCM   0   4  10     0  15   0     0  63
KEYDPCM   0   4  11     1  15   0     0  63
KEYDPCM   0   5   0     2  15   0     0  63
KEYDPCM   0   5   1     3  15   0     0  63
KEYDPCM   0   5   2     5  15   0     0  63
KEYDPCM   0   5   4    10  14   0     0  63
KEYDPCM   0   5   5     6  15   0     0  41
KEYDPCM   0   5   6     4  15   0     0 127
KEYDPCM   0   5   7     7  15   0     0 127
KEYDPCM   0   5   8    11  15   0     0 127
KEYDPCM   0   5   9    12  15   0     0 127
KEYDPCM   0   6   0     8   0   1     0  -1
KEYDPCM   0   6   2     8   1   1     0  -1
KEYDPCM   0   6   4     8   2   1     0  -1
KEYDPCM   0   6   5     8   3   1     0  -1
KEYDPCM   0   6   7     8   4   1     0  -1
KEYDPCM   0   6   9     8   5   1     0  -1
KEYDPCM   0   6  11     8   6   1     0  -1
KEYDPCM   0   7   0     8   7   1     0  -1
KEYDPCM   0   7   2     8   8   1     0  -1
KEYDPCM   0   7   4     9  13   1     0  -1
KEYDPCM   0   7   5     8   9   1     0  -1
KEYDPCM   0   7   7     8  10   1     0  -1
KEYDPCM   0   7   9     8  11   1     0  -1
INST2A03   1    -1   1  -1  -1  -1 "blank arp (0x)"
INST2A03   2    -1   0  -1  -1  -1 "blank arp (0xy)"
INST2A03   3     2   4  -1  -1  -1 "kick"
INST2A03   4     4   6  -1  -1   2 "snare"
INST2A03   5     1   3  -1  -1  -1 "hat"
INST2A03   6     3   5  -1  -1  -1 "rel hats"
INST2A03   7     5  -1   0  -1  -1 "triangle drums"
INST2A03   8     0  -1  -1  -1   1 "funny distort guitar"
INST2A03   9     0   1  -1  -1  -1 "chords"
INST2A03  10     6  -1  -1  -1  -1 "funny fadein"

# track HEADER block
TRACK 192   1 140 "New song"
COLUMNS : 1 1 1 1 1

# track FRAMES block
ORDER 00 : 00 00 00 00 00
ORDER 01 : 01 01 01 01 01
ORDER 02 : 02 02 02 02 02
ORDER 03 : 03 03 03 03 03
ORDER 04 : 02 02 02 02 02
ORDER 05 : 04 03 03 04 03
ORDER 06 : 05 04 04 05 04
ORDER 07 : 06 05 05 06 05
ORDER 08 : 07 06 04 05 06
ORDER 09 : 08 07 06 07 07
ORDER 0A : 02 02 02 02 02
ORDER 0B : 03 03 03 03 03
ORDER 0C : 02 02 02 02 02
ORDER 0D : 04 03 03 04 03
ORDER 0E : 05 08 04 05 04
ORDER 0F : 06 09 05 06 05
ORDER 10 : 07 0A 04 05 06
ORDER 11 : 08 0B 05 06 07
ORDER 12 : 09 0C 07 08 08
ORDER 13 : 0A 0D 07 09 09
ORDER 14 : 0B 0E 08 0A 0A
ORDER 15 : 0C 0F 09 0B 0B
ORDER 16 : 0D 10 0A 0C 0C
ORDER 17 : 0E 11 0B 0D 0D
ORDER 18 : 0F 12 0C 0E 0E
ORDER 19 : 10 13 0D 0F 0F
ORDER 1A : 11 14 0E 10 10

# track PATTERNS block
PATTERN 00
ROW 00 : A#2 08 9 V00 : A#2 02 1 025 : C-3 00 . ... : C-# 05 . ... : --- .. . Z00
ROW 01 : ... .. . ... : ... .. . ... : ... .. . ... : ... .. . ... : ... .. . ...
ROW 02 : ... .. . ... : ... .. . ... : ... .. . ... : ... .. . ... : ... .. . ...
ROW 03 : C-3 08 . ... : ... .. . ... : ... .. . ... : ... .. . ... : ... .. . ...
ROW 04 : ... .. . ... : ... .. . ... : ... .. . ... : ... .. . ... : ... .. . ...
ROW 05 : ... .. . ... : ... .. . ... : ... .. . ... : ... .. . ... : ... .. . ...
ROW 06 : ... .. . ... : ... .. . ... : ... .. . ... : ... .. . ... : ... .. . ...
ROW 07 : ... .. . ... : ... .. . ... : ... .. . ... : ... .. . ... : ... .. . ...
ROW 08 : ... .. . ... : ... .. . ... : ... .. . ... : ... .. . ... : ... .. . ...
ROW 09 : --- .. . ... : ... .. . ... : ... .. . ... : ... .. . ... : ... .. . ...
ROW 0A : ... .. . ... : ... .. . ... : ... .. . ... : ... .. . ... : ... .. . ...
ROW 0B : ... .. . ... : ... .. . ... : ... .. . ... : ... .. . ... : ... .. . ...
ROW 0C : C-3 08 . ... : ... .. . ... : ... .. . ... : F-# 05 . ... : ... .. . ...
ROW 0D : --- .. . ... : ... .. . ... : ... .. . ... : ... .. . ... : ... .. . ...
ROW 0E : ... .. . ... : ... .. . ... : ... .. . ... : ... .. . ... : ... .. . ...
ROW 0F : ... .. . ... : ... .. . ... : ... .. . ... : ... .. . ... : ... .. . ...
ROW 10 : ... .. . ... : ... .. . ... : ... .. . ... : ... .. . ... : ... .. . ...
ROW 11 : ... .. . ... : ... .. . ... : ... .. . ... : ... .. . ... : ... .. . ...
ROW 12 : C-3 08 . ... : ... .. . ... : ... .. . ... : ... .. . ... : ... .. . ...
ROW 13 : --- .. . ... : ... .. . ... : ... .. . ... : ... .. . ... : ... .. . ...
ROW 14 : ... .. . ... : ... .. . ... : ... .. . ... : ... .. . ... : ... .. . ...
ROW 15 : ... .. . ... : ... .. . ... : ... .. . ... : ... .. . ... : ... .. . ...
ROW 16 : ... .. . ... : ... .. . ... : ... .. . ... : ... .. . ... : ... .. . ...
ROW 17 : ... .. . ... : ... .. . ... : ... .. . ... : ... .. . ... : ... .. . ...
ROW 18 : A#2 08 . ... : ... .. . ... : ... .. . ... : C-# 05 . ... : ... .. . ...
ROW 19 : ... .. . ... : ... .. . ... : ... .. . ... : ... .. . ... : ... .. . ...
ROW 1A : ... .. . ... : ... .. . ... : ... .. . ... : ... .. . ... : ... .. . ...
ROW 1B : C-3 08 . ... : ... .. . ... : ... .. . ... : ... .. . ... : ... .. . ...
ROW 1C : ... .. . ... : ... .. . ... : ... .. . ... : ... .. . ... : ... .. . ...
ROW 1D : ... .. . ... : ... .. . ... : ... .. . ... : ... .. . ... : ... .. . ...
ROW 1E : ... .. . ... : ... .. . ... : ... .. . ... : ... .. . ... : ... .. . ...
ROW 1F : ... .. . ... : ... .. . ... : ... .. . ... : ... .. . ... : ... .. . ...
ROW 20 : ... .. . ... : ... .. . ... : ... .. . ... : ... .. . ... : ... .. . ...
ROW 21 : --- .. . ... : ... .. . ... : ... .. . ... : ... .. . ... : ... .. . ...
ROW 22 : ... .. . ... : ... .. . ... : ... .. . ... : ... .. . ... : ... .. . ...
ROW 23 : ... .. . ... : ... .. . ... : ... .. . ... : ... .. . ... : ... .. . ...
ROW 24 : C-3 08 . ... : ... .. 2 ... : ... .. . ... : F-# 05 . ... : ... .. . ...
ROW 25 : --- .. . ... : ... .. . ... : ... .. . ... : ... .. . ... : ... .. . ...
ROW 26 : ... .. . ... : ... .. . ... : ... .. . ... : ... .. . ... : ... .. . ...
ROW 27 : ... .. . ... : ... .. . ... : ... .. . ... : ... .. . ... : ... .. . ...
ROW 28 : ... .. . ... : ... .. . ... : ... .. . ... : ... .. . ... : ... .. . ...
ROW 29 : ... .. . ... : ... .. . ... : ... .. . ... : ... .. . ... : ... .. . ...
ROW 2A : G-2 08 . ... : ... .. . ... : ... .. . ... : ... .. . ... : ... .. . ...
ROW 2B : ... .. . ... : ... .. . ... : ... .. . ... : ... .. . ... : ... .. . ...
ROW 2C : ... .. . ... : ... .. . ... : ... .. . ... : ... .. . ... : ... .. . ...
ROW 2D : --- .. . ... : ... .. . ... : ... .. . ... : ... .. . ... : ... .. . ...
ROW 2E : ... .. . ... : ... .. . ... : ... .. . ... : ... .. . ... : ... .. . ...
ROW 2F : ... .. . ... : ... .. . ... : ... .. . ... : ... .. . ... : ... .. . ...
ROW 30 : A#2 08 . ... : ... .. . ... : ... .. . ... : C-# 05 . ... : ... .. . ...
ROW 31 : ... .. . ... : ... .. . ... : ... .. . ... : ... .. . ... : ... .. . ...
ROW 32 : ... .. . ... : ... .. . ... : ... .. . ... : ... .. . ... : ... .. . ...
ROW 33 : C-3 08 . ... : ... .. . ... : ... .. . ... : ... .. . ... : ... .. . ...
ROW 34 : ... .. . ... : ... .. . ... : ... .. . ... : ... .. . ... : ... .. . ...
ROW 35 : ... .. . ... : ... .. . ... : ... .. . ... : ... .. . ... : ... .. . ...
ROW 36 : ... .. . ... : ... .. . ... : ... .. . ... : ... .. . ... : ... .. . ...
ROW 37 : ... .. . ... : ... .. . ... : ... .. . ... : ... .. . ... : ... .. . ...
ROW 38 : ... .. . ... : ... .. . ... : ... .. . ... : ... .. . ... : ... .. . ...
ROW 39 : --- .. . ... : ... .. . ... : ... .. . ... : ... .. . ... : ... .. . ...
ROW 3A : ... .. . ... : ... .. . ... : ... .. . ... : ... .. . ... : ... .. . ...
ROW 3B : ... .. . ... : ... .. . ... : ... .. . ... : ... .. . ... : ... .. . ...
ROW 3C : C-3 08 . ... : ... .. . ... : ... .. . ... : F-# 05 . ... : ... .. . ...
ROW 3D : --- .. . ... : ... .. . ... : ... .. . ... : ... .. . ... : ... .. . ...
ROW 3E : ... .. . ... : ... .. . ... : ... .. . ... : ... .. . ... : ... .. . ...
ROW 3F : ... .. . ... : ... .. . ... : ... .. . ... : ... .. . ... : ... .. . ...
ROW 40 : ... .. . ... : ... .. . ... : ... .. . ... : ... .. . ... : ... .. . ...
ROW 41 : ... .. . ... : ... .. . ... : ... .. . ... : ... .. . ... : ... .. . ...
ROW 42 : C-3 08 . ... : ... .. . ... : ... .. . ... : ... .. . ... : ... .. . ...
ROW 43 : --- .. . ... : ... .. . ... : ... .. . ... : ... .. . ... : ... .. . ...
ROW 44 : ... .. . ... : ... .. . ... : ... .. . ... : ... .. . ... : ... .. . ...
ROW 45 : ... .. . ... : ... .. . ... : ... .. . ... : ... .. . ... : ... .. . ...
ROW 46 : ... .. . ... : ... .. . ... : ... .. . ... : ... .. . ... : ... .. . ...
ROW 47 : ... .. . ... : ... .. . ... : ... .. . ... : ... .. . ... : ... .. . ...
ROW 48 : C-3 08 . ... : ... .. 3 ... : ... .. . ... : C-# 05 . ... : ... .. . ...
ROW 49 : ... .. . ... : ... .. . ... : ... .. . ... : ... .. . ... : ... .. . ...
ROW 4A : ... .. . ... : ... .. . ... : ... .. . ... : ... .. . ... : ... .. . ...
ROW 4B : --- .. . ... : ... .. . ... : ... .. . ... : ... .. . ... : ... .. . ...
ROW 4C : ... .. . ... : ... .. . ... : ... .. . ... : ... .. . ... : ... .. . ...
ROW 4D : ... .. . ... : ... .. . ... : ... .. . ... : ... .. . ... : ... .. . ...
ROW 4E : C-3 08 . ... : ... .. . ... : ... .. . ... : ... .. . ... : ... .. . ...
ROW 4F : --- .. . ... : ... .. . ... : ... .. . ... : ... .. . ... : ... .. . ...
ROW 50 : ... .. . ... : ... .. . ... : ... .. . ... : ... .. . ... : ... .. . ...
ROW 51 : ... .. . ... : ... .. . ... : ... .. . ... : ... .. . ... : ... .. . ...
ROW 52 : ... .. . ... : ... .. . ... : ... .. . ... : ... .. . ... : ... .. . ...
ROW 53 : ... .. . ... : ... .. . ... : ... .. . ... : ... .. . ... : ... .. . ...
ROW 54 : C-3 08 . ... : ... .. . ... : ... .. . ... : F-# 05 . ... : ... .. . ...
ROW 55 : --- .. . ... : ... .. . ... : ... .. . ... : ... .. . ... : ... .. . ...
ROW 56 : ... .. . ... : ... .. . ... : ... .. . ... : ... .. . ... : ... .. . ...
ROW 57 : ... .. . ... : ... .. . ... : ... .. . ... : ... .. . ... : ... .. . ...
ROW 58 : ... .. . ... : ... .. . ... : ... .. . ... : ... .. . ... : ... .. . ...
ROW 59 : ... .. . ... : ... .. . ... : ... .. . ... : ... .. . ... : ... .. . ...
ROW 5A : A#2 08 . ... : ... .. . ... : ... .. . ... : ... .. . ... : ... .. . ...
ROW 5B : ... .. . ... : ... .. . ... : ... .. . ... : ... .. . ... : ... .. . ...
ROW 5C : ... .. . ... : ... .. . ... : ... .. . ... : ... .. . ... : ... .. . ...
ROW 5D : --- .. . ... : ... .. . ... : ... .. . ... : ... .. . ... : ... .. . ...
ROW 5E : ... .. . ... : ... .. . ... : ... .. . ... : ... .. . ... : ... .. . ...
ROW 5F : ... .. . ... : ... .. . ... : ... .. . ... : ... .. . ... : ... .. . ...
ROW 60 : A#2 08 . ... : ... .. . ... : ... .. . ... : C-# 05 . ... : ... .. . ...
ROW 61 : ... .. . ... : ... .. . ... : ... .. . ... : ... .. . ... : ... .. . ...
ROW 62 : ... .. . ... : ... .. . ... : ... .. . ... : ... .. . ... : ... .. . ...
ROW 63 : C-3 08 . ... : ... .. . ... : ... .. . ... : ... .. . ... : ... .. . ...
ROW 64 : ... .. . ... : ... .. . ... : ... .. . ... : ... .. . ... : ... .. . ...
ROW 65 : ... .. . ... : ... .. . ... : ... .. . ... : ... .. . ... : ... .. . ...
ROW 66 : ... .. . ... : ... .. . ... : ... .. . ... : ... .. . ... : ... .. . ...
ROW 67 : ... .. . ... : ... .. . ... : ... .. . ... : ... .. . ... : ... .. . ...
ROW 68 : ... .. . ... : ... .. . ... : ... .. . ... : ... .. . ... : ... .. . ...
ROW 69 : --- .. . ... : ... .. . ... : ... .. . ... : ... .. . ... : ... .. . ...
ROW 6A : ... .. . ... : ... .. . ... : ... .. . ... : ... .. . ... : ... .. . ...
ROW 6B : ... .. . ... : ... .. . ... : ... .. . ... : ... .. . ... : ... .. . ...
ROW 6C : C-3 08 . ... : ... .. 4 ... : ... .. . ... : F-# 05 . ... : ... .. . ...
ROW 6D : --- .. . ... : ... .. . ... : ... .. . ... : ... .. . ... : ... .. . ...
ROW 6E : ... .. . ... : ... .. . ... : ... .. . ... : ... .. . ... : ... .. . ...
ROW 6F : ... .. . ... : ... .. . ... : ... .. . ... : ... .. . ... : ... .. . ...
ROW 70 : ... .. . ... : ... .. . ... : ... .. . ... : ... .. . ... : ... .. . ...
ROW 71 : ... .. . ... : ... .. . ... : ... .. . ... : ... .. . ... : ... .. . ...
ROW 72 : C-3 08 . ... : ... .. . ... : ... .. . ... : ... .. . ... : ... .. . ...
ROW 73 : --- .. . ... : ... .. . ... : ... .. . ... : ... .. . ... : ... .. . ...
ROW 74 : ... .. . ... : ... .. . ... : ... .. . ... : ... .. . ... : ... .. . ...
ROW 75 : ... .. . ... : ... .. . ... : ... .. . ... : ... .. . ... : ... .. . ...
ROW 76 : ... .. . ... : ... .. . ... : ... .. . ... : ... .. . ... : ... .. . ...
ROW 77 : ... .. . ... : ... .. . ... : ... .. . ... : ... .. . ... : ... .. . ...
ROW 78 : D#3 08 . ... : ... .. . ... : ... .. . ... : C-# 05 . ... : ... .. . ...
ROW 79 : ... .. . ... : ... .. . ... : ... .. . ... : ... .. . ... : ... .. . ...
ROW 7A : ... .. . ... : ... .. . ... : ... .. . ... : ... .. . ... : ... .. . ...
ROW 7B : ... .. . ... : ... .. . ... : ... .. . ... : ... .. . ... : ... .. . ...
ROW 7C : ... .. . ... : ... .. . ... : ... .. . ... : ... .. . ... : ... .. . ...
ROW 7D : --- .. . ... : ... .. . ... : ... .. . ... : ... .. . ... : ... .. . ...
ROW 7E : C-3 08 . ... : ... .. . ... : ... .. . ... : ... .. . ... : ... .. . ...
ROW 7F : --- .. . ... : ... .. . ... : ... .. . ... : ... .. . ... : ... .. . ...
ROW 80 : ... .. . ... : ... .. . ... : ... .. . ... : ... .. . ... : ... .. . ...
ROW 81 : ... .. . ... : ... .. . ... : ... .. . ... : ... .. . ... : ... .. . ...
ROW 82 : ... .. . ... : ... .. . ... : ... .. . ... : ... .. . ... : ... .. . ...
ROW 83 : ... .. . ... : ... .. . ... : ... .. . ... : ... .. . ... : ... .. . ...
ROW 84 : C-3 08 . ... : ... .. . ... : ... .. . ... : F-# 05 . ... : ... .. . ...
ROW 85 : --- .. . ... : ... .. . ... : ... .. . ... : ... .. . ... : ... .. . ...
ROW 86 : ... .. . ... : ... .. . ... : ... .. . ... : ... .. . ... : ... .. . ...
ROW 87 : ... .. . ... : ... .. . ... : ... .. . ... : ... .. . ... : ... .. . ...
ROW 88 : ... .. . ... : ... .. . ... : ... .. . ... : ... .. . ... : ... .. . ...
ROW 89 : ... .. . ... : ... .. . ... : ... .. . ... : ... .. . ... : ... .. . ...
ROW 8A : C-3 08 . ... : ... .. . ... : ... .. . ... : ... .. . ... : ... .. . ...
ROW 8B : ... .. . ... : ... .. . ... : ... .. . ... : ... .. . ... : ... .. . ...
ROW 8C : ... .. . ... : ... .. . ... : ... .. . ... : ... .. . ... : ... .. . ...
ROW 8D : D-3 08 . ... : ... .. . ... : ... .. . ... : ... .. . ... : ... .. . ...
ROW 8E : ... .. . ... : ... .. . ... : ... .. . ... : ... .. . ... : ... .. . ...
ROW 8F : ... .. . ... : ... .. . ... : ... .. . ... : ... .. . ... : ... .. . ...
ROW 90 : ... .. . ... : ... .. . ... : ... .. . ... : C-# 05 . ... : ... .. . ...
ROW 91 : ... .. . ... : ... .. . ... : ... .. . ... : ... .. . ... : ... .. . ...
ROW 92 : ... .. . ... : ... .. . ... : ... .. . ... : ... .. . ... : ... .. . ...
ROW 93 : --- .. . ... : ... .. . ... : ... .. . ... : ... .. . ... : ... .. . ...
ROW 94 : ... .. . ... : ... .. . ... : ... .. . ... : ... .. . ... : ... .. . ...
ROW 95 : ... .. . ... : ... .. . ... : ... .. . ... : ... .. . ... : ... .. . ...
ROW 96 : A#2 08 . ... : ... .. . ... : ... .. . ... : ... .. . ... : ... .. . ...
ROW 97 : ... .. . ... : ... .. . ... : ... .. . ... : ... .. . ... : ... .. . ...
ROW 98 : ... .. . ... : ... .. . ... : ... .. . ... : ... .. . ... : ... .. . ...
ROW 99 : --- .. . ... : ... .. . ... : ... .. . ... : ... .. . ... : ... .. . ...
ROW 9A : ... .. . ... : ... .. . ... : ... .. . ... : ... .. . ... : ... .. . ...
ROW 9B : ... .. . ... : ... .. . ... : ... .. . ... : ... .. . ... : ... .. . ...
ROW 9C : A#2 08 . ... : ... .. . ... : ... .. . ... : F-# 05 . ... : ... .. . ...
ROW 9D : --- .. . ... : ... .. . ... : ... .. . ... : ... .. . ... : ... .. . ...
ROW 9E : ... .. . ... : ... .. . ... : ... .. . ... : ... .. . ... : ... .. . ...
ROW 9F : ... .. . ... : ... .. . ... : ... .. . ... : ... .. . ... : ... .. . ...
ROW A0 : ... .. . ... : ... .. . ... : ... .. . ... : ... .. . ... : ... .. . ...
ROW A1 : ... .. . ... : ... .. . ... : ... .. . ... : ... .. . ... : ... .. . ...
ROW A2 : A#2 08 . ... : ... .. . ... : ... .. . ... : ... .. . ... : ... .. . ...
ROW A3 : ... .. . ... : ... .. . ... : ... .. . ... : ... .. . ... : ... .. . ...
ROW A4 : ... .. . ... : ... .. . ... : ... .. . ... : ... .. . ... : ... .. . ...
ROW A5 : C-3 08 . ... : ... .. . ... : ... .. . ... : ... .. . ... : ... .. . ...
ROW A6 : ... .. . ... : ... .. . ... : ... .. . ... : ... .. . ... : ... .. . ...
ROW A7 : ... .. . ... : ... .. . ... : ... .. . ... : ... .. . ... : ... .. . ...
ROW A8 : ... .. . ... : ... .. . ... : ... .. . ... : C-# 05 . ... : ... .. . ...
ROW A9 : ... .. . ... : ... .. . ... : ... .. . ... : ... .. . ... : ... .. . ...
ROW AA : ... .. . ... : ... .. . ... : ... .. . ... : ... .. . ... : ... .. . ...
ROW AB : --- .. . ... : ... .. . ... : ... .. . ... : ... .. . ... : ... .. . ...
ROW AC : ... .. . ... : ... .. . ... : ... .. . ... : ... .. . ... : ... .. . ...
ROW AD : ... .. . ... : ... .. . ... : ... .. . ... : ... .. . ... : ... .. . ...
ROW AE : G-2 08 . ... : ... .. . ... : ... .. . ... : ... .. . ... : ... .. . ...
ROW AF : --- .. . ... : ... .. . ... : ... .. . ... : ... .. . ... : ... .. . ...
ROW B0 : ... .. . ... : ... .. . ... : ... .. . ... : ... .. . ... : ... .. . ...
ROW B1 : ... .. . ... : ... .. . ... : ... .. . ... : ... .. . ... : ... .. . ...
ROW B2 : ... .. . ... : ... .. . ... : ... .. . ... : ... .. . ... : ... .. . ...
ROW B3 : ... .. . ... : ... .. . ... : ... .. . ... : ... .. . ... : ... .. . ...
ROW B4 : F-2 08 . ... : ... .. . ... : ... .. . ... : F-# 05 . ... : ... .. . ...
ROW B5 : --- .. . ... : ... .. . ... : ... .. . ... : ... .. . ... : ... .. . ...
ROW B6 : ... .. . ... : ... .. . ... : ... .. . ... : ... .. . ... : ... .. . ...
ROW B7 : ... .. . ... : ... .. . ... : ... .. . ... : ... .. . ... : ... .. . ...
ROW B8 : ... .. . ... : ... .. . ... : ... .. . ... : ... .. . ... : ... .. . ...
ROW B9 : ... .. . ... : ... .. . ... : ... .. . ... : ... .. . ... : ... .. . ...
ROW BA : G-2 08 . ... : ... .. . ... : ... .. . ... : ... .. . ... : ... .. . ...
ROW BB : --- .. . ... : ... .. . ... : ... .. . ... : ... .. . ... : ... .. . ...
ROW BC : ... .. . ... : ... .. . ... : ... .. . ... : ... .. . ... : ... .. . ...
ROW BD : ... .. . ... : ... .. . ... : ... .. . ... : ... .. . ... : ... .. . ...
ROW BE : ... .. . ... : ... .. . ... : ... .. . ... : ... .. . ... : ... .. . ...
ROW BF : ... .. . ... : ... .. . ... : ... .. . ... : ... .. . ... : ... .. . ...
PATTERN 01
ROW 00 : A#2 08 . ... : ... .. 5 ... : ... .. . ... : C-# 05 . ... : ... .. . ...
ROW 01 : ... .. . ... : ... .. . ... : ... .. . ... : ... .. . ... : ... .. . ...
ROW 02 : ... .. . ... : ... .. . ... : ... .. . ... : ... .. . ... : ... .. . ...
ROW 03 : C-3 08 . ... : ... .. . ... : ... .. . ... : ... .. . ... : ... .. . ...
ROW 04 : ... .. . ... : ... .. . ... : ... .. . ... : ... .. . ... : ... .. . ...
ROW 05 : ... .. . ... : ... .. . ... : ... .. . ... : ... .. . ... : ... .. . ...
ROW 06 : ... .. . ... : ... .. . ... : ... .. . ... : ... .. . ... : ... .. . ...
ROW 07 : ... .. . ... : ... .. . ... : ... .. . ... : ... .. . ... : ... .. . ...
ROW 08 : ... .. . ... : ... .. . ... : ... .. . ... : ... .. . ... : ... .. . ...
ROW 09 : --- .. . ... : ... .. . ... : ... .. . ... : ... .. . ... : ... .. . ...
ROW 0A : ... .. . ... : ... .. . ... : ... .. . ... : ... .. . ... : ... .. . ...
ROW 0B : ... .. . ... : ... .. . ... : ... .. . ... : ... .. . ... : ... .. . ...
ROW 0C : C-3 08 . ... : ... .. . ... : ... .. . ... : F-# 05 . ... : ... .. . ...
ROW 0D : --- .. . ... : ... .. . ... : ... .. . ... : ... .. . ... : ... .. . ...
ROW 0E : ... .. . ... : ... .. . ... : ... .. . ... : ... .. . ... : ... .. . ...
ROW 0F : ... .. . ... : ... .. . ... : ... .. . ... : ... .. . ... : ... .. . ...
ROW 10 : ... .. . ... : ... .. . ... : ... .. . ... : ... .. . ... : ... .. . ...
ROW 11 : ... .. . ... : ... .. . ... : ... .. . ... : ... .. . ... : ... .. . ...
ROW 12 : C-3 08 . ... : ... .. . ... : ... .. . ... : ... .. . ... : ... .. . ...
ROW 13 : --- .. . ... : ... .. . ... : ... .. . ... : ... .. . ... : ... .. . ...
ROW 14 : ... .. . ... : ... .. . ... : ... .. . ... : ... .. . ... : ... .. . ...
ROW 15 : ... .. . ... : ... .. . ... : ... .. . ... : ... .. . ... : ... .. . ...
ROW 16 : ... .. . ... : ... .. . ... : ... .. . ... : ... .. . ... : ... .. . ...
ROW 17 : ... .. . ... : ... .. . ... : ... .. . ... : ... .. . ... : ... .. . ...
ROW 18 : A#2 08 . ... : ... .. . ... : ... .. . ... : C-# 05 . ... : ... .. . ...
ROW 19 : ... .. . ... : ... .. . ... : ... .. . ... : ... .. . ... : ... .. . ...
ROW 1A : ... .. . ... : ... .. . ... : ... .. . ... : ... .. . ... : ... .. . ...
ROW 1B : C-3 08 . ... : ... .. . ... : ... .. . ... : ... .. . ... : ... .. . ...
ROW 1C : ... .. . ... : ... .. . ... : ... .. . ... : ... .. . ... : ... .. . ...
ROW 1D : ... .. . ... : ... .. . ... : ... .. . ... : ... .. . ... : ... .. . ...
ROW 1E : ... .. . ... : ... .. . ... : ... .. . ... : ... .. . ... : ... .. . ...
ROW 1F : ... .. . ... : ... .. . ... : ... .. . ... : ... .. . ... : ... .. . ...
ROW 20 : ... .. . ... : ... .. . ... : ... .. . ... : ... .. . ... : ... .. . ...
ROW 21 : --- .. . ... : ... .. . ... : ... .. . ... : ... .. . ... : ... .. . ...
ROW 22 : ... .. . ... : ... .. . ... : ... .. . ... : ... .. . ... : ... .. . ...
ROW 23 : ... .. . ... : ... .. . ... : ... .. . ... : ... .. . ... : ... .. . ...
ROW 24 : C-3 08 . ... : ... .. . ... : ... .. . ... : F-# 05 . ... : ... .. . ...
ROW 25 : --- .. . ... : ... .. . ... : ... .. . ... : ... .. . ... : ... .. . ...
ROW 26 : ... .. . ... : ... .. . ... : ... .. . ... : ... .. . ... : ... .. . ...
ROW 27 : ... .. . ... : ... .. . ... : ... .. . ... : ... .. . ... : ... .. . ...
ROW 28 : ... .. . ... : ... .. . ... : ... .. . ... : ... .. . ... : ... .. . ...
ROW 29 : ... .. . ... : ... .. . ... : ... .. . ... : ... .. . ... : ... .. . ...
ROW 2A : G-2 08 . ... : ... .. . ... : ... .. . ... : ... .. . ... : ... .. . ...
ROW 2B : ... .. . ... : ... .. . ... : ... .. . ... : ... .. . ... : ... .. . ...
ROW 2C : ... .. . ... : ... .. . ... : ... .. . ... : ... .. . ... : ... .. . ...
ROW 2D : --- .. . ... : ... .. . ... : ... .. . ... : ... .. . ... : ... .. . ...
ROW 2E : ... .. . ... : ... .. . ... : ... .. . ... : ... .. . ... : ... .. . ...
ROW 2F : ... .. . ... : ... .. . ... : ... .. . ... : ... .. . ... : ... .. . ...
ROW 30 : A#2 08 . ... : ... .. . ... : ... .. . ... : C-# 05 . ... : ... .. . ...
ROW 31 : ... .. . ... : ... .. . ... : ... .. . ... : ... .. . ... : ... .. . ...
ROW 32 : ... .. . ... : ... .. . ... : ... .. . ... : ... .. . ... : ... .. . ...
ROW 33 : C-3 08 . ... : ... .. . ... : ... .. . ... : ... .. . ... : ... .. . ...
ROW 34 : ... .. . ... : ... .. . ... : ... .. . ... : ... .. . ... : ... .. . ...
ROW 35 : ... .. . ... : ... .. . ... : ... .. . ... : ... .. . ... : ... .. . ...
ROW 36 : ... .. . ... : ... .. . ... : ... .. . ... : ... .. . ... : ... .. . ...
ROW 37 : ... .. . ... : ... .. . ... : ... .. . ... : ... .. . ... : ... .. . ...
ROW 38 : ... .. . ... : ... .. . ... : ... .. . ... : ... .. . ... : ... .. . ...
ROW 39 : --- .. . ... : ... .. . ... : ... .. . ... : ... .. . ... : ... .. . ...
ROW 3A : ... .. . ... : ... .. . ... : ... .. . ... : ... .. . ... : ... .. . ...
ROW 3B : ... .. . ... : ... .. . ... : ... .. . ... : ... .. . ... : ... .. . ...
ROW 3C : C-3 08 . ... : ... .. . ... : ... .. . ... : F-# 05 . ... : ... .. . ...
ROW 3D : --- .. . ... : ... .. . ... : ... .. . ... : ... .. . ... : ... .. . ...
ROW 3E : ... .. . ... : ... .. . ... : ... .. . ... : ... .. . ... : ... .. . ...
ROW 3F : ... .. . ... : ... .. . ... : ... .. . ... : ... .. . ... : ... .. . ...
ROW 40 : ... .. . ... : ... .. . ... : ... .. . ... : ... .. . ... : ... .. . ...
ROW 41 : ... .. . ... : ... .. . ... : ... .. . ... : ... .. . ... : ... .. . ...
ROW 42 : C-3 08 . ... : ... .. . ... : ... .. . ... : ... .. . ... : ... .. . ...
ROW 43 : --- .. . ... : ... .. . ... : ... .. . ... : ... .. . ... : ... .. . ...
ROW 44 : ... .. . ... : ... .. . ... : ... .. . ... : ... .. . ... : ... .. . ...
ROW 45 : ... .. . ... : ... .. . ... : ... .. . ... : ... .. . ... : ... .. . ...
ROW 46 : ... .. . ... : ... .. . ... : ... .. . ... : ... .. . ... : ... .. . ...
ROW 47 : ... .. . ... : ... .. . ... : ... .. . ... : ... .. . ... : ... .. . ...
ROW 48 : C-3 08 . ... : ... .. . ... : ... .. . ... : C-# 05 . ... : ... .. . ...
ROW 49 : ... .. . ... : ... .. . ... : ... .. . ... : ... .. . ... : ... .. . ...
ROW 4A : ... .. . ... : ... .. . ... : ... .. . ... : ... .. . ... : ... .. . ...
ROW 4B : --- .. . ... : ... .. . ... : ... .. . ... : ... .. . ... : ... .. . ...
ROW 4C : ... .. . ... : ... .. . ... : ... .. . ... : ... .. . ... : ... .. . ...
ROW 4D : ... .. . ... : ... .. . ... : ... .. . ... : ... .. . ... : ... .. . ...
ROW 4E : C-3 08 . ... : ... .. . ... : ... .. . ... : ... .. . ... : ... .. . ...
ROW 4F : --- .. . ... : ... .. . ... : ... .. . ... : ... .. . ... : ... .. . ...
ROW 50 : ... .. . ... : ... .. . ... : ... .. . ... : ... .. . ... : ... .. . ...
ROW 51 : ... .. . ... : ... .. . ... : ... .. . ... : ... .. . ... : ... .. . ...
ROW 52 : ... .. . ... : ... .. . ... : ... .. . ... : ... .. . ... : ... .. . ...
ROW 53 : ... .. . ... : ... .. . ... : ... .. . ... : ... .. . ... : ... .. . ...
ROW 54 : C-3 08 . ... : ... .. . ... : ... .. . ... : F-# 05 . ... : ... .. . ...
ROW 55 : --- .. . ... : ... .. . ... : ... .. . ... : ... .. . ... : ... .. . ...
ROW 56 : ... .. . ... : ... .. . ... : ... .. . ... : ... .. . ... : ... .. . ...
ROW 57 : ... .. . ... : ... .. . ... : ... .. . ... : ... .. . ... : ... .. . ...
ROW 58 : ... .. . ... : ... .. . ... : ... .. . ... : ... .. . ... : ... .. . ...
ROW 59 : ... .. . ... : ... .. . ... : ... .. . ... : ... .. . ... : ... .. . ...
ROW 5A : A#2 08 . ... : ... .. . ... : ... .. . ... : ... .. . ... : ... .. . ...
ROW 5B : ... .. . ... : ... .. . ... : ... .. . ... : ... .. . ... : ... .. . ...
ROW 5C : ... .. . ... : ... .. . ... : ... .. . ... : ... .. . ... : ... .. . ...
ROW 5D : --- .. . ... : ... .. . ... : ... .. . ... : ... .. . ... : ... .. . ...
ROW 5E : ... .. . ... : ... .. . ... : ... .. . ... : ... .. . ... : ... .. . ...
ROW 5F : ... .. . ... : ... .. . ... : ... .. . ... : ... .. . ... : ... .. . ...
ROW 60 : ... .. . ... : ... .. . ... : F-6 00 . ... : 0-# 04 . ... : F-5 00 . ...
ROW 61 : ... .. . ... : ... .. . ... : ... .. . ... : ... .. . ... : ... .. . ...
ROW 62 : ... .. . ... : ... .. . ... : ... .. . ... : ... .. . ... : ... .. . ...
ROW 63 : ... .. . ... : ... .. . ... : D-6 00 . ... : ... .. . ... : ... .. . ...
ROW 64 : ... .. . ... : ... .. . ... : ... .. . ... : ... .. . ... : ... .. . ...
ROW 65 : ... .. . ... : ... .. . ... : ... .. . ... : ... .. . ... : ... .. . ...
ROW 66 : ... .. . ... : ... .. . ... : C-6 00 . ... : ... .. . ... : ... .. . ...
ROW 67 : ... .. . ... : ... .. . ... : ... .. . ... : ... .. . ... : ... .. . ...
ROW 68 : ... .. . ... : ... .. . ... : ... .. . ... : ... .. . ... : ... .. . ...
ROW 69 : ... .. . ... : ... .. . ... : G-5 00 . ... : ... .. . ... : ... .. . ...
ROW 6A : ... .. . ... : ... .. . ... : ... .. . ... : ... .. . ... : ... .. . ...
ROW 6B : ... .. . ... : ... .. . ... : ... .. . ... : ... .. . ... : ... .. . ...
ROW 6C : ... .. . ... : ... .. . ... : F-5 00 . ... : F-# 05 . ... : ... .. . ...
ROW 6D : ... .. . ... : ... .. . ... : ... .. . ... : ... .. . ... : ... .. . ...
ROW 6E : ... .. . ... : ... .. . ... : ... .. . ... : ... .. . ... : ... .. . ...
ROW 6F : ... .. . ... : ... .. . ... : C-5 00 . ... : ... .. . ... : ... .. . ...
ROW 70 : ... .. . ... : ... .. . ... : ... .. . ... : ... .. . ... : ... .. . ...
ROW 71 : ... .. . ... : ... .. . ... : ... .. . ... : ... .. . ... : ... .. . ...
ROW 72 : ... .. . ... : ... .. . ... : F-4 00 . ... : ... .. . ... : ... .. . ...
ROW 73 : ... .. . ... : ... .. . ... : ... .. . ... : ... .. . ... : ... .. . ...
ROW 74 : ... .. . ... : ... .. . ... : ... .. . ... : ... .. . ... : ... .. . ...
ROW 75 : ... .. . ... : ... .. . ... : D-4 00 . ... : ... .. . ... : ... .. . ...
ROW 76 : ... .. . ... : ... .. . ... : ... .. . ... : ... .. . ... : ... .. . ...
ROW 77 : ... .. . ... : ... .. . 000 : ... .. . ... : ... .. . ... : ... .. . ...
ROW 78 : ... .. . ... : F-5 00 3 V02 : C-4 00 . ... : C-# 05 . ... : ... .. . ...
ROW 79 : ... .. . ... : ... .. . ... : ... .. . ... : ... .. . ... : ... .. . ...
ROW 7A : ... .. . ... : ... .. . ... : ... .. . ... : ... .. . ... : ... .. . ...
ROW 7B : ... .. . ... : D-5 00 . ... : G-3 00 . ... : ... .. . ... : ... .. . ...
ROW 7C : ... .. . ... : ... .. . ... : ... .. . ... : ... .. . ... : ... .. . ...
ROW 7D : ... .. . ... : ... .. . ... : ... .. . ... : ... .. . ... : ... .. . ...
ROW 7E : ... .. . ... : C-5 00 . ... : D-3 00 . ... : ... .. . ... : ... .. . ...
ROW 7F : ... .. . ... : ... .. . ... : ... .. . ... : ... .. . ... : ... .. . ...
ROW 80 : ... .. . ... : ... .. . ... : ... .. . ... : ... .. . ... : ... .. . ...
ROW 81 : ... .. . ... : G-4 00 . ... : ... .. . ... : ... .. . ... : ... .. . ...
ROW 82 : ... .. . ... : ... .. . ... : ... .. . ... : ... .. . ... : ... .. . ...
ROW 83 : ... .. . ... : ... .. . ... : ... .. . ... : ... .. . ... : ... .. . ...
ROW 84 : ... .. . ... : F-4 00 . ... : --- .. . ... : F-# 05 . ... : ... .. . ...
ROW 85 : ... .. . ... : ... .. . ... : ... .. . ... : ... .. . ... : ... .. . ...
ROW 86 : ... .. . ... : ... .. . ... : ... .. . ... : ... .. . ... : ... .. . ...
ROW 87 : ... .. . ... : C-4 00 . ... : ... .. . ... : ... .. . ... : ... .. . ...
ROW 88 : ... .. . ... : ... .. . ... : ... .. . ... : ... .. . ... : ... .. . ...
ROW 89 : ... .. . ... : ... .. . ... : ... .. . ... : ... .. . ... : ... .. . ...
ROW 8A : ... .. . ... : F-3 00 . ... : G-4 07 . ... : 0-# 04 . ... : ... .. . ...
ROW 8B : ... .. . ... : ... .. . ... : ... .. . ... : ... .. . ... : ... .. . ...
ROW 8C : ... .. . ... : ... .. . ... : ... .. . ... : ... .. . ... : ... .. . ...
ROW 8D : ... .. . ... : D-3 00 . ... : G-4 07 . ... : 0-# 04 . ... : ... .. . ...
ROW 8E : ... .. . ... : ... .. . ... : ... .. . ... : ... .. . ... : ... .. . ...
ROW 8F : ... .. . ... : ... .. . ... : ... .. . ... : ... .. . ... : ... .. . ...
ROW 90 : F-2 08 . ... : C-3 00 . ... : G-4 07 . ... : 0-# 04 . ... : F-4 00 . ...
ROW 91 : ... .. . ... : ... .. . ... : ... .. . ... : ... .. . ... : ... .. . ...
ROW 92 : ... .. . ... : ... .. . ... : ... .. . ... : ... .. . ... : ... .. . ...
ROW 93 : ... .. . ... : G-2 00 . ... : ... .. . ... : ... .. . ... : ... .. . ...
ROW 94 : ... .. . ... : ... .. . ... : ... .. . ... : ... .. . ... : ... .. . ...
ROW 95 : ... .. . ... : ... .. . ... : ... .. . ... : ... .. . ... : ... .. . ...
ROW 96 : F-1 08 . ... : D-2 00 . ... : C-4 07 . ... : 0-# 03 . ... : F-3 00 . ...
ROW 97 : ... .. . ... : ... .. . ... : ... .. . ... : ... .. . ... : ... .. . ...
ROW 98 : ... .. . ... : ... .. . ... : ... .. . ... : ... .. . ... : ... .. . ...
ROW 99 : ... .. . ... : ... .. . ... : --- .. . ... : ... .. . ... : ... .. . ...
ROW 9A : ... .. . ... : ... .. . ... : ... .. . ... : ... .. . ... : ... .. . ...
ROW 9B : ... .. . ... : ... .. . ... : ... .. . ... : ... .. . ... : ... .. . ...
ROW 9C : ... .. . ... : --- .. . ... : C-4 07 . ... : 0-# 03 . ... : ... .. . ...
ROW 9D : ... .. . ... : ... .. . ... : ... .. . ... : ... .. . ... : ... .. . ...
ROW 9E : ... .. . ... : ... .. . ... : ... .. . ... : ... .. . ... : ... .. . ...
ROW 9F : ... .. . ... : ... .. . ... : --- .. . ... : ... .. . ... : ... .. . ...
ROW A0 : ... .. . ... : ... .. . ... : ... .. . ... : ... .. . ... : ... .. . ...
ROW A1 : ... .. . ... : ... .. . ... : ... .. . ... : ... .. . ... : ... .. . ...
ROW A2 : G-1 08 . ... : ... .. . ... : G-4 07 . ... : 0-# 04 . ... : G-3 00 . ...
ROW A3 : ... .. . ... : ... .. . ... : ... .. . ... : ... .. . ... : ... .. . ...
ROW A4 : ... .. . ... : ... .. . ... : ... .. . ... : ... .. . ... : ... .. . ...
ROW A5 : ... .. . ... : ... .. . ... : ... .. . ... : ... .. . ... : ... .. . ...
ROW A6 : ... .. . ... : ... .. . ... : ... .. . ... : ... .. . ... : ... .. . ...
ROW A7 : ... .. . ... : ... .. . ... : ... .. . ... : ... .. . ... : ... .. . ...
ROW A8 : ... .. . ... : ... .. . ... : G-4 07 . ... : 0-# 04 . ... : ... .. . ...
ROW A9 : ... .. . ... : ... .. . ... : ... .. . ... : ... .. . ... : ... .. . ...
ROW AA : ... .. . ... : ... .. . ... : ... .. . ... : ... .. . ... : ... .. . ...
ROW AB : ... .. . ... : ... .. . ... : ... .. . ... : ... .. . ... : ... .. . ...
ROW AC : ... .. . ... : ... .. . ... : ... .. . ... : ... .. . ... : ... .. . ...
ROW AD : ... .. . ... : ... .. . ... : ... .. . ... : ... .. . ... : ... .. . ...
ROW AE : A#1 08 . ... : ... .. . ... : G-4 07 . ... : 0-# 04 . ... : A#3 00 . ...
ROW AF : ... .. . ... : ... .. . ... : ... .. . ... : ... .. . ... : ... .. . ...
ROW B0 : ... .. . ... : ... .. . ... : ... .. . ... : ... .. . ... : ... .. . ...
ROW B1 : ... .. . ... : ... .. . ... : ... .. . ... : ... .. . ... : ... .. . ...
ROW B2 : ... .. . ... : ... .. . ... : ... .. . ... : ... .. . ... : ... .. . ...
ROW B3 : ... .. . ... : ... .. . ... : ... .. . ... : ... .. . ... : ... .. . ...
ROW B4 : ... .. . ... : ... .. . ... : G-4 07 . ... : 0-# 04 . ... : ... .. . ...
ROW B5 : ... .. . ... : ... .. . ... : ... .. . ... : ... .. . ... : ... .. . ...
ROW B6 : ... .. . ... : ... .. . ... : ... .. . ... : ... .. . ... : ... .. . ...
ROW B7 : ... .. . ... : ... .. . ... : ... .. . ... : ... .. . ... : ... .. . ...
ROW B8 : ... .. . ... : ... .. . ... : ... .. . ... : ... .. . ... : ... .. . ...
ROW B9 : ... .. . ... : ... .. . ... : ... .. . ... : ... .. . ... : ... .. . ...
ROW BA : B-1 08 . ... : ... .. . ... : G-4 07 . ... : 0-# 04 . ... : B-3 00 . ...
ROW BB : ... .. . ... : ... .. . ... : ... .. . ... : ... .. . ... : ... .. . ...
ROW BC : ... .. . ... : ... .. . ... : ... .. . ... : ... .. . ... : ... .. . ...
ROW BD : ... .. . ... : ... .. . ... : ... .. . ... : ... .. . ... : ... .. . ...
ROW BE : ... .. . ... : ... .. . ... : ... .. . ... : ... .. . ... : ... .. . ...
ROW BF : ... .. . V02 : ... .. . ... : ... .. . ... : ... .. . ... : ... .. . ...
PATTERN 02
ROW 00 : F-3 08 A Q32 : === .. . V00 : C-4 07 . ... : B-# 06 . ... : C-4 00 . ...
ROW 01 : ... .. . ... : ... .. . ... : ... .. . ... : ... .. . ... : ... .. . ...
ROW 02 : ... .. . ... : ... .. . ... : ... .. . ... : ... .. . ... : ... .. . ...
ROW 03 : ... .. . ... : ... .. . ... : --- .. . ... : ... .. . ... : ... .. . ...
ROW 04 : ... .. . ... : ... .. . ... : ... .. . ... : ... .. . ... : ... .. . ...
ROW 05 : ... .. . ... : ... .. . ... : ... .. . ... : ... .. . ... : ... .. . ...
ROW 06 : ... .. . ... : ... .. . ... : ... .. . ... : ... .. . ... : ... .. . ...
ROW 07 : ... .. . ... : ... .. . ... : ... .. . ... : ... .. . ... : ... .. . ...
ROW 08 : ... .. . ... : ... .. . ... : ... .. . ... : ... .. . ... : ... .. . ...
ROW 09 : ... .. . ... : ... .. . ... : ... .. . ... : ... .. . ... : ... .. . ...
ROW 0A : ... .. . ... : ... .. . ... : ... .. . ... : ... .. . ... : ... .. . ...
ROW 0B : ... .. . ... : ... .. . ... : ... .. . ... : ... .. . ... : ... .. . ...
ROW 0C : ... .. . 452 : ... .. . ... : C-4 07 . ... : 0-# 03 . ... : C-5 00 . ...
ROW 0D : ... .. . ... : ... .. . ... : ... .. . ... : ... .. . ... : ... .. . ...
ROW 0E : ... .. . ... : ... .. . ... : ... .. . ... : ... .. . ... : ... .. . ...
ROW 0F : ... .. . ... : ... .. . ... : --- .. . ... : ... .. . ... : ... .. . ...
ROW 10 : ... .. . ... : ... .. . ... : ... .. . ... : ... .. . ... : ... .. . ...
ROW 11 : ... .. . ... : ... .. . ... : ... .. . ... : ... .. . ... : ... .. . ...
ROW 12 : ... .. . ... : ... .. . ... : ... .. . ... : ... .. . ... : ... .. . ...
ROW 13 : ... .. . ... : ... .. . ... : ... .. . ... : ... .. . ... : ... .. . ...
ROW 14 : ... .. . ... : ... .. . ... : ... .. . ... : ... .. . ... : ... .. . ...
ROW 15 : ... .. . ... : ... .. . ... : ... .. . ... : ... .. . ... : ... .. . ...
ROW 16 : ... .. . ... : ... .. . ... : ... .. . ... : ... .. . ... : ... .. . ...
ROW 17 : ... .. . ... : ... .. . ... : ... .. . ... : ... .. . ... : ... .. . ...
ROW 18 : === .. . ... : G-2 09 A 080 : G-4 07 . ... : 0-# 04 . ... : C-4 00 . ...
ROW 19 : ... .. . ... : ... .. . ... : ... .. . ... : ... .. . ... : ... .. . ...
ROW 1A : ... .. . ... : ... .. . ... : ... .. . ... : ... .. . ... : ... .. . ...
ROW 1B : ... .. . ... : ... .. . ... : ... .. . ... : ... .. . ... : ... .. . ...
ROW 1C : ... .. . ... : ... .. . ... : ... .. . ... : ... .. . ... : ... .. . ...
ROW 1D : ... .. . ... : ... .. . ... : ... .. . ... : ... .. . ... : ... .. . ...
ROW 1E : ... .. . ... : ... .. . ... : --- .. . ... : C-# 05 . ... : ... .. . ...
ROW 1F : ... .. . ... : ... .. . ... : ... .. . ... : ... .. . ... : ... .. . ...
ROW 20 : ... .. . ... : ... .. . ... : ... .. . ... : ... .. . ... : ... .. . ...
ROW 21 : ... .. . ... : ... .. . ... : ... .. . ... : ... .. . ... : ... .. . ...
ROW 22 : ... .. . ... : ... .. . ... : ... .. . ... : ... .. . ... : ... .. . ...
ROW 23 : ... .. . ... : ... .. . ... : ... .. . ... : ... .. . ... : ... .. . ...
ROW 24 : ... .. . ... : === .. . ... : ... .. . ... : C-# 05 . ... : C-5 00 . ...
ROW 25 : ... .. . ... : ... .. . ... : ... .. . ... : ... .. . ... : ... .. . ...
ROW 26 : ... .. . ... : ... .. . ... : ... .. . ... : ... .. . ... : ... .. . ...
ROW 27 : ... .. . ... : ... .. . ... : ... .. . ... : ... .. . ... : ... .. . ...
ROW 28 : ... .. . ... : ... .. . ... : ... .. . ... : ... .. . ... : ... .. . ...
ROW 29 : ... .. . ... : ... .. . ... : ... .. . ... : ... .. . ... : ... .. . ...
ROW 2A : ... .. . ... : ... .. . ... : ... .. . ... : C-# 05 . ... : C-5 00 . ...
ROW 2B : ... .. . ... : ... .. . ... : ... .. . ... : ... .. . ... : ... .. . ...
ROW 2C : ... .. . ... : ... .. . ... : ... .. . ... : ... .. . ... : ... .. . ...
ROW 2D : ... .. . ... : ... .. . ... : ... .. . ... : ... .. . ... : ... .. . ...
ROW 2E : ... .. . ... : ... .. . ... : ... .. . ... : ... .. . ... : ... .. . ...
ROW 2F : ... .. . 400 : ... .. . ... : ... .. . ... : ... .. . ... : ... .. . ...
ROW 30 : F-3 08 A Q32 : G-2 09 . ... : C-4 07 . ... : 0-# 03 . ... : C-4 00 . ...
ROW 31 : ... .. . ... : ... .. . ... : ... .. . ... : ... .. . ... : ... .. . ...
ROW 32 : ... .. . ... : ... .. . ... : ... .. . ... : ... .. . ... : ... .. . ...
ROW 33 : ... .. . ... : ... .. . ... : --- .. . ... : ... .. . ... : ... .. . ...
ROW 34 : ... .. . ... : ... .. . ... : ... .. . ... : ... .. . ... : ... .. . ...
ROW 35 : ... .. . ... : ... .. . ... : ... .. . ... : ... .. . ... : ... .. . ...
ROW 36 : ... .. . ... : ... .. . ... : ... .. . ... : ... .. . ... : G-4 00 . ...
ROW 37 : ... .. . ... : ... .. . ... : ... .. . ... : ... .. . ... : ... .. . ...
ROW 38 : ... .. . ... : ... .. . ... : ... .. . ... : ... .. . ... : ... .. . ...
ROW 39 : ... .. . ... : ... .. . ... : ... .. . ... : ... .. . ... : ... .. . ...
ROW 3A : ... .. . ... : ... .. . ... : ... .. . ... : ... .. . ... : ... .. . ...
ROW 3B : ... .. . ... : ... .. . ... : ... .. . ... : ... .. . ... : ... .. . ...
ROW 3C : ... .. . ... : === .. . ... : ... .. . ... : C-# 05 . ... : A#4 00 . ...
ROW 3D : ... .. . ... : ... .. . ... : ... .. . ... : ... .. . ... : ... .. . ...
ROW 3E : ... .. . ... : ... .. . ... : ... .. . ... : ... .. . ... : ... .. . ...
ROW 3F : ... .. . ... : ... .. . ... : ... .. . ... : ... .. . ... : ... .. . ...
ROW 40 : ... .. . ... : ... .. . ... : ... .. . ... : ... .. . ... : ... .. . ...
ROW 41 : ... .. . ... : ... .. . ... : ... .. . ... : ... .. . ... : ... .. . ...
ROW 42 : F-3 08 . ... : G-2 09 . 070 : C-4 07 . ... : 0-# 03 . ... : C-5 00 . ...
ROW 43 : ... .. . ... : ... .. . ... : ... .. . ... : ... .. . ... : ... .. . ...
ROW 44 : ... .. . ... : ... .. . ... : ... .. . ... : ... .. . ... : ... .. . ...
ROW 45 : ... .. . ... : ... .. . ... : --- .. . ... : ... .. . ... : ... .. . ...
ROW 46 : ... .. . ... : ... .. . ... : ... .. . ... : ... .. . ... : === .. . ...
ROW 47 : ... .. . ... : ... .. . ... : ... .. . ... : ... .. . ... : ... .. . ...
ROW 48 : ... .. . ... : ... .. . ... : G-4 07 . ... : 0-# 04 . ... : C-5 00 . ...
ROW 49 : ... .. . ... : ... .. . ... : ... .. . ... : ... .. . ... : ... .. . ...
ROW 4A : ... .. . ... : ... .. . ... : ... .. . ... : ... .. . ... : === .. . ...
ROW 4B : ... .. . ... : ... .. . ... : ... .. . ... : ... .. . ... : ... .. . ...
ROW 4C : ... .. . ... : ... .. . ... : ... .. . ... : ... .. . ... : ... .. . ...
ROW 4D : ... .. . ... : ... .. . ... : ... .. . ... : ... .. . ... : ... .. . ...
ROW 4E : ... .. . ... : ... .. . ... : --- .. . ... : E-# 05 . ... : A#4 00 . ...
ROW 4F : ... .. . ... : ... .. . ... : ... .. . ... : ... .. . ... : ... .. . ...
ROW 50 : ... .. . ... : ... .. . ... : ... .. . ... : ... .. . ... : ... .. . ...
ROW 51 : ... .. . ... : ... .. . ... : ... .. . ... : ... .. . ... : ... .. . ...
ROW 52 : ... .. . ... : ... .. . ... : ... .. . ... : ... .. . ... : ... .. . ...
ROW 53 : ... .. . ... : ... .. . ... : ... .. . ... : ... .. . ... : ... .. . ...
ROW 54 : A#3 08 . ... : G-2 09 . 080 : C-4 07 . ... : 0-# 03 . ... : ... .. . ...
ROW 55 : ... .. . ... : ... .. . ... : ... .. . ... : ... .. . ... : ... .. . ...
ROW 56 : ... .. . ... : ... .. . ... : ... .. . ... : ... .. . ... : ... .. . ...
ROW 57 : ... .. . ... : ... .. . ... : --- .. . ... : ... .. . ... : ... .. . ...
ROW 58 : ... .. . ... : ... .. . ... : ... .. . ... : ... .. . ... : ... .. . ...
ROW 59 : ... .. . ... : ... .. . ... : ... .. . ... : ... .. . ... : ... .. . ...
ROW 5A : ... .. . ... : ... .. . ... : ... .. . ... : C-# 05 . ... : C-5 00 . ...
ROW 5B : ... .. . ... : ... .. . ... : ... .. . ... : ... .. . ... : ... .. . ...
ROW 5C : ... .. . ... : ... .. . ... : ... .. . ... : ... .. . ... : ... .. . ...
ROW 5D : ... .. . ... : ... .. . ... : ... .. . ... : ... .. . ... : ... .. . ...
ROW 5E : ... .. . ... : ... .. . ... : ... .. . ... : ... .. . ... : ... .. . ...
ROW 5F : ... .. . ... : ... .. . ... : ... .. . ... : ... .. . ... : ... .. . ...
ROW 60 : F-3 08 . Q32 : === .. . ... : ... .. . ... : C-# 05 . ... : A#3 00 . ...
ROW 61 : ... .. . ... : ... .. . ... : ... .. . ... : ... .. . ... : ... .. . ...
ROW 62 : ... .. . ... : ... .. . ... : ... .. . ... : ... .. . ... : ... .. . ...
ROW 63 : ... .. . ... : ... .. . ... : ... .. . ... : ... .. . ... : ... .. . ...
ROW 64 : ... .. . ... : ... .. . ... : ... .. . ... : ... .. . ... : ... .. . ...
ROW 65 : ... .. . ... : ... .. . ... : ... .. . ... : ... .. . ... : ... .. . ...
ROW 66 : ... .. . ... : ... .. . ... : ... .. . ... : ... .. . ... : ... .. . ...
ROW 67 : ... .. . ... : ... .. . ... : ... .. . ... : ... .. . ... : ... .. . ...
ROW 68 : ... .. . ... : ... .. . ... : ... .. . ... : ... .. . ... : ... .. . ...
ROW 69 : ... .. . ... : ... .. . ... : ... .. . ... : ... .. . ... : ... .. . ...
ROW 6A : ... .. . ... : ... .. . ... : ... .. . ... : ... .. . ... : ... .. . ...
ROW 6B : ... .. . ... : ... .. . ... : ... .. . ... : ... .. . ... : ... .. . ...
ROW 6C : ... .. . 452 : ... .. . ... : C-4 07 . ... : 0-# 03 . ... : A#4 00 . ...
ROW 6D : ... .. . ... : ... .. . ... : ... .. . ... : ... .. . ... : ... .. . ...
ROW 6E : ... .. . ... : ... .. . ... : ... .. . ... : ... .. . ... : ... .. . ...
ROW 6F : ... .. . ... : ... .. . ... : --- .. . ... : ... .. . ... : ... .. . ...
ROW 70 : ... .. . ... : ... .. . ... : ... .. . ... : ... .. . ... : ... .. . ...
ROW 71 : ... .. . ... : ... .. . ... : ... .. . ... : ... .. . ... : ... .. . ...
ROW 72 : ... .. . ... : ... .. . ... : ... .. . ... : ... .. . ... : ... .. . ...
ROW 73 : ... .. . ... : ... .. . ... : ... .. . ... : ... .. . ... : ... .. . ...
ROW 74 : ... .. . ... : ... .. . ... : ... .. . ... : ... .. . ... : ... .. . ...
ROW 75 : ... .. . ... : ... .. . ... : ... .. . ... : ... .. . ... : ... .. . ...
ROW 76 : ... .. . ... : ... .. . ... : ... .. . ... : ... .. . ... : ... .. . ...
ROW 77 : ... .. . ... : ... .. . ... : ... .. . ... : ... .. . ... : ... .. . ...
ROW 78 : === .. . ... : G-2 09 . ... : G-4 07 . ... : 0-# 04 . ... : A#3 00 . ...
ROW 79 : ... .. . ... : ... .. . ... : ... .. . ... : ... .. . ... : ... .. . ...
ROW 7A : ... .. . ... : ... .. . ... : ... .. . ... : ... .. . ... : ... .. . ...
ROW 7B : ... .. . ... : ... .. . ... : ... .. . ... : ... .. . ... : ... .. . ...
ROW 7C : ... .. . ... : ... .. . ... : ... .. . ... : ... .. . ... : ... .. . ...
ROW 7D : ... .. . ... : ... .. . ... : ... .. . ... : ... .. . ... : ... .. . ...
ROW 7E : ... .. . ... : ... .. . ... : --- .. . ... : C-# 05 . ... : ... .. . ...
ROW 7F : ... .. . ... : ... .. . ... : ... .. . ... : ... .. . ... : ... .. . ...
ROW 80 : ... .. . ... : ... .. . ... : ... .. . ... : ... .. . ... : ... .. . ...
ROW 81 : ... .. . ... : ... .. . ... : ... .. . ... : ... .. . ... : ... .. . ...
ROW 82 : ... .. . ... : ... .. . ... : ... .. . ... : ... .. . ... : ... .. . ...
ROW 83 : ... .. . ... : ... .. . ... : ... .. . ... : ... .. . ... : ... .. . ...
ROW 84 : ... .. . ... : === .. . ... : ... .. . ... : C-# 05 . ... : A#4 00 . ...
ROW 85 : ... .. . ... : ... .. . ... : ... .. . ... : ... .. . ... : ... .. . ...
ROW 86 : ... .. . ... : ... .. . ... : ... .. . ... : ... .. . ... : ... .. . ...
ROW 87 : ... .. . ... : ... .. . ... : ... .. . ... : ... .. . ... : ... .. . ...
ROW 88 : ... .. . ... : ... .. . ... : ... .. . ... : ... .. . ... : ... .. . ...
ROW 89 : ... .. . ... : ... .. . ... : ... .. . ... : ... .. . ... : ... .. . ...
ROW 8A : ... .. . ... : ... .. . ... : ... .. . ... : C-# 05 . ... : A#4 00 . ...
ROW 8B : ... .. . ... : ... .. . ... : ... .. . ... : ... .. . ... : ... .. . ...
ROW 8C : ... .. . ... : ... .. . ... : ... .. . ... : ... .. . ... : ... .. . ...
ROW 8D : ... .. . ... : ... .. . ... : ... .. . ... : ... .. . ... : ... .. . ...
ROW 8E : ... .. . ... : ... .. . ... : ... .. . ... : ... .. . ... : ... .. . ...
ROW 8F : ... .. . 400 : ... .. . ... : ... .. . ... : ... .. . ... : ... .. . ...
ROW 90 : F-3 08 . Q32 : G-2 09 . ... : C-4 07 . ... : 0-# 03 . ... : A#3 00 . ...
ROW 91 : ... .. . ... : ... .. . ... : ... .. . ... : ... .. . ... : ... .. . ...
ROW 92 : ... .. . ... : ... .. . ... : ... .. . ... : ... .. . ... : ... .. . ...
ROW 93 : ... .. . ... : ... .. . ... : --- .. . ... : ... .. . ... : ... .. . ...
ROW 94 : ... .. . ... : ... .. . ... : ... .. . ... : ... .. . ... : ... .. . ...
ROW 95 : ... .. . ... : ... .. . ... : ... .. . ... : ... .. . ... : ... .. . ...
ROW 96 : ... .. . ... : ... .. . ... : C-4 07 . ... : 0-# 03 . ... : F-4 00 . ...
ROW 97 : ... .. . ... : ... .. . ... : ... .. . ... : ... .. . ... : ... .. . ...
ROW 98 : ... .. . ... : ... .. . ... : ... .. . ... : ... .. . ... : ... .. . ...
ROW 99 : ... .. . ... : ... .. . ... : --- .. . ... : ... .. . ... : ... .. . ...
ROW 9A : ... .. . ... : ... .. . ... : ... .. . ... : ... .. . ... : ... .. . ...
ROW 9B : ... .. . ... : ... .. . ... : ... .. . ... : ... .. . ... : ... .. . ...
ROW 9C : ... .. . ... : === .. . ... : C-4 07 . ... : 0-# 03 . ... : G-4 00 . ...
ROW 9D : ... .. . ... : ... .. . ... : ... .. . ... : ... .. . ... : ... .. . ...
ROW 9E : ... .. . ... : ... .. . ... : ... .. . ... : ... .. . ... : ... .. . ...
ROW 9F : ... .. . ... : ... .. . ... : --- .. . ... : ... .. . ... : ... .. . ...
ROW A0 : ... .. . ... : ... .. . ... : ... .. . ... : ... .. . ... : ... .. . ...
ROW A1 : ... .. . ... : ... .. . ... : ... .. . ... : ... .. . ... : ... .. . ...
ROW A2 : F-3 08 . ... : G-2 09 . 070 : ... .. . ... : C-# 05 . ... : A#4 00 . ...
ROW A3 : ... .. . ... : ... .. . ... : ... .. . ... : ... .. . ... : ... .. . ...
ROW A4 : ... .. . ... : ... .. . ... : ... .. . ... : ... .. . ... : ... .. . ...
ROW A5 : ... .. . ... : ... .. . ... : ... .. . ... : ... .. . ... : ... .. . ...
ROW A6 : ... .. . ... : ... .. . ... : ... .. . ... : ... .. . ... : === .. . ...
ROW A7 : ... .. . ... : ... .. . ... : ... .. . ... : ... .. . ... : ... .. . ...
ROW A8 : ... .. . ... : ... .. . ... : G-4 07 . ... : 0-# 04 . ... : A#4 00 . ...
ROW A9 : ... .. . ... : ... .. . ... : ... .. . ... : ... .. . ... : ... .. . ...
ROW AA : ... .. . ... : ... .. . ... : ... .. . ... : ... .. . ... : === .. . ...
ROW AB : ... .. . ... : ... .. . ... : ... .. . ... : ... .. . ... : ... .. . ...
ROW AC : ... .. . ... : ... .. . ... : ... .. . ... : ... .. . ... : ... .. . ...
ROW AD : ... .. . ... : ... .. . ... : ... .. . ... : ... .. . ... : ... .. . ...
ROW AE : ... .. . ... : ... .. . ... : --- .. . ... : ... .. . ... : G#4 00 . ...
ROW AF : ... .. . ... : ... .. . ... : ... .. . ... : ... .. . ... : ... .. . ...
ROW B0 : ... .. . ... : ... .. . ... : ... .. . ... : ... .. . ... : ... .. . ...
ROW B1 : ... .. . ... : ... .. . ... : ... .. . ... : ... .. . ... : ... .. . ...
ROW B2 : ... .. . ... : ... .. . ... : ... .. . ... : ... .. . ... : ... .. . ...
ROW B3 : ... .. . ... : ... .. . ... : ... .. . ... : ... .. . ... : ... .. . ...
ROW B4 : C-4 08 . ... : G-2 09 . 080 : C-4 07 . ... : 0-# 03 . ... : ... .. . ...
ROW B5 : ... .. . ... : ... .. . ... : ... .. . ... : ... .. . ... : ... .. . ...
ROW B6 : ... .. . ... : ... .. . ... : ... .. . ... : ... .. . ... : ... .. . ...
ROW B7 : ... .. . ... : ... .. . ... : --- .. . ... : ... .. . ... : ... .. . ...
ROW B8 : ... .. . ... : ... .. . ... : ... .. . ... : ... .. . ... : ... .. . ...
ROW B9 : ... .. . ... : ... .. . ... : ... .. . ... : ... .. . ... : ... .. . ...
ROW BA : ... .. . ... : ... .. . ... : ... .. . ... : C-# 05 . ... : A#4 00 . ...
ROW BB : ... .. . ... : ... .. . ... : ... .. . ... : ... .. . ... : ... .. . ...
ROW BC : ... .. . ... : ... .. . ... : ... .. . ... : ... .. . ... : ... .. . ...
ROW BD : ... .. . ... : ... .. . ... : ... .. . ... : ... .. . ... : ... .. . ...
ROW BE : ... .. . ... : ... .. . ... : ... .. . ... : ... .. . ... : ... .. . ...
ROW BF : ... .. . ... : ... .. . ... : ... .. . ... : ... .. . ... : ... .. . ...
PATTERN 03
ROW 00 : F-3 08 . Q32 : === .. . V00 : C-4 07 . ... : 0-# 03 . ... : G#3 00 . ...
ROW 01 : ... .. . ... : ... .. . ... : ... .. . ... : ... .. . ... : ... .. . ...
ROW 02 : ... .. . ... : ... .. . ... : ... .. . ... : ... .. . ... : ... .. . ...
ROW 03 : ... .. . ... : ... .. . ... : --- .. . ... : ... .. . ... : ... .. . ...
ROW 04 : ... .. . ... : ... .. . ... : ... .. . ... : ... .. . ... : ... .. . ...
ROW 05 : ... .. . ... : ... .. . ... : ... .. . ... : ... .. . ... : ... .. . ...
ROW 06 : ... .. . ... : ... .. . ... : ... .. . ... : ... .. . ... : ... .. . ...
ROW 07 : ... .. . ... : ... .. . ... : ... .. . ... : ... .. . ... : ... .. . ...
ROW 08 : ... .. . ... : ... .. . ... : ... .. . ... : ... .. . ... : ... .. . ...
ROW 09 : ... .. . ... : ... .. . ... : ... .. . ... : ... .. . ... : ... .. . ...
ROW 0A : ... .. . ... : ... .. . ... : ... .. . ... : ... .. . ... : ... .. . ...
ROW 0B : ... .. . ... : ... .. . ... : ... .. . ... : ... .. . ... : ... .. . ...
ROW 0C : ... .. . 452 : ... .. . ... : C-4 07 . ... : 0-# 03 . ... : G#4 00 . ...
ROW 0D : ... .. . ... : ... .. . ... : ... .. . ... : ... .. . ... : ... .. . ...
ROW 0E : ... .. . ... : ... .. . ... : ... .. . ... : ... .. . ... : ... .. . ...
ROW 0F : ... .. . ... : ... .. . ... : --- .. . ... : ... .. . ... : ... .. . ...
ROW 10 : ... .. . ... : ... .. . ... : ... .. . ... : ... .. . ... : ... .. . ...
ROW 11 : ... .. . ... : ... .. . ... : ... .. . ... : ... .. . ... : ... .. . ...
ROW 12 : ... .. . ... : ... .. . ... : ... .. . ... : ... .. . ... : ... .. . ...
ROW 13 : ... .. . ... : ... .. . ... : ... .. . ... : ... .. . ... : ... .. . ...
ROW 14 : ... .. . ... : ... .. . ... : ... .. . ... : ... .. . ... : ... .. . ...
ROW 15 : ... .. . ... : ... .. . ... : ... .. . ... : ... .. . ... : ... .. . ...
ROW 16 : ... .. . ... : ... .. . ... : ... .. . ... : ... .. . ... : ... .. . ...
ROW 17 : ... .. . ... : ... .. . ... : ... .. . ... : ... .. . ... : ... .. . ...
ROW 18 : === .. . ... : G-2 09 A 080 : G-4 07 . ... : 0-# 04 . ... : G#3 00 . ...
ROW 19 : ... .. . ... : ... .. . ... : ... .. . ... : ... .. . ... : ... .. . ...
ROW 1A : ... .. . ... : ... .. . ... : ... .. . ... : ... .. . ... : ... .. . ...
ROW 1B : ... .. . ... : ... .. . ... : ... .. . ... : ... .. . ... : ... .. . ...
ROW 1C : ... .. . ... : ... .. . ... : ... .. . ... : ... .. . ... : ... .. . ...
ROW 1D : ... .. . ... : ... .. . ... : ... .. . ... : ... .. . ... : ... .. . ...
ROW 1E : ... .. . ... : ... .. . ... : --- .. . ... : C-# 05 . ... : ... .. . ...
ROW 1F : ... .. . ... : ... .. . ... : ... .. . ... : ... .. . ... : ... .. . ...
ROW 20 : ... .. . ... : ... .. . ... : ... .. . ... : ... .. . ... : ... .. . ...
ROW 21 : ... .. . ... : ... .. . ... : ... .. . ... : ... .. . ... : ... .. . ...
ROW 22 : ... .. . ... : ... .. . ... : ... .. . ... : ... .. . ... : ... .. . ...
ROW 23 : ... .. . ... : ... .. . ... : ... .. . ... : ... .. . ... : ... .. . ...
ROW 24 : ... .. . ... : === .. . ... : ... .. . ... : C-# 05 . ... : G#4 00 . ...
ROW 25 : ... .. . ... : ... .. . ... : ... .. . ... : ... .. . ... : ... .. . ...
ROW 26 : ... .. . ... : ... .. . ... : ... .. . ... : ... .. . ... : ... .. . ...
ROW 27 : ... .. . ... : ... .. . ... : ... .. . ... : ... .. . ... : ... .. . ...
ROW 28 : ... .. . ... : ... .. . ... : ... .. . ... : ... .. . ... : ... .. . ...
ROW 29 : ... .. . ... : ... .. . ... : ... .. . ... : ... .. . ... : ... .. . ...
ROW 2A : ... .. . ... : ... .. . ... : ... .. . ... : C-# 05 . ... : G#4 00 . ...
ROW 2B : ... .. . ... : ... .. . ... : ... .. . ... : ... .. . ... : ... .. . ...
ROW 2C : ... .. . ... : ... .. . ... : ... .. . ... : ... .. . ... : ... .. . ...
ROW 2D : ... .. . ... : ... .. . ... : ... .. . ... : ... .. . ... : ... .. . ...
ROW 2E : ... .. . ... : ... .. . ... : ... .. . ... : ... .. . ... : ... .. . ...
ROW 2F : ... .. . 400 : ... .. . ... : ... .. . ... : ... .. . ... : ... .. . ...
ROW 30 : F-3 08 . Q32 : G-2 09 . ... : C-4 07 . ... : 0-# 03 . ... : G#3 00 . ...
ROW 31 : ... .. . ... : ... .. . ... : ... .. . ... : ... .. . ... : ... .. . ...
ROW 32 : ... .. . ... : ... .. . ... : ... .. . ... : ... .. . ... : ... .. . ...
ROW 33 : ... .. . ... : ... .. . ... : --- .. . ... : ... .. . ... : ... .. . ...
ROW 34 : ... .. . ... : ... .. . ... : ... .. . ... : ... .. . ... : ... .. . ...
ROW 35 : ... .. . ... : ... .. . ... : ... .. . ... : ... .. . ... : ... .. . ...
ROW 36 : ... .. . ... : ... .. . ... : ... .. . ... : C-# 05 . ... : F-4 00 . ...
ROW 37 : ... .. . ... : ... .. . ... : ... .. . ... : ... .. . ... : ... .. . ...
ROW 38 : ... .. . ... : ... .. . ... : ... .. . ... : ... .. . ... : ... .. . ...
ROW 39 : ... .. . ... : ... .. . ... : ... .. . ... : ... .. . ... : ... .. . ...
ROW 3A : ... .. . ... : ... .. . ... : ... .. . ... : ... .. . ... : ... .. . ...
ROW 3B : ... .. . ... : ... .. . ... : ... .. . ... : ... .. . ... : ... .. . ...
ROW 3C : ... .. . ... : === .. . ... : ... .. . ... : C-# 05 . ... : G-4 00 . ...
ROW 3D : ... .. . ... : ... .. . ... : ... .. . ... : ... .. . ... : ... .. . ...
ROW 3E : ... .. . ... : ... .. . ... : ... .. . ... : ... .. . ... : ... .. . ...
ROW 3F : ... .. . ... : ... .. . ... : ... .. . ... : ... .. . ... : ... .. . ...
ROW 40 : ... .. . ... : ... .. . ... : ... .. . ... : ... .. . ... : ... .. . ...
ROW 41 : ... .. . ... : ... .. . ... : ... .. . ... : ... .. . ... : ... .. . ...
ROW 42 : F-3 08 . ... : G-2 09 . 070 : C-4 07 . ... : 0-# 03 . ... : G#4 00 . ...
ROW 43 : ... .. . ... : ... .. . ... : ... .. . ... : ... .. . ... : ... .. . ...
ROW 44 : ... .. . ... : ... .. . ... : ... .. . ... : ... .. . ... : ... .. . ...
ROW 45 : ... .. . ... : ... .. . ... : --- .. . ... : ... .. . ... : ... .. . ...
ROW 46 : ... .. . ... : ... .. . ... : ... .. . ... : ... .. . ... : === .. . ...
ROW 47 : ... .. . ... : ... .. . ... : ... .. . ... : ... .. . ... : ... .. . ...
ROW 48 : ... .. . ... : ... .. . ... : G-4 07 . ... : 0-# 04 . ... : G#4 00 . ...
ROW 49 : ... .. . ... : ... .. . ... : ... .. . ... : ... .. . ... : ... .. . ...
ROW 4A : ... .. . ... : ... .. . ... : ... .. . ... : ... .. . ... : === .. . ...
ROW 4B : ... .. . ... : ... .. . ... : ... .. . ... : ... .. . ... : ... .. . ...
ROW 4C : ... .. . ... : ... .. . ... : ... .. . ... : ... .. . ... : ... .. . ...
ROW 4D : ... .. . ... : ... .. . ... : ... .. . ... : ... .. . ... : ... .. . ...
ROW 4E : ... .. . ... : ... .. . ... : --- .. . ... : ... .. . ... : G-4 00 . ...
ROW 4F : ... .. . ... : ... .. . ... : ... .. . ... : ... .. . ... : ... .. . ...
ROW 50 : ... .. . ... : ... .. . ... : ... .. . ... : ... .. . ... : ... .. . ...
ROW 51 : ... .. . ... : ... .. . ... : ... .. . ... : ... .. . ... : ... .. . ...
ROW 52 : ... .. . ... : ... .. . ... : ... .. . ... : ... .. . ... : ... .. . ...
ROW 53 : ... .. . ... : ... .. . ... : ... .. . ... : ... .. . ... : ... .. . ...
ROW 54 : D-4 08 . ... : G-2 09 . 080 : C-4 07 . ... : 0-# 03 . ... : ... .. . ...
ROW 55 : ... .. . ... : ... .. . ... : ... .. . ... : ... .. . ... : ... .. . ...
ROW 56 : ... .. . ... : ... .. . ... : ... .. . ... : ... .. . ... : ... .. . ...
ROW 57 : ... .. . ... : ... .. . ... : --- .. . ... : ... .. . ... : ... .. . ...
ROW 58 : ... .. . ... : ... .. . ... : ... .. . ... : ... .. . ... : ... .. . ...
ROW 59 : ... .. . ... : ... .. . ... : ... .. . ... : ... .. . ... : ... .. . ...
ROW 5A : ... .. . ... : ... .. . ... : ... .. . ... : C-# 05 . ... : G#4 00 . ...
ROW 5B : ... .. . ... : ... .. . ... : ... .. . ... : ... .. . ... : ... .. . ...
ROW 5C : ... .. . ... : ... .. . ... : ... .. . ... : ... .. . ... : ... .. . ...
ROW 5D : ... .. . ... : ... .. . ... : ... .. . ... : ... .. . ... : ... .. . ...
ROW 5E : ... .. . ... : ... .. . ... : ... .. . ... : ... .. . ... : ... .. . ...
ROW 5F : ... .. . ... : ... .. . ... : ... .. . ... : ... .. . ... : ... .. . ...
ROW 60 : F-3 08 . Q32 : === .. . ... : ... .. . ... : C-# 05 . ... : F-3 00 . ...
ROW 61 : ... .. . ... : ... .. . ... : ... .. . ... : ... .. . ... : ... .. . ...
ROW 62 : ... .. . ... : ... .. . ... : ... .. . ... : ... .. . ... : ... .. . ...
ROW 63 : ... .. . ... : ... .. . ... : ... .. . ... : ... .. . ... : ... .. . ...
ROW 64 : ... .. . ... : ... .. . ... : ... .. . ... : ... .. . ... : ... .. . ...
ROW 65 : ... .. . ... : ... .. . ... : ... .. . ... : ... .. . ... : ... .. . ...
ROW 66 : ... .. . ... : ... .. . ... : ... .. . ... : ... .. . ... : ... .. . ...
ROW 67 : ... .. . ... : ... .. . ... : ... .. . ... : ... .. . ... : ... .. . ...
ROW 68 : ... .. . ... : ... .. . ... : ... .. . ... : ... .. . ... : ... .. . ...
ROW 69 : ... .. . ... : ... .. . ... : ... .. . ... : ... .. . ... : ... .. . ...
ROW 6A : ... .. . ... : ... .. . ... : ... .. . ... : ... .. . ... : ... .. . ...
ROW 6B : ... .. . ... : ... .. . ... : ... .. . ... : ... .. . ... : ... .. . ...
ROW 6C : ... .. . 452 : ... .. . ... : C-4 07 . ... : 0-# 03 . ... : F-4 00 . ...
ROW 6D : ... .. . ... : ... .. . ... : ... .. . ... : ... .. . ... : ... .. . ...
ROW 6E : ... .. . ... : ... .. . ... : ... .. . ... : ... .. . ... : ... .. . ...
ROW 6F : ... .. . ... : ... .. . ... : --- .. . ... : ... .. . ... : ... .. . ...
ROW 70 : ... .. . ... : ... .. . ... : ... .. . ... : ... .. . ... : ... .. . ...
ROW 71 : ... .. . ... : ... .. . ... : ... .. . ... : ... .. . ... : ... .. . ...
ROW 72 : ... .. . ... : ... .. . ... : ... .. . ... : ... .. . ... : ... .. . ...
ROW 73 : ... .. . ... : ... .. . ... : ... .. . ... : ... .. . ... : ... .. . ...
ROW 74 : ... .. . ... : ... .. . ... : ... .. . ... : ... .. . ... : ... .. . ...
ROW 75 : ... .. . ... : ... .. . ... : ... .. . ... : ... .. . ... : ... .. . ...
ROW 76 : ... .. . ... : ... .. . ... : ... .. . ... : ... .. . ... : ... .. . ...
ROW 77 : ... .. . ... : ... .. . ... : ... .. . ... : ... .. . ... : ... .. . ...
ROW 78 : === .. . ... : F-2 09 . 070 : G-4 07 . ... : 0-# 04 . ... : F-3 00 . ...
ROW 79 : ... .. . ... : ... .. . ... : ... .. . ... : ... .. . ... : ... .. . ...
ROW 7A : ... .. . ... : ... .. . ... : ... .. . ... : ... .. . ... : ... .. . ...
ROW 7B : ... .. . ... : ... .. . ... : ... .. . ... : ... .. . ... : ... .. . ...
ROW 7C : ... .. . ... : ... .. . ... : ... .. . ... : ... .. . ... : ... .. . ...
ROW 7D : ... .. . ... : ... .. . ... : ... .. . ... : ... .. . ... : ... .. . ...
ROW 7E : ... .. . ... : ... .. . ... : --- .. . ... : C-# 05 . ... : ... .. . ...
ROW 7F : ... .. . ... : ... .. . ... : ... .. . ... : ... .. . ... : ... .. . ...
ROW 80 : ... .. . ... : ... .. . ... : ... .. . ... : ... .. . ... : ... .. . ...
ROW 81 : ... .. . ... : ... .. . ... : ... .. . ... : ... .. . ... : ... .. . ...
ROW 82 : ... .. . ... : ... .. . ... : ... .. . ... : ... .. . ... : ... .. . ...
ROW 83 : ... .. . ... : ... .. . ... : ... .. . ... : ... .. . ... : ... .. . ...
ROW 84 : ... .. . ... : === .. . ... : C-4 07 . ... : 0-# 03 . ... : F-4 00 . ...
ROW 85 : ... .. . ... : ... .. . ... : ... .. . ... : ... .. . ... : ... .. . ...
ROW 86 : ... .. . ... : ... .. . ... : ... .. . ... : ... .. . ... : ... .. . ...
ROW 87 : ... .. . ... : ... .. . ... : --- .. . ... : ... .. . ... : ... .. . ...
ROW 88 : ... .. . ... : ... .. . ... : ... .. . ... : ... .. . ... : ... .. . ...
ROW 89 : ... .. . ... : ... .. . ... : ... .. . ... : ... .. . ... : ... .. . ...
ROW 8A : ... .. . ... : ... .. . ... : ... .. . ... : C-# 05 . ... : F-4 00 . ...
ROW 8B : ... .. . ... : ... .. . ... : ... .. . ... : ... .. . ... : ... .. . ...
ROW 8C : ... .. . ... : ... .. . ... : ... .. . ... : ... .. . ... : ... .. . ...
ROW 8D : ... .. . ... : ... .. . ... : ... .. . ... : ... .. . ... : ... .. . ...
ROW 8E : ... .. . ... : ... .. . ... : ... .. . ... : ... .. . ... : ... .. . ...
ROW 8F : ... .. . ... : ... .. . ... : ... .. . ... : ... .. . ... : ... .. . ...
ROW 90 : ... .. . ... : G-2 09 . ... : C-4 07 . ... : 0-# 03 . ... : G-3 00 . ...
ROW 91 : ... .. . ... : ... .. . ... : ... .. . ... : ... .. . ... : ... .. . ...
ROW 92 : ... .. . ... : ... .. . ... : ... .. . ... : ... .. . ... : ... .. . ...
ROW 93 : ... .. . ... : ... .. . ... : --- .. . ... : ... .. . ... : ... .. . ...
ROW 94 : ... .. . ... : ... .. . ... : ... .. . ... : ... .. . ... : ... .. . ...
ROW 95 : ... .. . ... : ... .. . ... : ... .. . ... : ... .. . ... : ... .. . ...
ROW 96 : ... .. . ... : ... .. . ... : C-4 07 . ... : 0-# 03 . ... : G-3 00 . ...
ROW 97 : ... .. . ... : ... .. . ... : ... .. . ... : ... .. . ... : ... .. . ...
ROW 98 : ... .. . ... : ... .. . ... : ... .. . ... : ... .. . ... : ... .. . ...
ROW 99 : ... .. . ... : ... .. . ... : --- .. . ... : C-# 05 . ... : ... .. . ...
ROW 9A : ... .. . ... : ... .. . ... : ... .. . ... : ... .. . ... : ... .. . ...
ROW 9B : ... .. . ... : ... .. . ... : ... .. . ... : ... .. . ... : ... .. . ...
ROW 9C : ... .. . ... : ... .. . ... : C-4 07 . ... : 0-# 03 . ... : G-4 00 . ...
ROW 9D : ... .. . ... : ... .. . ... : ... .. . ... : ... .. . ... : ... .. . ...
ROW 9E : ... .. . ... : ... .. . ... : ... .. . ... : ... .. . ... : ... .. . ...
ROW 9F : ... .. . ... : ... .. . ... : --- .. . ... : ... .. . ... : ... .. . ...
ROW A0 : ... .. . ... : ... .. . ... : ... .. . ... : ... .. . ... : ... .. . ...
ROW A1 : ... .. . ... : ... .. . ... : ... .. . ... : ... .. . ... : ... .. . ...
ROW A2 : ... .. . ... : G-2 09 . ... : ... .. . ... : C-# 05 . ... : ... .. . ...
ROW A3 : ... .. . ... : ... .. . ... : ... .. . ... : ... .. . ... : ... .. . ...
ROW A4 : ... .. . ... : ... .. . ... : ... .. . ... : ... .. . ... : ... .. . ...
ROW A5 : ... .. . ... : ... .. . ... : ... .. . ... : ... .. . ... : ... .. . ...
ROW A6 : ... .. . ... : ... .. . ... : ... .. . ... : ... .. . ... : ... .. . ...
ROW A7 : ... .. . ... : ... .. . ... : ... .. . ... : ... .. . ... : ... .. . ...
ROW A8 : ... .. . ... : ... .. . ... : G-4 07 . ... : 0-# 04 . ... : G-4 00 . ...
ROW A9 : ... .. . ... : ... .. . ... : ... .. . ... : ... .. . ... : ... .. . ...
ROW AA : ... .. . ... : ... .. . ... : ... .. . ... : ... .. . ... : ... .. . ...
ROW AB : ... .. . ... : ... .. . ... : ... .. . ... : ... .. . ... : ... .. . ...
ROW AC : ... .. . ... : ... .. . ... : ... .. . ... : ... .. . ... : ... .. . ...
ROW AD : ... .. . ... : ... .. . ... : ... .. . ... : ... .. . ... : ... .. . ...
ROW AE : ... .. . ... : ... .. . ... : --- .. . ... : ... .. . ... : A#4 00 . ...
ROW AF : ... .. . ... : ... .. . ... : ... .. . ... : ... .. . ... : ... .. . ...
ROW B0 : ... .. . ... : ... .. . ... : ... .. . ... : ... .. . ... : ... .. . ...
ROW B1 : ... .. . ... : ... .. . ... : ... .. . ... : ... .. . ... : ... .. . ...
ROW B2 : ... .. . ... : ... .. . ... : ... .. . ... : ... .. . ... : ... .. . ...
ROW B3 : ... .. . ... : ... .. . ... : ... .. . ... : ... .. . ... : ... .. . ...
ROW B4 : ... .. . ... : G-2 09 . ... : C-4 07 . ... : 0-# 03 . ... : D-5 00 . ...
ROW B5 : ... .. . ... : ... .. . ... : ... .. . ... : ... .. . ... : ... .. . ...
ROW B6 : ... .. . ... : ... .. . ... : ... .. . ... : ... .. . ... : ... .. . ...
ROW B7 : ... .. . ... : ... .. . ... : --- .. . ... : ... .. . ... : ... .. . ...
ROW B8 : ... .. . ... : ... .. . ... : ... .. . ... : ... .. . ... : ... .. . ...
ROW B9 : ... .. . ... : ... .. . ... : ... .. . ... : ... .. . ... : ... .. . ...
ROW BA : ... .. . ... : ... .. . ... : ... .. . ... : C-# 05 . ... : D#4 00 . ...
ROW BB : ... .. . ... : ... .. . ... : ... .. . ... : ... .. . ... : ... .. . ...
ROW BC : ... .. . ... : ... .. . ... : ... .. . ... : ... .. . ... : ... .. . ...
ROW BD : ... .. . ... : ... .. . ... : ... .. . ... : ... .. . ... : ... .. . ...
ROW BE : ... .. . ... : ... .. . ... : ... .. . ... : ... .. . ... : ... .. . ...
ROW BF : ... .. . ... : ... .. . ... : ... .. . ... : ... .. . ... : ... .. . ...
PATTERN 04
ROW 00 : F-3 08 . Q32 : C-3 0A F 000 : C-4 07 . ... : 0-# 03 . ... : F-3 00 . ...
ROW 01 : ... .. . ... : ... .. . ... : ... .. . ... : ... .. . ... : ... .. . ...
ROW 02 : ... .. . ... : ... .. . ... : ... .. . ... : ... .. . ... : ... .. . ...
ROW 03 : ... .. . ... : ... .. . ... : --- .. . ... : ... .. . ... : ... .. . ...
ROW 04 : ... .. . ... : ... .. . ... : ... .. . ... : ... .. . ... : ... .. . ...
ROW 05 : ... .. . ... : ... .. . ... : ... .. . ... : ... .. . ... : ... .. . ...
ROW 06 : ... .. . ... : ... .. . ... : ... .. . ... : ... .. . ... : ... .. . ...
ROW 07 : ... .. . ... : ... .. . ... : ... .. . ... : ... .. . ... : ... .. . ...
ROW 08 : ... .. . ... : ... .. . ... : ... .. . ... : ... .. . ... : ... .. . ...
ROW 09 : ... .. . ... : ... .. . ... : ... .. . ... : ... .. . ... : ... .. . ...
ROW 0A : ... .. . ... : ... .. . ... : ... .. . ... : ... .. . ... : ... .. . ...
ROW 0B : ... .. . ... : ... .. . ... : ... .. . ... : ... .. . ... : ... .. . ...
ROW 0C : ... .. . 452 : ... .. . 452 : ... .. . ... : 0-# 03 . ... : F-4 00 . ...
ROW 0D : ... .. . ... : ... .. . ... : ... .. . ... : ... .. . ... : ... .. . ...
ROW 0E : ... .. . ... : ... .. . ... : ... .. . ... : ... .. . ... : ... .. . ...
ROW 0F : ... .. . ... : ... .. . ... : ... .. . ... : ... .. . ... : ... .. . ...
ROW 10 : ... .. . ... : ... .. . ... : ... .. . ... : ... .. . ... : ... .. . ...
ROW 11 : ... .. . ... : ... .. . ... : ... .. . ... : ... .. . ... : ... .. . ...
ROW 12 : ... .. . ... : ... .. . ... : ... .. . ... : ... .. . ... : ... .. . ...
ROW 13 : ... .. . ... : ... .. . ... : ... .. . ... : ... .. . ... : ... .. . ...
ROW 14 : ... .. . ... : ... .. . ... : ... .. . ... : ... .. . ... : ... .. . ...
ROW 15 : ... .. . ... : ... .. . ... : ... .. . ... : ... .. . ... : ... .. . ...
ROW 16 : ... .. . ... : ... .. . ... : ... .. . ... : ... .. . ... : ... .. . ...
ROW 17 : ... .. . ... : ... .. . ... : ... .. . ... : ... .. . ... : ... .. . ...
ROW 18 : === .. . ... : ... .. . ... : G-4 07 . ... : 0-# 04 . ... : F-3 00 . ...
ROW 19 : ... .. . ... : ... .. . ... : ... .. . ... : ... .. . ... : ... .. . ...
ROW 1A : ... .. . ... : ... .. . ... : ... .. . ... : ... .. . ... : ... .. . ...
ROW 1B : ... .. . ... : ... .. . ... : ... .. . ... : ... .. . ... : ... .. . ...
ROW 1C : ... .. . ... : ... .. . ... : ... .. . ... : ... .. . ... : ... .. . ...
ROW 1D : ... .. . ... : ... .. . ... : ... .. . ... : ... .. . ... : ... .. . ...
ROW 1E : ... .. . ... : ... .. . ... : --- .. . ... : C-# 05 . ... : ... .. . ...
ROW 1F : ... .. . ... : ... .. . ... : ... .. . ... : ... .. . ... : ... .. . ...
ROW 20 : ... .. . ... : ... .. . ... : ... .. . ... : ... .. . ... : ... .. . ...
ROW 21 : ... .. . ... : ... .. . ... : ... .. . ... : ... .. . ... : ... .. . ...
ROW 22 : ... .. . ... : ... .. . ... : ... .. . ... : ... .. . ... : ... .. . ...
ROW 23 : ... .. . ... : ... .. . ... : ... .. . ... : ... .. . ... : ... .. . ...
ROW 24 : ... .. . ... : G-3 0A . 400 : ... .. . ... : C-# 05 . ... : F-4 00 . ...
ROW 25 : ... .. . ... : ... .. . ... : ... .. . ... : ... .. . ... : ... .. . ...
ROW 26 : ... .. . ... : ... .. . ... : ... .. . ... : ... .. . ... : ... .. . ...
ROW 27 : ... .. . ... : ... .. . ... : ... .. . ... : ... .. . ... : ... .. . ...
ROW 28 : ... .. . ... : G#3 0A . ... : ... .. . ... : ... .. . ... : ... .. . ...
ROW 29 : ... .. . ... : ... .. . ... : ... .. . ... : ... .. . ... : ... .. . ...
ROW 2A : ... .. . ... : ... .. . ... : ... .. . ... : C-# 05 . ... : F-4 00 . ...
ROW 2B : ... .. . ... : ... .. . ... : ... .. . ... : ... .. . ... : ... .. . ...
ROW 2C : ... .. . ... : A#3 0A . ... : ... .. . ... : ... .. . ... : ... .. . ...
ROW 2D : ... .. . ... : ... .. . ... : ... .. . ... : ... .. . ... : ... .. . ...
ROW 2E : ... .. . ... : ... .. . ... : ... .. . ... : ... .. . ... : ... .. . ...
ROW 2F : ... .. . 400 : ... .. . ... : ... .. . ... : ... .. . ... : ... .. . ...
ROW 30 : F-3 08 . Q32 : C-4 0A . ... : C-4 07 . ... : 0-# 03 . ... : F-3 00 . ...
ROW 31 : ... .. . ... : ... .. . ... : ... .. . ... : ... .. . ... : ... .. . ...
ROW 32 : ... .. . ... : ... .. . ... : ... .. . ... : ... .. . ... : ... .. . ...
ROW 33 : ... .. . ... : ... .. . ... : --- .. . ... : ... .. . ... : ... .. . ...
ROW 34 : ... .. . ... : ... .. . ... : ... .. . ... : ... .. . ... : ... .. . ...
ROW 35 : ... .. . ... : ... .. . ... : ... .. . ... : ... .. . ... : ... .. . ...
ROW 36 : ... .. . ... : ... .. . ... : ... .. . ... : C-# 05 . ... : ... .. . ...
ROW 37 : ... .. . ... : ... .. . ... : ... .. . ... : ... .. . ... : ... .. . ...
ROW 38 : ... .. . ... : ... .. . ... : ... .. . ... : ... .. . ... : ... .. . ...
ROW 39 : ... .. . ... : ... .. . ... : ... .. . ... : ... .. . ... : ... .. . ...
ROW 3A : ... .. . ... : ... .. . ... : ... .. . ... : ... .. . ... : ... .. . ...
ROW 3B : ... .. . ... : ... .. . ... : ... .. . ... : ... .. . ... : ... .. . ...
ROW 3C : ... .. . ... : ... .. . 452 : ... .. . ... : C-# 05 . ... : F-4 00 . ...
ROW 3D : ... .. . ... : ... .. . ... : ... .. . ... : ... .. . ... : ... .. . ...
ROW 3E : ... .. . ... : ... .. . ... : ... .. . ... : ... .. . ... : ... .. . ...
ROW 3F : ... .. . ... : ... .. . ... : ... .. . ... : ... .. . ... : ... .. . ...
ROW 40 : ... .. . ... : ... .. . ... : ... .. . ... : ... .. . ... : ... .. . ...
ROW 41 : ... .. . ... : ... .. . ... : ... .. . ... : ... .. . ... : ... .. . ...
ROW 42 : F-3 08 . ... : ... .. . ... : C-4 07 . ... : 0-# 03 . ... : ... .. . ...
ROW 43 : ... .. . ... : ... .. . ... : ... .. . ... : ... .. . ... : ... .. . ...
ROW 44 : ... .. . ... : ... .. . ... : ... .. . ... : ... .. . ... : ... .. . ...
ROW 45 : ... .. . ... : ... .. . ... : --- .. . ... : ... .. . ... : ... .. . ...
ROW 46 : ... .. . ... : ... .. . ... : ... .. . ... : ... .. . ... : ... .. . ...
ROW 47 : ... .. . ... : ... .. . ... : ... .. . ... : ... .. . ... : ... .. . ...
ROW 48 : ... .. . ... : ... .. . ... : G-4 07 . ... : 0-# 04 . ... : F-3 00 . ...
ROW 49 : ... .. . ... : ... .. . ... : ... .. . ... : ... .. . ... : ... .. . ...
ROW 4A : ... .. . ... : ... .. . ... : ... .. . ... : ... .. . ... : ... .. . ...
ROW 4B : ... .. . ... : ... .. . ... : ... .. . ... : ... .. . ... : ... .. . ...
ROW 4C : ... .. . ... : ... .. . ... : ... .. . ... : ... .. . ... : ... .. . ...
ROW 4D : ... .. . ... : ... .. . ... : ... .. . ... : ... .. . ... : ... .. . ...
ROW 4E : ... .. . ... : ... .. . ... : --- .. . ... : ... .. . ... : ... .. . ...
ROW 4F : ... .. . ... : ... .. . ... : ... .. . ... : ... .. . ... : ... .. . ...
ROW 50 : ... .. . ... : ... .. . ... : ... .. . ... : ... .. . ... : ... .. . ...
ROW 51 : ... .. . ... : ... .. . ... : ... .. . ... : ... .. . ... : ... .. . ...
ROW 52 : ... .. . ... : ... .. . ... : ... .. . ... : ... .. . ... : ... .. . ...
ROW 53 : ... .. . ... : ... .. . ... : ... .. . ... : ... .. . ... : ... .. . ...
ROW 54 : D-4 08 . ... : ... .. . ... : ... .. . ... : 0-# 03 . ... : F-4 00 . ...
ROW 55 : ... .. . ... : ... .. . ... : ... .. . ... : ... .. . ... : ... .. . ...
ROW 56 : ... .. . ... : ... .. . ... : ... .. . ... : ... .. . ... : ... .. . ...
ROW 57 : ... .. . ... : ... .. . ... : ... .. . ... : ... .. . ... : ... .. . ...
ROW 58 : ... .. . ... : ... .. . ... : ... .. . ... : ... .. . ... : ... .. . ...
ROW 59 : ... .. . ... : ... .. . ... : ... .. . ... : ... .. . ... : ... .. . ...
ROW 5A : ... .. . ... : ... .. . ... : ... .. . ... : C-# 05 . ... : F-4 00 . ...
ROW 5B : ... .. . ... : ... .. . ... : ... .. . ... : ... .. . ... : ... .. . ...
ROW 5C : ... .. . ... : ... .. . ... : ... .. . ... : ... .. . ... : ... .. . ...
ROW 5D : ... .. . ... : ... .. . ... : ... .. . ... : ... .. . ... : ... .. . ...
ROW 5E : ... .. . ... : ... .. . ... : ... .. . ... : ... .. . ... : ... .. . ...
ROW 5F : ... .. . ... : ... .. . ... : ... .. . ... : ... .. . ... : ... .. . ...
ROW 60 : F-3 08 . Q32 : A#2 08 9 400 : ... .. . ... : C-# 05 . ... : F-3 00 . ...
ROW 61 : ... .. . ... : ... .. . ... : ... .. . ... : ... .. . ... : ... .. . ...
ROW 62 : ... .. . ... : ... .. . ... : ... .. . ... : ... .. . ... : ... .. . ...
ROW 63 : ... .. . ... : C-3 08 . ... : ... .. . ... : ... .. . ... : ... .. . ...
ROW 64 : ... .. . ... : ... .. . ... : ... .. . ... : ... .. . ... : ... .. . ...
ROW 65 : ... .. . ... : ... .. . ... : ... .. . ... : ... .. . ... : ... .. . ...
ROW 66 : ... .. . ... : ... .. . ... : ... .. . ... : ... .. . ... : ... .. . ...
ROW 67 : ... .. . ... : ... .. . ... : ... .. . ... : ... .. . ... : ... .. . ...
ROW 68 : ... .. . ... : ... .. . ... : ... .. . ... : ... .. . ... : ... .. . ...
ROW 69 : ... .. . ... : --- .. . ... : ... .. . ... : ... .. . ... : ... .. . ...
ROW 6A : ... .. . ... : ... .. . ... : ... .. . ... : ... .. . ... : ... .. . ...
ROW 6B : ... .. . ... : ... .. . ... : ... .. . ... : ... .. . ... : ... .. . ...
ROW 6C : ... .. . 452 : C-3 08 . ... : C-4 07 . ... : 0-# 03 . ... : F-4 00 . ...
ROW 6D : ... .. . ... : --- .. . ... : ... .. . ... : ... .. . ... : ... .. . ...
ROW 6E : ... .. . ... : ... .. . ... : ... .. . ... : ... .. . ... : ... .. . ...
ROW 6F : ... .. . ... : ... .. . ... : --- .. . ... : ... .. . ... : ... .. . ...
ROW 70 : ... .. . ... : ... .. . ... : ... .. . ... : ... .. . ... : ... .. . ...
ROW 71 : ... .. . ... : ... .. . ... : ... .. . ... : ... .. . ... : ... .. . ...
ROW 72 : ... .. . ... : C-3 08 . ... : ... .. . ... : ... .. . ... : ... .. . ...
ROW 73 : ... .. . ... : --- .. . ... : ... .. . ... : ... .. . ... : ... .. . ...
ROW 74 : ... .. . ... : ... .. . ... : ... .. . ... : ... .. . ... : ... .. . ...
ROW 75 : ... .. . ... : ... .. . ... : ... .. . ... : ... .. . ... : ... .. . ...
ROW 76 : ... .. . ... : ... .. . ... : ... .. . ... : ... .. . ... : ... .. . ...
ROW 77 : ... .. . ... : ... .. . ... : ... .. . ... : ... .. . ... : ... .. . ...
ROW 78 : === .. . ... : G-3 08 . ... : G-4 07 . ... : 0-# 04 . ... : F-3 00 . ...
ROW 79 : ... .. . ... : ... .. . ... : ... .. . ... : ... .. . ... : ... .. . ...
ROW 7A : ... .. . ... : ... .. . ... : ... .. . ... : ... .. . ... : ... .. . ...
ROW 7B : ... .. . ... : --- .. . ... : ... .. . ... : ... .. . ... : ... .. . ...
ROW 7C : ... .. . ... : ... .. . ... : ... .. . ... : ... .. . ... : ... .. . ...
ROW 7D : ... .. . ... : ... .. . ... : ... .. . ... : ... .. . ... : ... .. . ...
ROW 7E : ... .. . ... : C-3 08 . ... : --- .. . ... : C-# 05 . ... : ... .. . ...
ROW 7F : ... .. . ... : --- .. . ... : ... .. . ... : ... .. . ... : ... .. . ...
ROW 80 : ... .. . ... : ... .. . ... : ... .. . ... : ... .. . ... : ... .. . ...
ROW 81 : ... .. . ... : ... .. . ... : ... .. . ... : ... .. . ... : ... .. . ...
ROW 82 : ... .. . ... : ... .. . ... : ... .. . ... : ... .. . ... : ... .. . ...
ROW 83 : ... .. . ... : ... .. . ... : ... .. . ... : ... .. . ... : ... .. . ...
ROW 84 : ... .. . ... : C-3 08 . ... : ... .. . ... : 0-# 03 . ... : F-4 00 . ...
ROW 85 : ... .. . ... : --- .. . ... : ... .. . ... : ... .. . ... : ... .. . ...
ROW 86 : ... .. . ... : ... .. . ... : ... .. . ... : ... .. . ... : ... .. . ...
ROW 87 : ... .. . ... : ... .. . ... : ... .. . ... : ... .. . ... : ... .. . ...
ROW 88 : ... .. . ... : ... .. . ... : ... .. . ... : ... .. . ... : ... .. . ...
ROW 89 : ... .. . ... : ... .. . ... : ... .. . ... : ... .. . ... : ... .. . ...
ROW 8A : ... .. . ... : C-3 0A F ... : ... .. . ... : C-# 05 . ... : F-4 00 . ...
ROW 8B : ... .. . ... : ... .. . ... : ... .. . ... : ... .. . ... : ... .. . ...
ROW 8C : ... .. . ... : ... .. . ... : ... .. . ... : ... .. . ... : ... .. . ...
ROW 8D : ... .. . ... : ... .. . ... : ... .. . ... : ... .. . ... : ... .. . ...
ROW 8E : ... .. . ... : ... .. . ... : ... .. . ... : ... .. . ... : ... .. . ...
ROW 8F : ... .. . ... : ... .. . ... : ... .. . ... : ... .. . ... : ... .. . ...
ROW 90 : G-4 08 . 400 : C-4 0A . ... : C-4 07 . ... : 0-# 03 . ... : F-3 00 . ...
ROW 91 : ... .. . ... : ... .. . ... : ... .. . ... : ... .. . ... : ... .. . ...
ROW 92 : ... .. . ... : ... .. . ... : ... .. . ... : ... .. . ... : ... .. . ...
ROW 93 : ... .. . ... : ... .. . ... : --- .. . ... : ... .. . ... : ... .. . ...
ROW 94 : ... .. . ... : ... .. . ... : ... .. . ... : ... .. . ... : ... .. . ...
ROW 95 : ... .. . ... : ... .. . ... : ... .. . ... : ... .. . ... : ... .. . ...
ROW 96 : ... .. . ... : ... .. . ... : ... .. . ... : 0-# 03 . ... : ... .. . ...
ROW 97 : ... .. . ... : ... .. . ... : ... .. . ... : ... .. . ... : ... .. . ...
ROW 98 : ... .. . ... : ... .. . ... : ... .. . ... : ... .. . ... : ... .. . ...
ROW 99 : ... .. . ... : ... .. . ... : ... .. . ... : C-# 05 . ... : ... .. . ...
ROW 9A : ... .. . ... : ... .. . ... : ... .. . ... : ... .. . ... : ... .. . ...
ROW 9B : ... .. . ... : ... .. . ... : ... .. . ... : ... .. . ... : ... .. . ...
ROW 9C : ... .. . ... : ... .. . 452 : ... .. . ... : 0-# 03 . ... : F-4 00 . ...
ROW 9D : ... .. . ... : ... .. . ... : ... .. . ... : ... .. . ... : ... .. . ...
ROW 9E : ... .. . ... : ... .. . ... : ... .. . ... : ... .. . ... : ... .. . ...
ROW 9F : ... .. . ... : ... .. . ... : ... .. . ... : ... .. . ... : ... .. . ...
ROW A0 : ... .. . ... : ... .. . ... : ... .. . ... : ... .. . ... : ... .. . ...
ROW A1 : ... .. . ... : ... .. . ... : ... .. . ... : ... .. . ... : ... .. . ...
ROW A2 : G#4 08 . ... : A#3 0A . 400 : ... .. . ... : C-# 05 . ... : ... .. . ...
ROW A3 : ... .. . ... : ... .. . ... : ... .. . ... : ... .. . ... : ... .. . ...
ROW A4 : ... .. . ... : ... .. . ... : ... .. . ... : ... .. . ... : ... .. . ...
ROW A5 : ... .. . ... : ... .. . ... : ... .. . ... : ... .. . ... : ... .. . ...
ROW A6 : ... .. . ... : ... .. . ... : ... .. . ... : ... .. . ... : ... .. . ...
ROW A7 : ... .. . ... : ... .. . ... : ... .. . ... : ... .. . ... : ... .. . ...
ROW A8 : ... .. . ... : ... .. . ... : G-4 07 . ... : 0-# 04 . ... : F-3 00 . ...
ROW A9 : ... .. . ... : ... .. . ... : ... .. . ... : ... .. . ... : ... .. . ...
ROW AA : ... .. . ... : ... .. . ... : ... .. . ... : ... .. . ... : ... .. . ...
ROW AB : ... .. . ... : ... .. . ... : ... .. . ... : ... .. . ... : ... .. . ...
ROW AC : ... .. . ... : ... .. . ... : ... .. . ... : ... .. . ... : ... .. . ...
ROW AD : ... .. . ... : ... .. . ... : ... .. . ... : ... .. . ... : ... .. . ...
ROW AE : ... .. . ... : ... .. . 452 : --- .. . ... : C-# 05 . ... : ... .. . ...
ROW AF : ... .. . ... : ... .. . ... : ... .. . ... : ... .. . ... : ... .. . ...
ROW B0 : ... .. . ... : ... .. . ... : ... .. . ... : ... .. . ... : ... .. . ...
ROW B1 : ... .. . ... : ... .. . ... : ... .. . ... : ... .. . ... : ... .. . ...
ROW B2 : ... .. . ... : ... .. . ... : ... .. . ... : ... .. . ... : ... .. . ...
ROW B3 : ... .. . ... : ... .. . ... : ... .. . ... : ... .. . ... : ... .. . ...
ROW B4 : A#4 08 . ... : F-3 0A . 400 : ... .. . ... : 0-# 03 . ... : F-4 00 . ...
ROW B5 : ... .. . ... : ... .. . ... : ... .. . ... : ... .. . ... : ... .. . ...
ROW B6 : ... .. . ... : ... .. . ... : ... .. . ... : ... .. . ... : ... .. . ...
ROW B7 : ... .. . ... : ... .. . ... : ... .. . ... : ... .. . ... : ... .. . ...
ROW B8 : ... .. . ... : ... .. . ... : ... .. . ... : ... .. . ... : ... .. . ...
ROW B9 : ... .. . ... : ... .. . ... : ... .. . ... : ... .. . ... : ... .. . ...
ROW BA : ... .. . ... : ... .. . ... : ... .. . ... : C-# 05 . ... : F-4 00 . ...
ROW BB : ... .. . ... : ... .. . ... : ... .. . ... : ... .. . ... : ... .. . ...
ROW BC : ... .. . ... : ... .. . ... : ... .. . ... : ... .. . ... : ... .. . ...
ROW BD : ... .. . ... : ... .. . ... : ... .. . ... : ... .. . ... : ... .. . ...
ROW BE : ... .. . ... : ... .. . ... : ... .. . ... : ... .. . ... : ... .. . ...
ROW BF : ... .. . ... : ... .. . ... : ... .. . ... : ... .. . ... : ... .. . ...
PATTERN 05
ROW 00 : G-4 08 A ... : G-3 0A F ... : C-4 07 . ... : B-# 06 . ... : D#3 00 . ...
ROW 01 : ... .. . ... : ... .. . ... : ... .. . ... : ... .. . ... : ... .. . ...
ROW 02 : ... .. . ... : ... .. . ... : ... .. . ... : ... .. . ... : ... .. . ...
ROW 03 : ... .. . ... : ... .. . ... : --- .. . ... : ... .. . ... : ... .. . ...
ROW 04 : ... .. . ... : ... .. . ... : ... .. . ... : ... .. . ... : ... .. . ...
ROW 05 : ... .. . ... : ... .. . ... : ... .. . ... : ... .. . ... : ... .. . ...
ROW 06 : ... .. . ... : ... .. . ... : ... .. . ... : ... .. . ... : ... .. . ...
ROW 07 : ... .. . ... : ... .. . ... : ... .. . ... : ... .. . ... : ... .. . ...
ROW 08 : ... .. . ... : ... .. . ... : ... .. . ... : ... .. . ... : ... .. . ...
ROW 09 : ... .. . ... : ... .. . ... : ... .. . ... : ... .. . ... : ... .. . ...
ROW 0A : ... .. . ... : ... .. . ... : ... .. . ... : ... .. . ... : ... .. . ...
ROW 0B : ... .. . ... : ... .. . ... : ... .. . ... : ... .. . ... : ... .. . ...
ROW 0C : ... .. 9 452 : ... .. D ... : ... .. . ... : ... .. . ... : D#4 00 . ...
ROW 0D : ... .. . ... : ... .. . ... : ... .. . ... : ... .. . ... : ... .. . ...
ROW 0E : ... .. . ... : ... .. . ... : ... .. . ... : ... .. . ... : ... .. . ...
ROW 0F : ... .. . ... : ... .. . ... : ... .. . ... : ... .. . ... : ... .. . ...
ROW 10 : ... .. . ... : ... .. . ... : ... .. . ... : ... .. . ... : ... .. . ...
ROW 11 : ... .. . ... : ... .. . ... : ... .. . ... : ... .. . ... : ... .. . ...
ROW 12 : ... .. . ... : ... .. . ... : ... .. . ... : ... .. . ... : ... .. . ...
ROW 13 : ... .. . ... : ... .. . ... : ... .. . ... : ... .. . ... : ... .. . ...
ROW 14 : ... .. . ... : ... .. . ... : ... .. . ... : ... .. . ... : ... .. . ...
ROW 15 : ... .. . ... : ... .. . ... : ... .. . ... : ... .. . ... : ... .. . ...
ROW 16 : ... .. . ... : ... .. . ... : ... .. . ... : ... .. . ... : ... .. . ...
ROW 17 : ... .. . ... : ... .. . ... : ... .. . ... : ... .. . ... : ... .. . ...
ROW 18 : ... .. 8 ... : ... .. B ... : G-4 07 . ... : 0-# 04 . ... : D#3 00 . ...
ROW 19 : ... .. . ... : ... .. . ... : ... .. . ... : ... .. . ... : ... .. . ...
ROW 1A : ... .. . ... : ... .. . ... : ... .. . ... : ... .. . ... : ... .. . ...
ROW 1B : ... .. . ... : ... .. . ... : ... .. . ... : ... .. . ... : ... .. . ...
ROW 1C : ... .. . ... : ... .. . ... : ... .. . ... : ... .. . ... : ... .. . ...
ROW 1D : ... .. . ... : ... .. . ... : ... .. . ... : ... .. . ... : ... .. . ...
ROW 1E : ... .. . ... : ... .. . ... : --- .. . ... : ... .. . ... : ... .. . ...
ROW 1F : ... .. . ... : ... .. . ... : ... .. . ... : ... .. . ... : ... .. . ...
ROW 20 : ... .. . ... : ... .. . ... : ... .. . ... : ... .. . ... : ... .. . ...
ROW 21 : ... .. . ... : ... .. . ... : ... .. . ... : ... .. . ... : ... .. . ...
ROW 22 : ... .. . ... : ... .. . ... : ... .. . ... : ... .. . ... : ... .. . ...
ROW 23 : ... .. . ... : ... .. . ... : ... .. . ... : ... .. . ... : ... .. . ...
ROW 24 : ... .. 7 ... : ... .. 9 ... : ... .. . ... : C-# 05 . ... : D#4 00 . ...
ROW 25 : ... .. . ... : ... .. . ... : ... .. . ... : ... .. . ... : ... .. . ...
ROW 26 : ... .. . ... : ... .. . ... : ... .. . ... : ... .. . ... : ... .. . ...
ROW 27 : ... .. . ... : ... .. . ... : ... .. . ... : ... .. . ... : ... .. . ...
ROW 28 : ... .. . ... : ... .. . ... : ... .. . ... : ... .. . ... : ... .. . ...
ROW 29 : ... .. . ... : ... .. . ... : ... .. . ... : ... .. . ... : ... .. . ...
ROW 2A : ... .. . ... : ... .. . ... : ... .. . ... : C-# 05 . ... : D#4 00 . ...
ROW 2B : ... .. . ... : ... .. . ... : ... .. . ... : ... .. . ... : ... .. . ...
ROW 2C : ... .. . ... : ... .. . ... : ... .. . ... : ... .. . ... : ... .. . ...
ROW 2D : ... .. . ... : ... .. . ... : ... .. . ... : ... .. . ... : ... .. . ...
ROW 2E : ... .. . ... : ... .. . ... : ... .. . ... : ... .. . ... : ... .. . ...
ROW 2F : ... .. . ... : ... .. . ... : ... .. . ... : ... .. . ... : ... .. . ...
ROW 30 : ... .. 6 ... : ... .. 7 ... : C-4 07 . ... : 0-# 03 . ... : D#3 00 . ...
ROW 31 : ... .. . ... : ... .. . ... : ... .. . ... : ... .. . ... : ... .. . ...
ROW 32 : ... .. . ... : ... .. . ... : ... .. . ... : ... .. . ... : ... .. . ...
ROW 33 : ... .. . ... : ... .. . ... : --- .. . ... : ... .. . ... : ... .. . ...
ROW 34 : ... .. . ... : ... .. . ... : ... .. . ... : ... .. . ... : ... .. . ...
ROW 35 : ... .. . ... : ... .. . ... : ... .. . ... : ... .. . ... : ... .. . ...
ROW 36 : ... .. . ... : ... .. . ... : ... .. . ... : ... .. . ... : ... .. . ...
ROW 37 : ... .. . ... : ... .. . ... : ... .. . ... : ... .. . ... : ... .. . ...
ROW 38 : ... .. . ... : ... .. . ... : ... .. . ... : ... .. . ... : ... .. . ...
ROW 39 : ... .. . ... : ... .. . ... : ... .. . ... : ... .. . ... : ... .. . ...
ROW 3A : ... .. . ... : ... .. . ... : ... .. . ... : ... .. . ... : ... .. . ...
ROW 3B : ... .. . ... : ... .. . ... : ... .. . ... : ... .. . ... : ... .. . ...
ROW 3C : ... .. 5 ... : ... .. 5 ... : ... .. . ... : C-# 05 . ... : D#4 00 . ...
ROW 3D : ... .. . ... : ... .. . ... : ... .. . ... : ... .. . ... : ... .. . ...
ROW 3E : ... .. . ... : ... .. . ... : ... .. . ... : ... .. . ... : ... .. . ...
ROW 3F : ... .. . ... : ... .. . ... : ... .. . ... : ... .. . ... : ... .. . ...
ROW 40 : ... .. . ... : ... .. . ... : ... .. . ... : ... .. . ... : ... .. . ...
ROW 41 : ... .. . ... : ... .. . ... : ... .. . ... : ... .. . ... : ... .. . ...
ROW 42 : F-4 08 A 400 : D-3 0A F ... : C-4 07 . ... : 0-# 03 . ... : ... .. . ...
ROW 43 : ... .. . ... : ... .. . ... : ... .. . ... : ... .. . ... : ... .. . ...
ROW 44 : ... .. . ... : ... .. . ... : ... .. . ... : ... .. . ... : ... .. . ...
ROW 45 : ... .. . ... : ... .. . ... : --- .. . ... : ... .. . ... : ... .. . ...
ROW 46 : ... .. . ... : ... .. . ... : ... .. . ... : ... .. . ... : ... .. . ...
ROW 47 : ... .. . ... : ... .. . ... : ... .. . ... : ... .. . ... : ... .. . ...
ROW 48 : ... .. . ... : ... .. . ... : G-4 07 . ... : 0-# 04 . ... : D#3 00 . ...
ROW 49 : ... .. . ... : ... .. . ... : ... .. . ... : ... .. . ... : ... .. . ...
ROW 4A : ... .. . ... : ... .. . ... : ... .. . ... : ... .. . ... : ... .. . ...
ROW 4B : ... .. . ... : ... .. . ... : ... .. . ... : ... .. . ... : ... .. . ...
ROW 4C : ... .. . ... : ... .. . ... : ... .. . ... : ... .. . ... : ... .. . ...
ROW 4D : ... .. . ... : ... .. . ... : ... .. . ... : ... .. . ... : ... .. . ...
ROW 4E : ... .. . 452 : ... .. . ... : --- .. . ... : ... .. . ... : ... .. . ...
ROW 4F : ... .. . ... : ... .. . ... : ... .. . ... : ... .. . ... : ... .. . ...
ROW 50 : ... .. . ... : ... .. . ... : ... .. . ... : ... .. . ... : ... .. . ...
ROW 51 : ... .. . ... : ... .. . ... : ... .. . ... : ... .. . ... : ... .. . ...
ROW 52 : ... .. . ... : ... .. . ... : ... .. . ... : ... .. . ... : ... .. . ...
ROW 53 : ... .. . ... : ... .. . ... : ... .. . ... : ... .. . ... : ... .. . ...
ROW 54 : C-4 08 . 400 : A#2 0A . ... : ... .. . ... : C-# 05 . ... : D#4 00 . ...
ROW 55 : ... .. . ... : ... .. . ... : ... .. . ... : ... .. . ... : ... .. . ...
ROW 56 : ... .. . ... : ... .. . ... : ... .. . ... : ... .. . ... : ... .. . ...
ROW 57 : ... .. . ... : ... .. . ... : ... .. . ... : ... .. . ... : ... .. . ...
ROW 58 : ... .. . ... : ... .. . ... : ... .. . ... : ... .. . ... : ... .. . ...
ROW 59 : ... .. . ... : ... .. . ... : ... .. . ... : ... .. . ... : ... .. . ...
ROW 5A : ... .. . ... : ... .. . ... : ... .. . ... : C-# 05 . ... : D#4 00 . ...
ROW 5B : ... .. . ... : ... .. . ... : ... .. . ... : ... .. . ... : ... .. . ...
ROW 5C : ... .. . ... : ... .. . ... : ... .. . ... : ... .. . ... : ... .. . ...
ROW 5D : ... .. . ... : ... .. . ... : ... .. . ... : ... .. . ... : ... .. . ...
ROW 5E : ... .. . ... : ... .. . ... : ... .. . ... : ... .. . ... : ... .. . ...
ROW 5F : ... .. . ... : ... .. . ... : ... .. . ... : ... .. . ... : ... .. . ...
ROW 60 : G-4 08 . ... : A#2 08 9 ... : ... .. . ... : C-# 05 . ... : G#3 00 . ...
ROW 61 : ... .. . ... : ... .. . ... : ... .. . ... : ... .. . ... : ... .. . ...
ROW 62 : ... .. . ... : ... .. . ... : ... .. . ... : ... .. . ... : ... .. . ...
ROW 63 : ... .. . ... : C-3 08 . ... : ... .. . ... : ... .. . ... : ... .. . ...
ROW 64 : ... .. . ... : ... .. . ... : ... .. . ... : ... .. . ... : ... .. . ...
ROW 65 : ... .. . ... : ... .. . ... : ... .. . ... : ... .. . ... : ... .. . ...
ROW 66 : ... .. . ... : ... .. . ... : ... .. . ... : ... .. . ... : ... .. . ...
ROW 67 : ... .. . ... : ... .. . ... : ... .. . ... : ... .. . ... : ... .. . ...
ROW 68 : ... .. . ... : ... .. . ... : ... .. . ... : ... .. . ... : ... .. . ...
ROW 69 : ... .. . ... : --- .. . ... : ... .. . ... : ... .. . ... : ... .. . ...
ROW 6A : ... .. . ... : ... .. . ... : ... .. . ... : ... .. . ... : ... .. . ...
ROW 6B : ... .. . ... : ... .. . ... : ... .. . ... : ... .. . ... : ... .. . ...
ROW 6C : ... .. 9 452 : C-3 08 . ... : C-4 07 . ... : 0-# 03 . ... : G#4 00 . ...
ROW 6D : ... .. . ... : --- .. . ... : ... .. . ... : ... .. . ... : ... .. . ...
ROW 6E : ... .. . ... : ... .. . ... : ... .. . ... : ... .. . ... : ... .. . ...
ROW 6F : ... .. . ... : ... .. . ... : --- .. . ... : ... .. . ... : ... .. . ...
ROW 70 : ... .. . ... : ... .. . ... : ... .. . ... : ... .. . ... : ... .. . ...
ROW 71 : ... .. . ... : ... .. . ... : ... .. . ... : ... .. . ... : ... .. . ...
ROW 72 : ... .. . ... : C-3 08 . ... : ... .. . ... : C-# 05 . ... : ... .. . ...
ROW 73 : ... .. . ... : --- .. . ... : ... .. . ... : ... .. . ... : ... .. . ...
ROW 74 : ... .. . ... : ... .. . ... : ... .. . ... : ... .. . ... : ... .. . ...
ROW 75 : ... .. . ... : ... .. . ... : ... .. . ... : ... .. . ... : ... .. . ...
ROW 76 : ... .. . ... : ... .. . ... : ... .. . ... : ... .. . ... : ... .. . ...
ROW 77 : ... .. . ... : ... .. . ... : ... .. . ... : ... .. . ... : ... .. . ...
ROW 78 : ... .. 8 ... : G-3 08 . ... : G-4 07 . ... : 0-# 04 . ... : G#3 00 . ...
ROW 79 : ... .. . ... : ... .. . ... : ... .. . ... : ... .. . ... : ... .. . ...
ROW 7A : ... .. . ... : ... .. . ... : ... .. . ... : ... .. . ... : ... .. . ...
ROW 7B : ... .. . ... : --- .. . ... : ... .. . ... : ... .. . ... : ... .. . ...
ROW 7C : ... .. . ... : ... .. . ... : ... .. . ... : ... .. . ... : ... .. . ...
ROW 7D : ... .. . ... : ... .. . ... : ... .. . ... : ... .. . ... : ... .. . ...
ROW 7E : ... .. . ... : C-3 08 . ... : --- .. . ... : ... .. . ... : ... .. . ...
ROW 7F : ... .. . ... : --- .. . ... : ... .. . ... : ... .. . ... : ... .. . ...
ROW 80 : ... .. . ... : ... .. . ... : ... .. . ... : ... .. . ... : ... .. . ...
ROW 81 : ... .. . ... : ... .. . ... : ... .. . ... : ... .. . ... : ... .. . ...
ROW 82 : ... .. . ... : ... .. . ... : ... .. . ... : ... .. . ... : ... .. . ...
ROW 83 : ... .. . ... : ... .. . ... : ... .. . ... : ... .. . ... : ... .. . ...
ROW 84 : ... .. 7 ... : C-3 08 . ... : ... .. . ... : C-# 05 . ... : G#4 00 . ...
ROW 85 : ... .. . ... : --- .. . ... : ... .. . ... : ... .. . ... : ... .. . ...
ROW 86 : ... .. . ... : ... .. . ... : ... .. . ... : ... .. . ... : ... .. . ...
ROW 87 : ... .. . ... : ... .. . ... : ... .. . ... : ... .. . ... : ... .. . ...
ROW 88 : ... .. . ... : ... .. . ... : ... .. . ... : ... .. . ... : ... .. . ...
ROW 89 : ... .. . ... : ... .. . ... : ... .. . ... : ... .. . ... : ... .. . ...
ROW 8A : ... .. . ... : C-3 08 . ... : ... .. . ... : C-# 05 . ... : G#4 00 . ...
ROW 8B : ... .. . ... : ... .. . ... : ... .. . ... : ... .. . ... : ... .. . ...
ROW 8C : ... .. . ... : ... .. . ... : ... .. . ... : ... .. . ... : ... .. . ...
ROW 8D : ... .. . ... : D-3 08 . ... : ... .. . ... : ... .. . ... : ... .. . ...
ROW 8E : ... .. . ... : ... .. . ... : ... .. . ... : ... .. . ... : ... .. . ...
ROW 8F : ... .. . ... : ... .. . ... : ... .. . ... : ... .. . ... : ... .. . ...
ROW 90 : ... .. 6 ... : ... .. . ... : C-4 07 . ... : 0-# 03 . ... : G-3 00 . ...
ROW 91 : ... .. . ... : ... .. . ... : ... .. . ... : ... .. . ... : ... .. . ...
ROW 92 : ... .. . ... : ... .. . ... : ... .. . ... : ... .. . ... : ... .. . ...
ROW 93 : ... .. . ... : --- .. . ... : --- .. . ... : ... .. . ... : ... .. . ...
ROW 94 : ... .. . ... : ... .. . ... : ... .. . ... : ... .. . ... : ... .. . ...
ROW 95 : ... .. . ... : ... .. . ... : ... .. . ... : ... .. . ... : ... .. . ...
ROW 96 : ... .. . ... : A#2 08 . ... : ... .. . ... : ... .. . ... : ... .. . ...
ROW 97 : ... .. . ... : ... .. . ... : ... .. . ... : ... .. . ... : ... .. . ...
ROW 98 : ... .. . ... : ... .. . ... : ... .. . ... : ... .. . ... : ... .. . ...
ROW 99 : ... .. . ... : --- .. . ... : ... .. . ... : ... .. . ... : ... .. . ...
ROW 9A : ... .. . ... : ... .. . ... : ... .. . ... : ... .. . ... : ... .. . ...
ROW 9B : ... .. . ... : ... .. . ... : ... .. . ... : ... .. . ... : ... .. . ...
ROW 9C : ... .. 5 ... : A#2 08 . ... : ... .. . ... : C-# 05 . ... : G-4 00 . ...
ROW 9D : ... .. . ... : --- .. . ... : ... .. . ... : ... .. . ... : ... .. . ...
ROW 9E : ... .. . ... : ... .. . ... : ... .. . ... : ... .. . ... : ... .. . ...
ROW 9F : ... .. . ... : ... .. . ... : ... .. . ... : ... .. . ... : ... .. . ...
ROW A0 : ... .. . ... : ... .. . ... : ... .. . ... : ... .. . ... : ... .. . ...
ROW A1 : ... .. . ... : ... .. . ... : ... .. . ... : ... .. . ... : ... .. . ...
ROW A2 : F-4 08 A 400 : A#2 08 . ... : ... .. . ... : C-# 05 . ... : ... .. . ...
ROW A3 : ... .. . ... : ... .. . ... : ... .. . ... : ... .. . ... : ... .. . ...
ROW A4 : ... .. . ... : ... .. . ... : ... .. . ... : ... .. . ... : ... .. . ...
ROW A5 : ... .. . ... : C-3 08 . ... : ... .. . ... : ... .. . ... : ... .. . ...
ROW A6 : ... .. . ... : ... .. . ... : ... .. . ... : ... .. . ... : ... .. . ...
ROW A7 : ... .. . ... : ... .. . ... : ... .. . ... : ... .. . ... : ... .. . ...
ROW A8 : ... .. . ... : ... .. . ... : G-4 07 . ... : 0-# 04 . ... : G-3 00 . ...
ROW A9 : ... .. . ... : ... .. . ... : ... .. . ... : ... .. . ... : ... .. . ...
ROW AA : ... .. . ... : ... .. . ... : ... .. . ... : ... .. . ... : ... .. . ...
ROW AB : ... .. . ... : --- .. . ... : ... .. . ... : ... .. . ... : ... .. . ...
ROW AC : ... .. . ... : ... .. . ... : ... .. . ... : ... .. . ... : ... .. . ...
ROW AD : ... .. . ... : ... .. . ... : ... .. . ... : ... .. . ... : ... .. . ...
ROW AE : ... .. . 452 : G-2 08 . ... : D-5 07 . ... : ... .. . ... : ... .. . ...
ROW AF : ... .. . ... : --- .. . ... : ... .. . ... : ... .. . ... : ... .. . ...
ROW B0 : ... .. . ... : ... .. . ... : ... .. . ... : ... .. . ... : ... .. . ...
ROW B1 : ... .. . ... : ... .. . ... : ... .. . ... : ... .. . ... : ... .. . ...
ROW B2 : ... .. . ... : ... .. . ... : ... .. . ... : ... .. . ... : ... .. . ...
ROW B3 : ... .. . ... : ... .. . ... : ... .. . ... : ... .. . ... : ... .. . ...
ROW B4 : D#4 08 . 400 : F-2 08 . ... : A-4 07 . ... : C-# 05 . ... : G-4 00 . ...
ROW B5 : ... .. . ... : --- .. . ... : ... .. . ... : ... .. . ... : ... .. . ...
ROW B6 : ... .. . ... : ... .. . ... : ... .. . ... : ... .. . ... : ... .. . ...
ROW B7 : ... .. . ... : ... .. . ... : ... .. . ... : ... .. . ... : ... .. . ...
ROW B8 : ... .. . ... : ... .. . ... : ... .. . ... : ... .. . ... : ... .. . ...
ROW B9 : ... .. . ... : ... .. . ... : ... .. . ... : ... .. . ... : ... .. . ...
ROW BA : ... .. . ... : G-2 08 . ... : G-4 07 . ... : C-# 05 . ... : G-4 00 . ...
ROW BB : ... .. . ... : --- .. . ... : ... .. . ... : ... .. . ... : ... .. . ...
ROW BC : ... .. . ... : ... .. . ... : ... .. . ... : ... .. . ... : ... .. . ...
ROW BD : ... .. . ... : ... .. . ... : ... .. . ... : ... .. . ... : ... .. . ...
ROW BE : ... .. . ... : ... .. . ... : ... .. . ... : ... .. . ... : ... .. . ...
ROW BF : ... .. . ... : ... .. . ... : ... .. . ... : ... .. . ... : ... .. . ...
PATTERN 06
ROW 00 : D-4 08 A ... : C-3 0A F ... : C-4 07 . ... : 0-# 03 . ... : G#3 00 . ...
ROW 01 : ... .. . ... : ... .. . ... : ... .. . ... : ... .. . ... : ... .. . ...
ROW 02 : ... .. . ... : ... .. . ... : ... .. . ... : ... .. . ... : ... .. . ...
ROW 03 : ... .. . ... : ... .. . ... : --- .. . ... : ... .. . ... : ... .. . ...
ROW 04 : ... .. . ... : ... .. . ... : ... .. . ... : ... .. . ... : ... .. . ...
ROW 05 : ... .. . ... : ... .. . ... : ... .. . ... : ... .. . ... : ... .. . ...
ROW 06 : ... .. . ... : ... .. . ... : ... .. . ... : ... .. . ... : ... .. . ...
ROW 07 : ... .. . ... : ... .. . ... : ... .. . ... : ... .. . ... : ... .. . ...
ROW 08 : ... .. . ... : ... .. . ... : ... .. . ... : ... .. . ... : ... .. . ...
ROW 09 : ... .. . ... : ... .. . ... : ... .. . ... : ... .. . ... : ... .. . ...
ROW 0A : ... .. . ... : ... .. . ... : ... .. . ... : ... .. . ... : ... .. . ...
ROW 0B : ... .. . ... : ... .. . ... : ... .. . ... : ... .. . ... : ... .. . ...
ROW 0C : ... .. 9 452 : ... .. . ... : C-4 07 . ... : C-# 05 . ... : G#4 00 . ...
ROW 0D : ... .. . ... : ... .. . ... : ... .. . ... : ... .. . ... : ... .. . ...
ROW 0E : ... .. . ... : ... .. . ... : ... .. . ... : ... .. . ... : ... .. . ...
ROW 0F : ... .. . ... : ... .. . ... : --- .. . ... : ... .. . ... : ... .. . ...
ROW 10 : ... .. . ... : ... .. . ... : ... .. . ... : ... .. . ... : ... .. . ...
ROW 11 : ... .. . ... : ... .. . ... : ... .. . ... : ... .. . ... : ... .. . ...
ROW 12 : ... .. . ... : ... .. . ... : ... .. . ... : 0-# 03 . ... : ... .. . ...
ROW 13 : ... .. . ... : ... .. . ... : ... .. . ... : ... .. . ... : ... .. . ...
ROW 14 : ... .. . ... : ... .. . ... : ... .. . ... : ... .. . ... : ... .. . ...
ROW 15 : ... .. . ... : ... .. . ... : ... .. . ... : ... .. . ... : ... .. . ...
ROW 16 : ... .. . ... : ... .. . ... : ... .. . ... : ... .. . ... : ... .. . ...
ROW 17 : ... .. . ... : ... .. . ... : ... .. . ... : ... .. . ... : ... .. . ...
ROW 18 : ... .. 8 ... : ... .. . ... : G-4 07 . ... : 0-# 04 . ... : G#3 00 . ...
ROW 19 : ... .. . ... : ... .. . ... : ... .. . ... : ... .. . ... : ... .. . ...
ROW 1A : ... .. . ... : ... .. . ... : ... .. . ... : ... .. . ... : ... .. . ...
ROW 1B : ... .. . ... : ... .. . ... : ... .. . ... : ... .. . ... : ... .. . ...
ROW 1C : ... .. . ... : ... .. . ... : ... .. . ... : ... .. . ... : ... .. . ...
ROW 1D : ... .. . ... : ... .. . ... : ... .. . ... : ... .. . ... : ... .. . ...
ROW 1E : ... .. . ... : ... .. . ... : --- .. . ... : ... .. . ... : ... .. . ...
ROW 1F : ... .. . ... : ... .. . ... : ... .. . ... : ... .. . ... : ... .. . ...
ROW 20 : ... .. . ... : ... .. . ... : ... .. . ... : ... .. . ... : ... .. . ...
ROW 21 : ... .. . ... : ... .. . ... : ... .. . ... : ... .. . ... : ... .. . ...
ROW 22 : ... .. . ... : ... .. . ... : ... .. . ... : ... .. . ... : ... .. . ...
ROW 23 : ... .. . ... : ... .. . ... : ... .. . ... : ... .. . ... : ... .. . ...
ROW 24 : ... .. 7 ... : G-2 0A . ... : ... .. . ... : C-# 05 . ... : G#4 00 . ...
ROW 25 : ... .. . ... : ... .. . ... : ... .. . ... : ... .. . ... : ... .. . ...
ROW 26 : ... .. . ... : ... .. . ... : ... .. . ... : ... .. . ... : ... .. . ...
ROW 27 : ... .. . ... : ... .. . ... : ... .. . ... : ... .. . ... : ... .. . ...
ROW 28 : ... .. . ... : ... .. . ... : ... .. . ... : ... .. . ... : ... .. . ...
ROW 29 : ... .. . ... : ... .. . ... : ... .. . ... : ... .. . ... : ... .. . ...
ROW 2A : ... .. . ... : ... .. . ... : ... .. . ... : C-# 05 . ... : G#4 00 . ...
ROW 2B : ... .. . ... : ... .. . ... : ... .. . ... : ... .. . ... : ... .. . ...
ROW 2C : ... .. . ... : ... .. . ... : ... .. . ... : ... .. . ... : ... .. . ...
ROW 2D : ... .. . ... : ... .. . ... : ... .. . ... : ... .. . ... : ... .. . ...
ROW 2E : ... .. . ... : ... .. . ... : ... .. . ... : ... .. . ... : ... .. . ...
ROW 2F : ... .. . ... : ... .. . ... : ... .. . ... : ... .. . ... : ... .. . ...
ROW 30 : ... .. 6 ... : ... .. . ... : C-4 07 . ... : 0-# 03 . ... : G#3 00 . ...
ROW 31 : ... .. . ... : ... .. . ... : ... .. . ... : ... .. . ... : ... .. . ...
ROW 32 : ... .. . ... : ... .. . ... : ... .. . ... : ... .. . ... : ... .. . ...
ROW 33 : ... .. . ... : ... .. . ... : --- .. . ... : ... .. . ... : ... .. . ...
ROW 34 : ... .. . ... : ... .. . ... : ... .. . ... : ... .. . ... : ... .. . ...
ROW 35 : ... .. . ... : ... .. . ... : ... .. . ... : ... .. . ... : ... .. . ...
ROW 36 : ... .. . ... : ... .. . ... : ... .. . ... : ... .. . ... : ... .. . ...
ROW 37 : ... .. . ... : ... .. . ... : ... .. . ... : ... .. . ... : ... .. . ...
ROW 38 : ... .. . ... : ... .. . ... : ... .. . ... : ... .. . ... : ... .. . ...
ROW 39 : ... .. . ... : ... .. . ... : ... .. . ... : ... .. . ... : ... .. . ...
ROW 3A : ... .. . ... : ... .. . ... : ... .. . ... : ... .. . ... : ... .. . ...
ROW 3B : ... .. . ... : ... .. . ... : ... .. . ... : ... .. . ... : ... .. . ...
ROW 3C : ... .. 5 ... : ... .. . ... : ... .. . ... : C-# 05 . ... : G#4 00 . ...
ROW 3D : ... .. . ... : ... .. . ... : ... .. . ... : ... .. . ... : ... .. . ...
ROW 3E : ... .. . ... : ... .. . ... : ... .. . ... : ... .. . ... : ... .. . ...
ROW 3F : ... .. . ... : ... .. . ... : ... .. . ... : ... .. . ... : ... .. . ...
ROW 40 : ... .. . ... : ... .. . ... : ... .. . ... : ... .. . ... : ... .. . ...
ROW 41 : ... .. . ... : ... .. . ... : ... .. . ... : ... .. . ... : ... .. . ...
ROW 42 : A#3 08 A 400 : ... .. . ... : C-4 07 . ... : 0-# 03 . ... : ... .. . ...
ROW 43 : ... .. . ... : ... .. . ... : ... .. . ... : ... .. . ... : ... .. . ...
ROW 44 : ... .. . ... : ... .. . ... : ... .. . ... : ... .. . ... : ... .. . ...
ROW 45 : ... .. . ... : ... .. . ... : --- .. . ... : ... .. . ... : ... .. . ...
ROW 46 : ... .. . ... : ... .. . ... : ... .. . ... : ... .. . ... : ... .. . ...
ROW 47 : ... .. . ... : ... .. . ... : ... .. . ... : ... .. . ... : ... .. . ...
ROW 48 : ... .. . ... : ... .. . ... : G-4 07 . ... : 0-# 04 . ... : G#3 00 . ...
ROW 49 : ... .. . ... : ... .. . ... : ... .. . ... : ... .. . ... : ... .. . ...
ROW 4A : ... .. . ... : ... .. . ... : ... .. . ... : ... .. . ... : ... .. . ...
ROW 4B : ... .. . ... : ... .. . ... : ... .. . ... : ... .. . ... : ... .. . ...
ROW 4C : ... .. . ... : ... .. . ... : ... .. . ... : ... .. . ... : ... .. . ...
ROW 4D : ... .. . ... : ... .. . ... : ... .. . ... : ... .. . ... : ... .. . ...
ROW 4E : ... .. . 452 : ... .. . ... : --- .. . ... : ... .. . ... : ... .. . ...
ROW 4F : ... .. . ... : ... .. . ... : ... .. . ... : ... .. . ... : ... .. . ...
ROW 50 : ... .. . ... : ... .. . ... : ... .. . ... : ... .. . ... : ... .. . ...
ROW 51 : ... .. . ... : ... .. . ... : ... .. . ... : ... .. . ... : ... .. . ...
ROW 52 : ... .. . ... : ... .. . ... : ... .. . ... : ... .. . ... : ... .. . ...
ROW 53 : ... .. . ... : ... .. . ... : ... .. . ... : ... .. . ... : ... .. . ...
ROW 54 : G-3 08 . 400 : ... .. . ... : C-4 07 . ... : C-# 05 . ... : G#4 00 . ...
ROW 55 : ... .. . ... : ... .. . ... : ... .. . ... : ... .. . ... : ... .. . ...
ROW 56 : ... .. . ... : ... .. . ... : ... .. . ... : ... .. . ... : ... .. . ...
ROW 57 : ... .. . ... : ... .. . ... : --- .. . ... : ... .. . ... : ... .. . ...
ROW 58 : ... .. . ... : ... .. . ... : ... .. . ... : ... .. . ... : ... .. . ...
ROW 59 : ... .. . ... : ... .. . ... : ... .. . ... : ... .. . ... : ... .. . ...
ROW 5A : ... .. . ... : ... .. . ... : ... .. . ... : C-# 05 . ... : G#4 00 . ...
ROW 5B : ... .. . ... : ... .. . ... : ... .. . ... : ... .. . ... : ... .. . ...
ROW 5C : ... .. . ... : ... .. . ... : ... .. . ... : ... .. . ... : ... .. . ...
ROW 5D : ... .. . ... : ... .. . ... : ... .. . ... : ... .. . ... : ... .. . ...
ROW 5E : ... .. . ... : ... .. . ... : ... .. . ... : ... .. . ... : ... .. . ...
ROW 5F : ... .. . ... : ... .. . ... : ... .. . ... : ... .. . ... : ... .. . ...
ROW 60 : C-4 08 A 400 : D-3 0A . ... : C-4 07 . ... : C-# 05 . ... : D#3 00 . ...
ROW 61 : ... .. . ... : ... .. . ... : ... .. . ... : ... .. . ... : ... .. . ...
ROW 62 : ... .. . ... : ... .. . ... : ... .. . ... : ... .. . ... : ... .. . ...
ROW 63 : ... .. . ... : ... .. . ... : --- .. . ... : ... .. . ... : ... .. . ...
ROW 64 : ... .. . ... : ... .. . ... : ... .. . ... : ... .. . ... : ... .. . ...
ROW 65 : ... .. . ... : ... .. . ... : ... .. . ... : ... .. . ... : ... .. . ...
ROW 66 : ... .. . ... : ... .. . ... : C-4 07 . ... : ... .. . ... : ... .. . ...
ROW 67 : ... .. . ... : ... .. . ... : ... .. . ... : ... .. . ... : ... .. . ...
ROW 68 : ... .. . ... : ... .. . ... : ... .. . ... : ... .. . ... : ... .. . ...
ROW 69 : ... .. . ... : ... .. . ... : --- .. . ... : ... .. . ... : ... .. . ...
ROW 6A : ... .. . ... : ... .. . ... : ... .. . ... : ... .. . ... : ... .. . ...
ROW 6B : ... .. . ... : ... .. . ... : ... .. . ... : ... .. . ... : ... .. . ...
ROW 6C : ... .. 9 452 : ... .. . ... : ... .. . ... : 0-# 03 . ... : D#4 00 . ...
ROW 6D : ... .. . ... : ... .. . ... : ... .. . ... : ... .. . ... : ... .. . ...
ROW 6E : ... .. . ... : ... .. . ... : ... .. . ... : ... .. . ... : ... .. . ...
ROW 6F : ... .. . ... : ... .. . ... : ... .. . ... : ... .. . ... : ... .. . ...
ROW 70 : ... .. . ... : ... .. . ... : ... .. . ... : ... .. . ... : ... .. . ...
ROW 71 : ... .. . ... : ... .. . ... : ... .. . ... : ... .. . ... : ... .. . ...
ROW 72 : ... .. . ... : ... .. . ... : ... .. . ... : C-# 05 . ... : ... .. . ...
ROW 73 : ... .. . ... : ... .. . ... : ... .. . ... : ... .. . ... : ... .. . ...
ROW 74 : ... .. . ... : ... .. . ... : ... .. . ... : ... .. . ... : ... .. . ...
ROW 75 : ... .. . ... : ... .. . ... : ... .. . ... : ... .. . ... : ... .. . ...
ROW 76 : ... .. . ... : ... .. . ... : ... .. . ... : ... .. . ... : ... .. . ...
ROW 77 : ... .. . ... : ... .. . ... : ... .. . ... : ... .. . ... : ... .. . ...
ROW 78 : ... .. 8 ... : ... .. . ... : G-4 07 . ... : 0-# 04 . ... : D#3 00 . ...
ROW 79 : ... .. . ... : ... .. . ... : ... .. . ... : ... .. . ... : ... .. . ...
ROW 7A : ... .. . ... : ... .. . ... : ... .. . ... : ... .. . ... : ... .. . ...
ROW 7B : ... .. . ... : ... .. . ... : ... .. . ... : ... .. . ... : ... .. . ...
ROW 7C : ... .. . ... : ... .. . ... : ... .. . ... : ... .. . ... : ... .. . ...
ROW 7D : ... .. . ... : ... .. . ... : ... .. . ... : ... .. . ... : ... .. . ...
ROW 7E : ... .. . ... : ... .. . ... : --- .. . ... : ... .. . ... : ... .. . ...
ROW 7F : ... .. . ... : ... .. . ... : ... .. . ... : ... .. . ... : ... .. . ...
ROW 80 : ... .. . ... : ... .. . ... : ... .. . ... : ... .. . ... : ... .. . ...
ROW 81 : ... .. . ... : ... .. . ... : ... .. . ... : ... .. . ... : ... .. . ...
ROW 82 : ... .. . ... : ... .. . ... : ... .. . ... : ... .. . ... : ... .. . ...
ROW 83 : ... .. . ... : ... .. . ... : ... .. . ... : ... .. . ... : ... .. . ...
ROW 84 : ... .. 7 ... : C-3 0A . ... : ... .. . ... : C-# 05 . ... : D#4 00 . ...
ROW 85 : ... .. . ... : ... .. . ... : ... .. . ... : ... .. . ... : ... .. . ...
ROW 86 : ... .. . ... : ... .. . ... : ... .. . ... : ... .. . ... : ... .. . ...
ROW 87 : ... .. . ... : ... .. . ... : ... .. . ... : ... .. . ... : ... .. . ...
ROW 88 : ... .. . ... : ... .. . ... : ... .. . ... : ... .. . ... : ... .. . ...
ROW 89 : ... .. . ... : ... .. . ... : ... .. . ... : ... .. . ... : ... .. . ...
ROW 8A : ... .. . ... : ... .. . ... : G-4 07 . ... : C-# 05 . ... : D#4 00 . ...
ROW 8B : ... .. . ... : ... .. . ... : ... .. . ... : ... .. . ... : ... .. . ...
ROW 8C : ... .. . ... : ... .. . ... : ... .. . ... : ... .. . ... : ... .. . ...
ROW 8D : ... .. . ... : ... .. . ... : ... .. . ... : ... .. . ... : ... .. . ...
ROW 8E : ... .. . ... : ... .. . ... : ... .. . ... : ... .. . ... : ... .. . ...
ROW 8F : ... .. . ... : ... .. . ... : ... .. . ... : ... .. . ... : ... .. . ...
ROW 90 : G-4 08 A 400 : ... .. . ... : --- .. . ... : 0-# 03 . ... : D#3 00 . ...
ROW 91 : ... .. . ... : ... .. . ... : ... .. . ... : ... .. . ... : ... .. . ...
ROW 92 : ... .. . ... : ... .. . ... : ... .. . ... : ... .. . ... : ... .. . ...
ROW 93 : ... .. . ... : ... .. . ... : ... .. . ... : ... .. . ... : ... .. . ...
ROW 94 : ... .. . ... : ... .. . ... : ... .. . ... : ... .. . ... : ... .. . ...
ROW 95 : ... .. . ... : ... .. . ... : ... .. . ... : ... .. . ... : ... .. . ...
ROW 96 : ... .. . ... : ... .. . ... : ... .. . ... : ... .. . ... : ... .. . ...
ROW 97 : ... .. . ... : ... .. . ... : ... .. . ... : ... .. . ... : ... .. . ...
ROW 98 : ... .. . ... : ... .. . ... : ... .. . ... : ... .. . ... : ... .. . ...
ROW 99 : ... .. . ... : ... .. . ... : ... .. . ... : ... .. . ... : ... .. . ...
ROW 9A : ... .. . ... : ... .. . ... : ... .. . ... : ... .. . ... : ... .. . ...
ROW 9B : ... .. . ... : ... .. . ... : ... .. . ... : ... .. . ... : ... .. . ...
ROW 9C : ... .. . 452 : ... .. . ... : D#5 07 . ... : C-# 05 . ... : D#4 00 . ...
ROW 9D : ... .. . ... : ... .. . ... : ... .. . ... : ... .. . ... : ... .. . ...
ROW 9E : ... .. . ... : ... .. . ... : ... .. . ... : ... .. . ... : ... .. . ...
ROW 9F : ... .. . ... : ... .. . ... : ... .. . ... : ... .. . ... : ... .. . ...
ROW A0 : ... .. . ... : ... .. . ... : ... .. . ... : ... .. . ... : ... .. . ...
ROW A1 : ... .. . ... : ... .. . ... : ... .. . ... : ... .. . ... : ... .. . ...
ROW A2 : G#4 08 . 400 : ... .. . ... : D#5 07 . ... : C-# 05 . ... : ... .. . ...
ROW A3 : ... .. . ... : ... .. . ... : ... .. . ... : ... .. . ... : ... .. . ...
ROW A4 : ... .. . ... : ... .. . ... : ... .. . ... : ... .. . ... : ... .. . ...
ROW A5 : ... .. . ... : ... .. . ... : ... .. . ... : ... .. . ... : ... .. . ...
ROW A6 : ... .. . ... : ... .. . ... : ... .. . ... : ... .. . ... : ... .. . ...
ROW A7 : ... .. . ... : ... .. . ... : ... .. . ... : ... .. . ... : ... .. . ...
ROW A8 : ... .. . ... : F-3 0A . ... : C-5 07 . ... : 0-# 04 . ... : D#3 00 . ...
ROW A9 : ... .. . ... : ... .. . ... : ... .. . ... : ... .. . ... : ... .. . ...
ROW AA : ... .. . ... : ... .. . ... : ... .. . ... : ... .. . ... : ... .. . ...
ROW AB : ... .. . ... : ... .. . ... : ... .. . ... : ... .. . ... : ... .. . ...
ROW AC : ... .. . ... : ... .. . ... : ... .. . ... : ... .. . ... : ... .. . ...
ROW AD : ... .. . ... : ... .. . ... : ... .. . ... : ... .. . ... : ... .. . ...
ROW AE : ... .. . 452 : ... .. . ... : C-5 07 . ... : E-# 03 . ... : ... .. . ...
ROW AF : ... .. . ... : ... .. . ... : ... .. . ... : ... .. . ... : ... .. . ...
ROW B0 : ... .. . ... : ... .. . ... : ... .. . ... : ... .. . ... : ... .. . ...
ROW B1 : ... .. . ... : ... .. . ... : ... .. . ... : ... .. . ... : ... .. . ...
ROW B2 : ... .. . ... : ... .. . ... : ... .. . ... : ... .. . ... : ... .. . ...
ROW B3 : ... .. . ... : ... .. . ... : ... .. . ... : ... .. . ... : ... .. . ...
ROW B4 : A#4 08 . 400 : ... .. . ... : A#4 07 . ... : E-# 03 . ... : D#4 00 . ...
ROW B5 : ... .. . ... : ... .. . ... : ... .. . ... : ... .. . ... : ... .. . ...
ROW B6 : ... .. . ... : ... .. . ... : ... .. . ... : ... .. . ... : ... .. . ...
ROW B7 : ... .. . ... : ... .. . ... : ... .. . ... : ... .. . ... : ... .. . ...
ROW B8 : ... .. . ... : ... .. . ... : ... .. . ... : ... .. . ... : ... .. . ...
ROW B9 : ... .. . ... : ... .. . ... : ... .. . ... : ... .. . ... : ... .. . ...
ROW BA : ... .. . ... : ... .. . ... : A#4 07 . ... : E-# 03 . ... : D#4 00 . ...
ROW BB : ... .. . ... : ... .. . ... : ... .. . ... : ... .. . ... : ... .. . ...
ROW BC : ... .. . ... : ... .. . ... : ... .. . ... : ... .. . ... : ... .. . ...
ROW BD : ... .. . ... : ... .. . ... : ... .. . ... : ... .. . ... : ... .. . ...
ROW BE : ... .. . ... : ... .. . ... : ... .. . ... : ... .. . ... : ... .. . ...
ROW BF : ... .. . ... : ... .. . ... : ... .. . ... : ... .. . ... : ... .. . ...
PATTERN 07
ROW 00 : G-4 08 A ... : G-3 0A . ... : C-4 07 . ... : 0-# 03 . ... : F-3 00 . ...
ROW 01 : ... .. . ... : ... .. . ... : ... .. . ... : ... .. . ... : ... .. . ...
ROW 02 : ... .. . ... : ... .. . ... : ... .. . ... : ... .. . ... : ... .. . ...
ROW 03 : ... .. . ... : ... .. . ... : --- .. . ... : ... .. . ... : ... .. . ...
ROW 04 : ... .. . ... : ... .. . ... : ... .. . ... : ... .. . ... : ... .. . ...
ROW 05 : ... .. . ... : ... .. . ... : ... .. . ... : ... .. . ... : ... .. . ...
ROW 06 : ... .. . ... : ... .. . ... : ... .. . ... : ... .. . ... : ... .. . ...
ROW 07 : ... .. . ... : ... .. . ... : ... .. . ... : ... .. . ... : ... .. . ...
ROW 08 : ... .. . ... : ... .. . ... : ... .. . ... : ... .. . ... : ... .. . ...
ROW 09 : ... .. . ... : ... .. . ... : ... .. . ... : ... .. . ... : ... .. . ...
ROW 0A : ... .. . ... : ... .. . ... : ... .. . ... : ... .. . ... : ... .. . ...
ROW 0B : ... .. . ... : ... .. . ... : ... .. . ... : ... .. . ... : ... .. . ...
ROW 0C : ... .. 9 452 : ... .. . ... : ... .. . ... : 0-# 03 . ... : F-4 00 . ...
ROW 0D : ... .. . ... : ... .. . ... : ... .. . ... : ... .. . ... : ... .. . ...
ROW 0E : ... .. . ... : ... .. . ... : ... .. . ... : ... .. . ... : ... .. . ...
ROW 0F : ... .. . ... : ... .. . ... : ... .. . ... : ... .. . ... : ... .. . ...
ROW 10 : ... .. . ... : ... .. . ... : ... .. . ... : ... .. . ... : ... .. . ...
ROW 11 : ... .. . ... : ... .. . ... : ... .. . ... : ... .. . ... : ... .. . ...
ROW 12 : ... .. . ... : ... .. . ... : ... .. . ... : ... .. . ... : ... .. . ...
ROW 13 : ... .. . ... : ... .. . ... : ... .. . ... : ... .. . ... : ... .. . ...
ROW 14 : ... .. . ... : ... .. . ... : ... .. . ... : ... .. . ... : ... .. . ...
ROW 15 : ... .. . ... : ... .. . ... : ... .. . ... : ... .. . ... : ... .. . ...
ROW 16 : ... .. . ... : ... .. . ... : ... .. . ... : ... .. . ... : ... .. . ...
ROW 17 : ... .. . ... : ... .. . ... : ... .. . ... : ... .. . ... : ... .. . ...
ROW 18 : ... .. 8 ... : ... .. . ... : ... .. . ... : 0-# 04 . ... : F-3 00 . ...
ROW 19 : ... .. . ... : ... .. . ... : ... .. . ... : ... .. . ... : ... .. . ...
ROW 1A : ... .. . ... : ... .. . ... : ... .. . ... : ... .. . ... : ... .. . ...
ROW 1B : ... .. . ... : ... .. . ... : ... .. . ... : ... .. . ... : ... .. . ...
ROW 1C : ... .. . ... : ... .. . ... : ... .. . ... : ... .. . ... : ... .. . ...
ROW 1D : ... .. . ... : ... .. . ... : ... .. . ... : ... .. . ... : ... .. . ...
ROW 1E : ... .. . ... : F-3 0A . ... : ... .. . ... : C-# 05 . ... : ... .. . ...
ROW 1F : ... .. . ... : ... .. . ... : ... .. . ... : ... .. . ... : ... .. . ...
ROW 20 : ... .. . ... : ... .. . ... : ... .. . ... : ... .. . ... : ... .. . ...
ROW 21 : ... .. . ... : ... .. . ... : ... .. . ... : ... .. . ... : ... .. . ...
ROW 22 : ... .. . ... : ... .. . ... : ... .. . ... : ... .. . ... : ... .. . ...
ROW 23 : ... .. . ... : ... .. . ... : ... .. . ... : ... .. . ... : ... .. . ...
ROW 24 : ... .. 7 ... : C-3 0A . ... : ... .. . ... : C-# 05 . ... : F-4 00 . ...
ROW 25 : ... .. . ... : ... .. . ... : ... .. . ... : ... .. . ... : ... .. . ...
ROW 26 : ... .. . ... : ... .. . ... : ... .. . ... : ... .. . ... : ... .. . ...
ROW 27 : ... .. . ... : ... .. . ... : ... .. . ... : ... .. . ... : ... .. . ...
ROW 28 : ... .. . ... : ... .. . ... : ... .. . ... : ... .. . ... : ... .. . ...
ROW 29 : ... .. . ... : ... .. . ... : ... .. . ... : ... .. . ... : ... .. . ...
ROW 2A : ... .. . ... : A-2 0A . ... : C-4 07 . ... : ... .. . ... : F-4 00 . ...
ROW 2B : ... .. . ... : ... .. . ... : ... .. . ... : ... .. . ... : ... .. . ...
ROW 2C : ... .. . ... : ... .. . ... : ... .. . ... : ... .. . ... : ... .. . ...
ROW 2D : ... .. . ... : ... .. . ... : --- .. . ... : ... .. . ... : ... .. . ...
ROW 2E : ... .. . ... : ... .. . ... : ... .. . ... : ... .. . ... : ... .. . ...
ROW 2F : ... .. . ... : ... .. . ... : ... .. . ... : ... .. . ... : ... .. . ...
ROW 30 : G-4 08 A 400 : G-2 0A . ... : ... .. . ... : 0-# 03 . ... : F-3 00 . ...
ROW 31 : ... .. . ... : ... .. . ... : ... .. . ... : ... .. . ... : ... .. . ...
ROW 32 : ... .. . ... : ... .. . ... : ... .. . ... : ... .. . ... : ... .. . ...
ROW 33 : ... .. . ... : ... .. . ... : ... .. . ... : ... .. . ... : ... .. . ...
ROW 34 : ... .. . ... : ... .. . ... : ... .. . ... : ... .. . ... : ... .. . ...
ROW 35 : ... .. . ... : ... .. . ... : ... .. . ... : ... .. . ... : ... .. . ...
ROW 36 : ... .. . ... : ... .. . ... : C-4 07 . ... : C-# 05 . ... : ... .. . ...
ROW 37 : ... .. . ... : ... .. . ... : ... .. . ... : ... .. . ... : ... .. . ...
ROW 38 : ... .. . ... : ... .. . ... : ... .. . ... : ... .. . ... : ... .. . ...
ROW 39 : ... .. . ... : ... .. . ... : --- .. . ... : ... .. . ... : ... .. . ...
ROW 3A : ... .. . ... : ... .. . ... : ... .. . ... : ... .. . ... : ... .. . ...
ROW 3B : ... .. . ... : ... .. . ... : ... .. . ... : ... .. . ... : ... .. . ...
ROW 3C : ... .. . 452 : ... .. . ... : C-4 07 . ... : ... .. . ... : F-4 00 . ...
ROW 3D : ... .. . ... : ... .. . ... : ... .. . ... : ... .. . ... : ... .. . ...
ROW 3E : ... .. . ... : ... .. . ... : ... .. . ... : ... .. . ... : ... .. . ...
ROW 3F : ... .. . ... : ... .. . ... : --- .. . ... : ... .. . ... : ... .. . ...
ROW 40 : ... .. . ... : ... .. . ... : ... .. . ... : ... .. . ... : ... .. . ...
ROW 41 : ... .. . ... : ... .. . ... : ... .. . ... : ... .. . ... : ... .. . ...
ROW 42 : G#4 08 . 400 : ... .. . ... : ... .. . ... : 0-# 03 . ... : ... .. . ...
ROW 43 : ... .. . ... : ... .. . ... : ... .. . ... : ... .. . ... : ... .. . ...
ROW 44 : ... .. . ... : ... .. . ... : ... .. . ... : ... .. . ... : ... .. . ...
ROW 45 : ... .. . ... : ... .. . ... : ... .. . ... : ... .. . ... : ... .. . ...
ROW 46 : ... .. . ... : ... .. . ... : ... .. . ... : ... .. . ... : ... .. . ...
ROW 47 : ... .. . ... : ... .. . ... : ... .. . ... : ... .. . ... : ... .. . ...
ROW 48 : ... .. . ... : F-2 0A . ... : G-4 07 . ... : 0-# 04 . ... : F-3 00 . ...
ROW 49 : ... .. . ... : ... .. . ... : ... .. . ... : ... .. . ... : ... .. . ...
ROW 4A : ... .. . ... : ... .. . ... : ... .. . ... : ... .. . ... : ... .. . ...
ROW 4B : ... .. . ... : ... .. . ... : ... .. . ... : ... .. . ... : ... .. . ...
ROW 4C : ... .. . ... : ... .. . ... : ... .. . ... : ... .. . ... : ... .. . ...
ROW 4D : ... .. . ... : ... .. . ... : ... .. . ... : ... .. . ... : ... .. . ...
ROW 4E : ... .. . 452 : ... .. . ... : --- .. . ... : ... .. . ... : ... .. . ...
ROW 4F : ... .. . ... : ... .. . ... : ... .. . ... : ... .. . ... : ... .. . ...
ROW 50 : ... .. . ... : ... .. . ... : ... .. . ... : ... .. . ... : ... .. . ...
ROW 51 : ... .. . ... : ... .. . ... : ... .. . ... : ... .. . ... : ... .. . ...
ROW 52 : ... .. . ... : ... .. . ... : ... .. . ... : ... .. . ... : ... .. . ...
ROW 53 : ... .. . ... : ... .. . ... : ... .. . ... : ... .. . ... : ... .. . ...
ROW 54 : A#4 08 . 400 : ... .. . ... : ... .. . ... : 0-# 03 . ... : F-4 00 . ...
ROW 55 : ... .. . ... : ... .. . ... : ... .. . ... : ... .. . ... : ... .. . ...
ROW 56 : ... .. . ... : ... .. . ... : ... .. . ... : ... .. . ... : ... .. . ...
ROW 57 : ... .. . ... : ... .. . ... : ... .. . ... : ... .. . ... : ... .. . ...
ROW 58 : ... .. . ... : ... .. . ... : ... .. . ... : ... .. . ... : ... .. . ...
ROW 59 : ... .. . ... : ... .. . ... : ... .. . ... : ... .. . ... : ... .. . ...
ROW 5A : ... .. . ... : ... .. . ... : ... .. . ... : C-# 05 . ... : F-4 00 . ...
ROW 5B : ... .. . ... : ... .. . ... : ... .. . ... : ... .. . ... : ... .. . ...
ROW 5C : ... .. . ... : ... .. . ... : ... .. . ... : ... .. . ... : ... .. . ...
ROW 5D : ... .. . ... : ... .. . ... : ... .. . ... : ... .. . ... : ... .. . ...
ROW 5E : ... .. . ... : ... .. . ... : ... .. . ... : ... .. . ... : ... .. . ...
ROW 5F : ... .. . ... : ... .. . ... : ... .. . ... : ... .. . ... : ... .. . ...
ROW 60 : G-4 08 . ... : C-3 08 9 ... : C-4 07 . ... : 0-# 03 . ... : G-3 00 . ...
ROW 61 : ... .. . ... : ... .. . ... : ... .. . ... : ... .. . ... : ... .. . ...
ROW 62 : ... .. . ... : ... .. . ... : ... .. . ... : ... .. . ... : ... .. . ...
ROW 63 : ... .. . ... : D-3 08 . ... : --- .. . ... : ... .. . ... : ... .. . ...
ROW 64 : ... .. . ... : ... .. . ... : ... .. . ... : ... .. . ... : ... .. . ...
ROW 65 : ... .. . ... : ... .. . ... : ... .. . ... : ... .. . ... : ... .. . ...
ROW 66 : ... .. . ... : ... .. . ... : ... .. . ... : 0-# 03 . ... : ... .. . ...
ROW 67 : ... .. . ... : ... .. . ... : ... .. . ... : ... .. . ... : ... .. . ...
ROW 68 : ... .. . ... : ... .. . ... : ... .. . ... : ... .. . ... : ... .. . ...
ROW 69 : ... .. . ... : --- .. . ... : ... .. . ... : ... .. . ... : ... .. . ...
ROW 6A : ... .. . ... : ... .. . ... : ... .. . ... : ... .. . ... : ... .. . ...
ROW 6B : ... .. . ... : ... .. . ... : ... .. . ... : ... .. . ... : ... .. . ...
ROW 6C : ... .. 9 452 : C-3 08 . ... : ... .. . ... : C-# 05 . ... : G-4 00 . ...
ROW 6D : ... .. . ... : --- .. . ... : ... .. . ... : ... .. . ... : ... .. . ...
ROW 6E : ... .. . ... : ... .. . ... : ... .. . ... : ... .. . ... : ... .. . ...
ROW 6F : ... .. . ... : ... .. . ... : ... .. . ... : ... .. . ... : ... .. . ...
ROW 70 : ... .. . ... : ... .. . ... : ... .. . ... : ... .. . ... : ... .. . ...
ROW 71 : ... .. . ... : ... .. . ... : ... .. . ... : ... .. . ... : ... .. . ...
ROW 72 : ... .. . ... : C-3 08 . ... : ... .. . ... : ... .. . ... : ... .. . ...
ROW 73 : ... .. . ... : --- .. . ... : ... .. . ... : ... .. . ... : ... .. . ...
ROW 74 : ... .. . ... : ... .. . ... : ... .. . ... : ... .. . ... : ... .. . ...
ROW 75 : ... .. . ... : ... .. . ... : ... .. . ... : ... .. . ... : ... .. . ...
ROW 76 : ... .. . ... : ... .. . ... : ... .. . ... : ... .. . ... : ... .. . ...
ROW 77 : ... .. . ... : ... .. . ... : ... .. . ... : ... .. . ... : ... .. . ...
ROW 78 : ... .. 8 ... : G-3 08 . ... : ... .. . ... : 0-# 04 . ... : G-3 00 . ...
ROW 79 : ... .. . ... : ... .. . ... : ... .. . ... : ... .. . ... : ... .. . ...
ROW 7A : ... .. . ... : ... .. . ... : ... .. . ... : ... .. . ... : ... .. . ...
ROW 7B : ... .. . ... : --- .. . ... : ... .. . ... : ... .. . ... : ... .. . ...
ROW 7C : ... .. . ... : ... .. . ... : ... .. . ... : ... .. . ... : ... .. . ...
ROW 7D : ... .. . ... : ... .. . ... : ... .. . ... : ... .. . ... : ... .. . ...
ROW 7E : ... .. . ... : C-3 08 . ... : ... .. . ... : C-# 05 . ... : ... .. . ...
ROW 7F : ... .. . ... : --- .. . ... : ... .. . ... : ... .. . ... : ... .. . ...
ROW 80 : ... .. . ... : ... .. . ... : ... .. . ... : ... .. . ... : ... .. . ...
ROW 81 : ... .. . ... : ... .. . ... : ... .. . ... : ... .. . ... : ... .. . ...
ROW 82 : ... .. . ... : ... .. . ... : ... .. . ... : ... .. . ... : ... .. . ...
ROW 83 : ... .. . ... : ... .. . ... : ... .. . ... : ... .. . ... : ... .. . ...
ROW 84 : ... .. 7 ... : C-3 08 . ... : C-4 07 . ... : C-# 05 . ... : G-4 00 . ...
ROW 85 : ... .. . ... : --- .. . ... : ... .. . ... : ... .. . ... : ... .. . ...
ROW 86 : ... .. . ... : ... .. . ... : ... .. . ... : ... .. . ... : ... .. . ...
ROW 87 : ... .. . ... : ... .. . ... : --- .. . ... : ... .. . ... : ... .. . ...
ROW 88 : ... .. . ... : ... .. . ... : ... .. . ... : ... .. . ... : ... .. . ...
ROW 89 : ... .. . ... : ... .. . ... : ... .. . ... : ... .. . ... : ... .. . ...
ROW 8A : ... .. . ... : C-3 08 . ... : C-4 07 . ... : 0-# 04 . ... : G-4 00 . ...
ROW 8B : ... .. . ... : ... .. . ... : ... .. . ... : ... .. . ... : ... .. . ...
ROW 8C : ... .. . ... : ... .. . ... : ... .. . ... : ... .. . ... : ... .. . ...
ROW 8D : ... .. . ... : D-3 08 . ... : --- .. . ... : ... .. . ... : ... .. . ...
ROW 8E : ... .. . ... : ... .. . ... : ... .. . ... : ... .. . ... : ... .. . ...
ROW 8F : ... .. . ... : ... .. . ... : ... .. . ... : ... .. . ... : ... .. . ...
ROW 90 : F-4 08 A 400 : ... .. . ... : ... .. . ... : C-# 05 . ... : G-3 00 . ...
ROW 91 : ... .. . ... : ... .. . ... : ... .. . ... : ... .. . ... : ... .. . ...
ROW 92 : ... .. . ... : ... .. . ... : ... .. . ... : ... .. . ... : ... .. . ...
ROW 93 : ... .. . ... : --- .. . ... : ... .. . ... : ... .. . ... : ... .. . ...
ROW 94 : ... .. . ... : ... .. . ... : ... .. . ... : ... .. . ... : ... .. . ...
ROW 95 : ... .. . ... : ... .. . ... : ... .. . ... : ... .. . ... : ... .. . ...
ROW 96 : ... .. . ... : G-2 08 . ... : C-4 07 . ... : ... .. . ... : G-4 00 . ...
ROW 97 : ... .. . ... : ... .. . ... : ... .. . ... : ... .. . ... : ... .. . ...
ROW 98 : ... .. . ... : ... .. . ... : ... .. . ... : ... .. . ... : ... .. . ...
ROW 99 : ... .. . ... : --- .. . ... : --- .. . ... : ... .. . ... : ... .. . ...
ROW 9A : ... .. . ... : ... .. . ... : ... .. . ... : ... .. . ... : ... .. . ...
ROW 9B : ... .. . ... : ... .. . ... : ... .. . ... : ... .. . ... : ... .. . ...
ROW 9C : ... .. . 452 : G-2 08 . ... : C-4 07 . ... : E-# 03 . ... : G-3 00 . ...
ROW 9D : ... .. . ... : --- .. . ... : ... .. . ... : ... .. . ... : ... .. . ...
ROW 9E : ... .. . ... : ... .. . ... : ... .. . ... : ... .. . ... : ... .. . ...
ROW 9F : ... .. . ... : ... .. . ... : --- .. . ... : ... .. . ... : ... .. . ...
ROW A0 : ... .. . ... : ... .. . ... : ... .. . ... : ... .. . ... : ... .. . ...
ROW A1 : ... .. . ... : ... .. . ... : ... .. . ... : ... .. . ... : ... .. . ...
ROW A2 : C-4 08 . 400 : G-2 08 . ... : ... .. . ... : E-# 03 . ... : D-4 00 . ...
ROW A3 : ... .. . ... : ... .. . ... : ... .. . ... : ... .. . ... : ... .. . ...
ROW A4 : ... .. . ... : ... .. . ... : ... .. . ... : ... .. . ... : ... .. . ...
ROW A5 : ... .. . ... : --- .. . ... : ... .. . ... : ... .. . ... : ... .. . ...
ROW A6 : ... .. . ... : ... .. . ... : ... .. . ... : ... .. . ... : ... .. . ...
ROW A7 : ... .. . ... : ... .. . ... : ... .. . ... : ... .. . ... : ... .. . ...
ROW A8 : ... .. . ... : G-2 08 . ... : G-4 07 . ... : E-# 03 . ... : F-4 00 . ...
ROW A9 : ... .. . ... : --- .. . ... : ... .. . ... : ... .. . ... : ... .. . ...
ROW AA : ... .. . ... : ... .. . ... : ... .. . ... : ... .. . ... : ... .. . ...
ROW AB : ... .. . ... : ... .. . ... : ... .. . ... : ... .. . ... : ... .. . ...
ROW AC : ... .. . ... : ... .. . ... : ... .. . ... : ... .. . ... : ... .. . ...
ROW AD : ... .. . ... : ... .. . ... : ... .. . ... : ... .. . ... : ... .. . ...
ROW AE : ... .. . 452 : G-2 08 . ... : C-4 07 . ... : E-# 03 . ... : G-4 00 . ...
ROW AF : ... .. . ... : --- .. . ... : ... .. . ... : ... .. . ... : ... .. . ...
ROW B0 : ... .. . ... : ... .. . ... : ... .. . ... : ... .. . ... : ... .. . ...
ROW B1 : ... .. . ... : ... .. . ... : --- .. . ... : ... .. . ... : ... .. . ...
ROW B2 : ... .. . ... : ... .. . ... : ... .. . ... : ... .. . ... : ... .. . ...
ROW B3 : ... .. . ... : ... .. . ... : ... .. . ... : ... .. . ... : ... .. . ...
ROW B4 : F-4 08 . 400 : G-2 08 . ... : ... .. . ... : E-# 03 . ... : A#3 00 . ...
ROW B5 : ... .. . ... : --- .. . ... : ... .. . ... : ... .. . ... : ... .. . ...
ROW B6 : ... .. . ... : ... .. . ... : ... .. . ... : ... .. . ... : ... .. . ...
ROW B7 : ... .. . ... : ... .. . ... : ... .. . ... : ... .. . ... : ... .. . ...
ROW B8 : ... .. . ... : ... .. . ... : ... .. . ... : ... .. . ... : ... .. . ...
ROW B9 : ... .. . ... : ... .. . ... : ... .. . ... : ... .. . ... : ... .. . ...
ROW BA : ... .. . ... : G-2 08 . ... : ... .. . ... : E-# 03 . ... : A#4 00 . ...
ROW BB : ... .. . ... : --- .. . ... : ... .. . ... : ... .. . ... : ... .. . ...
ROW BC : ... .. . ... : ... .. . ... : ... .. . ... : ... .. . ... : ... .. . ...
ROW BD : ... .. . ... : ... .. . ... : ... .. . ... : ... .. . ... : ... .. . ...
ROW BE : ... .. . ... : ... .. . ... : ... .. . ... : ... .. . ... : ... .. . ...
ROW BF : ... .. . ... : ... .. . ... : ... .. . ... : ... .. . ... : ... .. . ...
PATTERN 08
ROW 00 : G-4 08 A ... : --- .. . ... : C-4 07 . ... : B-# 06 . ... : G#3 00 . ...
ROW 01 : ... .. . ... : ... .. . ... : ... .. . ... : ... .. . ... : ... .. . ...
ROW 02 : ... .. . ... : ... .. . ... : ... .. . ... : ... .. . ... : ... .. . ...
ROW 03 : ... .. . ... : ... .. . ... : --- .. . ... : ... .. . ... : ... .. . ...
ROW 04 : ... .. . ... : ... .. . ... : ... .. . ... : ... .. . ... : ... .. . ...
ROW 05 : ... .. . ... : ... .. . ... : ... .. . ... : ... .. . ... : ... .. . ...
ROW 06 : ... .. . ... : ... .. . ... : ... .. . ... : ... .. . ... : ... .. . ...
ROW 07 : ... .. . ... : ... .. . ... : ... .. . ... : ... .. . ... : ... .. . ...
ROW 08 : ... .. . ... : ... .. . ... : ... .. . ... : ... .. . ... : ... .. . ...
ROW 09 : ... .. . ... : ... .. . ... : ... .. . ... : ... .. . ... : ... .. . ...
ROW 0A : ... .. . ... : ... .. . ... : ... .. . ... : ... .. . ... : ... .. . ...
ROW 0B : ... .. . ... : ... .. . ... : ... .. . ... : ... .. . ... : ... .. . ...
ROW 0C : ... .. 9 452 : F-2 01 1 030 : ... .. . ... : ... .. . ... : ... .. . ...
ROW 0D : ... .. . ... : ... .. . ... : ... .. . ... : ... .. . ... : ... .. . ...
ROW 0E : ... .. . ... : ... .. . ... : ... .. . ... : ... .. . ... : ... .. . ...
ROW 0F : ... .. . ... : ... .. . ... : ... .. . ... : ... .. . ... : ... .. . ...
ROW 10 : ... .. . ... : ... .. . ... : ... .. . ... : ... .. . ... : ... .. . ...
ROW 11 : ... .. . ... : ... .. . ... : ... .. . ... : ... .. . ... : ... .. . ...
ROW 12 : ... .. . ... : ... .. . ... : ... .. . ... : ... .. . ... : ... .. . ...
ROW 13 : ... .. . ... : ... .. . ... : ... .. . ... : ... .. . ... : ... .. . ...
ROW 14 : ... .. . ... : ... .. . ... : ... .. . ... : ... .. . ... : ... .. . ...
ROW 15 : ... .. . ... : ... .. . ... : ... .. . ... : ... .. . ... : ... .. . ...
ROW 16 : ... .. . ... : ... .. . ... : ... .. . ... : ... .. . ... : ... .. . ...
ROW 17 : ... .. . ... : ... .. . ... : ... .. . ... : ... .. . ... : ... .. . ...
ROW 18 : ... .. 8 ... : ... .. . ... : ... .. . ... : 0-# 04 F ... : F-5 00 . ...
ROW 19 : ... .. . ... : ... .. . ... : ... .. . ... : ... .. . ... : ... .. . ...
ROW 1A : ... .. . ... : ... .. . ... : ... .. . ... : ... .. . ... : ... .. . ...
ROW 1B : ... .. . ... : ... .. . ... : ... .. . ... : ... .. . ... : ... .. . ...
ROW 1C : ... .. . ... : ... .. . ... : ... .. . ... : ... .. . ... : ... .. . ...
ROW 1D : ... .. . ... : ... .. . ... : ... .. . ... : ... .. . ... : ... .. . ...
ROW 1E : ... .. . ... : G-2 01 2 080 : ... .. . ... : ... .. . ... : ... .. . ...
ROW 1F : ... .. . ... : ... .. . ... : ... .. . ... : ... .. . ... : ... .. . ...
ROW 20 : ... .. . ... : ... .. . ... : ... .. . ... : ... .. . ... : ... .. . ...
ROW 21 : ... .. . ... : ... .. . ... : ... .. . ... : ... .. . ... : ... .. . ...
ROW 22 : ... .. . ... : ... .. . ... : ... .. . ... : ... .. . ... : ... .. . ...
ROW 23 : ... .. . ... : ... .. . ... : ... .. . ... : ... .. . ... : ... .. . ...
ROW 24 : ... .. 7 ... : ... .. . ... : ... .. . ... : C-# 05 . ... : G#3 00 . ...
ROW 25 : ... .. . ... : ... .. . ... : ... .. . ... : ... .. . ... : ... .. . ...
ROW 26 : ... .. . ... : ... .. . ... : ... .. . ... : ... .. . ... : ... .. . ...
ROW 27 : ... .. . ... : ... .. . ... : ... .. . ... : ... .. . ... : ... .. . ...
ROW 28 : ... .. . ... : ... .. . ... : ... .. . ... : ... .. . ... : ... .. . ...
ROW 29 : ... .. . ... : ... .. . ... : ... .. . ... : ... .. . ... : ... .. . ...
ROW 2A : ... .. . ... : ... .. . ... : C-4 07 . ... : 0-# 03 . ... : G#3 00 . ...
ROW 2B : ... .. . ... : ... .. . ... : ... .. . ... : ... .. . ... : ... .. . ...
ROW 2C : ... .. . ... : ... .. . ... : ... .. . ... : ... .. . ... : ... .. . ...
ROW 2D : ... .. . ... : ... .. . ... : --- .. . ... : ... .. . ... : ... .. . ...
ROW 2E : ... .. . ... : ... .. . ... : ... .. . ... : ... .. . ... : ... .. . ...
ROW 2F : ... .. . ... : ... .. . ... : ... .. . ... : ... .. . ... : ... .. . ...
ROW 30 : ... .. 6 ... : G-3 01 3 ... : ... .. . ... : C-# 05 . ... : ... .. . ...
ROW 31 : ... .. . ... : ... .. . ... : ... .. . ... : ... .. . ... : ... .. . ...
ROW 32 : ... .. . ... : ... .. . ... : ... .. . ... : ... .. . ... : ... .. . ...
ROW 33 : ... .. . ... : ... .. . ... : ... .. . ... : ... .. . ... : ... .. . ...
ROW 34 : ... .. . ... : ... .. . ... : ... .. . ... : ... .. . ... : ... .. . ...
ROW 35 : ... .. . ... : ... .. . ... : ... .. . ... : ... .. . ... : ... .. . ...
ROW 36 : ... .. . ... : ... .. . ... : C-4 07 . ... : 0-# 03 . ... : G#3 00 . ...
ROW 37 : ... .. . ... : ... .. . ... : ... .. . ... : ... .. . ... : ... .. . ...
ROW 38 : ... .. . ... : ... .. . ... : ... .. . ... : ... .. . ... : ... .. . ...
ROW 39 : ... .. . ... : ... .. . ... : --- .. . ... : ... .. . ... : ... .. . ...
ROW 3A : ... .. . ... : ... .. . ... : ... .. . ... : ... .. . ... : ... .. . ...
ROW 3B : ... .. . ... : ... .. . ... : ... .. . ... : ... .. . ... : ... .. . ...
ROW 3C : ... .. . ... : ... .. . ... : C-4 07 . ... : 0-# 03 . ... : G#3 00 . ...
ROW 3D : ... .. . ... : ... .. . ... : ... .. . ... : ... .. . ... : ... .. . ...
ROW 3E : ... .. . ... : ... .. . ... : ... .. . ... : ... .. . ... : ... .. . ...
ROW 3F : ... .. . ... : ... .. . ... : --- .. . ... : ... .. . ... : ... .. . ...
ROW 40 : ... .. . ... : ... .. . ... : ... .. . ... : ... .. . ... : ... .. . ...
ROW 41 : ... .. . ... : ... .. . ... : ... .. . ... : ... .. . ... : ... .. . ...
ROW 42 : ... .. . ... : D#4 01 4 040 : ... .. . ... : C-# 05 . ... : ... .. . ...
ROW 43 : ... .. . ... : ... .. . ... : ... .. . ... : ... .. . ... : ... .. . ...
ROW 44 : ... .. . ... : ... .. . ... : ... .. . ... : ... .. . ... : ... .. . ...
ROW 45 : ... .. . ... : ... .. . ... : ... .. . ... : ... .. . ... : ... .. . ...
ROW 46 : ... .. . ... : ... .. . ... : ... .. . ... : ... .. . ... : ... .. . ...
ROW 47 : ... .. . ... : ... .. . ... : ... .. . ... : ... .. . ... : ... .. . ...
ROW 48 : ... .. 5 ... : ... .. . ... : G-4 07 . ... : 0-# 04 . ... : ... .. . ...
ROW 49 : ... .. . ... : ... .. . ... : ... .. . ... : ... .. . ... : ... .. . ...
ROW 4A : ... .. . ... : ... .. . ... : ... .. . ... : ... .. . ... : ... .. . ...
ROW 4B : ... .. . ... : ... .. . ... : ... .. . ... : ... .. . ... : ... .. . ...
ROW 4C : ... .. . ... : ... .. . ... : ... .. . ... : ... .. . ... : ... .. . ...
ROW 4D : ... .. . ... : ... .. . ... : ... .. . ... : ... .. . ... : ... .. . ...
ROW 4E : ... .. . ... : ... .. . ... : C-4 07 . ... : ... .. . ... : ... .. . ...
ROW 4F : ... .. . ... : ... .. . ... : ... .. . ... : ... .. . ... : ... .. . ...
ROW 50 : ... .. . ... : ... .. . ... : ... .. . ... : ... .. . ... : ... .. . ...
ROW 51 : ... .. . ... : ... .. . ... : --- .. . ... : ... .. . ... : ... .. . ...
ROW 52 : ... .. . ... : ... .. . ... : ... .. . ... : ... .. . ... : ... .. . ...
ROW 53 : ... .. . ... : ... .. . ... : ... .. . ... : ... .. . ... : ... .. . ...
ROW 54 : ... .. . ... : G-4 01 5 070 : ... .. . ... : C-# 05 . ... : G#3 00 . ...
ROW 55 : ... .. . ... : ... .. . ... : ... .. . ... : ... .. . ... : ... .. . ...
ROW 56 : ... .. . ... : ... .. . ... : ... .. . ... : ... .. . ... : ... .. . ...
ROW 57 : ... .. . ... : ... .. . ... : ... .. . ... : ... .. . ... : ... .. . ...
ROW 58 : ... .. . ... : ... .. . ... : ... .. . ... : ... .. . ... : ... .. . ...
ROW 59 : ... .. . ... : ... .. . ... : ... .. . ... : ... .. . ... : ... .. . ...
ROW 5A : ... .. . ... : ... .. . ... : ... .. . ... : C-# 05 . ... : ... .. . ...
ROW 5B : ... .. . ... : ... .. . ... : ... .. . ... : ... .. . ... : ... .. . ...
ROW 5C : ... .. . ... : ... .. . ... : ... .. . ... : ... .. . ... : ... .. . ...
ROW 5D : ... .. . ... : ... .. . ... : ... .. . ... : ... .. . ... : ... .. . ...
ROW 5E : ... .. . ... : ... .. . ... : ... .. . ... : ... .. . ... : ... .. . ...
ROW 5F : ... .. . ... : ... .. . ... : ... .. . ... : ... .. . ... : ... .. . ...
ROW 60 : ... .. 4 ... : G#4 01 6 ... : C-4 07 . ... : 0-# 03 . ... : G#3 00 . ...
ROW 61 : ... .. . ... : ... .. . ... : ... .. . ... : ... .. . ... : ... .. . ...
ROW 62 : ... .. . ... : ... .. . ... : ... .. . ... : ... .. . ... : ... .. . ...
ROW 63 : ... .. . ... : ... .. . ... : --- .. . ... : ... .. . ... : ... .. . ...
ROW 64 : ... .. . ... : ... .. . ... : ... .. . ... : ... .. . ... : ... .. . ...
ROW 65 : ... .. . ... : ... .. . ... : ... .. . ... : ... .. . ... : ... .. . ...
ROW 66 : ... .. . ... : ... .. . ... : ... .. . ... : ... .. . ... : ... .. . ...
ROW 67 : ... .. . ... : ... .. . ... : ... .. . ... : ... .. . ... : ... .. . ...
ROW 68 : ... .. . ... : ... .. . ... : ... .. . ... : ... .. . ... : ... .. . ...
ROW 69 : ... .. . ... : ... .. . ... : ... .. . ... : ... .. . ... : ... .. . ...
ROW 6A : ... .. . ... : ... .. . ... : ... .. . ... : ... .. . ... : ... .. . ...
ROW 6B : ... .. . ... : ... .. . ... : ... .. . ... : ... .. . ... : ... .. . ...
ROW 6C : ... .. . ... : ... .. 5 ... : ... .. . ... : C-# 05 . ... : ... .. . ...
ROW 6D : ... .. . ... : ... .. . ... : ... .. . ... : ... .. . ... : ... .. . ...
ROW 6E : ... .. . ... : ... .. . ... : ... .. . ... : ... .. . ... : ... .. . ...
ROW 6F : ... .. . ... : ... .. . ... : ... .. . ... : ... .. . ... : ... .. . ...
ROW 70 : ... .. . ... : ... .. . ... : ... .. . ... : ... .. . ... : ... .. . ...
ROW 71 : ... .. . ... : ... .. . ... : ... .. . ... : ... .. . ... : ... .. . ...
ROW 72 : ... .. . ... : ... .. . ... : ... .. . ... : C-# 05 . ... : ... .. . ...
ROW 73 : ... .. . ... : ... .. . ... : ... .. . ... : ... .. . ... : ... .. . ...
ROW 74 : ... .. . ... : ... .. . ... : ... .. . ... : ... .. . ... : ... .. . ...
ROW 75 : ... .. . ... : ... .. . ... : ... .. . ... : ... .. . ... : ... .. . ...
ROW 76 : ... .. . ... : ... .. . ... : ... .. . ... : ... .. . ... : ... .. . ...
ROW 77 : ... .. . ... : ... .. . ... : ... .. . ... : ... .. . ... : ... .. . ...
ROW 78 : ... .. 3 ... : G-4 01 4 050 : ... .. . ... : 0-# 04 . ... : F-5 00 . ...
ROW 79 : ... .. . ... : ... .. . ... : ... .. . ... : ... .. . ... : ... .. . ...
ROW 7A : ... .. . ... : ... .. . ... : ... .. . ... : ... .. . ... : ... .. . ...
ROW 7B : ... .. . ... : ... .. . ... : ... .. . ... : ... .. . ... : ... .. . ...
ROW 7C : ... .. . ... : ... .. . ... : ... .. . ... : ... .. . ... : ... .. . ...
ROW 7D : ... .. . ... : ... .. . ... : ... .. . ... : ... .. . ... : ... .. . ...
ROW 7E : ... .. . ... : ... .. . ... : ... .. . ... : ... .. . ... : ... .. . ...
ROW 7F : ... .. . ... : ... .. . ... : ... .. . ... : ... .. . ... : ... .. . ...
ROW 80 : ... .. . ... : ... .. . ... : ... .. . ... : ... .. . ... : ... .. . ...
ROW 81 : ... .. . ... : ... .. . ... : ... .. . ... : ... .. . ... : ... .. . ...
ROW 82 : ... .. . ... : ... .. . ... : ... .. . ... : ... .. . ... : ... .. . ...
ROW 83 : ... .. . ... : ... .. . ... : ... .. . ... : ... .. . ... : ... .. . ...
ROW 84 : ... .. . ... : ... .. 3 ... : ... .. . ... : 0-# 03 . ... : G#3 00 . ...
ROW 85 : ... .. . ... : ... .. . ... : ... .. . ... : ... .. . ... : ... .. . ...
ROW 86 : ... .. . ... : ... .. . ... : ... .. . ... : ... .. . ... : ... .. . ...
ROW 87 : ... .. . ... : ... .. . ... : ... .. . ... : ... .. . ... : ... .. . ...
ROW 88 : ... .. . ... : ... .. . ... : ... .. . ... : ... .. . ... : ... .. . ...
ROW 89 : ... .. . ... : ... .. . ... : ... .. . ... : ... .. . ... : ... .. . ...
ROW 8A : ... .. . ... : ... .. . ... : C-4 07 . ... : 0-# 03 . ... : G#3 00 . ...
ROW 8B : ... .. . ... : ... .. . ... : ... .. . ... : ... .. . ... : ... .. . ...
ROW 8C : ... .. . ... : ... .. . ... : ... .. . ... : ... .. . ... : ... .. . ...
ROW 8D : ... .. . ... : ... .. . ... : --- .. . ... : ... .. . ... : ... .. . ...
ROW 8E : ... .. . ... : ... .. . ... : ... .. . ... : ... .. . ... : ... .. . ...
ROW 8F : ... .. . ... : ... .. . V01 : ... .. . ... : ... .. . ... : ... .. . ...
ROW 90 : ... .. 2 ... : D#4 0A F 000 : ... .. . ... : C-# 05 . ... : ... .. . ...
ROW 91 : ... .. . ... : ... .. . ... : ... .. . ... : ... .. . ... : ... .. . ...
ROW 92 : ... .. . ... : ... .. . ... : ... .. . ... : ... .. . ... : ... .. . ...
ROW 93 : ... .. . ... : ... .. . ... : ... .. . ... : ... .. . ... : ... .. . ...
ROW 94 : ... .. . ... : ... .. . ... : ... .. . ... : ... .. . ... : ... .. . ...
ROW 95 : ... .. . ... : ... .. . ... : ... .. . ... : ... .. . ... : ... .. . ...
ROW 96 : ... .. . ... : C-4 0A . ... : C-4 07 . ... : 0-# 03 . ... : G#3 00 . ...
ROW 97 : ... .. . ... : ... .. . ... : ... .. . ... : ... .. . ... : ... .. . ...
ROW 98 : ... .. . ... : ... .. . ... : ... .. . ... : ... .. . ... : ... .. . ...
ROW 99 : ... .. . ... : ... .. . ... : --- .. . ... : ... .. . ... : ... .. . ...
ROW 9A : ... .. . ... : ... .. . ... : ... .. . ... : ... .. . ... : ... .. . ...
ROW 9B : ... .. . ... : ... .. . ... : ... .. . ... : ... .. . ... : ... .. . ...
ROW 9C : ... .. . ... : D-4 0A . ... : C-4 07 . ... : 0-# 03 . ... : G#3 00 . ...
ROW 9D : ... .. . ... : ... .. . ... : ... .. . ... : ... .. . ... : ... .. . ...
ROW 9E : ... .. . ... : ... .. . ... : ... .. . ... : ... .. . ... : ... .. . ...
ROW 9F : ... .. . ... : ... .. . ... : --- .. . ... : ... .. . ... : ... .. . ...
ROW A0 : ... .. . ... : ... .. . ... : ... .. . ... : ... .. . ... : ... .. . ...
ROW A1 : ... .. . ... : ... .. . ... : ... .. . ... : ... .. . ... : ... .. . ...
ROW A2 : ... .. . ... : D#4 0A . ... : ... .. . ... : C-# 05 . ... : ... .. . ...
ROW A3 : ... .. . ... : ... .. . ... : ... .. . ... : ... .. . ... : ... .. . ...
ROW A4 : ... .. . ... : ... .. . ... : ... .. . ... : ... .. . ... : ... .. . ...
ROW A5 : ... .. . ... : ... .. . ... : ... .. . ... : ... .. . ... : ... .. . ...
ROW A6 : ... .. . ... : ... .. . ... : ... .. . ... : ... .. . ... : ... .. . ...
ROW A7 : ... .. . ... : ... .. . ... : ... .. . ... : ... .. . ... : ... .. . ...
ROW A8 : ... .. 1 ... : F-4 0A . ... : G-4 07 . ... : 0-# 04 . ... : ... .. . ...
ROW A9 : ... .. . ... : ... .. . ... : ... .. . ... : ... .. . ... : ... .. . ...
ROW AA : ... .. . ... : ... .. . ... : ... .. . ... : ... .. . ... : ... .. . ...
ROW AB : ... .. . ... : ... .. . ... : ... .. . ... : ... .. . ... : ... .. . ...
ROW AC : ... .. . ... : ... .. . ... : ... .. . ... : ... .. . ... : ... .. . ...
ROW AD : ... .. . ... : ... .. . ... : ... .. . ... : ... .. . ... : ... .. . ...
ROW AE : ... .. . ... : G-4 0A . ... : C-4 07 . ... : 0-# 03 . ... : ... .. . ...
ROW AF : ... .. . ... : ... .. . ... : ... .. . ... : ... .. . ... : ... .. . ...
ROW B0 : ... .. . ... : ... .. . ... : ... .. . ... : ... .. . ... : ... .. . ...
ROW B1 : ... .. . ... : ... .. . ... : --- .. . ... : ... .. . ... : ... .. . ...
ROW B2 : ... .. . ... : ... .. . ... : ... .. . ... : ... .. . ... : ... .. . ...
ROW B3 : ... .. . ... : ... .. . ... : ... .. . ... : ... .. . ... : ... .. . ...
ROW B4 : ... .. . ... : G#4 0A . ... : ... .. . ... : C-# 05 . ... : G#3 00 . ...
ROW B5 : ... .. . ... : ... .. . ... : ... .. . ... : ... .. . ... : ... .. . ...
ROW B6 : ... .. . ... : ... .. . ... : ... .. . ... : ... .. . ... : ... .. . ...
ROW B7 : ... .. . ... : ... .. . ... : ... .. . ... : ... .. . ... : ... .. . ...
ROW B8 : ... .. . ... : ... .. . ... : ... .. . ... : ... .. . ... : ... .. . ...
ROW B9 : ... .. . ... : ... .. . ... : ... .. . ... : ... .. . ... : ... .. . ...
ROW BA : ... .. . ... : C-5 0A . ... : ... .. . ... : C-# 05 . ... : ... .. . ...
ROW BB : ... .. . ... : ... .. . ... : ... .. . ... : ... .. . ... : ... .. . ...
ROW BC : ... .. . ... : ... .. . ... : ... .. . ... : ... .. . ... : ... .. . ...
ROW BD : ... .. . ... : ... .. . ... : ... .. . ... : ... .. . ... : ... .. . ...
ROW BE : ... .. . ... : ... .. . ... : ... .. . ... : ... .. . ... : ... .. . ...
ROW BF : ... .. . ... : ... .. . ... : ... .. . ... : ... .. . ... : ... .. . ...
PATTERN 09
ROW 00 : C-4 08 A 400 : D-5 0A . ... : C-4 07 . ... : 0-# 03 . ... : G-3 00 . ...
ROW 01 : ... .. . ... : ... .. . ... : ... .. . ... : ... .. . ... : ... .. . ...
ROW 02 : ... .. . ... : ... .. . ... : ... .. . ... : ... .. . ... : ... .. . ...
ROW 03 : ... .. . ... : ... .. . ... : --- .. . ... : ... .. . ... : ... .. . ...
ROW 04 : ... .. . ... : ... .. . ... : ... .. . ... : ... .. . ... : ... .. . ...
ROW 05 : ... .. . ... : ... .. . ... : ... .. . ... : ... .. . ... : ... .. . ...
ROW 06 : ... .. . ... : ... .. . ... : ... .. . ... : ... .. . ... : ... .. . ...
ROW 07 : ... .. . ... : ... .. . ... : ... .. . ... : ... .. . ... : ... .. . ...
ROW 08 : ... .. . ... : ... .. . ... : ... .. . ... : ... .. . ... : ... .. . ...
ROW 09 : ... .. . ... : ... .. . ... : ... .. . ... : ... .. . ... : ... .. . ...
ROW 0A : ... .. . ... : ... .. . ... : ... .. . ... : ... .. . ... : ... .. . ...
ROW 0B : ... .. . ... : ... .. . ... : ... .. . ... : ... .. . ... : ... .. . ...
ROW 0C : ... .. . 452 : ... .. . 452 : ... .. . ... : C-# 05 . ... : ... .. . ...
ROW 0D : ... .. . ... : ... .. . ... : ... .. . ... : ... .. . ... : ... .. . ...
ROW 0E : ... .. . ... : ... .. . ... : ... .. . ... : ... .. . ... : ... .. . ...
ROW 0F : ... .. . ... : ... .. . ... : ... .. . ... : ... .. . ... : ... .. . ...
ROW 10 : ... .. . ... : ... .. . ... : ... .. . ... : ... .. . ... : ... .. . ...
ROW 11 : ... .. . ... : ... .. . ... : ... .. . ... : ... .. . ... : ... .. . ...
ROW 12 : ... .. . ... : ... .. . ... : ... .. . ... : C-# 05 . ... : ... .. . ...
ROW 13 : ... .. . ... : ... .. . ... : ... .. . ... : ... .. . ... : ... .. . ...
ROW 14 : ... .. . ... : ... .. . ... : ... .. . ... : ... .. . ... : ... .. . ...
ROW 15 : ... .. . ... : ... .. . ... : ... .. . ... : ... .. . ... : ... .. . ...
ROW 16 : ... .. . ... : ... .. . ... : ... .. . ... : ... .. . ... : ... .. . ...
ROW 17 : ... .. . ... : ... .. . ... : ... .. . ... : ... .. . ... : ... .. . ...
ROW 18 : ... .. 9 ... : ... .. . ... : G-4 07 . ... : 0-# 04 F ... : F-5 00 . ...
ROW 19 : ... .. . ... : ... .. . ... : ... .. . ... : ... .. . ... : ... .. . ...
ROW 1A : ... .. . ... : ... .. . ... : ... .. . ... : ... .. . ... : ... .. . ...
ROW 1B : ... .. . ... : ... .. . ... : ... .. . ... : ... .. . ... : ... .. . ...
ROW 1C : ... .. . ... : ... .. . ... : ... .. . ... : ... .. . ... : ... .. . ...
ROW 1D : ... .. . ... : ... .. . ... : ... .. . ... : ... .. . ... : ... .. . ...
ROW 1E : ... .. . ... : ... .. . ... : --- .. . ... : ... .. . ... : ... .. . ...
ROW 1F : ... .. . ... : ... .. . ... : ... .. . ... : ... .. . ... : ... .. . ...
ROW 20 : ... .. . ... : ... .. . ... : ... .. . ... : ... .. . ... : ... .. . ...
ROW 21 : ... .. . ... : ... .. . ... : ... .. . ... : ... .. . ... : ... .. . ...
ROW 22 : ... .. . ... : ... .. . ... : ... .. . ... : ... .. . ... : ... .. . ...
ROW 23 : ... .. . ... : ... .. . ... : ... .. . ... : ... .. . ... : ... .. . ...
ROW 24 : ... .. . ... : A#4 0A . 400 : ... .. . ... : C-# 05 . ... : G-3 00 . ...
ROW 25 : ... .. . ... : ... .. . ... : ... .. . ... : ... .. . ... : ... .. . ...
ROW 26 : ... .. . ... : ... .. . ... : ... .. . ... : ... .. . ... : ... .. . ...
ROW 27 : ... .. . ... : ... .. . ... : ... .. . ... : ... .. . ... : ... .. . ...
ROW 28 : ... .. . ... : ... .. . ... : ... .. . ... : ... .. . ... : ... .. . ...
ROW 29 : ... .. . ... : ... .. . ... : ... .. . ... : ... .. . ... : ... .. . ...
ROW 2A : ... .. . ... : F-4 0A . ... : C-4 07 . ... : 0-# 03 . ... : G-3 00 . ...
ROW 2B : ... .. . ... : ... .. . ... : ... .. . ... : ... .. . ... : ... .. . ...
ROW 2C : ... .. . ... : ... .. . ... : ... .. . ... : ... .. . ... : ... .. . ...
ROW 2D : ... .. . ... : ... .. . ... : --- .. . ... : ... .. . ... : ... .. . ...
ROW 2E : ... .. . ... : ... .. . ... : ... .. . ... : ... .. . ... : ... .. . ...
ROW 2F : ... .. . ... : ... .. . ... : ... .. . ... : ... .. . ... : ... .. . ...
ROW 30 : ... .. 8 ... : G-4 0A . ... : ... .. . ... : C-# 05 . ... : ... .. . ...
ROW 31 : ... .. . ... : ... .. . ... : ... .. . ... : ... .. . ... : ... .. . ...
ROW 32 : ... .. . ... : ... .. . ... : ... .. . ... : ... .. . ... : ... .. . ...
ROW 33 : ... .. . ... : ... .. . ... : ... .. . ... : ... .. . ... : ... .. . ...
ROW 34 : ... .. . ... : ... .. . ... : ... .. . ... : ... .. . ... : ... .. . ...
ROW 35 : ... .. . ... : ... .. . ... : ... .. . ... : ... .. . ... : ... .. . ...
ROW 36 : ... .. . ... : ... .. . ... : C-4 07 . ... : 0-# 03 . ... : G-3 00 . ...
ROW 37 : ... .. . ... : ... .. . ... : ... .. . ... : ... .. . ... : ... .. . ...
ROW 38 : ... .. . ... : ... .. . ... : ... .. . ... : ... .. . ... : ... .. . ...
ROW 39 : ... .. . ... : ... .. . ... : --- .. . ... : ... .. . ... : ... .. . ...
ROW 3A : ... .. . ... : ... .. . ... : ... .. . ... : ... .. . ... : ... .. . ...
ROW 3B : ... .. . ... : ... .. . ... : ... .. . ... : ... .. . ... : ... .. . ...
ROW 3C : ... .. . ... : ... .. . 452 : C-4 07 . ... : 0-# 03 . ... : G-3 00 . ...
ROW 3D : ... .. . ... : ... .. . ... : ... .. . ... : ... .. . ... : ... .. . ...
ROW 3E : ... .. . ... : ... .. . ... : ... .. . ... : ... .. . ... : ... .. . ...
ROW 3F : ... .. . ... : ... .. . ... : --- .. . ... : ... .. . ... : ... .. . ...
ROW 40 : ... .. . ... : ... .. . ... : ... .. . ... : ... .. . ... : ... .. . ...
ROW 41 : ... .. . ... : ... .. . ... : ... .. . ... : ... .. . ... : ... .. . ...
ROW 42 : D-4 08 A 400 : ... .. . ... : ... .. . ... : C-# 05 . ... : ... .. . ...
ROW 43 : ... .. . ... : ... .. . ... : ... .. . ... : ... .. . ... : ... .. . ...
ROW 44 : ... .. . ... : ... .. . ... : ... .. . ... : ... .. . ... : ... .. . ...
ROW 45 : ... .. . ... : ... .. . ... : ... .. . ... : ... .. . ... : ... .. . ...
ROW 46 : ... .. . ... : ... .. . ... : ... .. . ... : ... .. . ... : ... .. . ...
ROW 47 : ... .. . ... : ... .. . ... : ... .. . ... : ... .. . ... : ... .. . ...
ROW 48 : ... .. . ... : ... .. . ... : G-4 07 . ... : 0-# 04 . ... : ... .. . ...
ROW 49 : ... .. . ... : ... .. . ... : ... .. . ... : ... .. . ... : ... .. . ...
ROW 4A : ... .. . ... : ... .. . ... : ... .. . ... : ... .. . ... : ... .. . ...
ROW 4B : ... .. . ... : ... .. . ... : ... .. . ... : ... .. . ... : ... .. . ...
ROW 4C : ... .. . ... : ... .. . ... : ... .. . ... : ... .. . ... : ... .. . ...
ROW 4D : ... .. . ... : ... .. . ... : ... .. . ... : ... .. . ... : ... .. . ...
ROW 4E : ... .. . 452 : ... .. . ... : C-4 07 . ... : ... .. . ... : ... .. . ...
ROW 4F : ... .. . ... : ... .. . ... : ... .. . ... : ... .. . ... : ... .. . ...
ROW 50 : ... .. . ... : ... .. . ... : ... .. . ... : ... .. . ... : ... .. . ...
ROW 51 : ... .. . ... : ... .. . ... : --- .. . ... : ... .. . ... : ... .. . ...
ROW 52 : ... .. . ... : ... .. . ... : ... .. . ... : ... .. . ... : ... .. . ...
ROW 53 : ... .. . ... : ... .. . ... : ... .. . ... : ... .. . ... : ... .. . ...
ROW 54 : D#4 08 . 400 : ... .. . ... : ... .. . ... : C-# 05 . ... : G-3 00 . ...
ROW 55 : ... .. . ... : ... .. . ... : ... .. . ... : ... .. . ... : ... .. . ...
ROW 56 : ... .. . ... : ... .. . ... : ... .. . ... : ... .. . ... : ... .. . ...
ROW 57 : ... .. . ... : ... .. . ... : ... .. . ... : ... .. . ... : ... .. . ...
ROW 58 : ... .. . ... : ... .. . ... : ... .. . ... : ... .. . ... : ... .. . ...
ROW 59 : ... .. . ... : ... .. . ... : ... .. . ... : ... .. . ... : ... .. . ...
ROW 5A : ... .. . ... : ... .. . ... : ... .. . ... : C-# 05 . ... : ... .. . ...
ROW 5B : ... .. . ... : ... .. . ... : ... .. . ... : ... .. . ... : ... .. . ...
ROW 5C : ... .. . ... : ... .. . ... : ... .. . ... : ... .. . ... : ... .. . ...
ROW 5D : ... .. . ... : ... .. . ... : ... .. . ... : ... .. . ... : ... .. . ...
ROW 5E : ... .. . ... : ... .. . ... : ... .. . ... : ... .. . ... : ... .. . ...
ROW 5F : ... .. . ... : ... .. . 400 : ... .. . ... : ... .. . ... : ... .. . ...
ROW 60 : D-4 08 . ... : A#2 08 9 ... : C-4 07 . ... : 0-# 03 . ... : C-4 00 . ...
ROW 61 : ... .. . ... : ... .. . ... : ... .. . ... : ... .. . ... : ... .. . ...
ROW 62 : ... .. . ... : ... .. . ... : ... .. . ... : ... .. . ... : ... .. . ...
ROW 63 : ... .. . ... : C-3 08 . ... : --- .. . ... : ... .. . ... : ... .. . ...
ROW 64 : ... .. . ... : ... .. . ... : ... .. . ... : ... .. . ... : ... .. . ...
ROW 65 : ... .. . ... : ... .. . ... : ... .. . ... : ... .. . ... : ... .. . ...
ROW 66 : ... .. . ... : ... .. . ... : ... .. . ... : ... .. . ... : ... .. . ...
ROW 67 : ... .. . ... : ... .. . ... : ... .. . ... : ... .. . ... : ... .. . ...
ROW 68 : ... .. . ... : ... .. . ... : ... .. . ... : ... .. . ... : ... .. . ...
ROW 69 : ... .. . ... : --- .. . ... : ... .. . ... : ... .. . ... : ... .. . ...
ROW 6A : ... .. . ... : ... .. . ... : ... .. . ... : ... .. . ... : ... .. . ...
ROW 6B : ... .. . ... : ... .. . ... : ... .. . ... : ... .. . ... : ... .. . ...
ROW 6C : ... .. . 452 : C-3 08 . ... : ... .. . ... : C-# 05 . ... : ... .. . ...
ROW 6D : ... .. . ... : --- .. . ... : ... .. . ... : ... .. . ... : ... .. . ...
ROW 6E : ... .. . ... : ... .. . ... : ... .. . ... : ... .. . ... : ... .. . ...
ROW 6F : ... .. . ... : ... .. . ... : ... .. . ... : ... .. . ... : ... .. . ...
ROW 70 : ... .. . ... : ... .. . ... : ... .. . ... : ... .. . ... : ... .. . ...
ROW 71 : ... .. . ... : ... .. . ... : ... .. . ... : ... .. . ... : ... .. . ...
ROW 72 : ... .. . ... : C-3 08 . ... : ... .. . ... : C-# 05 . ... : ... .. . ...
ROW 73 : ... .. . ... : --- .. . ... : ... .. . ... : ... .. . ... : ... .. . ...
ROW 74 : ... .. . ... : ... .. . ... : ... .. . ... : ... .. . ... : ... .. . ...
ROW 75 : ... .. . ... : ... .. . ... : ... .. . ... : ... .. . ... : ... .. . ...
ROW 76 : ... .. . ... : ... .. . ... : ... .. . ... : ... .. . ... : ... .. . ...
ROW 77 : ... .. . ... : ... .. . ... : ... .. . ... : ... .. . ... : ... .. . ...
ROW 78 : C-4 08 . 400 : G-3 08 . ... : ... .. . ... : 0-# 04 . ... : F-5 00 . ...
ROW 79 : ... .. . ... : ... .. . ... : ... .. . ... : ... .. . ... : ... .. . ...
ROW 7A : ... .. . ... : ... .. . ... : ... .. . ... : ... .. . ... : ... .. . ...
ROW 7B : ... .. . ... : --- .. . ... : ... .. . ... : ... .. . ... : ... .. . ...
ROW 7C : ... .. . ... : ... .. . ... : ... .. . ... : ... .. . ... : ... .. . ...
ROW 7D : ... .. . ... : ... .. . ... : ... .. . ... : ... .. . ... : ... .. . ...
ROW 7E : ... .. . ... : C-3 08 . ... : ... .. . ... : ... .. . ... : ... .. . ...
ROW 7F : ... .. . ... : --- .. . ... : ... .. . ... : ... .. . ... : ... .. . ...
ROW 80 : ... .. . ... : ... .. . ... : ... .. . ... : ... .. . ... : ... .. . ...
ROW 81 : ... .. . ... : ... .. . ... : ... .. . ... : ... .. . ... : ... .. . ...
ROW 82 : ... .. . ... : ... .. . ... : ... .. . ... : ... .. . ... : ... .. . ...
ROW 83 : ... .. . ... : ... .. . ... : ... .. . ... : ... .. . ... : ... .. . ...
ROW 84 : ... .. . 452 : C-3 08 . ... : ... .. . ... : 0-# 03 . ... : C-4 00 . ...
ROW 85 : ... .. . ... : --- .. . ... : ... .. . ... : ... .. . ... : ... .. . ...
ROW 86 : ... .. . ... : ... .. . ... : ... .. . ... : ... .. . ... : ... .. . ...
ROW 87 : ... .. . ... : ... .. . ... : ... .. . ... : ... .. . ... : ... .. . ...
ROW 88 : ... .. . ... : ... .. . ... : ... .. . ... : ... .. . ... : ... .. . ...
ROW 89 : ... .. . ... : ... .. . ... : ... .. . ... : ... .. . ... : ... .. . ...
ROW 8A : ... .. . ... : C-3 08 . ... : ... .. . ... : 0-# 03 . ... : C-4 00 . ...
ROW 8B : ... .. . ... : ... .. . ... : ... .. . ... : ... .. . ... : ... .. . ...
ROW 8C : ... .. . ... : ... .. . ... : ... .. . ... : ... .. . ... : ... .. . ...
ROW 8D : ... .. . ... : D-3 08 . ... : ... .. . ... : ... .. . ... : ... .. . ...
ROW 8E : ... .. . ... : ... .. . ... : ... .. . ... : ... .. . ... : ... .. . ...
ROW 8F : ... .. . ... : ... .. . ... : ... .. . ... : ... .. . ... : ... .. . ...
ROW 90 : A#3 08 . 400 : ... .. . ... : ... .. . ... : C-# 05 . ... : ... .. . ...
ROW 91 : ... .. . ... : ... .. . ... : ... .. . ... : ... .. . ... : ... .. . ...
ROW 92 : ... .. . ... : ... .. . ... : ... .. . ... : ... .. . ... : ... .. . ...
ROW 93 : ... .. . ... : --- .. . ... : ... .. . ... : ... .. . ... : ... .. . ...
ROW 94 : ... .. . ... : ... .. . ... : ... .. . ... : ... .. . ... : ... .. . ...
ROW 95 : ... .. . ... : ... .. . ... : ... .. . ... : ... .. . ... : ... .. . ...
ROW 96 : ... .. . ... : A#2 08 . ... : ... .. . ... : 0-# 03 . ... : C-4 00 . ...
ROW 97 : ... .. . ... : ... .. . ... : ... .. . ... : ... .. . ... : ... .. . ...
ROW 98 : ... .. . ... : ... .. . ... : ... .. . ... : ... .. . ... : ... .. . ...
ROW 99 : ... .. . ... : --- .. . ... : ... .. . ... : ... .. . ... : ... .. . ...
ROW 9A : ... .. . ... : ... .. . ... : ... .. . ... : ... .. . ... : ... .. . ...
ROW 9B : ... .. . ... : ... .. . ... : ... .. . ... : ... .. . ... : ... .. . ...
ROW 9C : ... .. . 452 : A#2 08 . ... : ... .. . ... : 0-# 03 . ... : ... .. . ...
ROW 9D : ... .. . ... : --- .. . ... : ... .. . ... : ... .. . ... : ... .. . ...
ROW 9E : ... .. . ... : ... .. . ... : ... .. . ... : ... .. . ... : ... .. . ...
ROW 9F : ... .. . ... : ... .. . ... : ... .. . ... : ... .. . ... : ... .. . ...
ROW A0 : ... .. . ... : ... .. . ... : ... .. . ... : ... .. . ... : ... .. . ...
ROW A1 : ... .. . ... : ... .. . ... : ... .. . ... : ... .. . ... : ... .. . ...
ROW A2 : ... .. . ... : A#2 08 . ... : ... .. . ... : C-# 05 . ... : C-4 00 . ...
ROW A3 : ... .. . ... : ... .. . ... : ... .. . ... : ... .. . ... : ... .. . ...
ROW A4 : ... .. . ... : ... .. . ... : ... .. . ... : ... .. . ... : ... .. . ...
ROW A5 : ... .. . ... : C-3 08 . ... : ... .. . ... : ... .. . ... : ... .. . ...
ROW A6 : ... .. . ... : ... .. . ... : ... .. . ... : ... .. . ... : ... .. . ...
ROW A7 : ... .. . ... : ... .. . ... : ... .. . ... : ... .. . ... : ... .. . ...
ROW A8 : C-4 08 . 400 : ... .. . ... : ... .. . ... : 0-# 04 . ... : C-4 00 . ...
ROW A9 : ... .. . ... : ... .. . ... : ... .. . ... : ... .. . ... : ... .. . ...
ROW AA : ... .. . ... : ... .. . ... : ... .. . ... : ... .. . ... : ... .. . ...
ROW AB : ... .. . ... : --- .. . ... : ... .. . ... : ... .. . ... : ... .. . ...
ROW AC : ... .. . ... : ... .. . ... : ... .. . ... : ... .. . ... : ... .. . ...
ROW AD : ... .. . ... : ... .. . ... : ... .. . ... : ... .. . ... : ... .. . ...
ROW AE : ... .. . ... : G-2 08 . ... : ... .. . ... : 0-# 03 . ... : ... .. . ...
ROW AF : ... .. . ... : --- .. . ... : ... .. . ... : ... .. . ... : ... .. . ...
ROW B0 : ... .. . ... : ... .. . ... : ... .. . ... : ... .. . ... : ... .. . ...
ROW B1 : ... .. . ... : ... .. . ... : ... .. . ... : ... .. . ... : ... .. . ...
ROW B2 : ... .. . ... : ... .. . ... : ... .. . ... : ... .. . ... : ... .. . ...
ROW B3 : ... .. . ... : ... .. . ... : ... .. . ... : ... .. . ... : ... .. . ...
ROW B4 : ... .. . 452 : F-2 08 . ... : ... .. . ... : C-# 05 . ... : G-3 00 . ...
ROW B5 : ... .. . ... : --- .. . ... : ... .. . ... : ... .. . ... : ... .. . ...
ROW B6 : ... .. . ... : ... .. . ... : ... .. . ... : ... .. . ... : ... .. . ...
ROW B7 : ... .. . ... : ... .. . ... : ... .. . ... : ... .. . ... : ... .. . ...
ROW B8 : ... .. . ... : ... .. . ... : ... .. . ... : ... .. . ... : ... .. . ...
ROW B9 : ... .. . ... : ... .. . ... : ... .. . ... : ... .. . ... : ... .. . ...
ROW BA : ... .. . ... : G-2 08 . ... : ... .. . ... : C-# 05 . ... : ... .. . ...
ROW BB : ... .. . ... : --- .. . ... : ... .. . ... : ... .. . ... : ... .. . ...
ROW BC : ... .. . ... : ... .. . ... : ... .. . ... : ... .. . ... : ... .. . ...
ROW BD : ... .. . ... : ... .. . ... : ... .. . ... : ... .. . ... : ... .. . ...
ROW BE : ... .. . ... : ... .. . ... : ... .. . ... : ... .. . ... : ... .. . ...
ROW BF : ... .. . ... : ... .. . ... : ... .. . ... : ... .. . ... : ... .. . ...
PATTERN 0A
ROW 00 : A#3 08 . 400 : --- .. . V00 : C-4 07 . ... : 0-# 03 . ... : F-3 00 . ...
ROW 01 : ... .. . ... : ... .. . ... : ... .. . ... : ... .. . ... : ... .. . ...
ROW 02 : ... .. . ... : ... .. . ... : ... .. . ... : ... .. . ... : ... .. . ...
ROW 03 : ... .. . ... : ... .. . ... : --- .. . ... : ... .. . ... : ... .. . ...
ROW 04 : ... .. . ... : ... .. . ... : ... .. . ... : ... .. . ... : ... .. . ...
ROW 05 : ... .. . ... : ... .. . ... : ... .. . ... : ... .. . ... : ... .. . ...
ROW 06 : ... .. . ... : ... .. . ... : ... .. . ... : ... .. . ... : ... .. . ...
ROW 07 : ... .. . ... : ... .. . ... : ... .. . ... : ... .. . ... : ... .. . ...
ROW 08 : ... .. . ... : ... .. . ... : ... .. . ... : ... .. . ... : ... .. . ...
ROW 09 : ... .. . ... : ... .. . ... : ... .. . ... : ... .. . ... : ... .. . ...
ROW 0A : ... .. . ... : ... .. . ... : ... .. . ... : ... .. . ... : ... .. . ...
ROW 0B : ... .. . ... : ... .. . ... : ... .. . ... : ... .. . ... : ... .. . ...
ROW 0C : ... .. . 452 : C-3 01 1 030 : C-4 07 . ... : C-# 05 . ... : ... .. . ...
ROW 0D : ... .. . ... : ... .. . ... : ... .. . ... : ... .. . ... : ... .. . ...
ROW 0E : ... .. . ... : ... .. . ... : ... .. . ... : ... .. . ... : ... .. . ...
ROW 0F : ... .. . ... : ... .. . ... : --- .. . ... : ... .. . ... : ... .. . ...
ROW 10 : ... .. . ... : ... .. . ... : ... .. . ... : ... .. . ... : ... .. . ...
ROW 11 : ... .. . ... : ... .. . ... : ... .. . ... : ... .. . ... : ... .. . ...
ROW 12 : ... .. . ... : ... .. . ... : ... .. . ... : C-# 05 . ... : ... .. . ...
ROW 13 : ... .. . ... : ... .. . ... : ... .. . ... : ... .. . ... : ... .. . ...
ROW 14 : ... .. . ... : ... .. . ... : ... .. . ... : ... .. . ... : ... .. . ...
ROW 15 : ... .. . ... : ... .. . ... : ... .. . ... : ... .. . ... : ... .. . ...
ROW 16 : ... .. . ... : ... .. . ... : ... .. . ... : ... .. . ... : ... .. . ...
ROW 17 : ... .. . ... : ... .. . ... : ... .. . ... : ... .. . ... : ... .. . ...
ROW 18 : ... .. . ... : ... .. . ... : G-4 07 . ... : 0-# 04 F ... : F-5 00 . ...
ROW 19 : ... .. . ... : ... .. . ... : ... .. . ... : ... .. . ... : ... .. . ...
ROW 1A : ... .. . ... : ... .. . ... : ... .. . ... : ... .. . ... : ... .. . ...
ROW 1B : ... .. . ... : ... .. . ... : ... .. . ... : ... .. . ... : ... .. . ...
ROW 1C : ... .. . ... : ... .. . ... : ... .. . ... : ... .. . ... : ... .. . ...
ROW 1D : ... .. . ... : ... .. . ... : ... .. . ... : ... .. . ... : ... .. . ...
ROW 1E : ... .. . ... : C-3 01 2 070 : --- .. . ... : ... .. . ... : ... .. . ...
ROW 1F : ... .. . ... : ... .. . ... : ... .. . ... : ... .. . ... : ... .. . ...
ROW 20 : ... .. . ... : ... .. . ... : ... .. . ... : ... .. . ... : ... .. . ...
ROW 21 : ... .. . ... : ... .. . ... : ... .. . ... : ... .. . ... : ... .. . ...
ROW 22 : ... .. . ... : ... .. . ... : ... .. . ... : ... .. . ... : ... .. . ...
ROW 23 : ... .. . ... : ... .. . ... : ... .. . ... : ... .. . ... : ... .. . ...
ROW 24 : ... .. . ... : ... .. . ... : ... .. . ... : C-# 05 . ... : F-3 00 . ...
ROW 25 : ... .. . ... : ... .. . ... : ... .. . ... : ... .. . ... : ... .. . ...
ROW 26 : ... .. . ... : ... .. . ... : ... .. . ... : ... .. . ... : ... .. . ...
ROW 27 : ... .. . ... : ... .. . ... : ... .. . ... : ... .. . ... : ... .. . ...
ROW 28 : ... .. . ... : ... .. . ... : ... .. . ... : ... .. . ... : ... .. . ...
ROW 29 : ... .. . ... : ... .. . ... : ... .. . ... : ... .. . ... : ... .. . ...
ROW 2A : ... .. . ... : ... .. . ... : ... .. . ... : 0-# 03 . ... : F-3 00 . ...
ROW 2B : ... .. . ... : ... .. . ... : ... .. . ... : ... .. . ... : ... .. . ...
ROW 2C : ... .. . ... : ... .. . ... : ... .. . ... : ... .. . ... : ... .. . ...
ROW 2D : ... .. . ... : ... .. . ... : ... .. . ... : ... .. . ... : ... .. . ...
ROW 2E : ... .. . ... : ... .. . ... : ... .. . ... : ... .. . ... : ... .. . ...
ROW 2F : ... .. . ... : ... .. . ... : ... .. . ... : ... .. . ... : ... .. . ...
ROW 30 : G-3 08 . 400 : G-3 01 3 080 : C-4 07 . ... : C-# 05 . ... : ... .. . ...
ROW 31 : ... .. . ... : ... .. . ... : ... .. . ... : ... .. . ... : ... .. . ...
ROW 32 : ... .. . ... : ... .. . ... : ... .. . ... : ... .. . ... : ... .. . ...
ROW 33 : ... .. . ... : ... .. . ... : --- .. . ... : ... .. . ... : ... .. . ...
ROW 34 : ... .. . ... : ... .. . ... : ... .. . ... : ... .. . ... : ... .. . ...
ROW 35 : ... .. . ... : ... .. . ... : ... .. . ... : ... .. . ... : ... .. . ...
ROW 36 : ... .. . ... : ... .. . ... : ... .. . ... : 0-# 03 . ... : F-3 00 . ...
ROW 37 : ... .. . ... : ... .. . ... : ... .. . ... : ... .. . ... : ... .. . ...
ROW 38 : ... .. . ... : ... .. . ... : ... .. . ... : ... .. . ... : ... .. . ...
ROW 39 : ... .. . ... : ... .. . ... : ... .. . ... : ... .. . ... : ... .. . ...
ROW 3A : ... .. . ... : ... .. . ... : ... .. . ... : ... .. . ... : ... .. . ...
ROW 3B : ... .. . ... : ... .. . ... : ... .. . ... : ... .. . ... : ... .. . ...
ROW 3C : A#3 08 . ... : ... .. . ... : ... .. . ... : 0-# 03 . ... : F-3 00 . ...
ROW 3D : ... .. . ... : ... .. . ... : ... .. . ... : ... .. . ... : ... .. . ...
ROW 3E : ... .. . ... : ... .. . ... : ... .. . ... : ... .. . ... : ... .. . ...
ROW 3F : ... .. . ... : ... .. . ... : ... .. . ... : ... .. . ... : ... .. . ...
ROW 40 : ... .. . ... : ... .. . ... : ... .. . ... : ... .. . ... : ... .. . ...
ROW 41 : ... .. . ... : ... .. . ... : ... .. . ... : ... .. . ... : ... .. . ...
ROW 42 : ... .. . ... : D#4 01 4 040 : C-4 07 . ... : C-# 05 . ... : ... .. . ...
ROW 43 : ... .. . ... : ... .. . ... : ... .. . ... : ... .. . ... : ... .. . ...
ROW 44 : ... .. . ... : ... .. . ... : ... .. . ... : ... .. . ... : ... .. . ...
ROW 45 : ... .. . ... : ... .. . ... : --- .. . ... : ... .. . ... : ... .. . ...
ROW 46 : ... .. . ... : ... .. . ... : ... .. . ... : ... .. . ... : ... .. . ...
ROW 47 : ... .. . ... : ... .. . ... : ... .. . ... : ... .. . ... : ... .. . ...
ROW 48 : ... .. . 452 : ... .. . ... : G-4 07 . ... : 0-# 04 . ... : ... .. . ...
ROW 49 : ... .. . ... : ... .. . ... : ... .. . ... : ... .. . ... : ... .. . ...
ROW 4A : ... .. . ... : ... .. . ... : ... .. . ... : ... .. . ... : ... .. . ...
ROW 4B : ... .. . ... : ... .. . ... : ... .. . ... : ... .. . ... : ... .. . ...
ROW 4C : ... .. . ... : ... .. . ... : ... .. . ... : ... .. . ... : ... .. . ...
ROW 4D : ... .. . ... : ... .. . ... : ... .. . ... : ... .. . ... : ... .. . ...
ROW 4E : ... .. . ... : ... .. . ... : --- .. . ... : 0-# 03 . ... : ... .. . ...
ROW 4F : ... .. . ... : ... .. . ... : ... .. . ... : ... .. . ... : ... .. . ...
ROW 50 : ... .. . ... : ... .. . ... : ... .. . ... : ... .. . ... : ... .. . ...
ROW 51 : ... .. . ... : ... .. 2 ... : ... .. . ... : ... .. . ... : ... .. . ...
ROW 52 : ... .. . ... : ... .. . ... : ... .. . ... : ... .. . ... : ... .. . ...
ROW 53 : ... .. . ... : ... .. . ... : ... .. . ... : ... .. . ... : ... .. . ...
ROW 54 : D-4 08 . 400 : G-4 01 5 030 : C-4 07 . ... : C-# 05 . ... : F-3 00 . ...
ROW 55 : ... .. . ... : ... .. . ... : ... .. . ... : ... .. . ... : ... .. . ...
ROW 56 : ... .. . ... : ... .. . ... : ... .. . ... : ... .. . ... : ... .. . ...
ROW 57 : ... .. . ... : ... .. . ... : --- .. . ... : ... .. . ... : ... .. . ...
ROW 58 : ... .. . ... : ... .. . ... : ... .. . ... : ... .. . ... : ... .. . ...
ROW 59 : ... .. . ... : ... .. . ... : ... .. . ... : ... .. . ... : ... .. . ...
ROW 5A : ... .. . ... : ... .. . ... : ... .. . ... : C-# 05 . ... : ... .. . ...
ROW 5B : ... .. . ... : ... .. . ... : ... .. . ... : ... .. . ... : ... .. . ...
ROW 5C : ... .. . ... : ... .. . ... : ... .. . ... : ... .. . ... : ... .. . ...
ROW 5D : ... .. . ... : ... .. . ... : ... .. . ... : ... .. . ... : ... .. . ...
ROW 5E : ... .. . ... : ... .. . ... : ... .. . ... : ... .. . ... : ... .. . ...
ROW 5F : ... .. . ... : ... .. . ... : ... .. . ... : ... .. . ... : ... .. . ...
ROW 60 : C-4 08 . ... : G-4 01 6 070 : ... .. . ... : 0-# 03 . ... : A#3 00 . ...
ROW 61 : ... .. . ... : ... .. . ... : ... .. . ... : ... .. . ... : ... .. . ...
ROW 62 : ... .. . ... : ... .. . ... : ... .. . ... : ... .. . ... : ... .. . ...
ROW 63 : ... .. . ... : ... .. . ... : ... .. . ... : ... .. . ... : ... .. . ...
ROW 64 : ... .. . ... : ... .. . ... : ... .. . ... : ... .. . ... : ... .. . ...
ROW 65 : ... .. . ... : ... .. . ... : ... .. . ... : ... .. . ... : ... .. . ...
ROW 66 : ... .. . ... : ... .. . ... : ... .. . ... : ... .. . ... : ... .. . ...
ROW 67 : ... .. . ... : ... .. . ... : ... .. . ... : ... .. . ... : ... .. . ...
ROW 68 : ... .. . ... : ... .. . ... : ... .. . ... : ... .. . ... : ... .. . ...
ROW 69 : ... .. . ... : ... .. . ... : ... .. . ... : ... .. . ... : ... .. . ...
ROW 6A : ... .. . ... : ... .. . ... : ... .. . ... : ... .. . ... : ... .. . ...
ROW 6B : ... .. . ... : ... .. . ... : ... .. . ... : ... .. . ... : ... .. . ...
ROW 6C : ... .. . 452 : ... .. 5 ... : C-4 07 . ... : C-# 05 . ... : ... .. . ...
ROW 6D : ... .. . ... : ... .. . ... : ... .. . ... : ... .. . ... : ... .. . ...
ROW 6E : ... .. . ... : ... .. . ... : ... .. . ... : ... .. . ... : ... .. . ...
ROW 6F : ... .. . ... : ... .. . ... : --- .. . ... : ... .. . ... : ... .. . ...
ROW 70 : ... .. . ... : ... .. . ... : ... .. . ... : ... .. . ... : ... .. . ...
ROW 71 : ... .. . ... : ... .. . ... : ... .. . ... : ... .. . ... : ... .. . ...
ROW 72 : ... .. . ... : ... .. . ... : ... .. . ... : C-# 05 . ... : ... .. . ...
ROW 73 : ... .. . ... : ... .. . ... : ... .. . ... : ... .. . ... : ... .. . ...
ROW 74 : ... .. . ... : ... .. . ... : ... .. . ... : ... .. . ... : ... .. . ...
ROW 75 : ... .. . ... : ... .. . ... : ... .. . ... : ... .. . ... : ... .. . ...
ROW 76 : ... .. . ... : ... .. . ... : ... .. . ... : ... .. . ... : ... .. . ...
ROW 77 : ... .. . ... : ... .. . ... : ... .. . ... : ... .. . ... : ... .. . ...
ROW 78 : C#4 08 . 400 : D#4 01 4 ... : G-4 07 . ... : 0-# 04 . ... : F-5 00 . ...
ROW 79 : ... .. . ... : ... .. . ... : ... .. . ... : ... .. . ... : ... .. . ...
ROW 7A : ... .. . ... : ... .. . ... : ... .. . ... : ... .. . ... : ... .. . ...
ROW 7B : ... .. . ... : ... .. . ... : ... .. . ... : ... .. . ... : ... .. . ...
ROW 7C : ... .. . ... : ... .. . ... : ... .. . ... : ... .. . ... : ... .. . ...
ROW 7D : ... .. . ... : ... .. . ... : ... .. . ... : ... .. . ... : ... .. . ...
ROW 7E : ... .. . ... : ... .. . ... : --- .. . ... : ... .. . ... : ... .. . ...
ROW 7F : ... .. . ... : ... .. . ... : ... .. . ... : ... .. . ... : ... .. . ...
ROW 80 : ... .. . ... : ... .. . ... : ... .. . ... : ... .. . ... : ... .. . ...
ROW 81 : ... .. . ... : ... .. . ... : ... .. . ... : ... .. . ... : ... .. . ...
ROW 82 : ... .. . ... : ... .. . ... : ... .. . ... : ... .. . ... : ... .. . ...
ROW 83 : ... .. . ... : ... .. . ... : ... .. . ... : ... .. . ... : ... .. . ...
ROW 84 : ... .. . 452 : ... .. 3 ... : C-4 07 . ... : C-# 05 . ... : A#3 00 . ...
ROW 85 : ... .. . ... : ... .. . ... : ... .. . ... : ... .. . ... : ... .. . ...
ROW 86 : ... .. . ... : ... .. . ... : ... .. . ... : ... .. . ... : ... .. . ...
ROW 87 : ... .. . ... : ... .. . ... : --- .. . ... : ... .. . ... : ... .. . ...
ROW 88 : ... .. . ... : ... .. . ... : ... .. . ... : ... .. . ... : ... .. . ...
ROW 89 : ... .. . ... : ... .. . ... : ... .. . ... : ... .. . ... : ... .. . ...
ROW 8A : ... .. . ... : ... .. . ... : ... .. . ... : 0-# 03 . ... : A#3 00 . ...
ROW 8B : ... .. . ... : ... .. . ... : ... .. . ... : ... .. . ... : ... .. . ...
ROW 8C : ... .. . ... : ... .. . ... : ... .. . ... : ... .. . ... : ... .. . ...
ROW 8D : ... .. . ... : ... .. . ... : ... .. . ... : ... .. . ... : ... .. . ...
ROW 8E : ... .. . ... : ... .. . ... : ... .. . ... : ... .. . ... : ... .. . ...
ROW 8F : ... .. . ... : ... .. . ... : ... .. . ... : ... .. . ... : ... .. . ...
ROW 90 : C-4 08 . 400 : A#3 01 2 040 : C-4 07 . ... : C-# 05 . ... : ... .. . ...
ROW 91 : ... .. . ... : ... .. . ... : ... .. . ... : ... .. . ... : ... .. . ...
ROW 92 : ... .. . ... : ... .. . ... : ... .. . ... : ... .. . ... : ... .. . ...
ROW 93 : ... .. . ... : ... .. . ... : --- .. . ... : ... .. . ... : ... .. . ...
ROW 94 : ... .. . ... : ... .. . ... : ... .. . ... : ... .. . ... : ... .. . ...
ROW 95 : ... .. . ... : ... .. . ... : ... .. . ... : ... .. . ... : ... .. . ...
ROW 96 : ... .. . ... : ... .. . ... : C-4 07 . ... : 0-# 03 . ... : A#3 00 . ...
ROW 97 : ... .. . ... : ... .. . ... : ... .. . ... : ... .. . ... : ... .. . ...
ROW 98 : ... .. . ... : ... .. . ... : ... .. . ... : ... .. . ... : ... .. . ...
ROW 99 : ... .. . ... : ... .. . ... : --- .. . ... : ... .. . ... : ... .. . ...
ROW 9A : ... .. . ... : ... .. . ... : ... .. . ... : ... .. . ... : ... .. . ...
ROW 9B : ... .. . ... : ... .. . ... : ... .. . ... : ... .. . ... : ... .. . ...
ROW 9C : ... .. . 452 : ... .. . ... : C-4 07 . ... : 0-# 03 . ... : ... .. . ...
ROW 9D : ... .. . ... : ... .. . ... : ... .. . ... : ... .. . ... : ... .. . ...
ROW 9E : ... .. . ... : ... .. . ... : ... .. . ... : ... .. . ... : ... .. . ...
ROW 9F : ... .. . ... : ... .. . ... : ... .. . ... : ... .. . ... : ... .. . ...
ROW A0 : ... .. . ... : ... .. . ... : ... .. . ... : ... .. . ... : ... .. . ...
ROW A1 : ... .. . ... : ... .. . ... : ... .. . ... : ... .. . ... : ... .. . ...
ROW A2 : ... .. . ... : ... .. . ... : ... .. . ... : C-# 05 . ... : A#3 00 . ...
ROW A3 : ... .. . ... : ... .. . ... : ... .. . ... : ... .. . ... : ... .. . ...
ROW A4 : ... .. . ... : ... .. . ... : ... .. . ... : ... .. . ... : ... .. . ...
ROW A5 : ... .. . ... : ... .. . ... : ... .. . ... : ... .. . ... : ... .. . ...
ROW A6 : ... .. . ... : ... .. . ... : ... .. . ... : ... .. . ... : ... .. . ...
ROW A7 : ... .. . ... : ... .. . ... : ... .. . ... : ... .. . ... : ... .. . ...
ROW A8 : A#3 08 . 400 : D#3 01 1 070 : G-4 07 . ... : 0-# 04 . ... : A#3 00 . ...
ROW A9 : ... .. . ... : ... .. . ... : ... .. . ... : ... .. . ... : ... .. . ...
ROW AA : ... .. . ... : ... .. . ... : ... .. . ... : ... .. . ... : ... .. . ...
ROW AB : ... .. . ... : ... .. . ... : ... .. . ... : ... .. . ... : ... .. . ...
ROW AC : ... .. . ... : ... .. . ... : ... .. . ... : ... .. . ... : ... .. . ...
ROW AD : ... .. . ... : ... .. . ... : ... .. . ... : ... .. . ... : ... .. . ...
ROW AE : ... .. . ... : ... .. . ... : --- .. . ... : 0-# 03 . ... : ... .. . ...
ROW AF : ... .. . ... : ... .. . ... : ... .. . ... : ... .. . ... : ... .. . ...
ROW B0 : ... .. . ... : ... .. . ... : ... .. . ... : ... .. . ... : ... .. . ...
ROW B1 : ... .. . ... : ... .. . ... : ... .. . ... : ... .. . ... : ... .. . ...
ROW B2 : ... .. . ... : ... .. . ... : ... .. . ... : ... .. . ... : ... .. . ...
ROW B3 : ... .. . ... : ... .. . ... : ... .. . ... : ... .. . ... : ... .. . ...
ROW B4 : ... .. . 452 : ... .. . ... : C-4 07 . ... : C-# 05 . ... : G#3 00 . ...
ROW B5 : ... .. . ... : ... .. . ... : ... .. . ... : ... .. . ... : ... .. . ...
ROW B6 : ... .. . ... : ... .. . ... : ... .. . ... : ... .. . ... : ... .. . ...
ROW B7 : ... .. . ... : ... .. . ... : ... .. . ... : ... .. . ... : ... .. . ...
ROW B8 : ... .. . ... : ... .. . ... : ... .. . ... : ... .. . ... : ... .. . ...
ROW B9 : ... .. . ... : ... .. . ... : ... .. . ... : ... .. . ... : ... .. . ...
ROW BA : ... .. . ... : ... .. . ... : --- .. . ... : C-# 05 . ... : ... .. . ...
ROW BB : ... .. . ... : ... .. . ... : ... .. . ... : ... .. . ... : ... .. . ...
ROW BC : ... .. . ... : ... .. . ... : ... .. . ... : ... .. . ... : ... .. . ...
ROW BD : ... .. . ... : ... .. . ... : ... .. . ... : ... .. . ... : ... .. . ...
ROW BE : ... .. . ... : ... .. . V01 : ... .. . ... : ... .. . ... : ... .. . ...
ROW BF : ... .. . ... : ... .. . 000 : ... .. . ... : ... .. . ... : ... .. . ...
PATTERN 0B
ROW 00 : G#3 08 A 400 : C-5 0A F 400 : C-4 07 . ... : 0-# 03 . ... : G-3 00 . ...
ROW 01 : ... .. . ... : ... .. . ... : ... .. . ... : ... .. . ... : ... .. . ...
ROW 02 : ... .. . ... : ... .. . ... : ... .. . ... : ... .. . ... : ... .. . ...
ROW 03 : ... .. . ... : ... .. . ... : --- .. . ... : ... .. . ... : ... .. . ...
ROW 04 : ... .. . ... : ... .. . ... : ... .. . ... : ... .. . ... : ... .. . ...
ROW 05 : ... .. . ... : ... .. . ... : ... .. . ... : ... .. . ... : ... .. . ...
ROW 06 : ... .. . ... : ... .. . ... : ... .. . ... : ... .. . ... : ... .. . ...
ROW 07 : ... .. . ... : ... .. . ... : ... .. . ... : ... .. . ... : ... .. . ...
ROW 08 : ... .. . ... : ... .. . ... : ... .. . ... : ... .. . ... : ... .. . ...
ROW 09 : ... .. . ... : ... .. . ... : ... .. . ... : ... .. . ... : ... .. . ...
ROW 0A : ... .. . ... : ... .. . ... : ... .. . ... : ... .. . ... : ... .. . ...
ROW 0B : ... .. . ... : ... .. . ... : ... .. . ... : ... .. . ... : ... .. . ...
ROW 0C : ... .. . 452 : ... .. . 452 : C-4 07 . ... : C-# 05 . ... : ... .. . ...
ROW 0D : ... .. . ... : ... .. . ... : ... .. . ... : ... .. . ... : ... .. . ...
ROW 0E : ... .. . ... : ... .. . ... : ... .. . ... : ... .. . ... : ... .. . ...
ROW 0F : ... .. . ... : ... .. . ... : --- .. . ... : ... .. . ... : ... .. . ...
ROW 10 : ... .. . ... : ... .. . ... : ... .. . ... : ... .. . ... : ... .. . ...
ROW 11 : ... .. . ... : ... .. . ... : ... .. . ... : ... .. . ... : ... .. . ...
ROW 12 : ... .. . ... : ... .. . ... : ... .. . ... : C-# 05 . ... : ... .. . ...
ROW 13 : ... .. . ... : ... .. . ... : ... .. . ... : ... .. . ... : ... .. . ...
ROW 14 : ... .. . ... : ... .. . ... : ... .. . ... : ... .. . ... : ... .. . ...
ROW 15 : ... .. . ... : ... .. . ... : ... .. . ... : ... .. . ... : ... .. . ...
ROW 16 : ... .. . ... : ... .. . ... : ... .. . ... : ... .. . ... : ... .. . ...
ROW 17 : ... .. . ... : ... .. . ... : ... .. . ... : ... .. . ... : ... .. . ...
ROW 18 : ... .. 9 ... : ... .. . ... : G-4 07 . ... : 0-# 04 . ... : F-5 00 . ...
ROW 19 : ... .. . ... : ... .. . ... : ... .. . ... : ... .. . ... : ... .. . ...
ROW 1A : ... .. . ... : ... .. . ... : ... .. . ... : ... .. . ... : ... .. . ...
ROW 1B : ... .. . ... : ... .. . ... : ... .. . ... : ... .. . ... : ... .. . ...
ROW 1C : ... .. . ... : ... .. . ... : ... .. . ... : ... .. . ... : ... .. . ...
ROW 1D : ... .. . ... : ... .. . ... : ... .. . ... : ... .. . ... : ... .. . ...
ROW 1E : ... .. . ... : A-4 0A . 400 : --- .. . ... : ... .. . ... : ... .. . ...
ROW 1F : ... .. . ... : ... .. . ... : ... .. . ... : ... .. . ... : ... .. . ...
ROW 20 : ... .. . ... : ... .. . ... : ... .. . ... : ... .. . ... : ... .. . ...
ROW 21 : ... .. . ... : ... .. . ... : ... .. . ... : ... .. . ... : ... .. . ...
ROW 22 : ... .. . ... : ... .. . ... : ... .. . ... : ... .. . ... : ... .. . ...
ROW 23 : ... .. . ... : ... .. . ... : ... .. . ... : ... .. . ... : ... .. . ...
ROW 24 : ... .. . ... : F-4 0A . ... : ... .. . ... : C-# 05 . ... : G-3 00 . ...
ROW 25 : ... .. . ... : ... .. . ... : ... .. . ... : ... .. . ... : ... .. . ...
ROW 26 : ... .. . ... : ... .. . ... : ... .. . ... : ... .. . ... : ... .. . ...
ROW 27 : ... .. . ... : ... .. . ... : ... .. . ... : ... .. . ... : ... .. . ...
ROW 28 : ... .. . ... : ... .. . ... : ... .. . ... : ... .. . ... : ... .. . ...
ROW 29 : ... .. . ... : ... .. . ... : ... .. . ... : ... .. . ... : ... .. . ...
ROW 2A : ... .. . ... : C-4 0A . ... : ... .. . ... : 0-# 03 . ... : G-3 00 . ...
ROW 2B : ... .. . ... : ... .. . ... : ... .. . ... : ... .. . ... : ... .. . ...
ROW 2C : ... .. . ... : ... .. . ... : ... .. . ... : ... .. . ... : ... .. . ...
ROW 2D : ... .. . ... : ... .. . ... : ... .. . ... : ... .. . ... : ... .. . ...
ROW 2E : ... .. . ... : ... .. . ... : ... .. . ... : ... .. . ... : ... .. . ...
ROW 2F : ... .. . ... : ... .. . ... : ... .. . ... : ... .. . ... : ... .. . ...
ROW 30 : C-4 08 A 400 : A-3 0A . ... : C-4 07 . ... : C-# 05 . ... : ... .. . ...
ROW 31 : ... .. . ... : ... .. . ... : ... .. . ... : ... .. . ... : ... .. . ...
ROW 32 : ... .. . ... : ... .. . ... : ... .. . ... : ... .. . ... : ... .. . ...
ROW 33 : ... .. . ... : ... .. . ... : --- .. . ... : ... .. . ... : ... .. . ...
ROW 34 : ... .. . ... : ... .. . ... : ... .. . ... : ... .. . ... : ... .. . ...
ROW 35 : ... .. . ... : ... .. . ... : ... .. . ... : ... .. . ... : ... .. . ...
ROW 36 : ... .. . ... : ... .. . ... : ... .. . ... : 0-# 03 . ... : G-3 00 . ...
ROW 37 : ... .. . ... : ... .. . ... : ... .. . ... : ... .. . ... : ... .. . ...
ROW 38 : ... .. . ... : ... .. . ... : ... .. . ... : ... .. . ... : ... .. . ...
ROW 39 : ... .. . ... : ... .. . ... : ... .. . ... : ... .. . ... : ... .. . ...
ROW 3A : ... .. . ... : ... .. . ... : ... .. . ... : ... .. . ... : ... .. . ...
ROW 3B : ... .. . ... : ... .. . ... : ... .. . ... : ... .. . ... : ... .. . ...
ROW 3C : ... .. . 452 : ... .. . 452 : ... .. . ... : 0-# 03 . ... : G-3 00 . ...
ROW 3D : ... .. . ... : ... .. . ... : ... .. . ... : ... .. . ... : ... .. . ...
ROW 3E : ... .. . ... : ... .. . ... : ... .. . ... : ... .. . ... : ... .. . ...
ROW 3F : ... .. . ... : ... .. . ... : ... .. . ... : ... .. . ... : ... .. . ...
ROW 40 : ... .. . ... : ... .. . ... : ... .. . ... : ... .. . ... : ... .. . ...
ROW 41 : ... .. . ... : ... .. . ... : ... .. . ... : ... .. . ... : ... .. . ...
ROW 42 : ... .. . ... : ... .. . ... : C-4 07 . ... : C-# 05 . ... : ... .. . ...
ROW 43 : ... .. . ... : ... .. . ... : ... .. . ... : ... .. . ... : ... .. . ...
ROW 44 : ... .. . ... : ... .. . ... : ... .. . ... : ... .. . ... : ... .. . ...
ROW 45 : ... .. . ... : ... .. . ... : --- .. . ... : ... .. . ... : ... .. . ...
ROW 46 : ... .. . ... : ... .. . ... : ... .. . ... : ... .. . ... : ... .. . ...
ROW 47 : ... .. . ... : ... .. . ... : ... .. . ... : ... .. . ... : ... .. . ...
ROW 48 : D#4 08 . 400 : ... .. . ... : G-4 07 . ... : 0-# 04 . ... : ... .. . ...
ROW 49 : ... .. . ... : ... .. . ... : ... .. . ... : ... .. . ... : ... .. . ...
ROW 4A : ... .. . ... : ... .. . ... : ... .. . ... : ... .. . ... : ... .. . ...
ROW 4B : ... .. . ... : ... .. . ... : ... .. . ... : ... .. . ... : ... .. . ...
ROW 4C : ... .. . ... : ... .. . ... : ... .. . ... : ... .. . ... : ... .. . ...
ROW 4D : ... .. . ... : ... .. . ... : ... .. . ... : ... .. . ... : ... .. . ...
ROW 4E : ... .. . ... : F-3 0A . 400 : --- .. . ... : 0-# 03 . ... : ... .. . ...
ROW 4F : ... .. . ... : ... .. . ... : ... .. . ... : ... .. . ... : ... .. . ...
ROW 50 : ... .. . ... : ... .. . ... : ... .. . ... : ... .. . ... : ... .. . ...
ROW 51 : ... .. . ... : ... .. . ... : ... .. . ... : ... .. . ... : ... .. . ...
ROW 52 : ... .. . ... : ... .. . ... : ... .. . ... : ... .. . ... : ... .. . ...
ROW 53 : ... .. . ... : ... .. . ... : ... .. . ... : ... .. . ... : ... .. . ...
ROW 54 : ... .. . 452 : C-3 0A . ... : C-4 07 . ... : C-# 05 . ... : F-3 00 . ...
ROW 55 : ... .. . ... : ... .. . ... : ... .. . ... : ... .. . ... : ... .. . ...
ROW 56 : ... .. . ... : ... .. . ... : ... .. . ... : ... .. . ... : ... .. . ...
ROW 57 : ... .. . ... : ... .. . ... : --- .. . ... : ... .. . ... : ... .. . ...
ROW 58 : ... .. . ... : ... .. . ... : ... .. . ... : ... .. . ... : ... .. . ...
ROW 59 : ... .. . ... : ... .. . ... : ... .. . ... : ... .. . ... : ... .. . ...
ROW 5A : ... .. . ... : A-2 0A . ... : ... .. . ... : C-# 05 . ... : ... .. . ...
ROW 5B : ... .. . ... : ... .. . ... : ... .. . ... : ... .. . ... : ... .. . ...
ROW 5C : ... .. . ... : ... .. . ... : ... .. . ... : ... .. . ... : ... .. . ...
ROW 5D : ... .. . ... : ... .. . ... : ... .. . ... : ... .. . ... : ... .. . ...
ROW 5E : ... .. . ... : ... .. . ... : ... .. . ... : ... .. . ... : ... .. . ...
ROW 5F : ... .. . ... : ... .. . ... : ... .. . ... : ... .. . ... : ... .. . ...
ROW 60 : D-4 08 . 400 : B-2 0A . ... : ... .. . ... : 0-# 03 . ... : G-3 00 . ...
ROW 61 : ... .. . ... : ... .. . ... : ... .. . ... : ... .. . ... : ... .. . ...
ROW 62 : ... .. . ... : ... .. . ... : ... .. . ... : ... .. . ... : ... .. . ...
ROW 63 : ... .. . ... : ... .. . ... : ... .. . ... : ... .. . ... : ... .. . ...
ROW 64 : ... .. . ... : ... .. . ... : ... .. . ... : ... .. . ... : ... .. . ...
ROW 65 : ... .. . ... : ... .. . ... : ... .. . ... : ... .. . ... : ... .. . ...
ROW 66 : ... .. . ... : ... .. . ... : ... .. . ... : ... .. . ... : ... .. . ...
ROW 67 : ... .. . ... : ... .. . ... : ... .. . ... : ... .. . ... : ... .. . ...
ROW 68 : ... .. . ... : ... .. . ... : ... .. . ... : ... .. . ... : ... .. . ...
ROW 69 : ... .. . ... : ... .. . ... : ... .. . ... : ... .. . ... : ... .. . ...
ROW 6A : ... .. . ... : ... .. . ... : ... .. . ... : ... .. . ... : ... .. . ...
ROW 6B : ... .. . ... : ... .. . ... : ... .. . ... : ... .. . ... : ... .. . ...
ROW 6C : ... .. . 452 : ... .. . 452 : C-4 07 . ... : ... .. . ... : ... .. . ...
ROW 6D : ... .. . ... : ... .. . ... : ... .. . ... : ... .. . ... : ... .. . ...
ROW 6E : ... .. . ... : ... .. . ... : ... .. . ... : ... .. . ... : ... .. . ...
ROW 6F : ... .. . ... : ... .. . ... : --- .. . ... : ... .. . ... : ... .. . ...
ROW 70 : ... .. . ... : ... .. . ... : ... .. . ... : ... .. . ... : ... .. . ...
ROW 71 : ... .. . ... : ... .. . ... : ... .. . ... : ... .. . ... : ... .. . ...
ROW 72 : ... .. . ... : ... .. . ... : ... .. . ... : ... .. . ... : ... .. . ...
ROW 73 : ... .. . ... : ... .. . ... : ... .. . ... : ... .. . ... : ... .. . ...
ROW 74 : ... .. . ... : ... .. . ... : ... .. . ... : ... .. . ... : ... .. . ...
ROW 75 : ... .. . ... : ... .. . ... : ... .. . ... : ... .. . ... : ... .. . ...
ROW 76 : ... .. . ... : ... .. . ... : ... .. . ... : ... .. . ... : ... .. . ...
ROW 77 : ... .. . ... : ... .. . ... : ... .. . ... : ... .. . ... : ... .. . ...
ROW 78 : D#4 08 . 400 : ... .. . ... : G-4 07 . ... : ... .. . ... : ... .. . ...
ROW 79 : ... .. . ... : ... .. . ... : ... .. . ... : ... .. . ... : ... .. . ...
ROW 7A : ... .. . ... : ... .. . ... : ... .. . ... : ... .. . ... : ... .. . ...
ROW 7B : ... .. . ... : ... .. . ... : ... .. . ... : ... .. . ... : ... .. . ...
ROW 7C : ... .. . ... : ... .. . ... : ... .. . ... : ... .. . ... : ... .. . ...
ROW 7D : ... .. . ... : ... .. . ... : ... .. . ... : ... .. . ... : ... .. . ...
ROW 7E : ... .. . ... : ... .. . ... : --- .. . ... : ... .. . ... : ... .. . ...
ROW 7F : ... .. . ... : ... .. . ... : ... .. . ... : ... .. . ... : ... .. . ...
ROW 80 : ... .. . ... : ... .. . ... : ... .. . ... : ... .. . ... : ... .. . ...
ROW 81 : ... .. . ... : ... .. . ... : ... .. . ... : ... .. . ... : ... .. . ...
ROW 82 : ... .. . ... : ... .. . ... : ... .. . ... : ... .. . ... : ... .. . ...
ROW 83 : ... .. . ... : ... .. . ... : ... .. . ... : ... .. . ... : ... .. . ...
ROW 84 : ... .. . 452 : ... .. . ... : ... .. . ... : ... .. . ... : G-4 00 . ...
ROW 85 : ... .. . ... : ... .. . ... : ... .. . ... : ... .. . ... : ... .. . ...
ROW 86 : ... .. . ... : ... .. . ... : ... .. . ... : ... .. . ... : ... .. . ...
ROW 87 : ... .. . ... : ... .. . ... : ... .. . ... : ... .. . ... : ... .. . ...
ROW 88 : ... .. . ... : ... .. . ... : ... .. . ... : ... .. . ... : ... .. . ...
ROW 89 : ... .. . ... : ... .. . ... : ... .. . ... : ... .. . ... : ... .. . ...
ROW 8A : ... .. . ... : ... .. . ... : ... .. . ... : ... .. . ... : ... .. . ...
ROW 8B : ... .. . ... : ... .. . ... : ... .. . ... : ... .. . ... : ... .. . ...
ROW 8C : ... .. . ... : ... .. . ... : ... .. . ... : ... .. . ... : ... .. . ...
ROW 8D : ... .. . ... : ... .. . ... : ... .. . ... : ... .. . ... : ... .. . ...
ROW 8E : ... .. . ... : ... .. . ... : ... .. . ... : ... .. . ... : ... .. . ...
ROW 8F : ... .. . ... : ... .. . ... : ... .. . ... : ... .. . ... : ... .. . ...
ROW 90 : F-4 08 . 400 : G-2 0A . 400 : C-4 07 . ... : 0-# 04 . ... : F-5 00 . ...
ROW 91 : ... .. . ... : ... .. . ... : ... .. . ... : ... .. . ... : ... .. . ...
ROW 92 : ... .. . ... : ... .. . ... : ... .. . ... : ... .. . ... : ... .. . ...
ROW 93 : ... .. . ... : ... .. . ... : --- .. . ... : ... .. . ... : ... .. . ...
ROW 94 : ... .. . ... : ... .. . ... : ... .. . ... : ... .. . ... : ... .. . ...
ROW 95 : ... .. . ... : ... .. . ... : ... .. . ... : ... .. . ... : ... .. . ...
ROW 96 : ... .. . ... : ... .. . ... : C-4 07 . ... : ... .. . ... : ... .. . ...
ROW 97 : ... .. . ... : ... .. . ... : ... .. . ... : ... .. . ... : ... .. . ...
ROW 98 : ... .. . ... : ... .. . ... : ... .. . ... : ... .. . ... : ... .. . ...
ROW 99 : ... .. . ... : ... .. . ... : --- .. . ... : ... .. . ... : ... .. . ...
ROW 9A : ... .. . ... : ... .. . ... : ... .. . ... : ... .. . ... : ... .. . ...
ROW 9B : ... .. . ... : ... .. . ... : ... .. . ... : ... .. . ... : ... .. . ...
ROW 9C : ... .. . 452 : ... .. . 452 : C-4 07 . ... : ... .. . ... : ... .. . ...
ROW 9D : ... .. . ... : ... .. . ... : ... .. . ... : ... .. . ... : ... .. . ...
ROW 9E : ... .. . ... : ... .. . ... : ... .. . ... : ... .. . ... : ... .. . ...
ROW 9F : ... .. . ... : ... .. . ... : --- .. . ... : ... .. . ... : ... .. . ...
ROW A0 : ... .. . ... : ... .. . ... : ... .. . ... : ... .. . ... : ... .. . ...
ROW A1 : ... .. . ... : ... .. . ... : ... .. . ... : ... .. . ... : ... .. . ...
ROW A2 : ... .. . ... : ... .. . ... : ... .. . ... : 0-# 04 . ... : F-5 00 . ...
ROW A3 : ... .. . ... : ... .. . ... : ... .. . ... : ... .. . ... : ... .. . ...
ROW A4 : ... .. . ... : ... .. . ... : ... .. . ... : ... .. . ... : ... .. . ...
ROW A5 : ... .. . ... : ... .. . ... : ... .. . ... : ... .. . ... : ... .. . ...
ROW A6 : ... .. . ... : ... .. . ... : ... .. . ... : ... .. . ... : ... .. . ...
ROW A7 : ... .. . ... : ... .. . ... : ... .. . ... : ... .. . ... : ... .. . ...
ROW A8 : C-4 08 . 400 : ... .. . ... : G-4 07 . ... : ... .. . ... : ... .. . ...
ROW A9 : ... .. . ... : ... .. . ... : ... .. . ... : ... .. . ... : ... .. . ...
ROW AA : ... .. . ... : ... .. . ... : ... .. . ... : ... .. . ... : ... .. . ...
ROW AB : ... .. . ... : ... .. . ... : ... .. . ... : ... .. . ... : ... .. . ...
ROW AC : ... .. . ... : ... .. . ... : ... .. . ... : ... .. . ... : ... .. . ...
ROW AD : ... .. . ... : ... .. . ... : ... .. . ... : ... .. . ... : ... .. . ...
ROW AE : ... .. . ... : ... .. . ... : --- .. . ... : ... .. . ... : ... .. . ...
ROW AF : ... .. . ... : ... .. . ... : ... .. . ... : ... .. . ... : ... .. . ...
ROW B0 : ... .. . ... : ... .. . ... : ... .. . ... : ... .. . ... : ... .. . ...
ROW B1 : ... .. . ... : ... .. . ... : ... .. . ... : ... .. . ... : ... .. . ...
ROW B2 : ... .. . ... : ... .. . ... : ... .. . ... : ... .. . ... : ... .. . ...
ROW B3 : ... .. . ... : ... .. . ... : ... .. . ... : ... .. . ... : ... .. . ...
ROW B4 : ... .. . 452 : ... .. . ... : C-4 07 . ... : 0-# 04 . ... : F-5 00 . ...
ROW B5 : ... .. . ... : ... .. . ... : ... .. . ... : ... .. . ... : ... .. . ...
ROW B6 : ... .. . ... : ... .. . ... : ... .. . ... : ... .. . ... : ... .. . ...
ROW B7 : ... .. . ... : ... .. . ... : --- .. . ... : ... .. . ... : ... .. . ...
ROW B8 : ... .. . ... : ... .. . ... : ... .. . ... : ... .. . ... : ... .. . ...
ROW B9 : ... .. . ... : ... .. . ... : ... .. . ... : ... .. . ... : ... .. . ...
ROW BA : ... .. . ... : ... .. . ... : ... .. . ... : ... .. . ... : ... .. . ...
ROW BB : ... .. . ... : ... .. . ... : ... .. . ... : ... .. . ... : ... .. . ...
ROW BC : ... .. . ... : ... .. . ... : ... .. . ... : ... .. . ... : ... .. . ...
ROW BD : ... .. . ... : ... .. . ... : ... .. . ... : ... .. . ... : ... .. . ...
ROW BE : ... .. . ... : ... .. . ... : ... .. . ... : ... .. . ... : ... .. . ...
ROW BF : ... .. . ... : ... .. . ... : ... .. . ... : ... .. . ... : ... .. . ...
PATTERN 0C
ROW 00 : A#3 08 A 400 : G-2 0A . 400 : C-4 07 . ... : B-# 06 . ... : D#3 00 . ...
ROW 01 : ... .. . ... : ... .. . ... : ... .. . ... : ... .. . ... : ... .. . ...
ROW 02 : ... .. . ... : ... .. . ... : ... .. . ... : ... .. . ... : ... .. . ...
ROW 03 : ... .. . ... : ... .. . ... : --- .. . ... : ... .. . ... : ... .. . ...
ROW 04 : ... .. . ... : ... .. . ... : ... .. . ... : ... .. . ... : ... .. . ...
ROW 05 : ... .. . ... : ... .. . ... : ... .. . ... : ... .. . ... : ... .. . ...
ROW 06 : ... .. . ... : ... .. . ... : ... .. . ... : ... .. . ... : D#3 00 . ...
ROW 07 : ... .. . ... : ... .. . ... : ... .. . ... : ... .. . ... : ... .. . ...
ROW 08 : ... .. . ... : ... .. . ... : ... .. . ... : ... .. . ... : ... .. . ...
ROW 09 : ... .. . ... : ... .. . ... : ... .. . ... : ... .. . ... : ... .. . ...
ROW 0A : ... .. . ... : ... .. . ... : ... .. . ... : ... .. . ... : ... .. . ...
ROW 0B : ... .. . ... : ... .. . ... : ... .. . ... : ... .. . ... : ... .. . ...
ROW 0C : ... .. . 452 : ... .. . 452 : C-4 07 . ... : 0-# 03 . ... : D#4 00 . ...
ROW 0D : ... .. . ... : ... .. . ... : ... .. . ... : ... .. . ... : ... .. . ...
ROW 0E : ... .. . ... : ... .. . ... : ... .. . ... : ... .. . ... : ... .. . ...
ROW 0F : ... .. . ... : ... .. . ... : --- .. . ... : ... .. . ... : ... .. . ...
ROW 10 : ... .. . ... : ... .. . ... : ... .. . ... : ... .. . ... : ... .. . ...
ROW 11 : ... .. . ... : ... .. . ... : ... .. . ... : ... .. . ... : ... .. . ...
ROW 12 : ... .. . ... : ... .. . ... : ... .. . ... : ... .. . ... : ... .. . ...
ROW 13 : ... .. . ... : ... .. . ... : ... .. . ... : ... .. . ... : ... .. . ...
ROW 14 : ... .. . ... : ... .. . ... : ... .. . ... : ... .. . ... : ... .. . ...
ROW 15 : ... .. . ... : ... .. . ... : ... .. . ... : ... .. . ... : ... .. . ...
ROW 16 : ... .. . ... : ... .. . ... : ... .. . ... : ... .. . ... : ... .. . ...
ROW 17 : ... .. . ... : ... .. . ... : ... .. . ... : ... .. . ... : ... .. . ...
ROW 18 : ... .. 9 ... : ... .. . ... : G-4 07 . ... : 0-# 04 . ... : G-3 00 . ...
ROW 19 : ... .. . ... : ... .. . ... : ... .. . ... : ... .. . ... : ... .. . ...
ROW 1A : ... .. . ... : ... .. . ... : ... .. . ... : ... .. . ... : ... .. . ...
ROW 1B : ... .. . ... : ... .. . ... : ... .. . ... : ... .. . ... : ... .. . ...
ROW 1C : ... .. . ... : ... .. . ... : ... .. . ... : ... .. . ... : ... .. . ...
ROW 1D : ... .. . ... : ... .. . ... : ... .. . ... : ... .. . ... : ... .. . ...
ROW 1E : ... .. . ... : ... .. . ... : --- .. . ... : C-# 05 . ... : G-3 00 . ...
ROW 1F : ... .. . ... : ... .. . ... : ... .. . ... : ... .. . ... : ... .. . ...
ROW 20 : ... .. . ... : ... .. . ... : ... .. . ... : ... .. . ... : ... .. . ...
ROW 21 : ... .. . ... : ... .. . ... : ... .. . ... : ... .. . ... : ... .. . ...
ROW 22 : ... .. . ... : ... .. . ... : ... .. . ... : ... .. . ... : ... .. . ...
ROW 23 : ... .. . ... : ... .. . ... : ... .. . ... : ... .. . ... : ... .. . ...
ROW 24 : ... .. . ... : C-3 08 9 400 : ... .. . ... : C-# 05 . ... : G-4 00 . ...
ROW 25 : ... .. . ... : --- .. . ... : ... .. . ... : ... .. . ... : ... .. . ...
ROW 26 : ... .. . ... : ... .. . ... : ... .. . ... : ... .. . ... : ... .. . ...
ROW 27 : ... .. . ... : ... .. . ... : ... .. . ... : ... .. . ... : ... .. . ...
ROW 28 : ... .. . ... : ... .. . ... : ... .. . ... : ... .. . ... : ... .. . ...
ROW 29 : ... .. . ... : ... .. . ... : ... .. . ... : ... .. . ... : ... .. . ...
ROW 2A : ... .. . ... : G-2 08 . ... : ... .. . ... : C-# 05 . ... : ... .. . ...
ROW 2B : ... .. . ... : ... .. . ... : ... .. . ... : ... .. . ... : ... .. . ...
ROW 2C : ... .. . ... : ... .. . ... : ... .. . ... : ... .. . ... : ... .. . ...
ROW 2D : ... .. . ... : --- .. . ... : ... .. . ... : ... .. . ... : ... .. . ...
ROW 2E : ... .. . ... : ... .. . ... : ... .. . ... : ... .. . ... : ... .. . ...
ROW 2F : ... .. . ... : ... .. . ... : ... .. . ... : ... .. . ... : ... .. . ...
ROW 30 : ... .. 8 ... : A#2 08 . ... : C-4 07 . ... : 0-# 03 . ... : A#3 00 . ...
ROW 31 : ... .. . ... : ... .. . ... : ... .. . ... : ... .. . ... : ... .. . ...
ROW 32 : ... .. . ... : ... .. . ... : ... .. . ... : ... .. . ... : ... .. . ...
ROW 33 : ... .. . ... : C-3 08 . ... : --- .. . ... : ... .. . ... : ... .. . ...
ROW 34 : ... .. . ... : ... .. . ... : ... .. . ... : ... .. . ... : ... .. . ...
ROW 35 : ... .. . ... : ... .. . ... : ... .. . ... : ... .. . ... : ... .. . ...
ROW 36 : ... .. . ... : ... .. . ... : ... .. . ... : ... .. . ... : A#3 00 . ...
ROW 37 : ... .. . ... : ... .. . ... : ... .. . ... : ... .. . ... : ... .. . ...
ROW 38 : ... .. . ... : ... .. . ... : ... .. . ... : ... .. . ... : ... .. . ...
ROW 39 : ... .. . ... : --- .. . ... : ... .. . ... : ... .. . ... : ... .. . ...
ROW 3A : ... .. . ... : ... .. . ... : ... .. . ... : ... .. . ... : ... .. . ...
ROW 3B : ... .. . ... : ... .. . ... : ... .. . ... : ... .. . ... : ... .. . ...
ROW 3C : ... .. . ... : C-3 08 . ... : ... .. . ... : C-# 05 . ... : A#4 00 . ...
ROW 3D : ... .. . ... : --- .. . ... : ... .. . ... : ... .. . ... : ... .. . ...
ROW 3E : ... .. . ... : ... .. . ... : ... .. . ... : ... .. . ... : ... .. . ...
ROW 3F : ... .. . ... : ... .. . ... : ... .. . ... : ... .. . ... : ... .. . ...
ROW 40 : ... .. . ... : ... .. . ... : ... .. . ... : ... .. . ... : ... .. . ...
ROW 41 : ... .. . ... : ... .. . ... : ... .. . ... : ... .. . ... : ... .. . ...
ROW 42 : ... .. . ... : C-3 08 . ... : C-4 07 . ... : 0-# 03 . ... : ... .. . ...
ROW 43 : ... .. . ... : --- .. . ... : ... .. . ... : ... .. . ... : ... .. . ...
ROW 44 : ... .. . ... : ... .. . ... : ... .. . ... : ... .. . ... : ... .. . ...
ROW 45 : ... .. . ... : ... .. . ... : --- .. . ... : ... .. . ... : ... .. . ...
ROW 46 : ... .. . ... : ... .. . ... : ... .. . ... : ... .. . ... : ... .. . ...
ROW 47 : ... .. . ... : ... .. . ... : ... .. . ... : ... .. . ... : ... .. . ...
ROW 48 : G-3 08 A 400 : C-3 08 . ... : G-4 07 . ... : 0-# 04 . ... : D#4 00 . ...
ROW 49 : ... .. . ... : ... .. . ... : ... .. . ... : ... .. . ... : ... .. . ...
ROW 4A : ... .. . ... : ... .. . ... : ... .. . ... : ... .. . ... : ... .. . ...
ROW 4B : ... .. . ... : --- .. . ... : ... .. . ... : ... .. . ... : ... .. . ...
ROW 4C : ... .. . ... : ... .. . ... : ... .. . ... : ... .. . ... : ... .. . ...
ROW 4D : ... .. . ... : ... .. . ... : ... .. . ... : ... .. . ... : ... .. . ...
ROW 4E : ... .. . ... : C-3 08 . ... : --- .. . ... : E-# 05 . ... : D#4 00 . ...
ROW 4F : ... .. . ... : --- .. . ... : ... .. . ... : ... .. . ... : ... .. . ...
ROW 50 : ... .. . ... : ... .. . ... : ... .. . ... : ... .. . ... : ... .. . ...
ROW 51 : ... .. . ... : ... .. . ... : ... .. . ... : ... .. . ... : ... .. . ...
ROW 52 : ... .. . ... : ... .. . ... : ... .. . ... : ... .. . ... : ... .. . ...
ROW 53 : ... .. . ... : ... .. . ... : ... .. . ... : ... .. . ... : ... .. . ...
ROW 54 : ... .. . 452 : C-3 08 . ... : C-4 07 . ... : 0-# 03 . ... : D#3 00 . ...
ROW 55 : ... .. . ... : --- .. . ... : ... .. . ... : ... .. . ... : ... .. . ...
ROW 56 : ... .. . ... : ... .. . ... : ... .. . ... : ... .. . ... : ... .. . ...
ROW 57 : ... .. . ... : ... .. . ... : --- .. . ... : ... .. . ... : ... .. . ...
ROW 58 : ... .. . ... : ... .. . ... : ... .. . ... : ... .. . ... : ... .. . ...
ROW 59 : ... .. . ... : ... .. . ... : ... .. . ... : ... .. . ... : ... .. . ...
ROW 5A : ... .. . ... : A#2 08 . ... : ... .. . ... : C-# 05 . ... : D#3 00 . ...
ROW 5B : ... .. . ... : ... .. . ... : ... .. . ... : ... .. . ... : ... .. . ...
ROW 5C : ... .. . ... : ... .. . ... : ... .. . ... : ... .. . ... : ... .. . ...
ROW 5D : ... .. . ... : --- .. . ... : ... .. . ... : ... .. . ... : ... .. . ...
ROW 5E : ... .. . ... : ... .. . ... : ... .. . ... : ... .. . ... : ... .. . ...
ROW 5F : ... .. . ... : ... .. . ... : ... .. . ... : ... .. . ... : ... .. . ...
ROW 60 : B-3 08 . 400 : A#2 08 . ... : ... .. . ... : C-# 05 . ... : F-3 00 . ...
ROW 61 : ... .. . ... : ... .. . ... : ... .. . ... : ... .. . ... : ... .. . ...
ROW 62 : ... .. . ... : ... .. . ... : ... .. . ... : ... .. . ... : ... .. . ...
ROW 63 : ... .. . ... : C-3 08 . ... : ... .. . ... : ... .. . ... : ... .. . ...
ROW 64 : ... .. . ... : ... .. . ... : ... .. . ... : ... .. . ... : ... .. . ...
ROW 65 : ... .. . ... : ... .. . ... : ... .. . ... : ... .. . ... : ... .. . ...
ROW 66 : ... .. . ... : ... .. . ... : ... .. . ... : ... .. . ... : F-3 00 . ...
ROW 67 : ... .. . ... : ... .. . ... : ... .. . ... : ... .. . ... : ... .. . ...
ROW 68 : ... .. . ... : ... .. . ... : ... .. . ... : ... .. . ... : ... .. . ...
ROW 69 : ... .. . ... : --- .. . ... : ... .. . ... : ... .. . ... : ... .. . ...
ROW 6A : ... .. . ... : ... .. . ... : ... .. . ... : ... .. . ... : ... .. . ...
ROW 6B : ... .. . ... : ... .. . ... : ... .. . ... : ... .. . ... : ... .. . ...
ROW 6C : ... .. . 452 : C-3 08 . ... : C-4 07 . ... : 0-# 03 . ... : F-4 00 . ...
ROW 6D : ... .. . ... : --- .. . ... : ... .. . ... : ... .. . ... : ... .. . ...
ROW 6E : ... .. . ... : ... .. . ... : ... .. . ... : ... .. . ... : ... .. . ...
ROW 6F : ... .. . ... : ... .. . ... : --- .. . ... : ... .. . ... : ... .. . ...
ROW 70 : ... .. . ... : ... .. . ... : ... .. . ... : ... .. . ... : ... .. . ...
ROW 71 : ... .. . ... : ... .. . ... : ... .. . ... : ... .. . ... : ... .. . ...
ROW 72 : ... .. . ... : C-3 08 . ... : ... .. . ... : ... .. . ... : ... .. . ...
ROW 73 : ... .. . ... : --- .. . ... : ... .. . ... : ... .. . ... : ... .. . ...
ROW 74 : ... .. . ... : ... .. . ... : ... .. . ... : ... .. . ... : ... .. . ...
ROW 75 : ... .. . ... : ... .. . ... : ... .. . ... : ... .. . ... : ... .. . ...
ROW 76 : ... .. . ... : ... .. . ... : ... .. . ... : ... .. . ... : ... .. . ...
ROW 77 : ... .. . ... : ... .. . ... : ... .. . ... : ... .. . ... : ... .. . ...
ROW 78 : ... .. 9 ... : D#3 08 . ... : G-4 07 . ... : 0-# 04 . ... : A-3 00 . ...
ROW 79 : ... .. . ... : ... .. . ... : ... .. . ... : ... .. . ... : ... .. . ...
ROW 7A : ... .. . ... : ... .. . ... : ... .. . ... : ... .. . ... : ... .. . ...
ROW 7B : ... .. . ... : ... .. . ... : ... .. . ... : ... .. . ... : ... .. . ...
ROW 7C : ... .. . ... : ... .. . ... : ... .. . ... : ... .. . ... : ... .. . ...
ROW 7D : ... .. . ... : --- .. . ... : ... .. . ... : ... .. . ... : ... .. . ...
ROW 7E : ... .. . ... : C-3 08 . ... : --- .. . ... : C-# 05 . ... : A-3 00 . ...
ROW 7F : ... .. . ... : --- .. . ... : ... .. . ... : ... .. . ... : ... .. . ...
ROW 80 : ... .. . ... : ... .. . ... : ... .. . ... : ... .. . ... : ... .. . ...
ROW 81 : ... .. . ... : ... .. . ... : ... .. . ... : ... .. . ... : ... .. . ...
ROW 82 : ... .. . ... : ... .. . ... : ... .. . ... : ... .. . ... : ... .. . ...
ROW 83 : ... .. . ... : ... .. . ... : ... .. . ... : ... .. . ... : ... .. . ...
ROW 84 : ... .. . ... : C-3 08 . ... : ... .. . ... : 0-# 03 . ... : A-4 00 . ...
ROW 85 : ... .. . ... : --- .. . ... : ... .. . ... : ... .. . ... : ... .. . ...
ROW 86 : ... .. . ... : ... .. . ... : ... .. . ... : ... .. . ... : ... .. . ...
ROW 87 : ... .. . ... : ... .. . ... : ... .. . ... : ... .. . ... : ... .. . ...
ROW 88 : ... .. . ... : ... .. . ... : ... .. . ... : ... .. . ... : ... .. . ...
ROW 89 : ... .. . ... : ... .. . ... : ... .. . ... : ... .. . ... : ... .. . ...
ROW 8A : ... .. . ... : C-3 08 . ... : ... .. . ... : C-# 05 . ... : ... .. . ...
ROW 8B : ... .. . ... : ... .. . ... : ... .. . ... : ... .. . ... : ... .. . ...
ROW 8C : ... .. . ... : ... .. . ... : ... .. . ... : ... .. . ... : ... .. . ...
ROW 8D : ... .. . ... : D-3 08 . ... : ... .. . ... : ... .. . ... : ... .. . ...
ROW 8E : ... .. . ... : ... .. . ... : ... .. . ... : ... .. . ... : ... .. . ...
ROW 8F : ... .. . ... : ... .. . ... : ... .. . ... : ... .. . ... : ... .. . ...
ROW 90 : B-3 08 A 400 : ... .. . ... : C-4 07 . ... : 0-# 03 . ... : C-4 00 . ...
ROW 91 : ... .. . ... : ... .. . ... : ... .. . ... : ... .. . ... : ... .. . ...
ROW 92 : ... .. . ... : ... .. . ... : ... .. . ... : ... .. . ... : ... .. . ...
ROW 93 : ... .. . ... : --- .. . ... : --- .. . ... : ... .. . ... : ... .. . ...
ROW 94 : ... .. . ... : ... .. . ... : ... .. . ... : ... .. . ... : ... .. . ...
ROW 95 : ... .. . ... : ... .. . ... : ... .. . ... : ... .. . ... : ... .. . ...
ROW 96 : ... .. . ... : A#2 08 . ... : C-4 07 . ... : 0-# 03 . ... : C-4 00 . ...
ROW 97 : ... .. . ... : ... .. . ... : ... .. . ... : ... .. . ... : ... .. . ...
ROW 98 : ... .. . ... : ... .. . ... : ... .. . ... : ... .. . ... : ... .. . ...
ROW 99 : ... .. . ... : --- .. . ... : --- .. . ... : ... .. . ... : ... .. . ...
ROW 9A : ... .. . ... : ... .. . ... : ... .. . ... : ... .. . ... : ... .. . ...
ROW 9B : ... .. . ... : ... .. . ... : ... .. . ... : ... .. . ... : ... .. . ...
ROW 9C : === .. . 452 : A#2 08 . ... : C-4 07 . ... : 0-# 03 . ... : C-5 00 . ...
ROW 9D : ... .. . ... : --- .. . ... : ... .. . ... : ... .. . ... : ... .. . ...
ROW 9E : ... .. . ... : ... .. . ... : ... .. . ... : ... .. . ... : ... .. . ...
ROW 9F : ... .. . ... : ... .. . ... : --- .. . ... : ... .. . ... : ... .. . ...
ROW A0 : ... .. . ... : ... .. . ... : ... .. . ... : ... .. . ... : ... .. . ...
ROW A1 : ... .. . ... : ... .. . ... : ... .. . ... : ... .. . ... : ... .. . ...
ROW A2 : C-4 08 . 400 : A#2 08 . ... : ... .. . ... : C-# 05 . ... : ... .. . ...
ROW A3 : ... .. . ... : ... .. . ... : ... .. . ... : ... .. . ... : ... .. . ...
ROW A4 : ... .. . ... : ... .. . ... : ... .. . ... : ... .. . ... : ... .. . ...
ROW A5 : ... .. . ... : C-3 08 . ... : ... .. . ... : ... .. . ... : ... .. . ...
ROW A6 : ... .. . ... : ... .. . ... : ... .. . ... : ... .. . ... : ... .. . ...
ROW A7 : ... .. . ... : ... .. . ... : ... .. . ... : ... .. . ... : ... .. . ...
ROW A8 : ... .. . ... : ... .. . ... : G-4 07 . ... : 0-# 04 . ... : A-4 00 . ...
ROW A9 : ... .. . ... : ... .. . ... : ... .. . ... : ... .. . ... : ... .. . ...
ROW AA : ... .. . ... : ... .. . ... : ... .. . ... : ... .. . ... : ... .. . ...
ROW AB : ... .. . ... : --- .. . ... : ... .. . ... : ... .. . ... : ... .. . ...
ROW AC : ... .. . ... : ... .. . ... : ... .. . ... : ... .. . ... : ... .. . ...
ROW AD : ... .. . ... : ... .. . ... : ... .. . ... : ... .. . ... : ... .. . ...
ROW AE : === .. . 452 : G-2 08 . ... : --- .. . ... : ... .. . ... : A-4 00 . ...
ROW AF : ... .. . ... : --- .. . ... : ... .. . ... : ... .. . ... : ... .. . ...
ROW B0 : ... .. . ... : ... .. . ... : ... .. . ... : ... .. . ... : ... .. . ...
ROW B1 : ... .. . ... : ... .. . ... : ... .. . ... : ... .. . ... : ... .. . ...
ROW B2 : ... .. . ... : ... .. . ... : ... .. . ... : ... .. . ... : ... .. . ...
ROW B3 : ... .. . ... : ... .. . ... : ... .. . ... : ... .. . ... : ... .. . ...
ROW B4 : D-4 08 . 400 : F-2 08 . ... : C-4 07 . ... : 0-# 03 . ... : A-3 00 . ...
ROW B5 : ... .. . ... : --- .. . ... : ... .. . ... : ... .. . ... : ... .. . ...
ROW B6 : ... .. . ... : ... .. . ... : ... .. . ... : ... .. . ... : ... .. . ...
ROW B7 : ... .. . ... : ... .. . ... : --- .. . ... : ... .. . ... : ... .. . ...
ROW B8 : ... .. . ... : ... .. . ... : ... .. . ... : ... .. . ... : ... .. . ...
ROW B9 : ... .. . ... : ... .. . ... : ... .. . ... : ... .. . ... : ... .. . ...
ROW BA : === .. . ... : G-2 08 . ... : ... .. . ... : C-# 05 . ... : A-3 00 . ...
ROW BB : ... .. . ... : --- .. . ... : ... .. . ... : ... .. . ... : ... .. . ...
ROW BC : ... .. . ... : ... .. . ... : ... .. . ... : ... .. . ... : ... .. . ...
ROW BD : ... .. . ... : ... .. . ... : ... .. . ... : ... .. . ... : ... .. . ...
ROW BE : ... .. . ... : ... .. . ... : ... .. . ... : ... .. . ... : ... .. . ...
ROW BF : ... .. . ... : ... .. . ... : ... .. . ... : ... .. . ... : ... .. . ...
PATTERN 0D
ROW 00 : A#4 08 A 400 : G-2 08 9 V00 : C-4 07 . ... : 0-# 03 . ... : D-3 00 . ...
ROW 01 : ... .. . ... : ... .. . ... : ... .. . ... : ... .. . ... : ... .. . ...
ROW 02 : ... .. . ... : ... .. . ... : ... .. . ... : ... .. . ... : ... .. . ...
ROW 03 : ... .. . ... : A#2 08 . ... : --- .. . ... : ... .. . ... : ... .. . ...
ROW 04 : ... .. . ... : ... .. . ... : ... .. . ... : ... .. . ... : ... .. . ...
ROW 05 : ... .. . ... : ... .. . ... : ... .. . ... : ... .. . ... : ... .. . ...
ROW 06 : ... .. . ... : ... .. . ... : ... .. . ... : ... .. . ... : D-3 00 . ...
ROW 07 : ... .. . ... : ... .. . ... : ... .. . ... : ... .. . ... : ... .. . ...
ROW 08 : ... .. . ... : ... .. . ... : ... .. . ... : ... .. . ... : ... .. . ...
ROW 09 : ... .. . ... : --- .. . ... : ... .. . ... : ... .. . ... : ... .. . ...
ROW 0A : ... .. . ... : ... .. . ... : ... .. . ... : ... .. . ... : ... .. . ...
ROW 0B : ... .. . ... : ... .. . ... : ... .. . ... : ... .. . ... : ... .. . ...
ROW 0C : ... .. . 452 : G-2 08 . ... : C-4 07 . ... : 0-# 03 . ... : D-4 00 . ...
ROW 0D : ... .. . ... : --- .. . ... : ... .. . ... : ... .. . ... : ... .. . ...
ROW 0E : ... .. . ... : ... .. . ... : ... .. . ... : ... .. . ... : ... .. . ...
ROW 0F : ... .. . ... : ... .. . ... : --- .. . ... : ... .. . ... : ... .. . ...
ROW 10 : ... .. . ... : ... .. . ... : ... .. . ... : ... .. . ... : ... .. . ...
ROW 11 : ... .. . ... : ... .. . ... : ... .. . ... : ... .. . ... : ... .. . ...
ROW 12 : ... .. . ... : G-2 08 . ... : ... .. . ... : ... .. . ... : ... .. . ...
ROW 13 : ... .. . ... : --- .. . ... : ... .. . ... : ... .. . ... : ... .. . ...
ROW 14 : ... .. . ... : ... .. . ... : ... .. . ... : ... .. . ... : ... .. . ...
ROW 15 : ... .. . ... : ... .. . ... : ... .. . ... : ... .. . ... : ... .. . ...
ROW 16 : ... .. . ... : ... .. . ... : ... .. . ... : ... .. . ... : ... .. . ...
ROW 17 : ... .. . ... : ... .. . ... : ... .. . ... : ... .. . ... : ... .. . ...
ROW 18 : ... .. 9 ... : G-2 08 . ... : G-4 07 . ... : 0-# 04 . ... : F#3 00 . ...
ROW 19 : ... .. . ... : ... .. . ... : ... .. . ... : ... .. . ... : ... .. . ...
ROW 1A : ... .. . ... : ... .. . ... : ... .. . ... : ... .. . ... : ... .. . ...
ROW 1B : ... .. . ... : A#2 08 . ... : ... .. . ... : ... .. . ... : ... .. . ...
ROW 1C : ... .. . ... : ... .. . ... : ... .. . ... : ... .. . ... : ... .. . ...
ROW 1D : ... .. . ... : ... .. . ... : ... .. . ... : ... .. . ... : ... .. . ...
ROW 1E : ... .. . ... : ... .. . ... : --- .. . ... : C-# 05 . ... : F#3 00 . ...
ROW 1F : ... .. . ... : ... .. . ... : ... .. . ... : ... .. . ... : ... .. . ...
ROW 20 : ... .. . ... : ... .. . ... : ... .. . ... : ... .. . ... : ... .. . ...
ROW 21 : ... .. . ... : --- .. . ... : ... .. . ... : ... .. . ... : ... .. . ...
ROW 22 : ... .. . ... : ... .. . ... : ... .. . ... : ... .. . ... : ... .. . ...
ROW 23 : ... .. . ... : ... .. . ... : ... .. . ... : ... .. . ... : ... .. . ...
ROW 24 : ... .. . ... : G-2 08 . ... : ... .. . ... : C-# 05 . ... : F#4 00 . ...
ROW 25 : ... .. . ... : --- .. . ... : ... .. . ... : ... .. . ... : ... .. . ...
ROW 26 : ... .. . ... : ... .. . ... : ... .. . ... : ... .. . ... : ... .. . ...
ROW 27 : ... .. . ... : ... .. . ... : ... .. . ... : ... .. . ... : ... .. . ...
ROW 28 : ... .. . ... : ... .. . ... : ... .. . ... : ... .. . ... : ... .. . ...
ROW 29 : ... .. . ... : ... .. . ... : ... .. . ... : ... .. . ... : ... .. . ...
ROW 2A : ... .. . ... : G-2 08 . ... : ... .. . ... : C-# 05 . ... : ... .. . ...
ROW 2B : ... .. . ... : ... .. . ... : ... .. . ... : ... .. . ... : ... .. . ...
ROW 2C : ... .. . ... : ... .. . ... : ... .. . ... : ... .. . ... : ... .. . ...
ROW 2D : ... .. . ... : --- .. . ... : ... .. . ... : ... .. . ... : ... .. . ...
ROW 2E : ... .. . ... : ... .. . ... : ... .. . ... : ... .. . ... : ... .. . ...
ROW 2F : ... .. . ... : ... .. . ... : ... .. . ... : ... .. . ... : ... .. . ...
ROW 30 : G-4 08 A 400 : G-2 08 . ... : C-4 07 . ... : 0-# 03 . ... : A-3 00 . ...
ROW 31 : ... .. . ... : ... .. . ... : ... .. . ... : ... .. . ... : ... .. . ...
ROW 32 : ... .. . ... : ... .. . ... : ... .. . ... : ... .. . ... : ... .. . ...
ROW 33 : ... .. . ... : A#2 08 . ... : --- .. . ... : ... .. . ... : ... .. . ...
ROW 34 : ... .. . ... : ... .. . ... : ... .. . ... : ... .. . ... : ... .. . ...
ROW 35 : ... .. . ... : ... .. . ... : ... .. . ... : ... .. . ... : ... .. . ...
ROW 36 : ... .. . ... : ... .. . ... : ... .. . ... : C-# 05 . ... : A-3 00 . ...
ROW 37 : ... .. . ... : ... .. . ... : ... .. . ... : ... .. . ... : ... .. . ...
ROW 38 : ... .. . ... : ... .. . ... : ... .. . ... : ... .. . ... : ... .. . ...
ROW 39 : ... .. . ... : --- .. . ... : ... .. . ... : ... .. . ... : ... .. . ...
ROW 3A : ... .. . ... : ... .. . ... : ... .. . ... : ... .. . ... : ... .. . ...
ROW 3B : ... .. . ... : ... .. . ... : ... .. . ... : ... .. . ... : ... .. . ...
ROW 3C : ... .. . 452 : G-2 08 . ... : ... .. . ... : C-# 05 . ... : A-4 00 . ...
ROW 3D : ... .. . ... : --- .. . ... : ... .. . ... : ... .. . ... : ... .. . ...
ROW 3E : ... .. . ... : ... .. . ... : ... .. . ... : ... .. . ... : ... .. . ...
ROW 3F : ... .. . ... : ... .. . ... : ... .. . ... : ... .. . ... : ... .. . ...
ROW 40 : ... .. . ... : ... .. . ... : ... .. . ... : ... .. . ... : ... .. . ...
ROW 41 : ... .. . ... : ... .. . ... : ... .. . ... : ... .. . ... : ... .. . ...
ROW 42 : ... .. . ... : G-2 08 . ... : C-4 07 . ... : 0-# 03 . ... : ... .. . ...
ROW 43 : ... .. . ... : --- .. . ... : ... .. . ... : ... .. . ... : ... .. . ...
ROW 44 : ... .. . ... : ... .. . ... : ... .. . ... : ... .. . ... : ... .. . ...
ROW 45 : ... .. . 400 : ... .. . ... : --- .. . ... : ... .. . ... : ... .. . ...
ROW 46 : ... .. . ... : ... .. . ... : ... .. . ... : ... .. . ... : ... .. . ...
ROW 47 : ... .. . ... : ... .. . ... : ... .. . ... : ... .. . ... : ... .. . ...
ROW 48 : C-5 08 . Q32 : A#2 08 . ... : G-4 07 . ... : 0-# 04 . ... : F#4 00 . ...
ROW 49 : ... .. . ... : ... .. . ... : ... .. . ... : ... .. . ... : ... .. . ...
ROW 4A : ... .. . ... : ... .. . ... : ... .. . ... : ... .. . ... : ... .. . ...
ROW 4B : ... .. . ... : --- .. . ... : ... .. . ... : ... .. . ... : ... .. . ...
ROW 4C : ... .. . ... : ... .. . ... : ... .. . ... : ... .. . ... : ... .. . ...
ROW 4D : ... .. . ... : ... .. . ... : ... .. . ... : ... .. . ... : ... .. . ...
ROW 4E : ... .. . ... : G-2 08 . ... : --- .. . ... : ... .. . ... : F#4 00 . ...
ROW 4F : ... .. . ... : --- .. . ... : ... .. . ... : ... .. . ... : ... .. . ...
ROW 50 : ... .. . ... : ... .. . ... : ... .. . ... : ... .. . ... : ... .. . ...
ROW 51 : ... .. . ... : ... .. . ... : ... .. . ... : ... .. . ... : ... .. . ...
ROW 52 : ... .. . ... : ... .. . ... : ... .. . ... : ... .. . ... : ... .. . ...
ROW 53 : ... .. . ... : ... .. . ... : ... .. . ... : ... .. . ... : ... .. . ...
ROW 54 : ... .. . 452 : G-2 08 . ... : C-4 07 . ... : 0-# 03 . ... : F#3 00 . ...
ROW 55 : ... .. . ... : --- .. . ... : ... .. . ... : ... .. . ... : ... .. . ...
ROW 56 : ... .. . ... : ... .. . ... : ... .. . ... : ... .. . ... : ... .. . ...
ROW 57 : ... .. . ... : ... .. . ... : --- .. . ... : ... .. . ... : ... .. . ...
ROW 58 : ... .. . ... : ... .. . ... : ... .. . ... : ... .. . ... : ... .. . ...
ROW 59 : ... .. . ... : ... .. . ... : ... .. . ... : ... .. . ... : ... .. . ...
ROW 5A : ... .. . ... : G-2 08 . ... : ... .. . ... : C-# 05 . ... : F#3 00 . ...
ROW 5B : ... .. . ... : ... .. . ... : ... .. . ... : ... .. . ... : ... .. . ...
ROW 5C : ... .. . ... : ... .. . ... : ... .. . ... : ... .. . ... : ... .. . ...
ROW 5D : ... .. . ... : --- .. . ... : ... .. . ... : ... .. . ... : ... .. . ...
ROW 5E : ... .. . ... : ... .. . ... : ... .. . ... : ... .. . ... : ... .. . ...
ROW 5F : ... .. . ... : ... .. . ... : ... .. . ... : ... .. . ... : ... .. . ...
ROW 60 : C-5 08 . 400 : A#2 08 . ... : ... .. . ... : C-# 05 . ... : G-3 00 . ...
ROW 61 : ... .. . ... : ... .. . ... : ... .. . ... : ... .. . ... : ... .. . ...
ROW 62 : ... .. . ... : ... .. . ... : ... .. . ... : ... .. . ... : ... .. . ...
ROW 63 : ... .. . ... : C-3 08 . ... : ... .. . ... : ... .. . ... : ... .. . ...
ROW 64 : ... .. . ... : ... .. . ... : ... .. . ... : ... .. . ... : ... .. . ...
ROW 65 : ... .. . ... : ... .. . ... : ... .. . ... : ... .. . ... : ... .. . ...
ROW 66 : ... .. . ... : ... .. . ... : ... .. . ... : ... .. . ... : G-3 00 . ...
ROW 67 : ... .. . ... : ... .. . ... : ... .. . ... : ... .. . ... : ... .. . ...
ROW 68 : ... .. . ... : ... .. . ... : ... .. . ... : ... .. . ... : ... .. . ...
ROW 69 : ... .. . ... : --- .. . ... : ... .. . ... : ... .. . ... : ... .. . ...
ROW 6A : ... .. . ... : ... .. . ... : ... .. . ... : ... .. . ... : ... .. . ...
ROW 6B : ... .. . ... : ... .. . ... : ... .. . ... : ... .. . ... : ... .. . ...
ROW 6C : ... .. . 452 : C-3 08 . ... : C-4 07 . ... : 0-# 03 . ... : G-4 00 . ...
ROW 6D : ... .. . ... : --- .. . ... : ... .. . ... : ... .. . ... : ... .. . ...
ROW 6E : ... .. . ... : ... .. . ... : ... .. . ... : ... .. . ... : ... .. . ...
ROW 6F : ... .. . ... : ... .. . ... : --- .. . ... : ... .. . ... : ... .. . ...
ROW 70 : ... .. . ... : ... .. . ... : ... .. . ... : ... .. . ... : ... .. . ...
ROW 71 : ... .. . ... : ... .. . ... : ... .. . ... : ... .. . ... : ... .. . ...
ROW 72 : ... .. . ... : C-3 08 . ... : ... .. . ... : ... .. . ... : ... .. . ...
ROW 73 : ... .. . ... : --- .. . ... : ... .. . ... : ... .. . ... : ... .. . ...
ROW 74 : ... .. . ... : ... .. . ... : ... .. . ... : ... .. . ... : ... .. . ...
ROW 75 : ... .. . ... : ... .. . ... : ... .. . ... : ... .. . ... : ... .. . ...
ROW 76 : ... .. . ... : ... .. . ... : ... .. . ... : ... .. . ... : ... .. . ...
ROW 77 : ... .. . ... : ... .. . ... : ... .. . ... : ... .. . ... : ... .. . ...
ROW 78 : A#4 08 . 400 : D#3 08 . ... : G-4 07 . ... : 0-# 04 . ... : A#3 00 . ...
ROW 79 : ... .. . ... : ... .. . ... : ... .. . ... : ... .. . ... : ... .. . ...
ROW 7A : ... .. . ... : ... .. . ... : ... .. . ... : ... .. . ... : ... .. . ...
ROW 7B : ... .. . ... : ... .. . ... : ... .. . ... : ... .. . ... : ... .. . ...
ROW 7C : ... .. . ... : ... .. . ... : ... .. . ... : ... .. . ... : ... .. . ...
ROW 7D : ... .. . ... : --- .. . ... : ... .. . ... : ... .. . ... : ... .. . ...
ROW 7E : ... .. . ... : C-3 08 . ... : --- .. . ... : C-# 05 . ... : A#3 00 . ...
ROW 7F : ... .. . ... : --- .. . ... : ... .. . ... : ... .. . ... : ... .. . ...
ROW 80 : ... .. . ... : ... .. . ... : ... .. . ... : ... .. . ... : ... .. . ...
ROW 81 : ... .. . ... : ... .. . ... : ... .. . ... : ... .. . ... : ... .. . ...
ROW 82 : ... .. . ... : ... .. . ... : ... .. . ... : ... .. . ... : ... .. . ...
ROW 83 : ... .. . ... : ... .. . ... : ... .. . ... : ... .. . ... : ... .. . ...
ROW 84 : ... .. . 452 : C-3 08 . ... : ... .. . ... : C-# 05 . ... : A#4 00 . ...
ROW 85 : ... .. . ... : --- .. . ... : ... .. . ... : ... .. . ... : ... .. . ...
ROW 86 : ... .. . ... : ... .. . ... : ... .. . ... : ... .. . ... : ... .. . ...
ROW 87 : ... .. . ... : ... .. . ... : ... .. . ... : ... .. . ... : ... .. . ...
ROW 88 : ... .. . ... : ... .. . ... : ... .. . ... : ... .. . ... : ... .. . ...
ROW 89 : ... .. . ... : ... .. . ... : ... .. . ... : ... .. . ... : ... .. . ...
ROW 8A : ... .. . ... : C-3 08 . ... : ... .. . ... : C-# 05 . ... : ... .. . ...
ROW 8B : ... .. . ... : ... .. . ... : ... .. . ... : ... .. . ... : ... .. . ...
ROW 8C : ... .. . ... : ... .. . ... : ... .. . ... : ... .. . ... : ... .. . ...
ROW 8D : ... .. . ... : D-3 08 . ... : ... .. . ... : ... .. . ... : ... .. . ...
ROW 8E : ... .. . ... : ... .. . ... : ... .. . ... : ... .. . ... : ... .. . ...
ROW 8F : ... .. . ... : ... .. . ... : ... .. . ... : ... .. . ... : ... .. . ...
ROW 90 : A-4 08 . 400 : ... .. . ... : C-4 07 . ... : 0-# 03 . ... : D-4 00 . ...
ROW 91 : ... .. . ... : ... .. . ... : ... .. . ... : ... .. . ... : ... .. . ...
ROW 92 : ... .. . ... : ... .. . ... : ... .. . ... : ... .. . ... : ... .. . ...
ROW 93 : ... .. . ... : --- .. . ... : --- .. . ... : ... .. . ... : ... .. . ...
ROW 94 : ... .. . ... : ... .. . ... : ... .. . ... : ... .. . ... : ... .. . ...
ROW 95 : ... .. . ... : ... .. . ... : ... .. . ... : ... .. . ... : ... .. . ...
ROW 96 : ... .. . ... : A#2 08 . ... : C-4 07 . ... : 0-# 03 . ... : D-4 00 . ...
ROW 97 : ... .. . ... : ... .. . ... : ... .. . ... : ... .. . ... : ... .. . ...
ROW 98 : ... .. . ... : ... .. . ... : ... .. . ... : ... .. . ... : ... .. . ...
ROW 99 : ... .. . ... : --- .. . ... : --- .. . ... : C-# 05 . ... : ... .. . ...
ROW 9A : ... .. . ... : ... .. . ... : ... .. . ... : ... .. . ... : ... .. . ...
ROW 9B : ... .. . ... : ... .. . ... : ... .. . ... : ... .. . ... : ... .. . ...
ROW 9C : ... .. . 452 : A#2 08 . ... : C-4 07 . ... : 0-# 03 . ... : D-5 00 . ...
ROW 9D : ... .. . ... : --- .. . ... : ... .. . ... : ... .. . ... : ... .. . ...
ROW 9E : ... .. . ... : ... .. . ... : ... .. . ... : ... .. . ... : ... .. . ...
ROW 9F : ... .. . ... : ... .. . ... : --- .. . ... : ... .. . ... : ... .. . ...
ROW A0 : ... .. . ... : ... .. . ... : ... .. . ... : ... .. . ... : ... .. . ...
ROW A1 : ... .. . ... : ... .. . ... : ... .. . ... : ... .. . ... : ... .. . ...
ROW A2 : ... .. . ... : A#2 08 . ... : ... .. . ... : C-# 05 . ... : ... .. . ...
ROW A3 : ... .. . ... : ... .. . ... : ... .. . ... : ... .. . ... : ... .. . ...
ROW A4 : ... .. . ... : ... .. . ... : ... .. . ... : ... .. . ... : ... .. . ...
ROW A5 : ... .. . ... : C-3 08 . ... : ... .. . ... : ... .. . ... : ... .. . ...
ROW A6 : ... .. . ... : ... .. . ... : ... .. . ... : ... .. . ... : ... .. . ...
ROW A7 : ... .. . ... : ... .. . ... : ... .. . ... : ... .. . ... : ... .. . ...
ROW A8 : G-4 08 . 400 : ... .. . ... : G-4 07 . ... : 0-# 04 . ... : G-4 00 . ...
ROW A9 : ... .. . ... : ... .. . ... : ... .. . ... : ... .. . ... : ... .. . ...
ROW AA : ... .. . ... : ... .. . ... : ... .. . ... : ... .. . ... : ... .. . ...
ROW AB : ... .. . ... : --- .. . ... : ... .. . ... : ... .. . ... : ... .. . ...
ROW AC : ... .. . ... : ... .. . ... : ... .. . ... : ... .. . ... : ... .. . ...
ROW AD : ... .. . ... : ... .. . ... : ... .. . ... : ... .. . ... : ... .. . ...
ROW AE : ... .. . ... : G-2 08 . ... : --- .. . ... : ... .. . ... : G-4 00 . ...
ROW AF : ... .. . ... : --- .. . ... : ... .. . ... : ... .. . ... : ... .. . ...
ROW B0 : ... .. . ... : ... .. . ... : ... .. . ... : ... .. . ... : ... .. . ...
ROW B1 : ... .. . ... : ... .. . ... : ... .. . ... : ... .. . ... : ... .. . ...
ROW B2 : ... .. . ... : ... .. . ... : ... .. . ... : ... .. . ... : ... .. . ...
ROW B3 : ... .. . ... : ... .. . ... : ... .. . ... : ... .. . ... : ... .. . ...
ROW B4 : ... .. . 452 : F-2 08 . ... : C-4 07 . ... : 0-# 03 . ... : G-3 00 . ...
ROW B5 : ... .. . ... : --- .. . ... : ... .. . ... : ... .. . ... : ... .. . ...
ROW B6 : ... .. . ... : ... .. . ... : ... .. . ... : ... .. . ... : ... .. . ...
ROW B7 : ... .. . ... : ... .. . ... : --- .. . ... : ... .. . ... : ... .. . ...
ROW B8 : ... .. . ... : ... .. . ... : ... .. . ... : ... .. . ... : ... .. . ...
ROW B9 : ... .. . ... : ... .. . ... : ... .. . ... : ... .. . ... : ... .. . ...
ROW BA : ... .. . ... : G-2 08 . ... : ... .. . ... : C-# 05 . ... : G-3 00 . ...
ROW BB : ... .. . ... : --- .. . ... : ... .. . ... : ... .. . ... : ... .. . ...
ROW BC : ... .. . ... : ... .. . ... : ... .. . ... : ... .. . ... : ... .. . ...
ROW BD : ... .. . ... : ... .. . ... : ... .. . ... : ... .. . ... : ... .. . ...
ROW BE : ... .. . ... : ... .. . ... : ... .. . ... : ... .. . ... : ... .. . ...
ROW BF : ... .. . ... : ... .. . ... : ... .. . ... : ... .. . ... : ... .. . ...
PATTERN 0E
ROW 00 : F#4 08 A 400 : A#2 08 . ... : C-4 07 . ... : B-# 06 . ... : D#3 00 . ...
ROW 01 : ... .. . ... : ... .. . ... : ... .. . ... : ... .. . ... : ... .. . ...
ROW 02 : ... .. . ... : ... .. . ... : ... .. . ... : ... .. . ... : ... .. . ...
ROW 03 : ... .. . ... : C-3 08 . ... : --- .. . ... : ... .. . ... : ... .. . ...
ROW 04 : ... .. . ... : ... .. . ... : ... .. . ... : ... .. . ... : ... .. . ...
ROW 05 : ... .. . ... : ... .. . ... : ... .. . ... : ... .. . ... : ... .. . ...
ROW 06 : ... .. . ... : ... .. . ... : ... .. . ... : ... .. . ... : D#3 00 . ...
ROW 07 : ... .. . ... : ... .. . ... : ... .. . ... : ... .. . ... : ... .. . ...
ROW 08 : ... .. . ... : ... .. . ... : ... .. . ... : ... .. . ... : ... .. . ...
ROW 09 : ... .. . ... : --- .. . ... : ... .. . ... : ... .. . ... : ... .. . ...
ROW 0A : ... .. . ... : ... .. . ... : ... .. . ... : ... .. . ... : ... .. . ...
ROW 0B : ... .. . ... : ... .. . ... : ... .. . ... : ... .. . ... : ... .. . ...
ROW 0C : ... .. . 452 : C-3 08 . ... : C-4 07 . ... : 0-# 03 . ... : D#4 00 . ...
ROW 0D : ... .. . ... : --- .. . ... : ... .. . ... : ... .. . ... : ... .. . ...
ROW 0E : ... .. . ... : ... .. . ... : ... .. . ... : ... .. . ... : ... .. . ...
ROW 0F : ... .. . ... : ... .. . ... : --- .. . ... : ... .. . ... : ... .. . ...
ROW 10 : ... .. . ... : ... .. . ... : ... .. . ... : ... .. . ... : ... .. . ...
ROW 11 : ... .. . ... : ... .. . ... : ... .. . ... : ... .. . ... : ... .. . ...
ROW 12 : ... .. . ... : C-3 08 . ... : ... .. . ... : ... .. . ... : ... .. . ...
ROW 13 : ... .. . ... : --- .. . ... : ... .. . ... : ... .. . ... : ... .. . ...
ROW 14 : ... .. . ... : ... .. . ... : ... .. . ... : ... .. . ... : ... .. . ...
ROW 15 : ... .. . ... : ... .. . ... : ... .. . ... : ... .. . ... : ... .. . ...
ROW 16 : ... .. . ... : ... .. . ... : ... .. . ... : ... .. . ... : ... .. . ...
ROW 17 : ... .. . ... : ... .. . ... : ... .. . ... : ... .. . ... : ... .. . ...
ROW 18 : ... .. 9 ... : A#2 08 . ... : G-4 07 . ... : 0-# 04 . ... : G-3 00 . ...
ROW 19 : ... .. . ... : ... .. . ... : ... .. . ... : ... .. . ... : ... .. . ...
ROW 1A : ... .. . ... : ... .. . ... : ... .. . ... : ... .. . ... : ... .. . ...
ROW 1B : ... .. . ... : C-3 08 . ... : ... .. . ... : ... .. . ... : ... .. . ...
ROW 1C : ... .. . ... : ... .. . ... : ... .. . ... : ... .. . ... : ... .. . ...
ROW 1D : ... .. . ... : ... .. . ... : ... .. . ... : ... .. . ... : ... .. . ...
ROW 1E : ... .. . ... : ... .. . ... : --- .. . ... : C-# 05 . ... : G-3 00 . ...
ROW 1F : ... .. . ... : ... .. . ... : ... .. . ... : ... .. . ... : ... .. . ...
ROW 20 : ... .. . ... : ... .. . ... : ... .. . ... : ... .. . ... : ... .. . ...
ROW 21 : ... .. . ... : --- .. . ... : ... .. . ... : ... .. . ... : ... .. . ...
ROW 22 : ... .. . ... : ... .. . ... : ... .. . ... : ... .. . ... : ... .. . ...
ROW 23 : ... .. . ... : ... .. . ... : ... .. . ... : ... .. . ... : ... .. . ...
ROW 24 : ... .. . ... : C-3 08 . ... : ... .. . ... : C-# 05 . ... : G-4 00 . ...
ROW 25 : ... .. . ... : --- .. . ... : ... .. . ... : ... .. . ... : ... .. . ...
ROW 26 : ... .. . ... : ... .. . ... : ... .. . ... : ... .. . ... : ... .. . ...
ROW 27 : ... .. . ... : ... .. . ... : ... .. . ... : ... .. . ... : ... .. . ...
ROW 28 : ... .. . ... : ... .. . ... : ... .. . ... : ... .. . ... : ... .. . ...
ROW 29 : ... .. . ... : ... .. . ... : ... .. . ... : ... .. . ... : ... .. . ...
ROW 2A : ... .. . ... : C-3 08 . ... : ... .. . ... : C-# 05 . ... : ... .. . ...
ROW 2B : ... .. . ... : --- .. . ... : ... .. . ... : ... .. . ... : ... .. . ...
ROW 2C : ... .. . ... : ... .. . ... : ... .. . ... : ... .. . ... : ... .. . ...
ROW 2D : ... .. . ... : ... .. . ... : ... .. . ... : ... .. . ... : ... .. . ...
ROW 2E : ... .. . ... : ... .. . ... : ... .. . ... : ... .. . ... : ... .. . ...
ROW 2F : ... .. . ... : ... .. . ... : ... .. . ... : ... .. . ... : ... .. . ...
ROW 30 : G-4 08 A 400 : A#2 08 . ... : ... .. . ... : 0-# 03 . ... : A#3 00 . ...
ROW 31 : ... .. . ... : ... .. . ... : ... .. . ... : ... .. . ... : ... .. . ...
ROW 32 : ... .. . ... : ... .. . ... : ... .. . ... : ... .. . ... : ... .. . ...
ROW 33 : ... .. . ... : C-3 08 . ... : ... .. . ... : ... .. . ... : ... .. . ...
ROW 34 : ... .. . ... : ... .. . ... : ... .. . ... : ... .. . ... : ... .. . ...
ROW 35 : ... .. . ... : ... .. . ... : ... .. . ... : ... .. . ... : ... .. . ...
ROW 36 : ... .. . ... : ... .. . ... : ... .. . ... : ... .. . ... : A#3 00 . ...
ROW 37 : ... .. . ... : ... .. . ... : ... .. . ... : ... .. . ... : ... .. . ...
ROW 38 : ... .. . ... : ... .. . ... : ... .. . ... : ... .. . ... : ... .. . ...
ROW 39 : ... .. . ... : --- .. . ... : ... .. . ... : ... .. . ... : ... .. . ...
ROW 3A : ... .. . ... : ... .. . ... : ... .. . ... : ... .. . ... : ... .. . ...
ROW 3B : ... .. . ... : ... .. . ... : ... .. . ... : ... .. . ... : ... .. . ...
ROW 3C : ... .. . 452 : C-3 08 . ... : ... .. . ... : C-# 05 . ... : A#4 00 . ...
ROW 3D : ... .. . ... : --- .. . ... : ... .. . ... : ... .. . ... : ... .. . ...
ROW 3E : ... .. . ... : ... .. . ... : ... .. . ... : ... .. . ... : ... .. . ...
ROW 3F : ... .. . ... : ... .. . ... : ... .. . ... : ... .. . ... : ... .. . ...
ROW 40 : ... .. . ... : ... .. . ... : ... .. . ... : ... .. . ... : ... .. . ...
ROW 41 : ... .. . ... : ... .. . ... : ... .. . ... : ... .. . ... : ... .. . ...
ROW 42 : ... .. . ... : C-3 08 . ... : ... .. . ... : 0-# 03 . ... : ... .. . ...
ROW 43 : ... .. . ... : --- .. . ... : ... .. . ... : ... .. . ... : ... .. . ...
ROW 44 : ... .. . ... : ... .. . ... : ... .. . ... : ... .. . ... : ... .. . ...
ROW 45 : ... .. . ... : ... .. . ... : ... .. . ... : ... .. . ... : ... .. . ...
ROW 46 : ... .. . ... : ... .. . ... : ... .. . ... : ... .. . ... : ... .. . ...
ROW 47 : ... .. . ... : ... .. . ... : ... .. . ... : ... .. . ... : ... .. . ...
ROW 48 : A-4 08 . 400 : C-3 08 . ... : ... .. . ... : 0-# 04 . ... : D#4 00 . ...
ROW 49 : ... .. . ... : ... .. . ... : ... .. . ... : ... .. . ... : ... .. . ...
ROW 4A : ... .. . ... : ... .. . ... : ... .. . ... : ... .. . ... : ... .. . ...
ROW 4B : ... .. . ... : --- .. . ... : ... .. . ... : ... .. . ... : ... .. . ...
ROW 4C : ... .. . ... : ... .. . ... : ... .. . ... : ... .. . ... : ... .. . ...
ROW 4D : ... .. . ... : ... .. . ... : ... .. . ... : ... .. . ... : ... .. . ...
ROW 4E : ... .. . ... : G-2 08 . ... : ... .. . ... : E-# 05 . ... : D#4 00 . ...
ROW 4F : ... .. . ... : --- .. . ... : ... .. . ... : ... .. . ... : ... .. . ...
ROW 50 : ... .. . ... : ... .. . ... : ... .. . ... : ... .. . ... : ... .. . ...
ROW 51 : ... .. . ... : ... .. . ... : ... .. . ... : ... .. . ... : ... .. . ...
ROW 52 : ... .. . ... : ... .. . ... : ... .. . ... : ... .. . ... : ... .. . ...
ROW 53 : ... .. . ... : ... .. . ... : ... .. . ... : ... .. . ... : ... .. . ...
ROW 54 : ... .. . 452 : G-2 08 . ... : ... .. . ... : 0-# 03 . ... : D#3 00 . ...
ROW 55 : ... .. . ... : --- .. . ... : ... .. . ... : ... .. . ... : ... .. . ...
ROW 56 : ... .. . ... : ... .. . ... : ... .. . ... : ... .. . ... : ... .. . ...
ROW 57 : ... .. . ... : ... .. . ... : ... .. . ... : ... .. . ... : ... .. . ...
ROW 58 : ... .. . ... : ... .. . ... : ... .. . ... : ... .. . ... : ... .. . ...
ROW 59 : ... .. . ... : ... .. . ... : ... .. . ... : ... .. . ... : ... .. . ...
ROW 5A : ... .. . ... : G-2 08 . ... : ... .. . ... : C-# 05 . ... : D#3 00 . ...
ROW 5B : ... .. . ... : --- .. . ... : ... .. . ... : ... .. . ... : ... .. . ...
ROW 5C : ... .. . ... : ... .. . ... : ... .. . ... : ... .. . ... : ... .. . ...
ROW 5D : ... .. . ... : ... .. . ... : ... .. . ... : ... .. . ... : ... .. . ...
ROW 5E : ... .. . ... : ... .. . ... : ... .. . ... : ... .. . ... : ... .. . ...
ROW 5F : ... .. . ... : ... .. . ... : ... .. . ... : ... .. . ... : ... .. . ...
ROW 60 : A#4 08 A 400 : G#2 08 . ... : G-6 00 . ... : B-# 06 . ... : D-3 00 . ...
ROW 61 : ... .. . ... : ... .. . ... : ... .. . ... : ... .. . ... : ... .. . ...
ROW 62 : ... .. . ... : ... .. . ... : ... .. . ... : ... .. . ... : ... .. . ...
ROW 63 : ... .. . ... : A#2 08 . ... : D-6 00 . ... : ... .. . ... : ... .. . ...
ROW 64 : ... .. . ... : ... .. . ... : ... .. . ... : ... .. . ... : ... .. . ...
ROW 65 : ... .. . ... : ... .. . ... : ... .. . ... : ... .. . ... : ... .. . ...
ROW 66 : ... .. . ... : ... .. . ... : C-6 00 . ... : ... .. . ... : D-3 00 . ...
ROW 67 : ... .. . ... : ... .. . ... : ... .. . ... : ... .. . ... : ... .. . ...
ROW 68 : ... .. . ... : ... .. . ... : ... .. . ... : ... .. . ... : ... .. . ...
ROW 69 : ... .. . ... : --- .. . ... : G-5 00 . ... : ... .. . ... : ... .. . ...
ROW 6A : ... .. . ... : ... .. . ... : ... .. . ... : ... .. . ... : ... .. . ...
ROW 6B : ... .. . ... : ... .. . ... : ... .. . ... : ... .. . ... : ... .. . ...
ROW 6C : ... .. 9 452 : A#2 08 . ... : F-5 00 . ... : 0-# 03 . ... : D-4 00 . ...
ROW 6D : ... .. . ... : --- .. . ... : ... .. . ... : ... .. . ... : ... .. . ...
ROW 6E : ... .. . ... : ... .. . ... : ... .. . ... : ... .. . ... : ... .. . ...
ROW 6F : ... .. . ... : ... .. . ... : C-5 00 . ... : ... .. . ... : ... .. . ...
ROW 70 : ... .. . ... : ... .. . ... : ... .. . ... : ... .. . ... : ... .. . ...
ROW 71 : ... .. . ... : ... .. . ... : ... .. . ... : ... .. . ... : ... .. . ...
ROW 72 : ... .. . ... : A#2 08 . ... : F-4 00 . ... : ... .. . ... : ... .. . ...
ROW 73 : ... .. . ... : ... .. . ... : ... .. . ... : ... .. . ... : ... .. . ...
ROW 74 : ... .. . ... : ... .. . ... : ... .. . ... : ... .. . ... : ... .. . ...
ROW 75 : ... .. . ... : --- .. . ... : D-4 00 . ... : ... .. . ... : ... .. . ...
ROW 76 : ... .. . ... : ... .. . ... : ... .. . ... : ... .. . ... : ... .. . ...
ROW 77 : ... .. . ... : ... .. . ... : ... .. . ... : ... .. . ... : ... .. . ...
ROW 78 : ... .. 8 ... : F-3 08 . ... : C-4 00 . ... : 0-# 04 . ... : F-3 00 . ...
ROW 79 : ... .. . ... : ... .. . ... : ... .. . ... : ... .. . ... : ... .. . ...
ROW 7A : ... .. . ... : ... .. . ... : ... .. . ... : ... .. . ... : ... .. . ...
ROW 7B : ... .. . ... : --- .. . ... : G-3 00 . ... : ... .. . ... : ... .. . ...
ROW 7C : ... .. . ... : ... .. . ... : ... .. . ... : ... .. . ... : ... .. . ...
ROW 7D : ... .. . ... : ... .. . ... : ... .. . ... : ... .. . ... : ... .. . ...
ROW 7E : ... .. . ... : A#2 08 . ... : D-3 00 . ... : C-# 05 . ... : F-3 00 . ...
ROW 7F : ... .. . ... : --- .. . ... : ... .. . ... : ... .. . ... : ... .. . ...
ROW 80 : ... .. . ... : ... .. . ... : ... .. . ... : ... .. . ... : ... .. . ...
ROW 81 : ... .. . ... : ... .. . ... : ... .. . ... : ... .. . ... : ... .. . ...
ROW 82 : ... .. . ... : ... .. . ... : ... .. . ... : ... .. . ... : ... .. . ...
ROW 83 : ... .. . ... : ... .. . ... : ... .. . ... : ... .. . ... : ... .. . ...
ROW 84 : ... .. 6 ... : A#2 08 . ... : --- .. . ... : C-# 05 . ... : F-4 00 . ...
ROW 85 : ... .. . ... : ... .. . ... : ... .. . ... : ... .. . ... : ... .. . ...
ROW 86 : ... .. . ... : ... .. . ... : ... .. . ... : ... .. . ... : ... .. . ...
ROW 87 : ... .. . ... : --- .. . ... : ... .. . ... : ... .. . ... : ... .. . ...
ROW 88 : ... .. . ... : ... .. . ... : ... .. . ... : ... .. . ... : ... .. . ...
ROW 89 : ... .. . ... : ... .. . ... : ... .. . ... : ... .. . ... : ... .. . ...
ROW 8A : ... .. . ... : C-3 08 . ... : ... .. . ... : C-# 05 . ... : ... .. . ...
ROW 8B : ... .. . ... : ... .. . ... : ... .. . ... : ... .. . ... : ... .. . ...
ROW 8C : ... .. . ... : ... .. . ... : ... .. . ... : ... .. . ... : ... .. . ...
ROW 8D : ... .. . ... : D-3 08 . ... : ... .. . ... : ... .. . ... : ... .. . ...
ROW 8E : ... .. . ... : ... .. . ... : ... .. . ... : ... .. . ... : ... .. . ...
ROW 8F : ... .. . ... : ... .. . ... : ... .. . ... : ... .. . ... : ... .. . ...
ROW 90 : G-4 08 C 400 : ... .. . ... : G-4 07 . ... : 0-# 03 . ... : A-3 00 . ...
ROW 91 : ... .. . ... : ... .. . ... : ... .. . ... : ... .. . ... : ... .. . ...
ROW 92 : ... .. . ... : ... .. . ... : ... .. . ... : ... .. . ... : ... .. . ...
ROW 93 : ... .. . ... : --- .. . ... : ... .. . ... : ... .. . ... : ... .. . ...
ROW 94 : ... .. . ... : ... .. . ... : ... .. . ... : ... .. . ... : ... .. . ...
ROW 95 : ... .. . ... : ... .. . ... : ... .. . ... : ... .. . ... : ... .. . ...
ROW 96 : ... .. . ... : A#2 08 . ... : G-4 07 . ... : 0-# 03 . ... : A-3 00 . ...
ROW 97 : ... .. . ... : ... .. . ... : ... .. . ... : ... .. . ... : ... .. . ...
ROW 98 : ... .. . ... : ... .. . ... : ... .. . ... : ... .. . ... : ... .. . ...
ROW 99 : ... .. . ... : --- .. . ... : ... .. . ... : ... .. . ... : ... .. . ...
ROW 9A : ... .. . ... : ... .. . ... : ... .. . ... : ... .. . ... : ... .. . ...
ROW 9B : ... .. . ... : ... .. . ... : ... .. . ... : ... .. . ... : ... .. . ...
ROW 9C : ... .. . 452 : A#2 08 . ... : --- .. . ... : 0-# 03 . ... : A-4 00 . ...
ROW 9D : ... .. . ... : --- .. . ... : ... .. . ... : ... .. . ... : ... .. . ...
ROW 9E : ... .. . ... : ... .. . ... : ... .. . ... : ... .. . ... : ... .. . ...
ROW 9F : ... .. . ... : ... .. . ... : ... .. . ... : ... .. . ... : ... .. . ...
ROW A0 : ... .. . ... : ... .. . ... : ... .. . ... : ... .. . ... : ... .. . ...
ROW A1 : ... .. . ... : ... .. . ... : ... .. . ... : ... .. . ... : ... .. . ...
ROW A2 : ... .. . ... : A#2 08 . ... : G-4 07 . ... : ... .. . ... : ... .. . ...
ROW A3 : ... .. . ... : ... .. . ... : ... .. . ... : ... .. . ... : ... .. . ...
ROW A4 : ... .. . ... : ... .. . ... : ... .. . ... : ... .. . ... : ... .. . ...
ROW A5 : ... .. . ... : C-3 08 . ... : ... .. . ... : ... .. . ... : ... .. . ...
ROW A6 : ... .. . ... : ... .. . ... : ... .. . ... : ... .. . ... : ... .. . ...
ROW A7 : ... .. . ... : ... .. . ... : ... .. . ... : ... .. . ... : ... .. . ...
ROW A8 : A-4 08 . 400 : ... .. . ... : --- .. . ... : 0-# 04 . ... : F-4 00 . ...
ROW A9 : ... .. . ... : ... .. . ... : ... .. . ... : ... .. . ... : ... .. . ...
ROW AA : ... .. . ... : ... .. . ... : ... .. . ... : ... .. . ... : ... .. . ...
ROW AB : ... .. . ... : --- .. . ... : ... .. . ... : ... .. . ... : ... .. . ...
ROW AC : ... .. . ... : ... .. . ... : ... .. . ... : ... .. . ... : ... .. . ...
ROW AD : ... .. . ... : ... .. . ... : ... .. . ... : ... .. . ... : ... .. . ...
ROW AE : ... .. . ... : G-2 08 . ... : G-4 07 . ... : E-# 05 . ... : F-4 00 . ...
ROW AF : ... .. . ... : --- .. . ... : ... .. . ... : ... .. . ... : ... .. . ...
ROW B0 : ... .. . ... : ... .. . ... : ... .. . ... : ... .. . ... : ... .. . ...
ROW B1 : ... .. . ... : ... .. . ... : ... .. . ... : ... .. . ... : ... .. . ...
ROW B2 : ... .. . ... : ... .. . ... : ... .. . ... : ... .. . ... : ... .. . ...
ROW B3 : ... .. . ... : ... .. . ... : ... .. . ... : ... .. . ... : ... .. . ...
ROW B4 : ... .. . 452 : G-2 08 . ... : --- .. . ... : 0-# 03 . ... : D-3 00 . ...
ROW B5 : ... .. . ... : --- .. . ... : ... .. . ... : ... .. . ... : ... .. . ...
ROW B6 : ... .. . ... : ... .. . ... : ... .. . ... : ... .. . ... : ... .. . ...
ROW B7 : ... .. . ... : ... .. . ... : ... .. . ... : ... .. . ... : ... .. . ...
ROW B8 : ... .. . ... : ... .. . ... : ... .. . ... : ... .. . ... : ... .. . ...
ROW B9 : ... .. . ... : ... .. . ... : ... .. . ... : ... .. . ... : ... .. . ...
ROW BA : ... .. . ... : G-2 08 . ... : G-4 07 . ... : C-# 05 . ... : D-3 00 . ...
ROW BB : ... .. . ... : --- .. . ... : ... .. . ... : ... .. . ... : ... .. . ...
ROW BC : ... .. . ... : ... .. . ... : ... .. . ... : ... .. . ... : ... .. . ...
ROW BD : ... .. . ... : ... .. . ... : ... .. . ... : ... .. . ... : ... .. . ...
ROW BE : ... .. . ... : ... .. . ... : ... .. . ... : ... .. . ... : ... .. . ...
ROW BF : ... .. . ... : ... .. . ... : ... .. . ... : ... .. . ... : ... .. . ...
PATTERN 0F
ROW 00 : A#4 08 A 400 : G#2 08 . ... : ... .. . ... : B-# 06 . ... : C-3 00 . ...
ROW 01 : ... .. . ... : ... .. . ... : ... .. . ... : ... .. . ... : ... .. . ...
ROW 02 : ... .. . ... : ... .. . ... : ... .. . ... : ... .. . ... : ... .. . ...
ROW 03 : ... .. . ... : A#2 08 . ... : ... .. . ... : ... .. . ... : ... .. . ...
ROW 04 : ... .. . ... : ... .. . ... : ... .. . ... : ... .. . ... : ... .. . ...
ROW 05 : ... .. . ... : ... .. . ... : ... .. . ... : ... .. . ... : ... .. . ...
ROW 06 : ... .. . ... : ... .. . ... : ... .. . ... : ... .. . ... : C-3 00 . ...
ROW 07 : ... .. . ... : ... .. . ... : ... .. . ... : ... .. . ... : ... .. . ...
ROW 08 : ... .. . ... : ... .. . ... : ... .. . ... : ... .. . ... : ... .. . ...
ROW 09 : ... .. . ... : --- .. . ... : ... .. . ... : ... .. . ... : ... .. . ...
ROW 0A : ... .. . ... : ... .. . ... : ... .. . ... : ... .. . ... : ... .. . ...
ROW 0B : ... .. . ... : ... .. . ... : ... .. . ... : ... .. . ... : ... .. . ...
ROW 0C : ... .. . 452 : A#2 08 . ... : ... .. . ... : 0-# 03 . ... : C-4 00 . ...
ROW 0D : ... .. . ... : --- .. . ... : ... .. . ... : ... .. . ... : ... .. . ...
ROW 0E : ... .. . ... : ... .. . ... : ... .. . ... : ... .. . ... : ... .. . ...
ROW 0F : ... .. . ... : ... .. . ... : ... .. . ... : ... .. . ... : ... .. . ...
ROW 10 : ... .. . ... : ... .. . ... : ... .. . ... : ... .. . ... : ... .. . ...
ROW 11 : ... .. . ... : ... .. . ... : ... .. . ... : ... .. . ... : ... .. . ...
ROW 12 : ... .. . ... : A#2 08 . ... : ... .. . ... : ... .. . ... : ... .. . ...
ROW 13 : ... .. . ... : --- .. . ... : ... .. . ... : ... .. . ... : ... .. . ...
ROW 14 : ... .. . ... : ... .. . ... : ... .. . ... : ... .. . ... : ... .. . ...
ROW 15 : ... .. . ... : ... .. . ... : ... .. . ... : ... .. . ... : ... .. . ...
ROW 16 : ... .. . ... : ... .. . ... : ... .. . ... : ... .. . ... : ... .. . ...
ROW 17 : ... .. . ... : ... .. . ... : ... .. . ... : ... .. . ... : ... .. . ...
ROW 18 : ... .. 9 ... : G#2 08 . ... : ... .. . ... : 0-# 04 . ... : D#3 00 . ...
ROW 19 : ... .. . ... : ... .. . ... : ... .. . ... : ... .. . ... : ... .. . ...
ROW 1A : ... .. . ... : ... .. . ... : ... .. . ... : ... .. . ... : ... .. . ...
ROW 1B : ... .. . ... : A#2 08 . ... : ... .. . ... : ... .. . ... : ... .. . ...
ROW 1C : ... .. . ... : ... .. . ... : ... .. . ... : ... .. . ... : ... .. . ...
ROW 1D : ... .. . ... : ... .. . ... : ... .. . ... : ... .. . ... : ... .. . ...
ROW 1E : ... .. . ... : ... .. . ... : ... .. . ... : C-# 05 . ... : D#3 00 . ...
ROW 1F : ... .. . ... : ... .. . ... : ... .. . ... : ... .. . ... : ... .. . ...
ROW 20 : ... .. . ... : ... .. . ... : ... .. . ... : ... .. . ... : ... .. . ...
ROW 21 : ... .. . ... : --- .. . ... : ... .. . ... : ... .. . ... : ... .. . ...
ROW 22 : ... .. . ... : ... .. . ... : ... .. . ... : ... .. . ... : ... .. . ...
ROW 23 : ... .. . ... : ... .. . ... : ... .. . ... : ... .. . ... : ... .. . ...
ROW 24 : ... .. . ... : A#2 08 . ... : ... .. . ... : C-# 05 . ... : D#4 00 . ...
ROW 25 : ... .. . ... : --- .. . ... : ... .. . ... : ... .. . ... : ... .. . ...
ROW 26 : ... .. . ... : ... .. . ... : ... .. . ... : ... .. . ... : ... .. . ...
ROW 27 : ... .. . ... : ... .. . ... : ... .. . ... : ... .. . ... : ... .. . ...
ROW 28 : ... .. . ... : ... .. . ... : ... .. . ... : ... .. . ... : ... .. . ...
ROW 29 : ... .. . ... : ... .. . ... : ... .. . ... : ... .. . ... : ... .. . ...
ROW 2A : ... .. . ... : A#2 08 . ... : ... .. . ... : C-# 05 . ... : ... .. . ...
ROW 2B : ... .. . ... : --- .. . ... : ... .. . ... : ... .. . ... : ... .. . ...
ROW 2C : ... .. . ... : ... .. . ... : ... .. . ... : ... .. . ... : ... .. . ...
ROW 2D : ... .. . ... : ... .. . ... : ... .. . ... : ... .. . ... : ... .. . ...
ROW 2E : ... .. . ... : ... .. . ... : ... .. . ... : ... .. . ... : ... .. . ...
ROW 2F : ... .. . ... : ... .. . ... : ... .. . ... : ... .. . ... : ... .. . ...
ROW 30 : ... .. 8 ... : G#2 08 . ... : ... .. . ... : 0-# 03 . ... : G-3 00 . ...
ROW 31 : ... .. . ... : ... .. . ... : ... .. . ... : ... .. . ... : ... .. . ...
ROW 32 : ... .. . ... : ... .. . ... : ... .. . ... : ... .. . ... : ... .. . ...
ROW 33 : ... .. . ... : A#2 08 . ... : ... .. . ... : ... .. . ... : ... .. . ...
ROW 34 : ... .. . ... : ... .. . ... : ... .. . ... : ... .. . ... : ... .. . ...
ROW 35 : ... .. . ... : ... .. . ... : ... .. . ... : ... .. . ... : ... .. . ...
ROW 36 : ... .. . ... : ... .. . ... : ... .. . ... : ... .. . ... : G-3 00 . ...
ROW 37 : ... .. . ... : ... .. . ... : ... .. . ... : ... .. . ... : ... .. . ...
ROW 38 : ... .. . ... : ... .. . ... : ... .. . ... : ... .. . ... : ... .. . ...
ROW 39 : ... .. . ... : --- .. . ... : ... .. . ... : ... .. . ... : ... .. . ...
ROW 3A : ... .. . ... : ... .. . ... : ... .. . ... : ... .. . ... : ... .. . ...
ROW 3B : ... .. . ... : ... .. . ... : ... .. . ... : ... .. . ... : ... .. . ...
ROW 3C : ... .. . ... : A#2 08 . ... : ... .. . ... : C-# 05 . ... : G-4 00 . ...
ROW 3D : ... .. . ... : --- .. . ... : ... .. . ... : ... .. . ... : ... .. . ...
ROW 3E : ... .. . ... : ... .. . ... : ... .. . ... : ... .. . ... : ... .. . ...
ROW 3F : ... .. . ... : ... .. . ... : ... .. . ... : ... .. . ... : ... .. . ...
ROW 40 : ... .. . ... : ... .. . ... : ... .. . ... : ... .. . ... : ... .. . ...
ROW 41 : ... .. . ... : ... .. . ... : ... .. . ... : ... .. . ... : ... .. . ...
ROW 42 : ... .. . ... : A#2 08 . ... : ... .. . ... : 0-# 03 . ... : ... .. . ...
ROW 43 : ... .. . ... : --- .. . ... : ... .. . ... : ... .. . ... : ... .. . ...
ROW 44 : ... .. . ... : ... .. . ... : ... .. . ... : ... .. . ... : ... .. . ...
ROW 45 : ... .. . ... : ... .. . ... : ... .. . ... : ... .. . ... : ... .. . ...
ROW 46 : ... .. . ... : ... .. . ... : ... .. . ... : ... .. . ... : ... .. . ...
ROW 47 : ... .. . ... : ... .. . ... : ... .. . ... : ... .. . ... : ... .. . ...
ROW 48 : ... .. 6 ... : A#2 08 . ... : ... .. . ... : 0-# 04 . ... : D#4 00 . ...
ROW 49 : ... .. . ... : ... .. . ... : ... .. . ... : ... .. . ... : ... .. . ...
ROW 4A : ... .. . ... : ... .. . ... : ... .. . ... : ... .. . ... : ... .. . ...
ROW 4B : ... .. . ... : --- .. . ... : ... .. . ... : ... .. . ... : ... .. . ...
ROW 4C : ... .. . ... : ... .. . ... : ... .. . ... : ... .. . ... : ... .. . ...
ROW 4D : ... .. . ... : ... .. . ... : ... .. . ... : ... .. . ... : ... .. . ...
ROW 4E : ... .. . ... : G-2 08 . ... : ... .. . ... : E-# 05 . ... : D#4 00 . ...
ROW 4F : ... .. . ... : --- .. . ... : ... .. . ... : ... .. . ... : ... .. . ...
ROW 50 : ... .. . ... : ... .. . ... : ... .. . ... : ... .. . ... : ... .. . ...
ROW 51 : ... .. . ... : ... .. . ... : ... .. . ... : ... .. . ... : ... .. . ...
ROW 52 : ... .. . ... : ... .. . ... : ... .. . ... : ... .. . ... : ... .. . ...
ROW 53 : ... .. . ... : ... .. . ... : ... .. . ... : ... .. . ... : ... .. . ...
ROW 54 : A-4 08 A 400 : G-2 08 . ... : ... .. . ... : 0-# 03 . ... : D#3 00 . ...
ROW 55 : ... .. . ... : --- .. . ... : ... .. . ... : ... .. . ... : ... .. . ...
ROW 56 : ... .. . ... : ... .. . ... : ... .. . ... : ... .. . ... : ... .. . ...
ROW 57 : ... .. . ... : ... .. . ... : ... .. . ... : ... .. . ... : ... .. . ...
ROW 58 : ... .. . ... : ... .. . ... : ... .. . ... : ... .. . ... : ... .. . ...
ROW 59 : ... .. . ... : ... .. . ... : ... .. . ... : ... .. . ... : ... .. . ...
ROW 5A : A#4 08 . ... : G-2 08 . ... : ... .. . ... : C-# 05 . ... : D#3 00 . ...
ROW 5B : ... .. . ... : --- .. . ... : ... .. . ... : ... .. . ... : ... .. . ...
ROW 5C : ... .. . ... : ... .. . ... : ... .. . ... : ... .. . ... : ... .. . ...
ROW 5D : ... .. . ... : ... .. . ... : ... .. . ... : ... .. . ... : ... .. . ...
ROW 5E : ... .. . ... : ... .. . ... : ... .. . ... : ... .. . ... : ... .. . ...
ROW 5F : ... .. . ... : ... .. . ... : ... .. . ... : ... .. . ... : ... .. . ...
ROW 60 : C-5 08 . ... : G-3 08 9 ... : ... .. . ... : C-# 05 . ... : C-3 00 . ...
ROW 61 : ... .. . ... : ... .. . ... : ... .. . ... : ... .. . ... : ... .. . ...
ROW 62 : ... .. . ... : ... .. . ... : ... .. . ... : ... .. . ... : ... .. . ...
ROW 63 : ... .. . ... : ... .. . ... : ... .. . ... : ... .. . ... : ... .. . ...
ROW 64 : ... .. . ... : ... .. . ... : ... .. . ... : ... .. . ... : ... .. . ...
ROW 65 : ... .. . ... : ... .. . ... : ... .. . ... : ... .. . ... : ... .. . ...
ROW 66 : ... .. . ... : ... .. . ... : ... .. . ... : ... .. . ... : C-3 00 . ...
ROW 67 : ... .. . ... : ... .. . ... : ... .. . ... : ... .. . ... : ... .. . ...
ROW 68 : ... .. . ... : ... .. . ... : ... .. . ... : ... .. . ... : ... .. . ...
ROW 69 : ... .. . ... : ... .. . ... : ... .. . ... : ... .. . ... : ... .. . ...
ROW 6A : ... .. . ... : ... .. . ... : ... .. . ... : ... .. . ... : ... .. . ...
ROW 6B : ... .. . ... : ... .. . ... : ... .. . ... : ... .. . ... : ... .. . ...
ROW 6C : ... .. . 452 : ... .. . ... : ... .. . ... : 0-# 03 . ... : C-4 00 . ...
ROW 6D : ... .. . ... : ... .. . ... : ... .. . ... : ... .. . ... : ... .. . ...
ROW 6E : ... .. . ... : ... .. . ... : ... .. . ... : ... .. . ... : ... .. . ...
ROW 6F : ... .. . ... : ... .. . ... : ... .. . ... : ... .. . ... : ... .. . ...
ROW 70 : ... .. . ... : ... .. . ... : ... .. . ... : ... .. . ... : ... .. . ...
ROW 71 : ... .. . ... : ... .. . ... : ... .. . ... : ... .. . ... : ... .. . ...
ROW 72 : ... .. . ... : ... .. . ... : ... .. . ... : ... .. . ... : ... .. . ...
ROW 73 : ... .. . ... : ... .. . ... : ... .. . ... : ... .. . ... : ... .. . ...
ROW 74 : ... .. . ... : ... .. . ... : ... .. . ... : ... .. . ... : ... .. . ...
ROW 75 : ... .. . ... : ... .. . ... : ... .. . ... : ... .. . ... : ... .. . ...
ROW 76 : ... .. . ... : ... .. . ... : ... .. . ... : ... .. . ... : ... .. . ...
ROW 77 : ... .. . ... : ... .. . ... : ... .. . ... : ... .. . ... : ... .. . ...
ROW 78 : ... .. 9 ... : ... .. . ... : ... .. . ... : 0-# 04 . ... : D#3 00 . ...
ROW 79 : ... .. . ... : ... .. . ... : ... .. . ... : ... .. . ... : ... .. . ...
ROW 7A : ... .. . ... : ... .. . ... : ... .. . ... : ... .. . ... : ... .. . ...
ROW 7B : ... .. . ... : ... .. . ... : ... .. . ... : ... .. . ... : ... .. . ...
ROW 7C : ... .. . ... : ... .. . ... : ... .. . ... : ... .. . ... : ... .. . ...
ROW 7D : ... .. . ... : ... .. . ... : ... .. . ... : ... .. . ... : ... .. . ...
ROW 7E : ... .. . ... : ... .. . ... : ... .. . ... : C-# 05 . ... : D#3 00 . ...
ROW 7F : ... .. . ... : ... .. . ... : ... .. . ... : ... .. . ... : ... .. . ...
ROW 80 : ... .. . ... : ... .. . ... : ... .. . ... : ... .. . ... : ... .. . ...
ROW 81 : ... .. . ... : ... .. . ... : ... .. . ... : ... .. . ... : ... .. . ...
ROW 82 : ... .. . ... : ... .. . ... : ... .. . ... : ... .. . ... : ... .. . ...
ROW 83 : ... .. . ... : ... .. . ... : ... .. . ... : ... .. . ... : ... .. . ...
ROW 84 : ... .. . ... : ... .. . ... : ... .. . ... : C-# 05 . ... : D#4 00 . ...
ROW 85 : ... .. . ... : ... .. . ... : ... .. . ... : ... .. . ... : ... .. . ...
ROW 86 : ... .. . ... : ... .. . ... : ... .. . ... : ... .. . ... : ... .. . ...
ROW 87 : ... .. . ... : ... .. . ... : ... .. . ... : ... .. . ... : ... .. . ...
ROW 88 : ... .. . ... : ... .. . ... : ... .. . ... : ... .. . ... : ... .. . ...
ROW 89 : ... .. . ... : ... .. . ... : ... .. . ... : ... .. . ... : ... .. . ...
ROW 8A : ... .. . ... : ... .. . ... : ... .. . ... : C-# 05 . ... : ... .. . ...
ROW 8B : ... .. . ... : ... .. . ... : ... .. . ... : ... .. . ... : ... .. . ...
ROW 8C : ... .. . ... : ... .. . ... : ... .. . ... : ... .. . ... : ... .. . ...
ROW 8D : ... .. . ... : ... .. . ... : ... .. . ... : C-# 05 . ... : ... .. . ...
ROW 8E : ... .. . ... : ... .. . ... : ... .. . ... : ... .. . ... : ... .. . ...
ROW 8F : ... .. . ... : ... .. . ... : ... .. . ... : ... .. . ... : ... .. . ...
ROW 90 : ... .. 8 ... : G-3 08 . ... : ... .. . ... : 0-# 03 . ... : G-3 00 . ...
ROW 91 : ... .. . ... : ... .. . ... : ... .. . ... : ... .. . ... : ... .. . ...
ROW 92 : ... .. . ... : ... .. . ... : ... .. . ... : ... .. . ... : ... .. . ...
ROW 93 : ... .. . ... : ... .. . ... : ... .. . ... : ... .. . ... : ... .. . ...
ROW 94 : ... .. . ... : ... .. . ... : ... .. . ... : ... .. . ... : ... .. . ...
ROW 95 : ... .. . ... : ... .. . ... : ... .. . ... : ... .. . ... : ... .. . ...
ROW 96 : ... .. . ... : ... .. . ... : ... .. . ... : 0-# 03 . ... : G-3 00 . ...
ROW 97 : ... .. . ... : ... .. . ... : ... .. . ... : ... .. . ... : ... .. . ...
ROW 98 : ... .. . ... : ... .. . ... : ... .. . ... : ... .. . ... : ... .. . ...
ROW 99 : ... .. . ... : ... .. . ... : ... .. . ... : ... .. . ... : ... .. . ...
ROW 9A : ... .. . ... : ... .. . ... : ... .. . ... : ... .. . ... : ... .. . ...
ROW 9B : ... .. . ... : ... .. . ... : ... .. . ... : ... .. . ... : ... .. . ...
ROW 9C : ... .. . ... : === .. . ... : ... .. . ... : 0-# 03 . ... : G-4 00 . ...
ROW 9D : ... .. . ... : ... .. . ... : ... .. . ... : ... .. . ... : ... .. . ...
ROW 9E : ... .. . ... : ... .. . ... : ... .. . ... : ... .. . ... : ... .. . ...
ROW 9F : ... .. . ... : ... .. . ... : ... .. . ... : ... .. . ... : ... .. . ...
ROW A0 : ... .. . ... : ... .. . ... : ... .. . ... : ... .. . ... : ... .. . ...
ROW A1 : ... .. . ... : ... .. . ... : ... .. . ... : ... .. . ... : ... .. . ...
ROW A2 : ... .. . ... : A-3 08 . ... : ... .. . ... : C-# 05 . ... : ... .. . ...
ROW A3 : ... .. . ... : ... .. . ... : ... .. . ... : ... .. . ... : ... .. . ...
ROW A4 : ... .. . ... : ... .. . ... : ... .. . ... : ... .. . ... : ... .. . ...
ROW A5 : ... .. . ... : ... .. . ... : ... .. . ... : ... .. . ... : ... .. . ...
ROW A6 : ... .. . ... : ... .. . ... : ... .. . ... : ... .. . ... : ... .. . ...
ROW A7 : ... .. . ... : ... .. . ... : ... .. . ... : ... .. . ... : ... .. . ...
ROW A8 : ... .. 6 ... : ... .. . ... : ... .. . ... : 0-# 04 . ... : D#4 00 . ...
ROW A9 : ... .. . ... : ... .. . ... : ... .. . ... : ... .. . ... : ... .. . ...
ROW AA : ... .. . ... : ... .. . ... : ... .. . ... : ... .. . ... : ... .. . ...
ROW AB : ... .. . ... : ... .. . ... : ... .. . ... : ... .. . ... : ... .. . ...
ROW AC : ... .. . ... : ... .. . ... : ... .. . ... : ... .. . ... : ... .. . ...
ROW AD : ... .. . ... : ... .. . ... : ... .. . ... : ... .. . ... : ... .. . ...
ROW AE : ... .. . ... : === .. . ... : ... .. . ... : C-# 05 . ... : D#4 00 . ...
ROW AF : ... .. . ... : ... .. . ... : ... .. . ... : ... .. . ... : ... .. . ...
ROW B0 : ... .. . ... : ... .. . ... : ... .. . ... : ... .. . ... : ... .. . ...
ROW B1 : ... .. . ... : ... .. . ... : ... .. . ... : ... .. . ... : ... .. . ...
ROW B2 : ... .. . ... : ... .. . ... : ... .. . ... : ... .. . ... : ... .. . ...
ROW B3 : ... .. . ... : ... .. . ... : ... .. . ... : ... .. . ... : ... .. . ...
ROW B4 : A#4 08 A 400 : B-3 08 . ... : ... .. . ... : 0-# 03 . ... : D#3 00 . ...
ROW B5 : ... .. . ... : ... .. . ... : ... .. . ... : ... .. . ... : ... .. . ...
ROW B6 : ... .. . ... : ... .. . ... : ... .. . ... : ... .. . ... : ... .. . ...
ROW B7 : ... .. . ... : ... .. . ... : ... .. . ... : ... .. . ... : ... .. . ...
ROW B8 : ... .. . ... : ... .. . ... : ... .. . ... : ... .. . ... : ... .. . ...
ROW B9 : ... .. . ... : ... .. . ... : ... .. . ... : ... .. . ... : ... .. . ...
ROW BA : C-5 08 . ... : === .. . ... : ... .. . ... : C-# 05 . ... : D#3 00 . ...
ROW BB : ... .. . ... : ... .. . ... : ... .. . ... : ... .. . ... : ... .. . ...
ROW BC : ... .. . ... : ... .. . ... : ... .. . ... : ... .. . ... : ... .. . ...
ROW BD : ... .. . ... : ... .. . ... : ... .. . ... : ... .. . ... : ... .. . ...
ROW BE : ... .. . ... : ... .. . ... : ... .. . ... : ... .. . ... : ... .. . ...
ROW BF : ... .. . ... : ... .. . ... : ... .. . ... : ... .. . ... : ... .. . ...
PATTERN 10
ROW 00 : D-5 08 A 400 : G-3 08 A 400 : ... .. . ... : B-# 06 . ... : G-4 00 . ...
ROW 01 : ... .. . ... : ... .. . ... : ... .. . ... : ... .. . ... : ... .. . ...
ROW 02 : ... .. . ... : ... .. . ... : ... .. . ... : ... .. . ... : ... .. . ...
ROW 03 : ... .. . ... : ... .. . ... : ... .. . ... : ... .. . ... : ... .. . ...
ROW 04 : ... .. . ... : ... .. . ... : ... .. . ... : ... .. . ... : ... .. . ...
ROW 05 : ... .. . ... : ... .. . ... : ... .. . ... : ... .. . ... : ... .. . ...
ROW 06 : ... .. . ... : ... .. . ... : ... .. . ... : ... .. . ... : ... .. . ...
ROW 07 : ... .. . ... : ... .. . ... : ... .. . ... : ... .. . ... : ... .. . ...
ROW 08 : ... .. . ... : ... .. . ... : ... .. . ... : ... .. . ... : ... .. . ...
ROW 09 : ... .. . ... : ... .. . ... : ... .. . ... : ... .. . ... : ... .. . ...
ROW 0A : ... .. . ... : ... .. . ... : ... .. . ... : ... .. . ... : ... .. . ...
ROW 0B : ... .. . ... : ... .. . ... : ... .. . ... : ... .. . ... : ... .. . ...
ROW 0C : ... .. . 452 : ... .. . 452 : ... .. . ... : 0-# 03 . ... : ... .. . ...
ROW 0D : ... .. . ... : ... .. . ... : ... .. . ... : ... .. . ... : ... .. . ...
ROW 0E : ... .. . ... : ... .. . ... : ... .. . ... : ... .. . ... : ... .. . ...
ROW 0F : ... .. . ... : ... .. . ... : ... .. . ... : ... .. . ... : ... .. . ...
ROW 10 : ... .. . ... : ... .. . ... : ... .. . ... : ... .. . ... : ... .. . ...
ROW 11 : ... .. . ... : ... .. . ... : ... .. . ... : ... .. . ... : ... .. . ...
ROW 12 : ... .. . ... : ... .. . ... : ... .. . ... : ... .. . ... : ... .. . ...
ROW 13 : ... .. . ... : ... .. . ... : ... .. . ... : ... .. . ... : ... .. . ...
ROW 14 : ... .. . ... : ... .. . ... : ... .. . ... : ... .. . ... : ... .. . ...
ROW 15 : ... .. . ... : ... .. . ... : ... .. . ... : ... .. . ... : ... .. . ...
ROW 16 : ... .. . ... : ... .. . ... : ... .. . ... : ... .. . ... : ... .. . ...
ROW 17 : ... .. . ... : ... .. . ... : ... .. . ... : ... .. . ... : ... .. . ...
ROW 18 : ... .. 9 ... : ... .. 8 ... : ... .. . ... : 0-# 04 . ... : ... .. . ...
ROW 19 : ... .. . ... : ... .. . ... : ... .. . ... : ... .. . ... : ... .. . ...
ROW 1A : ... .. . ... : ... .. . ... : ... .. . ... : ... .. . ... : ... .. . ...
ROW 1B : ... .. . ... : ... .. . ... : ... .. . ... : ... .. . ... : ... .. . ...
ROW 1C : ... .. . ... : ... .. . ... : ... .. . ... : ... .. . ... : ... .. . ...
ROW 1D : ... .. . ... : ... .. . ... : ... .. . ... : ... .. . ... : ... .. . ...
ROW 1E : ... .. . ... : ... .. . ... : ... .. . ... : ... .. . ... : ... .. . ...
ROW 1F : ... .. . ... : ... .. . ... : ... .. . ... : ... .. . ... : ... .. . ...
ROW 20 : ... .. . ... : ... .. . ... : ... .. . ... : ... .. . ... : ... .. . ...
ROW 21 : ... .. . ... : ... .. . ... : ... .. . ... : ... .. . ... : ... .. . ...
ROW 22 : ... .. . ... : ... .. . ... : ... .. . ... : ... .. . ... : ... .. . ...
ROW 23 : ... .. . ... : ... .. . ... : ... .. . ... : ... .. . ... : ... .. . ...
ROW 24 : ... .. . ... : ... .. . ... : ... .. . ... : C-# 05 . ... : ... .. . ...
ROW 25 : ... .. . ... : ... .. . ... : ... .. . ... : ... .. . ... : ... .. . ...
ROW 26 : ... .. . ... : ... .. . ... : ... .. . ... : ... .. . ... : ... .. . ...
ROW 27 : ... .. . ... : ... .. . ... : ... .. . ... : ... .. . ... : ... .. . ...
ROW 28 : ... .. . ... : ... .. . ... : ... .. . ... : ... .. . ... : ... .. . ...
ROW 29 : ... .. . ... : ... .. . ... : ... .. . ... : ... .. . ... : ... .. . ...
ROW 2A : ... .. . ... : ... .. . ... : ... .. . ... : C-# 05 . ... : ... .. . ...
ROW 2B : ... .. . ... : ... .. . ... : ... .. . ... : ... .. . ... : ... .. . ...
ROW 2C : ... .. . ... : ... .. . ... : ... .. . ... : ... .. . ... : ... .. . ...
ROW 2D : ... .. . ... : ... .. . ... : ... .. . ... : ... .. . ... : ... .. . ...
ROW 2E : ... .. . ... : ... .. . ... : ... .. . ... : ... .. . ... : ... .. . ...
ROW 2F : ... .. . ... : ... .. . ... : ... .. . ... : ... .. . ... : ... .. . ...
ROW 30 : ... .. 8 ... : D#3 08 A 400 : ... .. . ... : 0-# 03 . ... : E-5 00 . ...
ROW 31 : ... .. . ... : ... .. . ... : ... .. . ... : ... .. . ... : ... .. . ...
ROW 32 : ... .. . ... : ... .. . ... : ... .. . ... : ... .. . ... : ... .. . ...
ROW 33 : ... .. . ... : ... .. . ... : ... .. . ... : ... .. . ... : ... .. . ...
ROW 34 : ... .. . ... : ... .. . ... : ... .. . ... : ... .. . ... : ... .. . ...
ROW 35 : ... .. . ... : ... .. . ... : ... .. . ... : ... .. . ... : ... .. . ...
ROW 36 : ... .. . ... : ... .. . ... : ... .. . ... : 0-# 03 . ... : E-5 00 . ...
ROW 37 : ... .. . ... : ... .. . ... : ... .. . ... : ... .. . ... : ... .. . ...
ROW 38 : ... .. . ... : ... .. . ... : ... .. . ... : ... .. . ... : ... .. . ...
ROW 39 : ... .. . ... : ... .. . ... : ... .. . ... : ... .. . ... : ... .. . ...
ROW 3A : ... .. . ... : ... .. . ... : ... .. . ... : ... .. . ... : ... .. . ...
ROW 3B : ... .. . ... : ... .. . ... : ... .. . ... : ... .. . ... : ... .. . ...
ROW 3C : ... .. . ... : ... .. . 452 : ... .. . ... : C-# 05 . ... : ... .. . ...
ROW 3D : ... .. . ... : ... .. . ... : ... .. . ... : ... .. . ... : ... .. . ...
ROW 3E : ... .. . ... : ... .. . ... : ... .. . ... : ... .. . ... : ... .. . ...
ROW 3F : ... .. . ... : ... .. . ... : ... .. . ... : ... .. . ... : ... .. . ...
ROW 40 : ... .. . ... : ... .. . ... : ... .. . ... : ... .. . ... : ... .. . ...
ROW 41 : ... .. . ... : ... .. . ... : ... .. . ... : ... .. . ... : ... .. . ...
ROW 42 : ... .. . ... : ... .. . ... : ... .. . ... : 0-# 03 . ... : E-5 00 . ...
ROW 43 : ... .. . ... : ... .. . ... : ... .. . ... : ... .. . ... : ... .. . ...
ROW 44 : ... .. . ... : ... .. . ... : ... .. . ... : ... .. . ... : ... .. . ...
ROW 45 : ... .. . ... : ... .. . ... : ... .. . ... : ... .. . ... : ... .. . ...
ROW 46 : ... .. . ... : ... .. . ... : ... .. . ... : ... .. . ... : ... .. . ...
ROW 47 : ... .. . ... : ... .. . ... : ... .. . ... : ... .. . ... : ... .. . ...
ROW 48 : ... .. . ... : G-3 08 . 400 : ... .. . ... : 0-# 04 . ... : F-5 00 . ...
ROW 49 : ... .. . ... : ... .. . ... : ... .. . ... : ... .. . ... : ... .. . ...
ROW 4A : ... .. . ... : ... .. . ... : ... .. . ... : ... .. . ... : ... .. . ...
ROW 4B : ... .. . ... : ... .. . ... : ... .. . ... : ... .. . ... : ... .. . ...
ROW 4C : ... .. . ... : ... .. . ... : ... .. . ... : ... .. . ... : ... .. . ...
ROW 4D : ... .. . ... : ... .. . ... : ... .. . ... : ... .. . ... : ... .. . ...
ROW 4E : ... .. . ... : ... .. . ... : ... .. . ... : 0-# 04 . ... : F-5 00 . ...
ROW 4F : ... .. . ... : ... .. . ... : ... .. . ... : ... .. . ... : ... .. . ...
ROW 50 : ... .. . ... : ... .. . ... : ... .. . ... : ... .. . ... : ... .. . ...
ROW 51 : ... .. . ... : ... .. . ... : ... .. . ... : ... .. . ... : ... .. . ...
ROW 52 : ... .. . ... : ... .. . ... : ... .. . ... : ... .. . ... : ... .. . ...
ROW 53 : ... .. . ... : ... .. . ... : ... .. . ... : ... .. . ... : ... .. . ...
ROW 54 : ... .. . ... : ... .. . 452 : ... .. . ... : 0-# 03 . ... : E-5 00 . ...
ROW 55 : ... .. . ... : ... .. . ... : ... .. . ... : ... .. . ... : ... .. . ...
ROW 56 : ... .. . ... : ... .. . ... : ... .. . ... : ... .. . ... : ... .. . ...
ROW 57 : ... .. . ... : ... .. . ... : ... .. . ... : ... .. . ... : ... .. . ...
ROW 58 : ... .. . ... : ... .. . ... : ... .. . ... : ... .. . ... : ... .. . ...
ROW 59 : ... .. . ... : ... .. . ... : ... .. . ... : ... .. . ... : ... .. . ...
ROW 5A : ... .. . ... : ... .. . ... : ... .. . ... : C-# 05 . ... : ... .. . ...
ROW 5B : ... .. . ... : ... .. . ... : ... .. . ... : ... .. . ... : ... .. . ...
ROW 5C : ... .. . ... : ... .. . ... : ... .. . ... : ... .. . ... : ... .. . ...
ROW 5D : ... .. . ... : ... .. . ... : ... .. . ... : ... .. . ... : ... .. . ...
ROW 5E : ... .. . ... : ... .. . ... : ... .. . ... : ... .. . ... : ... .. . ...
ROW 5F : ... .. . ... : ... .. . ... : ... .. . ... : ... .. . ... : ... .. . ...
ROW 60 : ... .. . ... : F-3 08 . 400 : ... .. . ... : 0-# 04 . ... : F-5 00 . ...
ROW 61 : ... .. . ... : ... .. . ... : ... .. . ... : ... .. . ... : ... .. . ...
ROW 62 : ... .. . ... : ... .. . ... : ... .. . ... : ... .. . ... : ... .. . ...
ROW 63 : ... .. . ... : ... .. . ... : ... .. . ... : ... .. . ... : ... .. . ...
ROW 64 : ... .. . ... : ... .. . ... : ... .. . ... : ... .. . ... : ... .. . ...
ROW 65 : ... .. . ... : ... .. . ... : ... .. . ... : ... .. . ... : ... .. . ...
ROW 66 : ... .. . ... : ... .. . ... : ... .. . ... : 0-# 03 . ... : E-5 00 . ...
ROW 67 : ... .. . ... : ... .. . ... : ... .. . ... : ... .. . ... : ... .. . ...
ROW 68 : ... .. . ... : ... .. . ... : ... .. . ... : ... .. . ... : ... .. . ...
ROW 69 : ... .. . ... : ... .. . ... : ... .. . ... : ... .. . ... : ... .. . ...
ROW 6A : ... .. . ... : ... .. . ... : ... .. . ... : ... .. . ... : ... .. . ...
ROW 6B : ... .. . ... : ... .. . ... : ... .. . ... : ... .. . ... : ... .. . ...
ROW 6C : ... .. . ... : ... .. . 452 : ... .. . ... : ... .. . ... : ... .. . ...
ROW 6D : ... .. . ... : ... .. . ... : ... .. . ... : ... .. . ... : ... .. . ...
ROW 6E : ... .. . ... : ... .. . ... : ... .. . ... : ... .. . ... : ... .. . ...
ROW 6F : ... .. . ... : ... .. . ... : ... .. . ... : ... .. . ... : ... .. . ...
ROW 70 : ... .. . ... : ... .. . ... : ... .. . ... : ... .. . ... : ... .. . ...
ROW 71 : ... .. . ... : ... .. . ... : ... .. . ... : ... .. . ... : ... .. . ...
ROW 72 : ... .. . ... : ... .. . ... : ... .. . ... : 0-# 03 . ... : E-5 00 . ...
ROW 73 : ... .. . ... : ... .. . ... : ... .. . ... : ... .. . ... : ... .. . ...
ROW 74 : ... .. . ... : ... .. . ... : ... .. . ... : ... .. . ... : ... .. . ...
ROW 75 : ... .. . ... : ... .. . ... : ... .. . ... : ... .. . ... : ... .. . ...
ROW 76 : ... .. . ... : ... .. . ... : ... .. . ... : ... .. . ... : ... .. . ...
ROW 77 : ... .. . ... : ... .. . ... : ... .. . ... : ... .. . ... : ... .. . ...
ROW 78 : ... .. . ... : ... .. 8 ... : ... .. . ... : ... .. . ... : ... .. . ...
ROW 79 : ... .. . ... : ... .. . ... : ... .. . ... : ... .. . ... : ... .. . ...
ROW 7A : ... .. . ... : ... .. . ... : ... .. . ... : ... .. . ... : ... .. . ...
ROW 7B : ... .. . ... : ... .. . ... : ... .. . ... : ... .. . ... : ... .. . ...
ROW 7C : ... .. . ... : ... .. . ... : ... .. . ... : ... .. . ... : ... .. . ...
ROW 7D : ... .. . ... : ... .. . ... : ... .. . ... : ... .. . ... : ... .. . ...
ROW 7E : ... .. . ... : ... .. . ... : ... .. . ... : 0-# 03 . ... : E-5 00 . ...
ROW 7F : ... .. . ... : ... .. . ... : ... .. . ... : ... .. . ... : ... .. . ...
ROW 80 : ... .. . ... : ... .. . ... : ... .. . ... : ... .. . ... : ... .. . ...
ROW 81 : ... .. . ... : ... .. . ... : ... .. . ... : ... .. . ... : ... .. . ...
ROW 82 : ... .. . ... : ... .. . ... : ... .. . ... : ... .. . ... : ... .. . ...
ROW 83 : ... .. . ... : ... .. . ... : ... .. . ... : ... .. . ... : ... .. . ...
ROW 84 : ... .. . ... : ... .. . ... : ... .. . ... : ... .. . ... : ... .. . ...
ROW 85 : ... .. . ... : ... .. . ... : ... .. . ... : ... .. . ... : ... .. . ...
ROW 86 : ... .. . ... : ... .. . ... : ... .. . ... : ... .. . ... : ... .. . ...
ROW 87 : ... .. . ... : ... .. . ... : ... .. . ... : ... .. . ... : ... .. . ...
ROW 88 : ... .. . ... : ... .. . ... : ... .. . ... : ... .. . ... : ... .. . ...
ROW 89 : ... .. . ... : ... .. . ... : ... .. . ... : ... .. . ... : ... .. . ...
ROW 8A : ... .. . ... : ... .. . ... : ... .. . ... : 0-# 03 . ... : E-5 00 . ...
ROW 8B : ... .. . ... : ... .. . ... : ... .. . ... : ... .. . ... : ... .. . ...
ROW 8C : ... .. . ... : ... .. . ... : ... .. . ... : ... .. . ... : ... .. . ...
ROW 8D : ... .. . ... : ... .. . ... : ... .. . ... : C-# 05 . ... : ... .. . ...
ROW 8E : ... .. . ... : ... .. . ... : ... .. . ... : ... .. . ... : ... .. . ...
ROW 8F : ... .. . ... : ... .. . ... : ... .. . ... : ... .. . ... : ... .. . ...
ROW 90 : ... .. . ... : ... .. 6 ... : ... .. . ... : 0-# 04 . ... : F-4 00 . ...
ROW 91 : ... .. . ... : ... .. . ... : ... .. . ... : ... .. . ... : ... .. . ...
ROW 92 : ... .. . ... : ... .. . ... : ... .. . ... : ... .. . ... : ... .. . ...
ROW 93 : ... .. . ... : ... .. . ... : ... .. . ... : ... .. . ... : ... .. . ...
ROW 94 : ... .. . ... : ... .. . ... : ... .. . ... : ... .. . ... : ... .. . ...
ROW 95 : ... .. . ... : ... .. . ... : ... .. . ... : ... .. . ... : ... .. . ...
ROW 96 : D#5 08 A 400 : ... .. . ... : ... .. . ... : 0-# 04 . ... : F-3 00 . ...
ROW 97 : ... .. . ... : ... .. . ... : ... .. . ... : ... .. . ... : ... .. . ...
ROW 98 : ... .. . ... : ... .. . ... : ... .. . ... : ... .. . ... : ... .. . ...
ROW 99 : ... .. . ... : ... .. . ... : ... .. . ... : ... .. . ... : ... .. . ...
ROW 9A : ... .. . ... : ... .. . ... : ... .. . ... : ... .. . ... : ... .. . ...
ROW 9B : ... .. . ... : ... .. . ... : ... .. . ... : ... .. . ... : ... .. . ...
ROW 9C : D-5 08 . ... : ... .. . ... : ... .. . ... : ... .. . ... : ... .. . ...
ROW 9D : ... .. . ... : ... .. . ... : ... .. . ... : ... .. . ... : ... .. . ...
ROW 9E : ... .. . ... : ... .. . ... : ... .. . ... : ... .. . ... : ... .. . ...
ROW 9F : ... .. . ... : ... .. . ... : ... .. . ... : ... .. . ... : ... .. . ...
ROW A0 : ... .. . ... : ... .. . ... : ... .. . ... : ... .. . ... : ... .. . ...
ROW A1 : ... .. . ... : ... .. . ... : ... .. . ... : ... .. . ... : ... .. . ...
ROW A2 : D#5 08 . ... : ... .. . ... : ... .. . ... : 0-# 04 . ... : G-3 00 . ...
ROW A3 : ... .. . ... : ... .. . ... : ... .. . ... : ... .. . ... : ... .. . ...
ROW A4 : ... .. . ... : ... .. . ... : ... .. . ... : ... .. . ... : ... .. . ...
ROW A5 : ... .. . ... : ... .. . ... : ... .. . ... : ... .. . ... : ... .. . ...
ROW A6 : ... .. . ... : ... .. . ... : ... .. . ... : ... .. . ... : ... .. . ...
ROW A7 : ... .. . ... : ... .. . ... : ... .. . ... : ... .. . ... : ... .. . ...
ROW A8 : D-5 08 . ... : C-3 08 A 400 : ... .. . ... : ... .. . ... : ... .. . ...
ROW A9 : ... .. . ... : ... .. . ... : ... .. . ... : ... .. . ... : ... .. . ...
ROW AA : ... .. . ... : ... .. . ... : ... .. . ... : ... .. . ... : ... .. . ...
ROW AB : ... .. . ... : ... .. . ... : ... .. . ... : ... .. . ... : ... .. . ...
ROW AC : ... .. . ... : ... .. . ... : ... .. . ... : ... .. . ... : ... .. . ...
ROW AD : ... .. . ... : ... .. . ... : ... .. . ... : ... .. . ... : ... .. . ...
ROW AE : D#5 08 . ... : ... .. . ... : ... .. . ... : 0-# 04 . ... : A#3 00 . ...
ROW AF : ... .. . ... : ... .. . ... : ... .. . ... : ... .. . ... : ... .. . ...
ROW B0 : ... .. . ... : ... .. . ... : ... .. . ... : ... .. . ... : ... .. . ...
ROW B1 : ... .. . ... : ... .. . ... : ... .. . ... : ... .. . ... : ... .. . ...
ROW B2 : ... .. . ... : ... .. . ... : ... .. . ... : ... .. . ... : ... .. . ...
ROW B3 : ... .. . ... : ... .. . ... : ... .. . ... : ... .. . ... : ... .. . ...
ROW B4 : D-5 08 . ... : ... .. . 452 : ... .. . ... : ... .. . ... : ... .. . ...
ROW B5 : ... .. . ... : ... .. . ... : ... .. . ... : ... .. . ... : ... .. . ...
ROW B6 : ... .. . ... : ... .. . ... : ... .. . ... : ... .. . ... : ... .. . ...
ROW B7 : ... .. . ... : ... .. . ... : ... .. . ... : ... .. . ... : ... .. . ...
ROW B8 : ... .. . ... : ... .. . ... : ... .. . ... : ... .. . ... : ... .. . ...
ROW B9 : ... .. . ... : ... .. . ... : ... .. . ... : ... .. . ... : ... .. . ...
ROW BA : D#5 08 . ... : ... .. . ... : ... .. . ... : 0-# 04 . ... : B-3 00 . ...
ROW BB : ... .. . ... : ... .. . ... : ... .. . ... : ... .. . ... : ... .. . ...
ROW BC : ... .. . ... : ... .. . ... : ... .. . ... : ... .. . ... : ... .. . ...
ROW BD : ... .. . ... : ... .. . ... : ... .. . ... : ... .. . ... : ... .. . ...
ROW BE : ... .. . ... : ... .. . ... : ... .. . ... : ... .. . ... : ... .. . ...
ROW BF : ... .. . ... : ... .. . ... : ... .. . ... : ... .. . ... : ... .. . B02
PATTERN 11
ROW 00 : D-5 08 A 400 : D-3 08 8 400 : ... .. . ... : ... .. . ... : ... .. . ...
ROW 01 : ... .. . ... : ... .. . ... : ... .. . ... : ... .. . ... : ... .. . ...
ROW 02 : ... .. . ... : ... .. . ... : ... .. . ... : ... .. . ... : ... .. . ...
ROW 03 : ... .. . ... : ... .. . ... : ... .. . ... : ... .. . ... : ... .. . ...
ROW 04 : ... .. . ... : ... .. . ... : ... .. . ... : ... .. . ... : ... .. . ...
ROW 05 : ... .. . ... : ... .. . ... : ... .. . ... : ... .. . ... : ... .. . ...
ROW 06 : ... .. . ... : ... .. . ... : ... .. . ... : ... .. . ... : ... .. . ...
ROW 07 : ... .. . ... : ... .. . ... : ... .. . ... : ... .. . ... : ... .. . ...
ROW 08 : ... .. . ... : ... .. . ... : ... .. . ... : ... .. . ... : ... .. . ...
ROW 09 : ... .. . ... : ... .. . ... : ... .. . ... : ... .. . ... : ... .. . ...
ROW 0A : ... .. . ... : ... .. . ... : ... .. . ... : ... .. . ... : ... .. . ...
ROW 0B : ... .. . ... : ... .. . ... : ... .. . ... : ... .. . ... : ... .. . ...
ROW 0C : ... .. . 452 : ... .. . 452 : ... .. . ... : ... .. . ... : ... .. . ...
ROW 0D : ... .. . ... : ... .. . ... : ... .. . ... : ... .. . ... : ... .. . ...
ROW 0E : ... .. . ... : ... .. . ... : ... .. . ... : ... .. . ... : ... .. . ...
ROW 0F : ... .. . ... : ... .. . ... : ... .. . ... : ... .. . ... : ... .. . ...
ROW 10 : ... .. . ... : ... .. . ... : ... .. . ... : ... .. . ... : ... .. . ...
ROW 11 : ... .. . ... : ... .. . ... : ... .. . ... : ... .. . ... : ... .. . ...
ROW 12 : ... .. . ... : ... .. . ... : ... .. . ... : ... .. . ... : ... .. . ...
ROW 13 : ... .. . ... : ... .. . ... : ... .. . ... : ... .. . ... : ... .. . ...
ROW 14 : ... .. . ... : ... .. . ... : ... .. . ... : ... .. . ... : ... .. . ...
ROW 15 : ... .. . ... : ... .. . ... : ... .. . ... : ... .. . ... : ... .. . ...
ROW 16 : ... .. . ... : ... .. . ... : ... .. . ... : ... .. . ... : ... .. . ...
ROW 17 : ... .. . ... : ... .. . ... : ... .. . ... : ... .. . ... : ... .. . ...
ROW 18 : ... .. 9 ... : ... .. 6 ... : ... .. . ... : ... .. . ... : ... .. . ...
ROW 19 : ... .. . ... : ... .. . ... : ... .. . ... : ... .. . ... : ... .. . ...
ROW 1A : ... .. . ... : ... .. . ... : ... .. . ... : ... .. . ... : ... .. . ...
ROW 1B : ... .. . ... : ... .. . ... : ... .. . ... : ... .. . ... : ... .. . ...
ROW 1C : ... .. . ... : ... .. . ... : ... .. . ... : ... .. . ... : ... .. . ...
ROW 1D : ... .. . ... : ... .. . ... : ... .. . ... : ... .. . ... : ... .. . ...
ROW 1E : ... .. . ... : ... .. . ... : ... .. . ... : ... .. . ... : ... .. . ...
ROW 1F : ... .. . ... : ... .. . ... : ... .. . ... : ... .. . ... : ... .. . ...
ROW 20 : ... .. . ... : ... .. . ... : ... .. . ... : ... .. . ... : ... .. . ...
ROW 21 : ... .. . ... : ... .. . ... : ... .. . ... : ... .. . ... : ... .. . ...
ROW 22 : ... .. . ... : ... .. . ... : ... .. . ... : ... .. . ... : ... .. . ...
ROW 23 : ... .. . ... : ... .. . ... : ... .. . ... : ... .. . ... : ... .. . ...
ROW 24 : ... .. . ... : ... .. . ... : ... .. . ... : ... .. . ... : ... .. . ...
ROW 25 : ... .. . ... : ... .. . ... : ... .. . ... : ... .. . ... : ... .. . ...
ROW 26 : ... .. . ... : ... .. . ... : ... .. . ... : ... .. . ... : ... .. . ...
ROW 27 : ... .. . ... : ... .. . ... : ... .. . ... : ... .. . ... : ... .. . ...
ROW 28 : ... .. . ... : ... .. . ... : ... .. . ... : ... .. . ... : ... .. . ...
ROW 29 : ... .. . ... : ... .. . ... : ... .. . ... : ... .. . ... : ... .. . ...
ROW 2A : ... .. . ... : ... .. . ... : ... .. . ... : ... .. . ... : ... .. . ...
ROW 2B : ... .. . ... : ... .. . ... : ... .. . ... : ... .. . ... : ... .. . ...
ROW 2C : ... .. . ... : ... .. . ... : ... .. . ... : ... .. . ... : ... .. . ...
ROW 2D : ... .. . ... : ... .. . ... : ... .. . ... : ... .. . ... : ... .. . ...
ROW 2E : ... .. . ... : ... .. . ... : ... .. . ... : ... .. . ... : ... .. . ...
ROW 2F : ... .. . ... : ... .. . ... : ... .. . ... : ... .. . ... : ... .. . ...
ROW 30 : ... .. 8 ... : ... .. 4 ... : ... .. . ... : ... .. . ... : ... .. . ...
ROW 31 : ... .. . ... : ... .. . ... : ... .. . ... : ... .. . ... : ... .. . ...
ROW 32 : ... .. . ... : ... .. . ... : ... .. . ... : ... .. . ... : ... .. . ...
ROW 33 : ... .. . ... : ... .. . ... : ... .. . ... : ... .. . ... : ... .. . ...
ROW 34 : ... .. . ... : ... .. . ... : ... .. . ... : ... .. . ... : ... .. . ...
ROW 35 : ... .. . ... : ... .. . ... : ... .. . ... : ... .. . ... : ... .. . ...
ROW 36 : ... .. . ... : ... .. . ... : ... .. . ... : ... .. . ... : ... .. . ...
ROW 37 : ... .. . ... : ... .. . ... : ... .. . ... : ... .. . ... : ... .. . ...
ROW 38 : ... .. . ... : ... .. . ... : ... .. . ... : ... .. . ... : ... .. . ...
ROW 39 : ... .. . ... : ... .. . ... : ... .. . ... : ... .. . ... : ... .. . ...
ROW 3A : ... .. . ... : ... .. . ... : ... .. . ... : ... .. . ... : ... .. . ...
ROW 3B : ... .. . ... : ... .. . ... : ... .. . ... : ... .. . ... : ... .. . ...
ROW 3C : ... .. . ... : ... .. . ... : ... .. . ... : ... .. . ... : ... .. . ...
ROW 3D : ... .. . ... : ... .. . ... : ... .. . ... : ... .. . ... : ... .. . ...
ROW 3E : ... .. . ... : ... .. . ... : ... .. . ... : ... .. . ... : ... .. . ...
ROW 3F : ... .. . ... : ... .. . ... : ... .. . ... : ... .. . ... : ... .. . ...
ROW 40 : ... .. . ... : ... .. . ... : ... .. . ... : ... .. . ... : ... .. . ...
ROW 41 : ... .. . ... : ... .. . ... : ... .. . ... : ... .. . ... : ... .. . ...
ROW 42 : ... .. . ... : ... .. . ... : ... .. . ... : ... .. . ... : ... .. . ...
ROW 43 : ... .. . ... : ... .. . ... : ... .. . ... : ... .. . ... : ... .. . ...
ROW 44 : ... .. . ... : ... .. . ... : ... .. . ... : ... .. . ... : ... .. . ...
ROW 45 : ... .. . ... : ... .. . ... : ... .. . ... : ... .. . ... : ... .. . ...
ROW 46 : ... .. . ... : ... .. . ... : ... .. . ... : ... .. . ... : ... .. . ...
ROW 47 : ... .. . ... : ... .. . ... : ... .. . ... : ... .. . ... : ... .. . ...
ROW 48 : ... .. . ... : C-3 08 8 400 : ... .. . ... : ... .. . ... : ... .. . ...
ROW 49 : ... .. . ... : ... .. . ... : ... .. . ... : ... .. . ... : ... .. . ...
ROW 4A : ... .. . ... : ... .. . ... : ... .. . ... : ... .. . ... : ... .. . ...
ROW 4B : ... .. . ... : ... .. . ... : ... .. . ... : ... .. . ... : ... .. . ...
ROW 4C : ... .. . ... : ... .. . ... : ... .. . ... : ... .. . ... : ... .. . ...
ROW 4D : ... .. . ... : ... .. . ... : ... .. . ... : ... .. . ... : ... .. . ...
ROW 4E : ... .. . ... : ... .. . ... : ... .. . ... : ... .. . ... : ... .. . ...
ROW 4F : ... .. . ... : ... .. . ... : ... .. . ... : ... .. . ... : ... .. . ...
ROW 50 : ... .. . ... : ... .. . ... : ... .. . ... : ... .. . ... : ... .. . ...
ROW 51 : ... .. . ... : ... .. . ... : ... .. . ... : ... .. . ... : ... .. . ...
ROW 52 : ... .. . ... : ... .. . ... : ... .. . ... : ... .. . ... : ... .. . ...
ROW 53 : ... .. . ... : ... .. . ... : ... .. . ... : ... .. . ... : ... .. . ...
ROW 54 : ... .. . ... : ... .. . 452 : ... .. . ... : ... .. . ... : ... .. . ...
ROW 55 : ... .. . ... : ... .. . ... : ... .. . ... : ... .. . ... : ... .. . ...
ROW 56 : ... .. . ... : ... .. . ... : ... .. . ... : ... .. . ... : ... .. . ...
ROW 57 : ... .. . ... : ... .. . ... : ... .. . ... : ... .. . ... : ... .. . ...
ROW 58 : ... .. . ... : ... .. . ... : ... .. . ... : ... .. . ... : ... .. . ...
ROW 59 : ... .. . ... : ... .. . ... : ... .. . ... : ... .. . ... : ... .. . ...
ROW 5A : ... .. . ... : ... .. . ... : ... .. . ... : ... .. . ... : ... .. . ...
ROW 5B : ... .. . ... : ... .. . ... : ... .. . ... : ... .. . ... : ... .. . ...
ROW 5C : ... .. . ... : ... .. . ... : ... .. . ... : ... .. . ... : ... .. . ...
ROW 5D : === .. . 400 : ... .. . ... : ... .. . ... : ... .. . ... : ... .. . ...
ROW 5E : ... .. . ... : ... .. . ... : ... .. . ... : ... .. . ... : ... .. . ...
ROW 5F : ... .. . ... : ... .. . ... : ... .. . ... : ... .. . ... : ... .. . ...
ROW 60 : --- .. . V01 : D-3 08 8 400 : ... .. . ... : ... .. . ... : ... .. . ...
ROW 61 : ... .. . ... : ... .. . ... : ... .. . ... : ... .. . ... : ... .. . ...
ROW 62 : ... .. . ... : ... .. . ... : ... .. . ... : ... .. . ... : ... .. . ...
ROW 63 : ... .. . ... : ... .. . ... : ... .. . ... : ... .. . ... : ... .. . ...
ROW 64 : ... .. . ... : ... .. . ... : ... .. . ... : ... .. . ... : ... .. . ...
ROW 65 : ... .. . ... : ... .. . ... : ... .. . ... : ... .. . ... : ... .. . ...
ROW 66 : ... .. . ... : ... .. . ... : ... .. . ... : ... .. . ... : ... .. . ...
ROW 67 : ... .. . ... : ... .. . ... : ... .. . ... : ... .. . ... : ... .. . ...
ROW 68 : ... .. . ... : ... .. . ... : ... .. . ... : ... .. . ... : ... .. . ...
ROW 69 : ... .. . ... : ... .. . ... : ... .. . ... : ... .. . ... : ... .. . ...
ROW 6A : ... .. . ... : ... .. . ... : ... .. . ... : ... .. . ... : ... .. . ...
ROW 6B : ... .. . ... : ... .. . ... : ... .. . ... : ... .. . ... : ... .. . ...
ROW 6C : ... .. . ... : ... .. 6 452 : ... .. . ... : ... .. . ... : ... .. . ...
ROW 6D : ... .. . ... : ... .. . ... : ... .. . ... : ... .. . ... : ... .. . ...
ROW 6E : ... .. . ... : ... .. . ... : ... .. . ... : ... .. . ... : ... .. . ...
ROW 6F : ... .. . ... : ... .. . ... : ... .. . ... : ... .. . ... : ... .. . ...
ROW 70 : ... .. . ... : ... .. . ... : ... .. . ... : ... .. . ... : ... .. . ...
ROW 71 : ... .. . ... : ... .. . ... : ... .. . ... : ... .. . ... : ... .. . ...
ROW 72 : ... .. . ... : ... .. . ... : ... .. . ... : ... .. . ... : ... .. . ...
ROW 73 : ... .. . ... : ... .. . ... : ... .. . ... : ... .. . ... : ... .. . ...
ROW 74 : ... .. . ... : ... .. . ... : ... .. . ... : ... .. . ... : ... .. . ...
ROW 75 : ... .. . ... : ... .. . ... : ... .. . ... : ... .. . ... : ... .. . ...
ROW 76 : ... .. . ... : ... .. . ... : ... .. . ... : ... .. . ... : ... .. . ...
ROW 77 : ... .. . ... : ... .. . ... : ... .. . ... : ... .. . ... : ... .. . ...
ROW 78 : ... .. . ... : ... .. 4 ... : ... .. . ... : ... .. . ... : ... .. . ...
ROW 79 : ... .. . ... : ... .. . ... : ... .. . ... : ... .. . ... : ... .. . ...
ROW 7A : ... .. . ... : ... .. . ... : ... .. . ... : ... .. . ... : ... .. . ...
ROW 7B : ... .. . ... : ... .. . ... : ... .. . ... : ... .. . ... : ... .. . ...
ROW 7C : ... .. . ... : ... .. . ... : ... .. . ... : ... .. . ... : ... .. . ...
ROW 7D : ... .. . ... : ... .. . ... : ... .. . ... : ... .. . ... : ... .. . ...
ROW 7E : ... .. . ... : ... .. . ... : ... .. . ... : ... .. . ... : ... .. . ...
ROW 7F : ... .. . ... : ... .. . ... : ... .. . ... : ... .. . ... : ... .. . ...
ROW 80 : ... .. . ... : ... .. . ... : ... .. . ... : ... .. . ... : ... .. . ...
ROW 81 : ... .. . ... : ... .. . ... : ... .. . ... : ... .. . ... : ... .. . ...
ROW 82 : ... .. . ... : ... .. . ... : ... .. . ... : ... .. . ... : ... .. . ...
ROW 83 : ... .. . ... : ... .. . ... : ... .. . ... : ... .. . ... : ... .. . ...
ROW 84 : ... .. . ... : ... .. 2 ... : ... .. . ... : ... .. . ... : ... .. . ...
ROW 85 : ... .. . ... : ... .. . ... : ... .. . ... : ... .. . ... : ... .. . ...
ROW 86 : ... .. . ... : ... .. . ... : ... .. . ... : ... .. . ... : ... .. . ...
ROW 87 : ... .. . ... : ... .. . ... : ... .. . ... : ... .. . ... : ... .. . ...
ROW 88 : ... .. . ... : ... .. . ... : ... .. . ... : ... .. . ... : ... .. . ...
ROW 89 : ... .. . ... : ... .. . ... : ... .. . ... : ... .. . ... : ... .. . ...
ROW 8A : ... .. . ... : ... .. . ... : ... .. . ... : ... .. . ... : ... .. . ...
ROW 8B : ... .. . ... : ... .. . ... : ... .. . ... : ... .. . ... : ... .. . ...
ROW 8C : ... .. . ... : ... .. . ... : ... .. . ... : ... .. . ... : ... .. . ...
ROW 8D : ... .. . ... : ... .. . ... : ... .. . ... : ... .. . ... : ... .. . ...
ROW 8E : ... .. . ... : ... .. . ... : ... .. . ... : ... .. . ... : ... .. . ...
ROW 8F : ... .. . ... : ... .. . ... : ... .. . ... : ... .. . ... : ... .. . ...
ROW 90 : F-2 08 9 ... : D#3 08 8 400 : ... .. . ... : ... .. . ... : ... .. . ...
ROW 91 : ... .. . ... : ... .. . ... : ... .. . ... : ... .. . ... : ... .. . ...
ROW 92 : ... .. . ... : ... .. . ... : ... .. . ... : ... .. . ... : ... .. . ...
ROW 93 : ... .. . ... : ... .. . ... : ... .. . ... : ... .. . ... : ... .. . ...
ROW 94 : ... .. . ... : ... .. . ... : ... .. . ... : ... .. . ... : ... .. . ...
ROW 95 : ... .. . ... : ... .. . ... : ... .. . ... : ... .. . ... : ... .. . ...
ROW 96 : F-1 08 . ... : ... .. . ... : ... .. . ... : ... .. . ... : ... .. . ...
ROW 97 : ... .. . ... : ... .. . ... : ... .. . ... : ... .. . ... : ... .. . ...
ROW 98 : ... .. . ... : ... .. . ... : ... .. . ... : ... .. . ... : ... .. . ...
ROW 99 : ... .. . ... : ... .. . ... : ... .. . ... : ... .. . ... : ... .. . ...
ROW 9A : ... .. . ... : ... .. . ... : ... .. . ... : ... .. . ... : ... .. . ...
ROW 9B : ... .. . ... : ... .. . ... : ... .. . ... : ... .. . ... : ... .. . ...
ROW 9C : ... .. . ... : ... .. . 452 : ... .. . ... : ... .. . ... : ... .. . ...
ROW 9D : ... .. . ... : ... .. . ... : ... .. . ... : ... .. . ... : ... .. . ...
ROW 9E : ... .. . ... : ... .. . ... : ... .. . ... : ... .. . ... : ... .. . ...
ROW 9F : ... .. . ... : ... .. . ... : ... .. . ... : ... .. . ... : ... .. . ...
ROW A0 : ... .. . ... : ... .. . ... : ... .. . ... : ... .. . ... : ... .. . ...
ROW A1 : ... .. . ... : ... .. . ... : ... .. . ... : ... .. . ... : ... .. . ...
ROW A2 : G-1 08 . ... : ... .. . ... : ... .. . ... : ... .. . ... : ... .. . ...
ROW A3 : ... .. . ... : ... .. . ... : ... .. . ... : ... .. . ... : ... .. . ...
ROW A4 : ... .. . ... : ... .. . ... : ... .. . ... : ... .. . ... : ... .. . ...
ROW A5 : ... .. . ... : ... .. . ... : ... .. . ... : ... .. . ... : ... .. . ...
ROW A6 : ... .. . ... : ... .. . ... : ... .. . ... : ... .. . ... : ... .. . ...
ROW A7 : ... .. . ... : ... .. . ... : ... .. . ... : ... .. . ... : ... .. . ...
ROW A8 : ... .. . ... : F-3 08 . 400 : ... .. . ... : ... .. . ... : ... .. . ...
ROW A9 : ... .. . ... : ... .. . ... : ... .. . ... : ... .. . ... : ... .. . ...
ROW AA : ... .. . ... : ... .. . ... : ... .. . ... : ... .. . ... : ... .. . ...
ROW AB : ... .. . ... : ... .. . ... : ... .. . ... : ... .. . ... : ... .. . ...
ROW AC : ... .. . ... : ... .. . ... : ... .. . ... : ... .. . ... : ... .. . ...
ROW AD : ... .. . ... : ... .. . ... : ... .. . ... : ... .. . ... : ... .. . ...
ROW AE : A#1 08 . ... : ... .. . ... : ... .. . ... : ... .. . ... : ... .. . ...
ROW AF : ... .. . ... : ... .. . ... : ... .. . ... : ... .. . ... : ... .. . ...
ROW B0 : ... .. . ... : ... .. . ... : ... .. . ... : ... .. . ... : ... .. . ...
ROW B1 : ... .. . ... : ... .. . ... : ... .. . ... : ... .. . ... : ... .. . ...
ROW B2 : ... .. . ... : ... .. . ... : ... .. . ... : ... .. . ... : ... .. . ...
ROW B3 : ... .. . ... : ... .. . ... : ... .. . ... : ... .. . ... : ... .. . ...
ROW B4 : ... .. . ... : ... .. . 452 : ... .. . ... : ... .. . ... : ... .. . ...
ROW B5 : ... .. . ... : ... .. . ... : ... .. . ... : ... .. . ... : ... .. . ...
ROW B6 : ... .. . ... : ... .. . ... : ... .. . ... : ... .. . ... : ... .. . ...
ROW B7 : ... .. . ... : ... .. . ... : ... .. . ... : ... .. . ... : ... .. . ...
ROW B8 : ... .. . ... : ... .. . ... : ... .. . ... : ... .. . ... : ... .. . ...
ROW B9 : ... .. . ... : ... .. . ... : ... .. . ... : ... .. . ... : ... .. . ...
ROW BA : B-1 08 . ... : ... .. . ... : ... .. . ... : ... .. . ... : ... .. . ...
ROW BB : ... .. . ... : ... .. . ... : ... .. . ... : ... .. . ... : ... .. . ...
ROW BC : ... .. . ... : ... .. . ... : ... .. . ... : ... .. . ... : ... .. . ...
ROW BD : ... .. . ... : ... .. . ... : ... .. . ... : ... .. . ... : ... .. . ...
ROW BE : ... .. . ... : ... .. . ... : ... .. . ... : ... .. . ... : ... .. . ...
ROW BF : ... .. . ... : ... .. . ... : ... .. . ... : ... .. . ... : ... .. . ...
PATTERN 12
ROW 00 : ... .. . ... : G-3 08 A 400 : ... .. . ... : ... .. . ... : ... .. . ...
ROW 01 : ... .. . ... : ... .. . ... : ... .. . ... : ... .. . ... : ... .. . ...
ROW 02 : ... .. . ... : ... .. . ... : ... .. . ... : ... .. . ... : ... .. . ...
ROW 03 : ... .. . ... : ... .. . ... : ... .. . ... : ... .. . ... : ... .. . ...
ROW 04 : ... .. . ... : ... .. . ... : ... .. . ... : ... .. . ... : ... .. . ...
ROW 05 : ... .. . ... : ... .. . ... : ... .. . ... : ... .. . ... : ... .. . ...
ROW 06 : ... .. . ... : ... .. . ... : ... .. . ... : ... .. . ... : ... .. . ...
ROW 07 : ... .. . ... : ... .. . ... : ... .. . ... : ... .. . ... : ... .. . ...
ROW 08 : ... .. . ... : ... .. . ... : ... .. . ... : ... .. . ... : ... .. . ...
ROW 09 : ... .. . ... : ... .. . ... : ... .. . ... : ... .. . ... : ... .. . ...
ROW 0A : ... .. . ... : ... .. . ... : ... .. . ... : ... .. . ... : ... .. . ...
ROW 0B : ... .. . ... : ... .. . ... : ... .. . ... : ... .. . ... : ... .. . ...
ROW 0C : ... .. . ... : ... .. . 452 : ... .. . ... : ... .. . ... : ... .. . ...
ROW 0D : ... .. . ... : ... .. . ... : ... .. . ... : ... .. . ... : ... .. . ...
ROW 0E : ... .. . ... : ... .. . ... : ... .. . ... : ... .. . ... : ... .. . ...
ROW 0F : ... .. . ... : ... .. . ... : ... .. . ... : ... .. . ... : ... .. . ...
ROW 10 : ... .. . ... : ... .. . ... : ... .. . ... : ... .. . ... : ... .. . ...
ROW 11 : ... .. . ... : ... .. . ... : ... .. . ... : ... .. . ... : ... .. . ...
ROW 12 : ... .. . ... : ... .. . ... : ... .. . ... : ... .. . ... : ... .. . ...
ROW 13 : ... .. . ... : ... .. . ... : ... .. . ... : ... .. . ... : ... .. . ...
ROW 14 : ... .. . ... : ... .. . ... : ... .. . ... : ... .. . ... : ... .. . ...
ROW 15 : ... .. . ... : ... .. . ... : ... .. . ... : ... .. . ... : ... .. . ...
ROW 16 : ... .. . ... : ... .. . ... : ... .. . ... : ... .. . ... : ... .. . ...
ROW 17 : ... .. . ... : ... .. . ... : ... .. . ... : ... .. . ... : ... .. . ...
ROW 18 : ... .. . ... : ... .. 8 ... : ... .. . ... : ... .. . ... : ... .. . ...
ROW 19 : ... .. . ... : ... .. . ... : ... .. . ... : ... .. . ... : ... .. . ...
ROW 1A : ... .. . ... : ... .. . ... : ... .. . ... : ... .. . ... : ... .. . ...
ROW 1B : ... .. . ... : ... .. . ... : ... .. . ... : ... .. . ... : ... .. . ...
ROW 1C : ... .. . ... : ... .. . ... : ... .. . ... : ... .. . ... : ... .. . ...
ROW 1D : ... .. . ... : ... .. . ... : ... .. . ... : ... .. . ... : ... .. . ...
ROW 1E : ... .. . ... : ... .. . ... : ... .. . ... : ... .. . ... : ... .. . ...
ROW 1F : ... .. . ... : ... .. . ... : ... .. . ... : ... .. . ... : ... .. . ...
ROW 20 : ... .. . ... : ... .. . ... : ... .. . ... : ... .. . ... : ... .. . ...
ROW 21 : ... .. . ... : ... .. . ... : ... .. . ... : ... .. . ... : ... .. . ...
ROW 22 : ... .. . ... : ... .. . ... : ... .. . ... : ... .. . ... : ... .. . ...
ROW 23 : ... .. . ... : ... .. . ... : ... .. . ... : ... .. . ... : ... .. . ...
ROW 24 : ... .. . ... : G-2 08 A 400 : ... .. . ... : ... .. . ... : ... .. . ...
ROW 25 : ... .. . ... : ... .. . ... : ... .. . ... : ... .. . ... : ... .. . ...
ROW 26 : ... .. . ... : ... .. . ... : ... .. . ... : ... .. . ... : ... .. . ...
ROW 27 : ... .. . ... : ... .. . ... : ... .. . ... : ... .. . ... : ... .. . ...
ROW 28 : ... .. . ... : ... .. . ... : ... .. . ... : ... .. . ... : ... .. . ...
ROW 29 : ... .. . ... : ... .. . ... : ... .. . ... : ... .. . ... : ... .. . ...
ROW 2A : ... .. . ... : D#3 08 . ... : ... .. . ... : ... .. . ... : ... .. . ...
ROW 2B : ... .. . ... : ... .. . ... : ... .. . ... : ... .. . ... : ... .. . ...
ROW 2C : ... .. . ... : ... .. . ... : ... .. . ... : ... .. . ... : ... .. . ...
ROW 2D : ... .. . ... : ... .. . ... : ... .. . ... : ... .. . ... : ... .. . ...
ROW 2E : ... .. . ... : ... .. . ... : ... .. . ... : ... .. . ... : ... .. . ...
ROW 2F : ... .. . ... : ... .. . ... : ... .. . ... : ... .. . ... : ... .. . ...
ROW 30 : ... .. . ... : G-3 08 . ... : ... .. . ... : ... .. . ... : ... .. . ...
ROW 31 : ... .. . ... : ... .. . ... : ... .. . ... : ... .. . ... : ... .. . ...
ROW 32 : ... .. . ... : ... .. . ... : ... .. . ... : ... .. . ... : ... .. . ...
ROW 33 : ... .. . ... : ... .. . ... : ... .. . ... : ... .. . ... : ... .. . ...
ROW 34 : ... .. . ... : ... .. . ... : ... .. . ... : ... .. . ... : ... .. . ...
ROW 35 : ... .. . ... : ... .. . ... : ... .. . ... : ... .. . ... : ... .. . ...
ROW 36 : ... .. . ... : ... .. . ... : ... .. . ... : ... .. . ... : ... .. . ...
ROW 37 : ... .. . ... : ... .. . ... : ... .. . ... : ... .. . ... : ... .. . ...
ROW 38 : ... .. . ... : ... .. . ... : ... .. . ... : ... .. . ... : ... .. . ...
ROW 39 : ... .. . ... : ... .. . ... : ... .. . ... : ... .. . ... : ... .. . ...
ROW 3A : ... .. . ... : ... .. . ... : ... .. . ... : ... .. . ... : ... .. . ...
ROW 3B : ... .. . ... : ... .. . ... : ... .. . ... : ... .. . ... : ... .. . ...
ROW 3C : ... .. . ... : ... .. . 452 : ... .. . ... : ... .. . ... : ... .. . ...
ROW 3D : ... .. . ... : ... .. . ... : ... .. . ... : ... .. . ... : ... .. . ...
ROW 3E : ... .. . ... : ... .. . ... : ... .. . ... : ... .. . ... : ... .. . ...
ROW 3F : ... .. . ... : ... .. . ... : ... .. . ... : ... .. . ... : ... .. . ...
ROW 40 : ... .. . ... : ... .. . ... : ... .. . ... : ... .. . ... : ... .. . ...
ROW 41 : ... .. . ... : ... .. . ... : ... .. . ... : ... .. . ... : ... .. . ...
ROW 42 : ... .. . ... : ... .. . ... : ... .. . ... : ... .. . ... : ... .. . ...
ROW 43 : ... .. . ... : ... .. . ... : ... .. . ... : ... .. . ... : ... .. . ...
ROW 44 : ... .. . ... : ... .. . ... : ... .. . ... : ... .. . ... : ... .. . ...
ROW 45 : ... .. . ... : ... .. . ... : ... .. . ... : ... .. . ... : ... .. . ...
ROW 46 : ... .. . ... : ... .. . ... : ... .. . ... : ... .. . ... : ... .. . ...
ROW 47 : ... .. . ... : ... .. . ... : ... .. . ... : ... .. . ... : ... .. . ...
ROW 48 : ... .. . ... : ... .. 8 ... : ... .. . ... : ... .. . ... : ... .. . ...
ROW 49 : ... .. . ... : ... .. . ... : ... .. . ... : ... .. . ... : ... .. . ...
ROW 4A : ... .. . ... : ... .. . ... : ... .. . ... : ... .. . ... : ... .. . ...
ROW 4B : ... .. . ... : ... .. . ... : ... .. . ... : ... .. . ... : ... .. . ...
ROW 4C : ... .. . ... : ... .. . ... : ... .. . ... : ... .. . ... : ... .. . ...
ROW 4D : ... .. . ... : ... .. . ... : ... .. . ... : ... .. . ... : ... .. . ...
ROW 4E : ... .. . ... : ... .. . ... : ... .. . ... : ... .. . ... : ... .. . ...
ROW 4F : ... .. . ... : ... .. . ... : ... .. . ... : ... .. . ... : ... .. . ...
ROW 50 : ... .. . ... : ... .. . ... : ... .. . ... : ... .. . ... : ... .. . ...
ROW 51 : ... .. . ... : ... .. . ... : ... .. . ... : ... .. . ... : ... .. . ...
ROW 52 : ... .. . ... : ... .. . ... : ... .. . ... : ... .. . ... : ... .. . ...
ROW 53 : ... .. . ... : ... .. . ... : ... .. . ... : ... .. . ... : ... .. . ...
ROW 54 : ... .. . ... : F-3 08 A 400 : ... .. . ... : ... .. . ... : ... .. . ...
ROW 55 : ... .. . ... : ... .. . ... : ... .. . ... : ... .. . ... : ... .. . ...
ROW 56 : ... .. . ... : ... .. . ... : ... .. . ... : ... .. . ... : ... .. . ...
ROW 57 : ... .. . ... : ... .. . ... : ... .. . ... : ... .. . ... : ... .. . ...
ROW 58 : ... .. . ... : ... .. . ... : ... .. . ... : ... .. . ... : ... .. . ...
ROW 59 : ... .. . ... : ... .. . ... : ... .. . ... : ... .. . ... : ... .. . ...
ROW 5A : ... .. . ... : G-3 08 . ... : ... .. . ... : ... .. . ... : ... .. . ...
ROW 5B : ... .. . ... : ... .. . ... : ... .. . ... : ... .. . ... : ... .. . ...
ROW 5C : ... .. . ... : ... .. . ... : ... .. . ... : ... .. . ... : ... .. . ...
ROW 5D : ... .. . ... : ... .. . ... : ... .. . ... : ... .. . ... : ... .. . ...
ROW 5E : ... .. . ... : ... .. . ... : ... .. . ... : ... .. . ... : ... .. . ...
ROW 5F : ... .. . ... : ... .. . ... : ... .. . ... : ... .. . ... : ... .. . ...
ROW 60 : ... .. . ... : A-3 08 . ... : ... .. . ... : ... .. . ... : ... .. . ...
ROW 61 : ... .. . ... : ... .. . ... : ... .. . ... : ... .. . ... : ... .. . ...
ROW 62 : ... .. . ... : ... .. . ... : ... .. . ... : ... .. . ... : ... .. . ...
ROW 63 : ... .. . ... : ... .. . ... : ... .. . ... : ... .. . ... : ... .. . ...
ROW 64 : ... .. . ... : ... .. . ... : ... .. . ... : ... .. . ... : ... .. . ...
ROW 65 : ... .. . ... : ... .. . ... : ... .. . ... : ... .. . ... : ... .. . ...
ROW 66 : ... .. . ... : ... .. . ... : ... .. . ... : ... .. . ... : ... .. . ...
ROW 67 : ... .. . ... : ... .. . ... : ... .. . ... : ... .. . ... : ... .. . ...
ROW 68 : ... .. . ... : ... .. . ... : ... .. . ... : ... .. . ... : ... .. . ...
ROW 69 : ... .. . ... : ... .. . ... : ... .. . ... : ... .. . ... : ... .. . ...
ROW 6A : ... .. . ... : ... .. . ... : ... .. . ... : ... .. . ... : ... .. . ...
ROW 6B : ... .. . ... : ... .. . ... : ... .. . ... : ... .. . ... : ... .. . ...
ROW 6C : ... .. . ... : ... .. . 452 : ... .. . ... : ... .. . ... : ... .. . ...
ROW 6D : ... .. . ... : ... .. . ... : ... .. . ... : ... .. . ... : ... .. . ...
ROW 6E : ... .. . ... : ... .. . ... : ... .. . ... : ... .. . ... : ... .. . ...
ROW 6F : ... .. . ... : ... .. . ... : ... .. . ... : ... .. . ... : ... .. . ...
ROW 70 : ... .. . ... : ... .. . ... : ... .. . ... : ... .. . ... : ... .. . ...
ROW 71 : ... .. . ... : ... .. . ... : ... .. . ... : ... .. . ... : ... .. . ...
ROW 72 : ... .. . ... : ... .. . ... : ... .. . ... : ... .. . ... : ... .. . ...
ROW 73 : ... .. . ... : ... .. . ... : ... .. . ... : ... .. . ... : ... .. . ...
ROW 74 : ... .. . ... : ... .. . ... : ... .. . ... : ... .. . ... : ... .. . ...
ROW 75 : ... .. . ... : ... .. . ... : ... .. . ... : ... .. . ... : ... .. . ...
ROW 76 : ... .. . ... : ... .. . ... : ... .. . ... : ... .. . ... : ... .. . ...
ROW 77 : ... .. . ... : ... .. . ... : ... .. . ... : ... .. . ... : ... .. . ...
ROW 78 : ... .. . ... : ... .. 8 ... : ... .. . ... : ... .. . ... : ... .. . ...
ROW 79 : ... .. . ... : ... .. . ... : ... .. . ... : ... .. . ... : ... .. . ...
ROW 7A : ... .. . ... : ... .. . ... : ... .. . ... : ... .. . ... : ... .. . ...
ROW 7B : ... .. . ... : ... .. . ... : ... .. . ... : ... .. . ... : ... .. . ...
ROW 7C : ... .. . ... : ... .. . ... : ... .. . ... : ... .. . ... : ... .. . ...
ROW 7D : ... .. . ... : ... .. . ... : ... .. . ... : ... .. . ... : ... .. . ...
ROW 7E : ... .. . ... : ... .. . ... : ... .. . ... : ... .. . ... : ... .. . ...
ROW 7F : ... .. . ... : ... .. . ... : ... .. . ... : ... .. . ... : ... .. . ...
ROW 80 : ... .. . ... : ... .. . ... : ... .. . ... : ... .. . ... : ... .. . ...
ROW 81 : ... .. . ... : ... .. . ... : ... .. . ... : ... .. . ... : ... .. . ...
ROW 82 : ... .. . ... : ... .. . ... : ... .. . ... : ... .. . ... : ... .. . ...
ROW 83 : ... .. . ... : ... .. . ... : ... .. . ... : ... .. . ... : ... .. . ...
ROW 84 : ... .. . ... : A-2 08 A 400 : ... .. . ... : ... .. . ... : ... .. . ...
ROW 85 : ... .. . ... : ... .. . ... : ... .. . ... : ... .. . ... : ... .. . ...
ROW 86 : ... .. . ... : ... .. . ... : ... .. . ... : ... .. . ... : ... .. . ...
ROW 87 : ... .. . ... : ... .. . ... : ... .. . ... : ... .. . ... : ... .. . ...
ROW 88 : ... .. . ... : ... .. . ... : ... .. . ... : ... .. . ... : ... .. . ...
ROW 89 : ... .. . ... : ... .. . ... : ... .. . ... : ... .. . ... : ... .. . ...
ROW 8A : ... .. . ... : F-3 08 . ... : ... .. . ... : ... .. . ... : ... .. . ...
ROW 8B : ... .. . ... : ... .. . ... : ... .. . ... : ... .. . ... : ... .. . ...
ROW 8C : ... .. . ... : ... .. . ... : ... .. . ... : ... .. . ... : ... .. . ...
ROW 8D : ... .. . ... : ... .. . ... : ... .. . ... : ... .. . ... : ... .. . ...
ROW 8E : ... .. . ... : ... .. . ... : ... .. . ... : ... .. . ... : ... .. . ...
ROW 8F : ... .. . ... : ... .. . ... : ... .. . ... : ... .. . ... : ... .. . ...
ROW 90 : ... .. . ... : A-3 08 . ... : ... .. . ... : ... .. . ... : ... .. . ...
ROW 91 : ... .. . ... : ... .. . ... : ... .. . ... : ... .. . ... : ... .. . ...
ROW 92 : ... .. . ... : ... .. . ... : ... .. . ... : ... .. . ... : ... .. . ...
ROW 93 : ... .. . ... : ... .. . ... : ... .. . ... : ... .. . ... : ... .. . ...
ROW 94 : ... .. . ... : ... .. . ... : ... .. . ... : ... .. . ... : ... .. . ...
ROW 95 : ... .. . ... : ... .. . ... : ... .. . ... : ... .. . ... : ... .. . ...
ROW 96 : ... .. . ... : ... .. . ... : ... .. . ... : ... .. . ... : ... .. . ...
ROW 97 : ... .. . ... : ... .. . ... : ... .. . ... : ... .. . ... : ... .. . ...
ROW 98 : ... .. . ... : ... .. . ... : ... .. . ... : ... .. . ... : ... .. . ...
ROW 99 : ... .. . ... : ... .. . ... : ... .. . ... : ... .. . ... : ... .. . ...
ROW 9A : ... .. . ... : ... .. . ... : ... .. . ... : ... .. . ... : ... .. . ...
ROW 9B : ... .. . ... : ... .. . ... : ... .. . ... : ... .. . ... : ... .. . ...
ROW 9C : ... .. . ... : ... .. . 452 : ... .. . ... : ... .. . ... : ... .. . ...
ROW 9D : ... .. . ... : ... .. . ... : ... .. . ... : ... .. . ... : ... .. . ...
ROW 9E : ... .. . ... : ... .. . ... : ... .. . ... : ... .. . ... : ... .. . ...
ROW 9F : ... .. . ... : ... .. . ... : ... .. . ... : ... .. . ... : ... .. . ...
ROW A0 : ... .. . ... : ... .. . ... : ... .. . ... : ... .. . ... : ... .. . ...
ROW A1 : ... .. . ... : ... .. . ... : ... .. . ... : ... .. . ... : ... .. . ...
ROW A2 : ... .. . ... : ... .. . ... : ... .. . ... : ... .. . ... : ... .. . ...
ROW A3 : ... .. . ... : ... .. . ... : ... .. . ... : ... .. . ... : ... .. . ...
ROW A4 : ... .. . ... : ... .. . ... : ... .. . ... : ... .. . ... : ... .. . ...
ROW A5 : ... .. . ... : ... .. . ... : ... .. . ... : ... .. . ... : ... .. . ...
ROW A6 : ... .. . ... : ... .. . ... : ... .. . ... : ... .. . ... : ... .. . ...
ROW A7 : ... .. . ... : ... .. . ... : ... .. . ... : ... .. . ... : ... .. . ...
ROW A8 : ... .. . ... : ... .. 8 ... : ... .. . ... : ... .. . ... : ... .. . ...
ROW A9 : ... .. . ... : ... .. . ... : ... .. . ... : ... .. . ... : ... .. . ...
ROW AA : ... .. . ... : ... .. . ... : ... .. . ... : ... .. . ... : ... .. . ...
ROW AB : ... .. . ... : ... .. . ... : ... .. . ... : ... .. . ... : ... .. . ...
ROW AC : ... .. . ... : ... .. . ... : ... .. . ... : ... .. . ... : ... .. . ...
ROW AD : ... .. . ... : ... .. . ... : ... .. . ... : ... .. . ... : ... .. . ...
ROW AE : ... .. . ... : ... .. . ... : ... .. . ... : ... .. . ... : ... .. . ...
ROW AF : ... .. . ... : ... .. . ... : ... .. . ... : ... .. . ... : ... .. . ...
ROW B0 : ... .. . ... : ... .. . ... : ... .. . ... : ... .. . ... : ... .. . ...
ROW B1 : ... .. . ... : ... .. . ... : ... .. . ... : ... .. . ... : ... .. . ...
ROW B2 : ... .. . ... : ... .. . ... : ... .. . ... : ... .. . ... : ... .. . ...
ROW B3 : ... .. . ... : ... .. . ... : ... .. . ... : ... .. . ... : ... .. . ...
ROW B4 : ... .. . ... : G-3 08 A 400 : ... .. . ... : ... .. . ... : ... .. . ...
ROW B5 : ... .. . ... : ... .. . ... : ... .. . ... : ... .. . ... : ... .. . ...
ROW B6 : ... .. . ... : ... .. . ... : ... .. . ... : ... .. . ... : ... .. . ...
ROW B7 : ... .. . ... : ... .. . ... : ... .. . ... : ... .. . ... : ... .. . ...
ROW B8 : ... .. . ... : ... .. . ... : ... .. . ... : ... .. . ... : ... .. . ...
ROW B9 : ... .. . ... : ... .. . ... : ... .. . ... : ... .. . ... : ... .. . ...
ROW BA : ... .. . ... : A-3 08 . ... : ... .. . ... : ... .. . ... : ... .. . ...
ROW BB : ... .. . ... : ... .. . ... : ... .. . ... : ... .. . ... : ... .. . ...
ROW BC : ... .. . ... : ... .. . ... : ... .. . ... : ... .. . ... : ... .. . ...
ROW BD : ... .. . ... : ... .. . ... : ... .. . ... : ... .. . ... : ... .. . ...
ROW BE : ... .. . ... : ... .. . ... : ... .. . ... : ... .. . ... : ... .. . ...
ROW BF : ... .. . ... : ... .. . ... : ... .. . ... : ... .. . ... : ... .. . ...
PATTERN 13
ROW 00 : ... .. . ... : A#3 09 A 400 : ... .. . ... : ... .. . ... : ... .. . ...
ROW 01 : ... .. . ... : ... .. . ... : ... .. . ... : ... .. . ... : ... .. . ...
ROW 02 : ... .. . ... : ... .. . ... : ... .. . ... : ... .. . ... : ... .. . ...
ROW 03 : ... .. . ... : ... .. . ... : ... .. . ... : ... .. . ... : ... .. . ...
ROW 04 : ... .. . ... : ... .. . ... : ... .. . ... : ... .. . ... : ... .. . ...
ROW 05 : ... .. . ... : ... .. . ... : ... .. . ... : ... .. . ... : ... .. . ...
ROW 06 : ... .. . ... : ... .. . ... : ... .. . ... : ... .. . ... : ... .. . ...
ROW 07 : ... .. . ... : ... .. . ... : ... .. . ... : ... .. . ... : ... .. . ...
ROW 08 : ... .. . ... : ... .. . ... : ... .. . ... : ... .. . ... : ... .. . ...
ROW 09 : ... .. . ... : ... .. . ... : ... .. . ... : ... .. . ... : ... .. . ...
ROW 0A : ... .. . ... : ... .. . ... : ... .. . ... : ... .. . ... : ... .. . ...
ROW 0B : ... .. . ... : ... .. . ... : ... .. . ... : ... .. . ... : ... .. . ...
ROW 0C : ... .. . ... : ... .. . 452 : ... .. . ... : ... .. . ... : ... .. . ...
ROW 0D : ... .. . ... : ... .. . ... : ... .. . ... : ... .. . ... : ... .. . ...
ROW 0E : ... .. . ... : ... .. . ... : ... .. . ... : ... .. . ... : ... .. . ...
ROW 0F : ... .. . ... : ... .. . ... : ... .. . ... : ... .. . ... : ... .. . ...
ROW 10 : ... .. . ... : ... .. . ... : ... .. . ... : ... .. . ... : ... .. . ...
ROW 11 : ... .. . ... : ... .. . ... : ... .. . ... : ... .. . ... : ... .. . ...
ROW 12 : ... .. . ... : ... .. . ... : ... .. . ... : ... .. . ... : ... .. . ...
ROW 13 : ... .. . ... : ... .. . ... : ... .. . ... : ... .. . ... : ... .. . ...
ROW 14 : ... .. . ... : ... .. . ... : ... .. . ... : ... .. . ... : ... .. . ...
ROW 15 : ... .. . ... : ... .. . ... : ... .. . ... : ... .. . ... : ... .. . ...
ROW 16 : ... .. . ... : ... .. . ... : ... .. . ... : ... .. . ... : ... .. . ...
ROW 17 : ... .. . ... : ... .. . ... : ... .. . ... : ... .. . ... : ... .. . ...
ROW 18 : ... .. . ... : ... .. 8 ... : ... .. . ... : ... .. . ... : ... .. . ...
ROW 19 : ... .. . ... : ... .. . ... : ... .. . ... : ... .. . ... : ... .. . ...
ROW 1A : ... .. . ... : ... .. . ... : ... .. . ... : ... .. . ... : ... .. . ...
ROW 1B : ... .. . ... : ... .. . ... : ... .. . ... : ... .. . ... : ... .. . ...
ROW 1C : ... .. . ... : ... .. . ... : ... .. . ... : ... .. . ... : ... .. . ...
ROW 1D : ... .. . ... : ... .. . ... : ... .. . ... : ... .. . ... : ... .. . ...
ROW 1E : ... .. . ... : ... .. . ... : ... .. . ... : ... .. . ... : ... .. . ...
ROW 1F : ... .. . ... : ... .. . ... : ... .. . ... : ... .. . ... : ... .. . ...
ROW 20 : ... .. . ... : ... .. . ... : ... .. . ... : ... .. . ... : ... .. . ...
ROW 21 : ... .. . ... : ... .. . ... : ... .. . ... : ... .. . ... : ... .. . ...
ROW 22 : ... .. . ... : ... .. . ... : ... .. . ... : ... .. . ... : ... .. . ...
ROW 23 : ... .. . ... : ... .. . ... : ... .. . ... : ... .. . ... : ... .. . ...
ROW 24 : ... .. . ... : A-2 09 A 400 : ... .. . ... : ... .. . ... : ... .. . ...
ROW 25 : ... .. . ... : ... .. . ... : ... .. . ... : ... .. . ... : ... .. . ...
ROW 26 : ... .. . ... : ... .. . ... : ... .. . ... : ... .. . ... : ... .. . ...
ROW 27 : ... .. . ... : ... .. . ... : ... .. . ... : ... .. . ... : ... .. . ...
ROW 28 : ... .. . ... : ... .. . ... : ... .. . ... : ... .. . ... : ... .. . ...
ROW 29 : ... .. . ... : ... .. . ... : ... .. . ... : ... .. . ... : ... .. . ...
ROW 2A : ... .. . ... : A#2 09 . ... : ... .. . ... : ... .. . ... : ... .. . ...
ROW 2B : ... .. . ... : ... .. . ... : ... .. . ... : ... .. . ... : ... .. . ...
ROW 2C : ... .. . ... : ... .. . ... : ... .. . ... : ... .. . ... : ... .. . ...
ROW 2D : ... .. . ... : ... .. . ... : ... .. . ... : ... .. . ... : ... .. . ...
ROW 2E : ... .. . ... : ... .. . ... : ... .. . ... : ... .. . ... : ... .. . ...
ROW 2F : ... .. . ... : ... .. . ... : ... .. . ... : ... .. . ... : ... .. . ...
ROW 30 : ... .. . ... : G-3 09 . ... : ... .. . ... : ... .. . ... : ... .. . ...
ROW 31 : ... .. . ... : ... .. . ... : ... .. . ... : ... .. . ... : ... .. . ...
ROW 32 : ... .. . ... : ... .. . ... : ... .. . ... : ... .. . ... : ... .. . ...
ROW 33 : ... .. . ... : ... .. . ... : ... .. . ... : ... .. . ... : ... .. . ...
ROW 34 : ... .. . ... : ... .. . ... : ... .. . ... : ... .. . ... : ... .. . ...
ROW 35 : ... .. . ... : ... .. . ... : ... .. . ... : ... .. . ... : ... .. . ...
ROW 36 : ... .. . ... : ... .. . ... : ... .. . ... : ... .. . ... : ... .. . ...
ROW 37 : ... .. . ... : ... .. . ... : ... .. . ... : ... .. . ... : ... .. . ...
ROW 38 : ... .. . ... : ... .. . ... : ... .. . ... : ... .. . ... : ... .. . ...
ROW 39 : ... .. . ... : ... .. . ... : ... .. . ... : ... .. . ... : ... .. . ...
ROW 3A : ... .. . ... : ... .. . ... : ... .. . ... : ... .. . ... : ... .. . ...
ROW 3B : ... .. . ... : ... .. . ... : ... .. . ... : ... .. . ... : ... .. . ...
ROW 3C : ... .. . ... : ... .. . ... : ... .. . ... : ... .. . ... : ... .. . ...
ROW 3D : ... .. . ... : ... .. . ... : ... .. . ... : ... .. . ... : ... .. . ...
ROW 3E : ... .. . ... : ... .. . ... : ... .. . ... : ... .. . ... : ... .. . ...
ROW 3F : ... .. . ... : ... .. . ... : ... .. . ... : ... .. . ... : ... .. . ...
ROW 40 : ... .. . ... : ... .. . ... : ... .. . ... : ... .. . ... : ... .. . ...
ROW 41 : ... .. . ... : ... .. . ... : ... .. . ... : ... .. . ... : ... .. . ...
ROW 42 : ... .. . ... : ... .. . ... : ... .. . ... : ... .. . ... : ... .. . ...
ROW 43 : ... .. . ... : ... .. . ... : ... .. . ... : ... .. . ... : ... .. . ...
ROW 44 : ... .. . ... : ... .. . ... : ... .. . ... : ... .. . ... : ... .. . ...
ROW 45 : ... .. . ... : ... .. . ... : ... .. . ... : ... .. . ... : ... .. . ...
ROW 46 : ... .. . ... : ... .. . ... : ... .. . ... : ... .. . ... : ... .. . ...
ROW 47 : ... .. . ... : ... .. . ... : ... .. . ... : ... .. . ... : ... .. . ...
ROW 48 : ... .. . ... : ... .. 8 ... : ... .. . ... : ... .. . ... : ... .. . ...
ROW 49 : ... .. . ... : ... .. . ... : ... .. . ... : ... .. . ... : ... .. . ...
ROW 4A : ... .. . ... : ... .. . ... : ... .. . ... : ... .. . ... : ... .. . ...
ROW 4B : ... .. . ... : ... .. . ... : ... .. . ... : ... .. . ... : ... .. . ...
ROW 4C : ... .. . ... : ... .. . ... : ... .. . ... : ... .. . ... : ... .. . ...
ROW 4D : ... .. . ... : ... .. . ... : ... .. . ... : ... .. . ... : ... .. . ...
ROW 4E : ... .. . ... : ... .. . ... : ... .. . ... : ... .. . ... : ... .. . ...
ROW 4F : ... .. . ... : ... .. . ... : ... .. . ... : ... .. . ... : ... .. . ...
ROW 50 : ... .. . ... : ... .. . ... : ... .. . ... : ... .. . ... : ... .. . ...
ROW 51 : ... .. . ... : ... .. . ... : ... .. . ... : ... .. . ... : ... .. . ...
ROW 52 : ... .. . ... : ... .. . ... : ... .. . ... : ... .. . ... : ... .. . ...
ROW 53 : ... .. . ... : ... .. . ... : ... .. . ... : ... .. . ... : ... .. . ...
ROW 54 : ... .. . ... : ... .. . ... : ... .. . ... : ... .. . ... : ... .. . ...
ROW 55 : ... .. . ... : ... .. . ... : ... .. . ... : ... .. . ... : ... .. . ...
ROW 56 : ... .. . ... : ... .. . ... : ... .. . ... : ... .. . ... : ... .. . ...
ROW 57 : ... .. . ... : ... .. . ... : ... .. . ... : ... .. . ... : ... .. . ...
ROW 58 : ... .. . ... : ... .. . ... : ... .. . ... : ... .. . ... : ... .. . ...
ROW 59 : ... .. . ... : ... .. . ... : ... .. . ... : ... .. . ... : ... .. . ...
ROW 5A : ... .. . ... : ... .. . ... : ... .. . ... : ... .. . ... : ... .. . ...
ROW 5B : ... .. . ... : ... .. . ... : ... .. . ... : ... .. . ... : ... .. . ...
ROW 5C : ... .. . ... : ... .. . ... : ... .. . ... : ... .. . ... : ... .. . ...
ROW 5D : ... .. . ... : ... .. . ... : ... .. . ... : ... .. . ... : ... .. . ...
ROW 5E : ... .. . ... : ... .. . ... : ... .. . ... : ... .. . ... : ... .. . ...
ROW 5F : ... .. . ... : ... .. . ... : ... .. . ... : ... .. . ... : ... .. . ...
ROW 60 : ... .. . ... : ... .. . ... : ... .. . ... : ... .. . ... : ... .. . ...
ROW 61 : ... .. . ... : ... .. . ... : ... .. . ... : ... .. . ... : ... .. . ...
ROW 62 : ... .. . ... : ... .. . ... : ... .. . ... : ... .. . ... : ... .. . ...
ROW 63 : ... .. . ... : ... .. . ... : ... .. . ... : ... .. . ... : ... .. . ...
ROW 64 : ... .. . ... : ... .. . ... : ... .. . ... : ... .. . ... : ... .. . ...
ROW 65 : ... .. . ... : ... .. . ... : ... .. . ... : ... .. . ... : ... .. . ...
ROW 66 : ... .. . ... : ... .. . ... : ... .. . ... : ... .. . ... : ... .. . ...
ROW 67 : ... .. . ... : ... .. . ... : ... .. . ... : ... .. . ... : ... .. . ...
ROW 68 : ... .. . ... : ... .. . ... : ... .. . ... : ... .. . ... : ... .. . ...
ROW 69 : ... .. . ... : ... .. . ... : ... .. . ... : ... .. . ... : ... .. . ...
ROW 6A : ... .. . ... : ... .. . ... : ... .. . ... : ... .. . ... : ... .. . ...
ROW 6B : ... .. . ... : ... .. . ... : ... .. . ... : ... .. . ... : ... .. . ...
ROW 6C : ... .. . ... : ... .. . ... : ... .. . ... : ... .. . ... : ... .. . ...
ROW 6D : ... .. . ... : ... .. . ... : ... .. . ... : ... .. . ... : ... .. . ...
ROW 6E : ... .. . ... : ... .. . ... : ... .. . ... : ... .. . ... : ... .. . ...
ROW 6F : ... .. . ... : ... .. . ... : ... .. . ... : ... .. . ... : ... .. . ...
ROW 70 : ... .. . ... : ... .. . ... : ... .. . ... : ... .. . ... : ... .. . ...
ROW 71 : ... .. . ... : ... .. . ... : ... .. . ... : ... .. . ... : ... .. . ...
ROW 72 : ... .. . ... : ... .. . ... : ... .. . ... : ... .. . ... : ... .. . ...
ROW 73 : ... .. . ... : ... .. . ... : ... .. . ... : ... .. . ... : ... .. . ...
ROW 74 : ... .. . ... : ... .. . ... : ... .. . ... : ... .. . ... : ... .. . ...
ROW 75 : ... .. . ... : ... .. . ... : ... .. . ... : ... .. . ... : ... .. . ...
ROW 76 : ... .. . ... : ... .. . ... : ... .. . ... : ... .. . ... : ... .. . ...
ROW 77 : ... .. . ... : ... .. . ... : ... .. . ... : ... .. . ... : ... .. . ...
ROW 78 : ... .. . ... : ... .. . ... : ... .. . ... : ... .. . ... : ... .. . ...
ROW 79 : ... .. . ... : ... .. . ... : ... .. . ... : ... .. . ... : ... .. . ...
ROW 7A : ... .. . ... : ... .. . ... : ... .. . ... : ... .. . ... : ... .. . ...
ROW 7B : ... .. . ... : ... .. . ... : ... .. . ... : ... .. . ... : ... .. . ...
ROW 7C : ... .. . ... : ... .. . ... : ... .. . ... : ... .. . ... : ... .. . ...
ROW 7D : ... .. . ... : ... .. . ... : ... .. . ... : ... .. . ... : ... .. . ...
ROW 7E : ... .. . ... : ... .. . ... : ... .. . ... : ... .. . ... : ... .. . ...
ROW 7F : ... .. . ... : ... .. . ... : ... .. . ... : ... .. . ... : ... .. . ...
ROW 80 : ... .. . ... : ... .. . ... : ... .. . ... : ... .. . ... : ... .. . ...
ROW 81 : ... .. . ... : ... .. . ... : ... .. . ... : ... .. . ... : ... .. . ...
ROW 82 : ... .. . ... : ... .. . ... : ... .. . ... : ... .. . ... : ... .. . ...
ROW 83 : ... .. . ... : ... .. . ... : ... .. . ... : ... .. . ... : ... .. . ...
ROW 84 : ... .. . ... : ... .. . ... : ... .. . ... : ... .. . ... : ... .. . ...
ROW 85 : ... .. . ... : ... .. . ... : ... .. . ... : ... .. . ... : ... .. . ...
ROW 86 : ... .. . ... : ... .. . ... : ... .. . ... : ... .. . ... : ... .. . ...
ROW 87 : ... .. . ... : ... .. . ... : ... .. . ... : ... .. . ... : ... .. . ...
ROW 88 : ... .. . ... : ... .. . ... : ... .. . ... : ... .. . ... : ... .. . ...
ROW 89 : ... .. . ... : ... .. . ... : ... .. . ... : ... .. . ... : ... .. . ...
ROW 8A : ... .. . ... : ... .. . ... : ... .. . ... : ... .. . ... : ... .. . ...
ROW 8B : ... .. . ... : ... .. . ... : ... .. . ... : ... .. . ... : ... .. . ...
ROW 8C : ... .. . ... : ... .. . ... : ... .. . ... : ... .. . ... : ... .. . ...
ROW 8D : ... .. . ... : ... .. . ... : ... .. . ... : ... .. . ... : ... .. . ...
ROW 8E : ... .. . ... : ... .. . ... : ... .. . ... : ... .. . ... : ... .. . ...
ROW 8F : ... .. . ... : ... .. . ... : ... .. . ... : ... .. . ... : ... .. . ...
ROW 90 : ... .. . ... : F-3 09 A 400 : ... .. . ... : ... .. . ... : ... .. . ...
ROW 91 : ... .. . ... : ... .. . ... : ... .. . ... : ... .. . ... : ... .. . ...
ROW 92 : ... .. . ... : ... .. . ... : ... .. . ... : ... .. . ... : ... .. . ...
ROW 93 : ... .. . ... : ... .. . ... : ... .. . ... : ... .. . ... : ... .. . ...
ROW 94 : ... .. . ... : ... .. . ... : ... .. . ... : ... .. . ... : ... .. . ...
ROW 95 : ... .. . ... : ... .. . ... : ... .. . ... : ... .. . ... : ... .. . ...
ROW 96 : ... .. . ... : ... .. . ... : ... .. . ... : ... .. . ... : ... .. . ...
ROW 97 : ... .. . ... : ... .. . ... : ... .. . ... : ... .. . ... : ... .. . ...
ROW 98 : ... .. . ... : ... .. . ... : ... .. . ... : ... .. . ... : ... .. . ...
ROW 99 : ... .. . ... : ... .. . ... : ... .. . ... : ... .. . ... : ... .. . ...
ROW 9A : ... .. . ... : ... .. . ... : ... .. . ... : ... .. . ... : ... .. . ...
ROW 9B : ... .. . ... : ... .. . ... : ... .. . ... : ... .. . ... : ... .. . ...
ROW 9C : ... .. . ... : ... .. . 452 : ... .. . ... : ... .. . ... : ... .. . ...
ROW 9D : ... .. . ... : ... .. . ... : ... .. . ... : ... .. . ... : ... .. . ...
ROW 9E : ... .. . ... : ... .. . ... : ... .. . ... : ... .. . ... : ... .. . ...
ROW 9F : ... .. . ... : ... .. . ... : ... .. . ... : ... .. . ... : ... .. . ...
ROW A0 : ... .. . ... : ... .. . ... : ... .. . ... : ... .. . ... : ... .. . ...
ROW A1 : ... .. . ... : ... .. . ... : ... .. . ... : ... .. . ... : ... .. . ...
ROW A2 : ... .. . ... : ... .. . ... : ... .. . ... : ... .. . ... : ... .. . ...
ROW A3 : ... .. . ... : ... .. . ... : ... .. . ... : ... .. . ... : ... .. . ...
ROW A4 : ... .. . ... : ... .. . ... : ... .. . ... : ... .. . ... : ... .. . ...
ROW A5 : ... .. . ... : ... .. . ... : ... .. . ... : ... .. . ... : ... .. . ...
ROW A6 : ... .. . ... : ... .. . ... : ... .. . ... : ... .. . ... : ... .. . ...
ROW A7 : ... .. . ... : ... .. . ... : ... .. . ... : ... .. . ... : ... .. . ...
ROW A8 : ... .. . ... : ... .. 8 ... : ... .. . ... : ... .. . ... : ... .. . ...
ROW A9 : ... .. . ... : ... .. . ... : ... .. . ... : ... .. . ... : ... .. . ...
ROW AA : ... .. . ... : ... .. . ... : ... .. . ... : ... .. . ... : ... .. . ...
ROW AB : ... .. . ... : ... .. . ... : ... .. . ... : ... .. . ... : ... .. . ...
ROW AC : ... .. . ... : ... .. . ... : ... .. . ... : ... .. . ... : ... .. . ...
ROW AD : ... .. . ... : ... .. . ... : ... .. . ... : ... .. . ... : ... .. . ...
ROW AE : ... .. . ... : ... .. . ... : ... .. . ... : ... .. . ... : ... .. . ...
ROW AF : ... .. . ... : ... .. . ... : ... .. . ... : ... .. . ... : ... .. . ...
ROW B0 : ... .. . ... : ... .. . ... : ... .. . ... : ... .. . ... : ... .. . ...
ROW B1 : ... .. . ... : ... .. . ... : ... .. . ... : ... .. . ... : ... .. . ...
ROW B2 : ... .. . ... : ... .. . ... : ... .. . ... : ... .. . ... : ... .. . ...
ROW B3 : ... .. . ... : ... .. . ... : ... .. . ... : ... .. . ... : ... .. . ...
ROW B4 : ... .. . ... : ... .. . ... : ... .. . ... : ... .. . ... : ... .. . ...
ROW B5 : ... .. . ... : ... .. . ... : ... .. . ... : ... .. . ... : ... .. . ...
ROW B6 : ... .. . ... : ... .. . ... : ... .. . ... : ... .. . ... : ... .. . ...
ROW B7 : ... .. . ... : ... .. . ... : ... .. . ... : ... .. . ... : ... .. . ...
ROW B8 : ... .. . ... : ... .. . ... : ... .. . ... : ... .. . ... : ... .. . ...
ROW B9 : ... .. . ... : ... .. . ... : ... .. . ... : ... .. . ... : ... .. . ...
ROW BA : ... .. . ... : ... .. . ... : ... .. . ... : ... .. . ... : ... .. . ...
ROW BB : ... .. . ... : ... .. . ... : ... .. . ... : ... .. . ... : ... .. . ...
ROW BC : ... .. . ... : ... .. . ... : ... .. . ... : ... .. . ... : ... .. . ...
ROW BD : ... .. . ... : ... .. . ... : ... .. . ... : ... .. . ... : ... .. . ...
ROW BE : ... .. . ... : ... .. . ... : ... .. . ... : ... .. . ... : ... .. . ...
ROW BF : ... .. . ... : ... .. . ... : ... .. . ... : ... .. . ... : ... .. . ...
PATTERN 14
ROW 00 : ... .. . ... : G-3 08 A 400 : ... .. . ... : ... .. . ... : ... .. . ...
ROW 01 : ... .. . ... : ... .. . ... : ... .. . ... : ... .. . ... : ... .. . ...
ROW 02 : ... .. . ... : ... .. . ... : ... .. . ... : ... .. . ... : ... .. . ...
ROW 03 : ... .. . ... : ... .. . ... : ... .. . ... : ... .. . ... : ... .. . ...
ROW 04 : ... .. . ... : ... .. . ... : ... .. . ... : ... .. . ... : ... .. . ...
ROW 05 : ... .. . ... : ... .. . ... : ... .. . ... : ... .. . ... : ... .. . ...
ROW 06 : ... .. . ... : ... .. . ... : ... .. . ... : ... .. . ... : ... .. . ...
ROW 07 : ... .. . ... : ... .. . ... : ... .. . ... : ... .. . ... : ... .. . ...
ROW 08 : ... .. . ... : ... .. . ... : ... .. . ... : ... .. . ... : ... .. . ...
ROW 09 : ... .. . ... : ... .. . ... : ... .. . ... : ... .. . ... : ... .. . ...
ROW 0A : ... .. . ... : ... .. . ... : ... .. . ... : ... .. . ... : ... .. . ...
ROW 0B : ... .. . ... : ... .. . ... : ... .. . ... : ... .. . ... : ... .. . ...
ROW 0C : ... .. . ... : ... .. . 452 : ... .. . ... : ... .. . ... : ... .. . ...
ROW 0D : ... .. . ... : ... .. . ... : ... .. . ... : ... .. . ... : ... .. . ...
ROW 0E : ... .. . ... : ... .. . ... : ... .. . ... : ... .. . ... : ... .. . ...
ROW 0F : ... .. . ... : ... .. . ... : ... .. . ... : ... .. . ... : ... .. . ...
ROW 10 : ... .. . ... : ... .. . ... : ... .. . ... : ... .. . ... : ... .. . ...
ROW 11 : ... .. . ... : ... .. . ... : ... .. . ... : ... .. . ... : ... .. . ...
ROW 12 : ... .. . ... : ... .. . ... : ... .. . ... : ... .. . ... : ... .. . ...
ROW 13 : ... .. . ... : ... .. . ... : ... .. . ... : ... .. . ... : ... .. . ...
ROW 14 : ... .. . ... : ... .. . ... : ... .. . ... : ... .. . ... : ... .. . ...
ROW 15 : ... .. . ... : ... .. . ... : ... .. . ... : ... .. . ... : ... .. . ...
ROW 16 : ... .. . ... : ... .. . ... : ... .. . ... : ... .. . ... : ... .. . ...
ROW 17 : ... .. . ... : ... .. . ... : ... .. . ... : ... .. . ... : ... .. . ...
ROW 18 : ... .. . ... : ... .. 8 ... : ... .. . ... : ... .. . ... : ... .. . ...
ROW 19 : ... .. . ... : ... .. . ... : ... .. . ... : ... .. . ... : ... .. . ...
ROW 1A : ... .. . ... : ... .. . ... : ... .. . ... : ... .. . ... : ... .. . ...
ROW 1B : ... .. . ... : ... .. . ... : ... .. . ... : ... .. . ... : ... .. . ...
ROW 1C : ... .. . ... : ... .. . ... : ... .. . ... : ... .. . ... : ... .. . ...
ROW 1D : ... .. . ... : ... .. . ... : ... .. . ... : ... .. . ... : ... .. . ...
ROW 1E : ... .. . ... : ... .. . ... : ... .. . ... : ... .. . ... : ... .. . ...
ROW 1F : ... .. . ... : ... .. . ... : ... .. . ... : ... .. . ... : ... .. . ...
ROW 20 : ... .. . ... : ... .. . ... : ... .. . ... : ... .. . ... : ... .. . ...
ROW 21 : ... .. . ... : ... .. . ... : ... .. . ... : ... .. . ... : ... .. . ...
ROW 22 : ... .. . ... : ... .. . ... : ... .. . ... : ... .. . ... : ... .. . ...
ROW 23 : ... .. . ... : ... .. . ... : ... .. . ... : ... .. . ... : ... .. . ...
ROW 24 : ... .. . ... : ... .. . ... : ... .. . ... : ... .. . ... : ... .. . ...
ROW 25 : ... .. . ... : ... .. . ... : ... .. . ... : ... .. . ... : ... .. . ...
ROW 26 : ... .. . ... : ... .. . ... : ... .. . ... : ... .. . ... : ... .. . ...
ROW 27 : ... .. . ... : ... .. . ... : ... .. . ... : ... .. . ... : ... .. . ...
ROW 28 : ... .. . ... : ... .. . ... : ... .. . ... : ... .. . ... : ... .. . ...
ROW 29 : ... .. . ... : ... .. . ... : ... .. . ... : ... .. . ... : ... .. . ...
ROW 2A : ... .. . ... : ... .. . ... : ... .. . ... : ... .. . ... : ... .. . ...
ROW 2B : ... .. . ... : ... .. . ... : ... .. . ... : ... .. . ... : ... .. . ...
ROW 2C : ... .. . ... : ... .. . ... : ... .. . ... : ... .. . ... : ... .. . ...
ROW 2D : ... .. . ... : ... .. . ... : ... .. . ... : ... .. . ... : ... .. . ...
ROW 2E : ... .. . ... : ... .. . ... : ... .. . ... : ... .. . ... : ... .. . ...
ROW 2F : ... .. . ... : ... .. . ... : ... .. . ... : ... .. . ... : ... .. . ...
ROW 30 : ... .. . ... : ... .. 6 ... : ... .. . ... : ... .. . ... : ... .. . ...
ROW 31 : ... .. . ... : ... .. . ... : ... .. . ... : ... .. . ... : ... .. . ...
ROW 32 : ... .. . ... : ... .. . ... : ... .. . ... : ... .. . ... : ... .. . ...
ROW 33 : ... .. . ... : ... .. . ... : ... .. . ... : ... .. . ... : ... .. . ...
ROW 34 : ... .. . ... : ... .. . ... : ... .. . ... : ... .. . ... : ... .. . ...
ROW 35 : ... .. . ... : ... .. . ... : ... .. . ... : ... .. . ... : ... .. . ...
ROW 36 : ... .. . ... : ... .. . ... : ... .. . ... : ... .. . ... : ... .. . ...
ROW 37 : ... .. . ... : ... .. . ... : ... .. . ... : ... .. . ... : ... .. . ...
ROW 38 : ... .. . ... : ... .. . ... : ... .. . ... : ... .. . ... : ... .. . ...
ROW 39 : ... .. . ... : ... .. . ... : ... .. . ... : ... .. . ... : ... .. . ...
ROW 3A : ... .. . ... : ... .. . ... : ... .. . ... : ... .. . ... : ... .. . ...
ROW 3B : ... .. . ... : ... .. . ... : ... .. . ... : ... .. . ... : ... .. . ...
ROW 3C : ... .. . ... : ... .. . ... : ... .. . ... : ... .. . ... : ... .. . ...
ROW 3D : ... .. . ... : ... .. . ... : ... .. . ... : ... .. . ... : ... .. . ...
ROW 3E : ... .. . ... : ... .. . ... : ... .. . ... : ... .. . ... : ... .. . ...
ROW 3F : ... .. . ... : ... .. . ... : ... .. . ... : ... .. . ... : ... .. . ...
ROW 40 : ... .. . ... : ... .. . ... : ... .. . ... : ... .. . ... : ... .. . ...
ROW 41 : ... .. . ... : ... .. . ... : ... .. . ... : ... .. . ... : ... .. . ...
ROW 42 : ... .. . ... : ... .. . ... : ... .. . ... : ... .. . ... : ... .. . ...
ROW 43 : ... .. . ... : ... .. . ... : ... .. . ... : ... .. . ... : ... .. . ...
ROW 44 : ... .. . ... : ... .. . ... : ... .. . ... : ... .. . ... : ... .. . ...
ROW 45 : ... .. . ... : ... .. . ... : ... .. . ... : ... .. . ... : ... .. . ...
ROW 46 : ... .. . ... : ... .. . ... : ... .. . ... : ... .. . ... : ... .. . ...
ROW 47 : ... .. . ... : ... .. . ... : ... .. . ... : ... .. . ... : ... .. . ...
ROW 48 : ... .. . ... : ... .. 4 ... : ... .. . ... : ... .. . ... : ... .. . ...
ROW 49 : ... .. . ... : ... .. . ... : ... .. . ... : ... .. . ... : ... .. . ...
ROW 4A : ... .. . ... : ... .. . ... : ... .. . ... : ... .. . ... : ... .. . ...
ROW 4B : ... .. . ... : ... .. . ... : ... .. . ... : ... .. . ... : ... .. . ...
ROW 4C : ... .. . ... : ... .. . ... : ... .. . ... : ... .. . ... : ... .. . ...
ROW 4D : ... .. . ... : ... .. . ... : ... .. . ... : ... .. . ... : ... .. . ...
ROW 4E : ... .. . ... : ... .. . ... : ... .. . ... : ... .. . ... : ... .. . ...
ROW 4F : ... .. . ... : ... .. . ... : ... .. . ... : ... .. . ... : ... .. . ...
ROW 50 : ... .. . ... : ... .. . ... : ... .. . ... : ... .. . ... : ... .. . ...
ROW 51 : ... .. . ... : ... .. . ... : ... .. . ... : ... .. . ... : ... .. . ...
ROW 52 : ... .. . ... : ... .. . ... : ... .. . ... : ... .. . ... : ... .. . ...
ROW 53 : ... .. . ... : ... .. . ... : ... .. . ... : ... .. . ... : ... .. . ...
ROW 54 : ... .. . ... : ... .. . ... : ... .. . ... : ... .. . ... : ... .. . ...
ROW 55 : ... .. . ... : ... .. . ... : ... .. . ... : ... .. . ... : ... .. . ...
ROW 56 : ... .. . ... : ... .. . ... : ... .. . ... : ... .. . ... : ... .. . ...
ROW 57 : ... .. . ... : ... .. . ... : ... .. . ... : ... .. . ... : ... .. . ...
ROW 58 : ... .. . ... : ... .. . ... : ... .. . ... : ... .. . ... : ... .. . ...
ROW 59 : ... .. . ... : ... .. . ... : ... .. . ... : ... .. . ... : ... .. . ...
ROW 5A : ... .. . ... : ... .. . ... : ... .. . ... : ... .. . ... : ... .. . ...
ROW 5B : ... .. . ... : ... .. . ... : ... .. . ... : ... .. . ... : ... .. . ...
ROW 5C : ... .. . ... : ... .. . ... : ... .. . ... : ... .. . ... : ... .. . ...
ROW 5D : ... .. . ... : ... .. . ... : ... .. . ... : ... .. . ... : ... .. . ...
ROW 5E : ... .. . ... : ... .. . ... : ... .. . ... : ... .. . ... : ... .. . ...
ROW 5F : ... .. . ... : ... .. . ... : ... .. . ... : ... .. . ... : ... .. . ...
ROW 60 : ... .. . ... : --- .. . 400 : ... .. . ... : ... .. . ... : ... .. . ...
ROW 61 : ... .. . ... : ... .. . ... : ... .. . ... : ... .. . ... : ... .. . ...
ROW 62 : ... .. . ... : ... .. . ... : ... .. . ... : ... .. . ... : ... .. . ...
ROW 63 : ... .. . ... : ... .. . ... : ... .. . ... : ... .. . ... : ... .. . ...
ROW 64 : ... .. . ... : ... .. . ... : ... .. . ... : ... .. . ... : ... .. . ...
ROW 65 : ... .. . ... : ... .. . ... : ... .. . ... : ... .. . ... : ... .. . ...
ROW 66 : ... .. . ... : ... .. . ... : ... .. . ... : ... .. . ... : ... .. . ...
ROW 67 : ... .. . ... : ... .. . ... : ... .. . ... : ... .. . ... : ... .. . ...
ROW 68 : ... .. . ... : ... .. . ... : ... .. . ... : ... .. . ... : ... .. . ...
ROW 69 : ... .. . ... : ... .. . ... : ... .. . ... : ... .. . ... : ... .. . ...
ROW 6A : ... .. . ... : ... .. . ... : ... .. . ... : ... .. . ... : ... .. . ...
ROW 6B : ... .. . ... : ... .. . ... : ... .. . ... : ... .. . ... : ... .. . ...
ROW 6C : ... .. . ... : ... .. . ... : ... .. . ... : ... .. . ... : ... .. . ...
ROW 6D : ... .. . ... : ... .. . ... : ... .. . ... : ... .. . ... : ... .. . ...
ROW 6E : ... .. . ... : ... .. . ... : ... .. . ... : ... .. . ... : ... .. . ...
ROW 6F : ... .. . ... : ... .. . ... : ... .. . ... : ... .. . ... : ... .. . ...
ROW 70 : ... .. . ... : ... .. . ... : ... .. . ... : ... .. . ... : ... .. . ...
ROW 71 : ... .. . ... : ... .. . ... : ... .. . ... : ... .. . ... : ... .. . ...
ROW 72 : ... .. . ... : ... .. . ... : ... .. . ... : ... .. . ... : ... .. . ...
ROW 73 : ... .. . ... : ... .. . ... : ... .. . ... : ... .. . ... : ... .. . ...
ROW 74 : ... .. . ... : ... .. . ... : ... .. . ... : ... .. . ... : ... .. . ...
ROW 75 : ... .. . ... : ... .. . ... : ... .. . ... : ... .. . ... : ... .. . ...
ROW 76 : ... .. . ... : ... .. . ... : ... .. . ... : ... .. . ... : ... .. . ...
ROW 77 : ... .. . ... : ... .. . ... : ... .. . ... : ... .. . ... : ... .. . ...
ROW 78 : ... .. . ... : G-5 00 3 V02 : ... .. . ... : ... .. . ... : ... .. . ...
ROW 79 : ... .. . ... : ... .. . ... : ... .. . ... : ... .. . ... : ... .. . ...
ROW 7A : ... .. . ... : ... .. . ... : ... .. . ... : ... .. . ... : ... .. . ...
ROW 7B : ... .. . ... : D-5 00 . ... : ... .. . ... : ... .. . ... : ... .. . ...
ROW 7C : ... .. . ... : ... .. . ... : ... .. . ... : ... .. . ... : ... .. . ...
ROW 7D : ... .. . ... : ... .. . ... : ... .. . ... : ... .. . ... : ... .. . ...
ROW 7E : ... .. . ... : C-5 00 . ... : ... .. . ... : ... .. . ... : ... .. . ...
ROW 7F : ... .. . ... : ... .. . ... : ... .. . ... : ... .. . ... : ... .. . ...
ROW 80 : ... .. . ... : ... .. . ... : ... .. . ... : ... .. . ... : ... .. . ...
ROW 81 : ... .. . ... : G-4 00 . ... : ... .. . ... : ... .. . ... : ... .. . ...
ROW 82 : ... .. . ... : ... .. . ... : ... .. . ... : ... .. . ... : ... .. . ...
ROW 83 : ... .. . ... : ... .. . ... : ... .. . ... : ... .. . ... : ... .. . ...
ROW 84 : ... .. . ... : F-4 00 . ... : ... .. . ... : ... .. . ... : ... .. . ...
ROW 85 : ... .. . ... : ... .. . ... : ... .. . ... : ... .. . ... : ... .. . ...
ROW 86 : ... .. . ... : ... .. . ... : ... .. . ... : ... .. . ... : ... .. . ...
ROW 87 : ... .. . ... : C-4 00 . ... : ... .. . ... : ... .. . ... : ... .. . ...
ROW 88 : ... .. . ... : ... .. . ... : ... .. . ... : ... .. . ... : ... .. . ...
ROW 89 : ... .. . ... : ... .. . ... : ... .. . ... : ... .. . ... : ... .. . ...
ROW 8A : ... .. . ... : F-3 00 . ... : ... .. . ... : ... .. . ... : ... .. . ...
ROW 8B : ... .. . ... : ... .. . ... : ... .. . ... : ... .. . ... : ... .. . ...
ROW 8C : ... .. . ... : ... .. . ... : ... .. . ... : ... .. . ... : ... .. . ...
ROW 8D : ... .. . ... : D-3 00 . ... : ... .. . ... : ... .. . ... : ... .. . ...
ROW 8E : ... .. . ... : ... .. . ... : ... .. . ... : ... .. . ... : ... .. . ...
ROW 8F : ... .. . ... : ... .. . ... : ... .. . ... : ... .. . ... : ... .. . ...
ROW 90 : ... .. . ... : C-3 00 . ... : ... .. . ... : ... .. . ... : ... .. . ...
ROW 91 : ... .. . ... : ... .. . ... : ... .. . ... : ... .. . ... : ... .. . ...
ROW 92 : ... .. . ... : ... .. . ... : ... .. . ... : ... .. . ... : ... .. . ...
ROW 93 : ... .. . ... : G-2 00 . ... : ... .. . ... : ... .. . ... : ... .. . ...
ROW 94 : ... .. . ... : ... .. . ... : ... .. . ... : ... .. . ... : ... .. . ...
ROW 95 : ... .. . ... : ... .. . ... : ... .. . ... : ... .. . ... : ... .. . ...
ROW 96 : ... .. . ... : D-2 00 . ... : ... .. . ... : ... .. . ... : ... .. . ...
ROW 97 : ... .. . ... : ... .. . ... : ... .. . ... : ... .. . ... : ... .. . ...
ROW 98 : ... .. . ... : ... .. . ... : ... .. . ... : ... .. . ... : ... .. . ...
ROW 99 : ... .. . ... : ... .. . ... : ... .. . ... : ... .. . ... : ... .. . ...
ROW 9A : ... .. . ... : ... .. . ... : ... .. . ... : ... .. . ... : ... .. . ...
ROW 9B : ... .. . ... : ... .. . ... : ... .. . ... : ... .. . ... : ... .. . ...
ROW 9C : ... .. . ... : --- .. . ... : ... .. . ... : ... .. . ... : ... .. . ...
ROW 9D : ... .. . ... : ... .. . ... : ... .. . ... : ... .. . ... : ... .. . ...
ROW 9E : ... .. . ... : ... .. . ... : ... .. . ... : ... .. . ... : ... .. . ...
ROW 9F : ... .. . ... : ... .. . ... : ... .. . ... : ... .. . ... : ... .. . ...
ROW A0 : ... .. . ... : ... .. . ... : ... .. . ... : ... .. . ... : ... .. . ...
ROW A1 : ... .. . ... : ... .. . ... : ... .. . ... : ... .. . ... : ... .. . ...
ROW A2 : ... .. . ... : ... .. . ... : ... .. . ... : ... .. . ... : ... .. . ...
ROW A3 : ... .. . ... : ... .. . ... : ... .. . ... : ... .. . ... : ... .. . ...
ROW A4 : ... .. . ... : ... .. . ... : ... .. . ... : ... .. . ... : ... .. . ...
ROW A5 : ... .. . ... : ... .. . ... : ... .. . ... : ... .. . ... : ... .. . ...
ROW A6 : ... .. . ... : ... .. . ... : ... .. . ... : ... .. . ... : ... .. . ...
ROW A7 : ... .. . ... : ... .. . ... : ... .. . ... : ... .. . ... : ... .. . ...
ROW A8 : ... .. . ... : ... .. . ... : ... .. . ... : ... .. . ... : ... .. . ...
ROW A9 : ... .. . ... : ... .. . ... : ... .. . ... : ... .. . ... : ... .. . ...
ROW AA : ... .. . ... : ... .. . ... : ... .. . ... : ... .. . ... : ... .. . ...
ROW AB : ... .. . ... : ... .. . ... : ... .. . ... : ... .. . ... : ... .. . ...
ROW AC : ... .. . ... : ... .. . ... : ... .. . ... : ... .. . ... : ... .. . ...
ROW AD : ... .. . ... : ... .. . ... : ... .. . ... : ... .. . ... : ... .. . ...
ROW AE : ... .. . ... : ... .. . ... : ... .. . ... : ... .. . ... : ... .. . ...
ROW AF : ... .. . ... : ... .. . ... : ... .. . ... : ... .. . ... : ... .. . ...
ROW B0 : ... .. . ... : ... .. . ... : ... .. . ... : ... .. . ... : ... .. . ...
ROW B1 : ... .. . ... : ... .. . ... : ... .. . ... : ... .. . ... : ... .. . ...
ROW B2 : ... .. . ... : ... .. . ... : ... .. . ... : ... .. . ... : ... .. . ...
ROW B3 : ... .. . ... : ... .. . ... : ... .. . ... : ... .. . ... : ... .. . ...
ROW B4 : ... .. . ... : ... .. . ... : ... .. . ... : ... .. . ... : ... .. . ...
ROW B5 : ... .. . ... : ... .. . ... : ... .. . ... : ... .. . ... : ... .. . ...
ROW B6 : ... .. . ... : ... .. . ... : ... .. . ... : ... .. . ... : ... .. . ...
ROW B7 : ... .. . ... : ... .. . ... : ... .. . ... : ... .. . ... : ... .. . ...
ROW B8 : ... .. . ... : ... .. . ... : ... .. . ... : ... .. . ... : ... .. . ...
ROW B9 : ... .. . ... : ... .. . ... : ... .. . ... : ... .. . ... : ... .. . ...
ROW BA : ... .. . ... : ... .. . ... : ... .. . ... : ... .. . ... : ... .. . ...
ROW BB : ... .. . ... : ... .. . ... : ... .. . ... : ... .. . ... : ... .. . ...
ROW BC : ... .. . ... : ... .. . ... : ... .. . ... : ... .. . ... : ... .. . ...
ROW BD : ... .. . ... : ... .. . ... : ... .. . ... : ... .. . ... : ... .. . ...
ROW BE : ... .. . ... : ... .. . ... : ... .. . ... : ... .. . ... : ... .. . ...
ROW BF : ... .. . ... : ... .. . ... : ... .. . ... : ... .. . ... : ... .. . ...

# track BOOKMARKS block

# JSON block

# PARAMS_EMU block

# End of export
